<svg width="1261" height="267" viewBox="0 0 1261 267" fill="none" xmlns="http://www.w3.org/2000/svg">
<path d="M249.679 78.4361C243.578 78.7177 238.05 81.0342 233.974 85.0234C229.68 89.2272 227.34 94.8021 227.065 101.5C227.045 102.043 227.031 124.731 227.031 168.854V235.391H242.921H258.811L258.818 178.516L258.828 121.637L289.129 173.93C305.797 202.693 319.561 226.434 319.716 226.692C322.659 231.563 327.014 235.015 332.488 236.812C335.361 237.754 338.297 238.237 341.801 238.338C344.677 238.421 347.171 238.13 349.662 237.419C357.302 235.233 362.99 229.568 365.159 221.995C365.632 220.346 365.91 218.794 366.108 216.735C366.162 216.169 366.165 212.19 366.175 148.875L366.185 81.6208H350.429H334.674V138.164C334.674 172.465 334.66 194.694 334.643 194.674C334.627 194.657 320.892 171.124 304.121 142.375C286.501 112.167 273.454 89.8373 273.212 89.4686C271.59 86.9979 269.753 85.0201 267.544 83.364C263.632 80.4274 258.731 78.7881 252.911 78.473C251.976 78.4227 250.393 78.406 249.679 78.4361Z" fill="#FF5722"/>
<path d="M0 160.402V238.107H16.6118H33.2269L33.2472 234.56C33.2608 232.605 33.3082 222.211 33.3557 211.46C33.4031 200.706 33.4505 191.128 33.4607 190.173L33.481 188.431L40.9754 188.448C48.4495 188.465 48.846 188.469 50.4993 188.591C56.8723 189.058 61.8596 190.752 65.9591 193.849C67.0162 194.645 67.6633 195.214 68.7103 196.261C71.5258 199.08 73.911 202.529 76.7942 207.964C77.0822 208.509 80.599 215.512 84.6105 223.528L91.9017 238.107H110.136H128.371L128.225 237.792C127.646 236.562 112.867 206.381 112.156 204.972C109.482 199.693 107.904 196.712 106.206 193.74C101.659 185.782 97.6512 180.788 93.0028 177.295C92.0203 176.556 90.7192 175.699 89.8417 175.211C89.7164 175.14 89.6181 175.072 89.6283 175.062C89.6384 175.055 90.0315 174.937 90.5024 174.801C96.8652 172.968 102.53 169.953 107.267 165.877C108.723 164.623 110.323 163.024 111.573 161.571C117.58 154.574 121.076 145.758 121.785 135.804C121.947 133.477 121.947 130.692 121.781 128.215C121.673 126.589 121.463 124.756 121.215 123.268L121.073 122.421L108.31 122.411L95.5439 122.404V106.165V89.9227L95.3507 89.838C95.2423 89.7872 94.8391 89.6043 94.4529 89.4247C87.7513 86.328 79.647 84.2104 70.9295 83.2719C68.6866 83.0314 67.3042 82.9297 63.95 82.7569C63.3639 82.7264 55.3612 82.7129 31.5871 82.7061L0 82.6959V160.402ZM62.2899 113.9C70.1434 114.232 76.3165 116.258 80.6702 119.931C81.2292 120.405 82.2321 121.398 82.703 121.947C85.7388 125.494 87.2769 130.068 87.2769 135.55C87.2769 138.684 86.7484 141.55 85.6812 144.227C85.1899 145.457 84.3395 147.039 83.5839 148.127C79.6843 153.737 72.8878 157.291 64.3227 158.199C62.2797 158.413 63.4926 158.399 47.7821 158.409L33.4742 158.42V158.142C33.4675 156.909 33.6843 114.483 33.6978 114.212L33.7182 113.866H47.5958C56.3878 113.866 61.7749 113.88 62.2899 113.9Z" fill="#FF5722"/>
<path d="M104.082 98.2811V113.866H126.952H149.821V175.987V238.107H166.677H183.533V175.987V113.866H201.029H218.528L218.542 106.69C218.555 99.2976 218.559 99.2467 218.701 97.6374C219.101 93.2329 220.249 89.1468 222.146 85.3996C222.584 84.5323 223.204 83.4447 223.641 82.7705L223.688 82.6959H163.885H104.082V98.2811Z" fill="#FF5722"/>
<path d="M615.982 239.031V87.3421H653.904V103.857H659.409C662.06 98.7596 666.443 94.3761 672.56 90.7062C678.676 86.8324 686.729 84.8955 696.72 84.8955C707.526 84.8955 716.191 87.0363 722.715 91.3179C729.239 95.3955 734.234 100.798 737.7 107.527H743.205C746.671 101.002 751.564 95.5994 757.885 91.3179C764.205 87.0363 773.176 84.8955 784.797 84.8955C794.176 84.8955 802.637 86.9344 810.181 91.012C817.928 94.8858 824.045 100.9 828.53 109.056C833.22 117.007 835.564 127.099 835.564 139.332V239.031H797.03V142.085C797.03 133.726 794.889 127.507 790.608 123.429C786.326 119.148 780.312 117.007 772.564 117.007C763.797 117.007 756.967 119.862 752.074 125.57C747.385 131.075 745.04 139.027 745.04 149.425V239.031H706.506V142.085C706.506 133.726 704.365 127.507 700.084 123.429C695.802 119.148 689.788 117.007 682.04 117.007C673.273 117.007 666.443 119.862 661.55 125.57C656.861 131.075 654.516 139.027 654.516 149.425V239.031H615.982ZM909.113 243.313C898.307 243.313 888.622 241.478 880.059 237.808C871.496 233.934 864.666 228.429 859.569 221.293C854.676 213.954 852.229 205.085 852.229 194.687C852.229 184.289 854.676 175.624 859.569 168.692C864.666 161.556 871.598 156.255 880.365 152.789C889.336 149.119 899.53 147.284 910.948 147.284H952.54V138.721C952.54 131.585 950.297 125.774 945.812 121.289C941.326 116.599 934.19 114.255 924.404 114.255C914.821 114.255 907.685 116.497 902.996 120.983C898.307 125.264 895.249 130.871 893.821 137.803L858.346 125.876C860.792 118.129 864.666 111.095 869.967 104.774C875.472 98.2499 882.71 93.0509 891.681 89.1771C900.855 85.0994 911.967 83.0606 925.016 83.0606C944.996 83.0606 960.797 88.0557 972.418 98.046C984.04 108.036 989.85 122.512 989.85 141.473V198.051C989.85 204.167 992.705 207.225 998.413 207.225H1010.65V239.031H984.957C977.414 239.031 971.195 237.196 966.302 233.526C961.409 229.857 958.962 224.963 958.962 218.847V218.541H953.151C952.336 220.988 950.501 224.25 947.647 228.327C944.792 232.201 940.307 235.667 934.19 238.725C928.074 241.784 919.715 243.313 909.113 243.313ZM915.841 212.119C926.647 212.119 935.414 209.162 942.142 203.25C949.074 197.133 952.54 189.08 952.54 179.09V176.031H913.7C906.564 176.031 900.957 177.56 896.88 180.619C892.802 183.677 890.763 187.959 890.763 193.463C890.763 198.968 892.904 203.454 897.185 206.92C901.467 210.386 907.685 212.119 915.841 212.119ZM1023.53 239.031V87.3421H1061.45V104.468H1066.96C1069.2 98.3518 1072.87 93.8664 1077.97 91.012C1083.27 88.1577 1089.38 86.7305 1096.32 86.7305H1114.67V120.983H1095.7C1085.92 120.983 1077.86 123.633 1071.54 128.934C1065.22 134.031 1062.06 141.983 1062.06 152.789V239.031H1023.53ZM1199.83 239.031C1189.84 239.031 1181.69 235.973 1175.37 229.857C1169.25 223.536 1166.19 215.177 1166.19 204.779V119.148H1128.27V87.3421H1166.19V40.2451H1204.73V87.3421H1246.32V119.148H1204.73V198.051C1204.73 204.167 1207.58 207.225 1213.29 207.225H1242.65V239.031H1199.83Z" fill="#FF5722"/>
<path d="M457.047 61.0355C457.047 31.8937 480.671 8.26953 509.813 8.26953L606.336 8.26953V61.0355H457.047V61.0355Z" fill="#FF5722"/>
<path d="M412.648 185.875H565.155V185.875C565.155 215.017 541.531 238.641 512.389 238.641H412.648V185.875Z" fill="#FF5722"/>
<path d="M457.047 113.783L498.506 99.7892C526.117 90.4693 556.056 105.297 565.376 132.909V132.909L523.917 146.903C496.305 156.223 466.367 141.395 457.047 113.783V113.783Z" fill="#FF5722"/>
<path d="M565.16 133.105H567.734C582.305 133.105 594.117 144.918 594.117 159.488V159.488C594.117 174.059 582.305 185.871 567.734 185.871H565.16V133.105Z" fill="#FF5722"/>
<path d="M428.098 86.7197C428.098 72.5356 439.596 61.0371 453.78 61.0371H457.055V113.803H455.181C440.223 113.803 428.098 101.677 428.098 86.7197V86.7197Z" fill="#FF5722"/>
</svg>
