<svg width="195" height="231" viewBox="0 0 195 231" fill="none" xmlns="http://www.w3.org/2000/svg">
<path d="M45.0469 53.0355C45.0469 23.8937 68.671 0.269531 97.8129 0.269531L194.336 0.269531V53.0355H45.0469V53.0355Z" fill="#FF5722"/>
<path d="M0.648438 177.875H153.155V177.875C153.155 207.017 129.531 230.641 100.389 230.641H0.648438L0.648438 177.875Z" fill="#FF5722"/>
<path d="M45.0469 105.783L86.5058 91.7892C114.117 82.4693 144.056 97.2975 153.376 124.909V124.909L111.917 138.903C84.3055 148.223 54.3668 133.395 45.0469 105.783V105.783Z" fill="#FF5722"/>
<path d="M153.16 125.105H155.734C170.305 125.105 182.117 136.918 182.117 151.488V151.488C182.117 166.059 170.305 177.871 155.734 177.871H153.16V125.105Z" fill="#FF5722"/>
<path d="M16.0977 78.7197C16.0977 64.5356 27.5961 53.0371 41.7802 53.0371H45.0546V105.803H43.1811C28.2233 105.803 16.0977 93.6774 16.0977 78.7197V78.7197Z" fill="#FF5722"/>
</svg>
