<?xml version="1.0" encoding="utf-8"?>
<!-- Generator: Adobe Illustrator 27.5.0, SVG Export Plug-In . SVG Version: 6.00 Build 0)  -->
<svg version="1.1" id="OBJECTS" xmlns="http://www.w3.org/2000/svg" xmlns:xlink="http://www.w3.org/1999/xlink" x="0px" y="0px"
	 viewBox="0 0 595.276 419.528" style="enable-background:new 0 0 595.276 419.528;" xml:space="preserve">
<g>
	<defs>
		<rect id="SVGID_1_" x="-10" y="-10.155" width="614.149" height="439.798"/>
	</defs>
	<clipPath id="SVGID_00000075867297077125569940000009009307284224793258_">
		<use xlink:href="#SVGID_1_"  style="overflow:visible;"/>
	</clipPath>
	
		<rect x="-10" y="-10.155" style="clip-path:url(#SVGID_00000075867297077125569940000009009307284224793258_);fill:#FFFFFF;" width="614.149" height="439.798"/>
	
		<rect x="13.543" y="13.69" style="clip-path:url(#SVGID_00000075867297077125569940000009009307284224793258_);fill:#423AA7;" width="568.043" height="392.148"/>
	<g style="clip-path:url(#SVGID_00000075867297077125569940000009009307284224793258_);">
		
			<text transform="matrix(1 0 0 1 83.5651 132.4143)" style="fill:#FFFFFF; font-family:'Poppins-ExtraBold'; font-size:45.4028px; letter-spacing:6;">LOYALTY CARD</text>
	</g>
	<g style="clip-path:url(#SVGID_00000075867297077125569940000009009307284224793258_);">
		
			<text transform="matrix(1 0 0 1 82.6833 187.8044)" style="fill:#FFFFFF; font-family:'Montserrat-SemiBold'; font-size:14.5522px; letter-spacing:2;">Buy 9 products and get you 10th one free!</text>
	</g>
	
		<line style="clip-path:url(#SVGID_00000075867297077125569940000009009307284224793258_);fill:none;stroke:#FFFFFF;stroke-width:4.8148;stroke-miterlimit:10;" x1="72.523" y1="77.112" x2="522.753" y2="77.112"/>
	
		<line style="clip-path:url(#SVGID_00000075867297077125569940000009009307284224793258_);fill:none;stroke:#FFFFFF;stroke-width:4.8148;stroke-miterlimit:10;" x1="72.523" y1="150.911" x2="522.753" y2="150.911"/>
	
		<rect x="175.807" y="7.312" style="clip-path:url(#SVGID_00000075867297077125569940000009009307284224793258_);fill:#FFFFFF;" width="243.662" height="42.121"/>
	<g style="clip-path:url(#SVGID_00000075867297077125569940000009009307284224793258_);">
		<text transform="matrix(1 0 0 1 229.7614 31.7531)"><tspan x="0" y="0" style="fill:#423AA7; font-family:'Montserrat-Medium'; font-size:16.1651px; letter-spacing:3;">PUPPY</tspan><tspan x="74.423" y="0" style="fill:#423AA7; font-family:'Montserrat-Bold'; font-size:16.1651px; letter-spacing:3;">SHOP</tspan></text>
	</g>
	<path style="clip-path:url(#SVGID_00000075867297077125569940000009009307284224793258_);fill:#FFFFFF;" d="M107.325,216.99
		c-19.22,0-34.802,15.581-34.802,34.802s15.581,34.802,34.802,34.802s34.802-15.581,34.802-34.802S126.545,216.99,107.325,216.99z
		 M107.325,279.992c-15.574,0-28.2-12.625-28.2-28.2c0-15.574,12.626-28.2,28.2-28.2s28.2,12.626,28.2,28.2
		C135.524,267.366,122.899,279.992,107.325,279.992z"/>
	<g style="opacity:0.1;clip-path:url(#SVGID_00000075867297077125569940000009009307284224793258_);">
		<path style="fill-rule:evenodd;clip-rule:evenodd;fill:#FFFFFF;" d="M96.275,260.9c0.031-5.036,4.12-10.726,8.963-12.298
			c0.972-0.318,2.114-0.42,3.129-0.274c5.458,0.781,10.87,8.286,10.154,13.722c-0.38,2.843-2.16,2.96-4.17,2.226
			c-4.568-1.667-8.976-1.713-13.583-0.028C97.501,265.44,96.257,264.308,96.275,260.9"/>
		<path style="fill-rule:evenodd;clip-rule:evenodd;fill:#FFFFFF;" d="M97.659,240.004c0.009-2.615,1.466-4.396,3.532-4.319
			c2.368,0.085,4.598,3.035,4.595,6.08c0.003,2.557-1.509,4.387-3.568,4.311C99.807,245.991,97.651,243.116,97.659,240.004"/>
		<path style="fill-rule:evenodd;clip-rule:evenodd;fill:#FFFFFF;" d="M116.87,240.035c0.03,3.139-2.201,6.104-4.643,5.989
			c-2.665-0.127-3.297-2.078-3.416-4.213c-0.171-3.111,2.046-6.078,4.464-6.165C115.337,235.57,116.845,237.414,116.87,240.035"/>
		<path style="fill-rule:evenodd;clip-rule:evenodd;fill:#FFFFFF;" d="M98.163,250.917c-0.642,0.467-1.707,1.824-2.956,2.01
			c-2.412,0.356-4.717-2.615-4.658-5.466c0.037-1.841,0.701-3.172,2.834-3.156C95.725,244.326,98.218,247.271,98.163,250.917"/>
		<path style="fill-rule:evenodd;clip-rule:evenodd;fill:#FFFFFF;" d="M116.445,250.656c0.065-3.7,2.622-6.549,4.954-6.44
			c2.148,0.102,2.695,1.533,2.702,3.335c0.014,2.847-2.446,5.816-4.791,5.316C118.059,252.597,117.063,251.159,116.445,250.656"/>
	</g>
	<path style="clip-path:url(#SVGID_00000075867297077125569940000009009307284224793258_);fill:#FFFFFF;" d="M203.343,216.99
		c-19.22,0-34.802,15.581-34.802,34.802s15.581,34.802,34.802,34.802s34.802-15.581,34.802-34.802S222.563,216.99,203.343,216.99z
		 M203.343,279.992c-15.574,0-28.2-12.625-28.2-28.2c0-15.574,12.626-28.2,28.2-28.2s28.2,12.626,28.2,28.2
		C231.543,267.366,218.917,279.992,203.343,279.992z"/>
	<g style="opacity:0.1;clip-path:url(#SVGID_00000075867297077125569940000009009307284224793258_);">
		<path style="fill-rule:evenodd;clip-rule:evenodd;fill:#FFFFFF;" d="M192.293,260.9c0.031-5.036,4.12-10.726,8.963-12.298
			c0.972-0.318,2.115-0.42,3.129-0.274c5.458,0.781,10.87,8.286,10.154,13.722c-0.38,2.843-2.16,2.96-4.17,2.226
			c-4.568-1.667-8.976-1.713-13.583-0.028C193.519,265.44,192.276,264.308,192.293,260.9"/>
		<path style="fill-rule:evenodd;clip-rule:evenodd;fill:#FFFFFF;" d="M193.677,240.004c0.009-2.615,1.466-4.396,3.532-4.319
			c2.368,0.085,4.598,3.035,4.595,6.08c0.003,2.557-1.509,4.387-3.568,4.311C195.826,245.991,193.669,243.116,193.677,240.004"/>
		<path style="fill-rule:evenodd;clip-rule:evenodd;fill:#FFFFFF;" d="M212.888,240.035c0.03,3.139-2.201,6.104-4.643,5.989
			c-2.665-0.127-3.298-2.078-3.416-4.213c-0.171-3.111,2.046-6.078,4.464-6.165C211.356,235.57,212.863,237.414,212.888,240.035"/>
		<path style="fill-rule:evenodd;clip-rule:evenodd;fill:#FFFFFF;" d="M194.182,250.917c-0.641,0.467-1.707,1.824-2.956,2.01
			c-2.412,0.356-4.717-2.615-4.658-5.466c0.037-1.841,0.701-3.172,2.834-3.156C191.744,244.326,194.237,247.271,194.182,250.917"/>
		<path style="fill-rule:evenodd;clip-rule:evenodd;fill:#FFFFFF;" d="M212.464,250.656c0.065-3.7,2.622-6.549,4.954-6.44
			c2.148,0.102,2.695,1.533,2.702,3.335c0.014,2.847-2.446,5.816-4.791,5.316C214.078,252.597,213.082,251.159,212.464,250.656"/>
	</g>
	<path style="clip-path:url(#SVGID_00000075867297077125569940000009009307284224793258_);fill:#FFFFFF;" d="M299.361,216.99
		c-19.22,0-34.802,15.581-34.802,34.802s15.581,34.802,34.802,34.802c19.22,0,34.802-15.581,34.802-34.802
		S318.582,216.99,299.361,216.99z M299.361,279.992c-15.574,0-28.2-12.625-28.2-28.2c0-15.574,12.626-28.2,28.2-28.2
		c15.574,0,28.2,12.626,28.2,28.2C327.561,267.366,314.936,279.992,299.361,279.992z"/>
	<g style="opacity:0.1;clip-path:url(#SVGID_00000075867297077125569940000009009307284224793258_);">
		<path style="fill-rule:evenodd;clip-rule:evenodd;fill:#FFFFFF;" d="M288.312,260.9c0.031-5.036,4.12-10.726,8.963-12.298
			c0.972-0.318,2.114-0.42,3.129-0.274c5.458,0.781,10.87,8.286,10.154,13.722c-0.38,2.843-2.16,2.96-4.17,2.226
			c-4.568-1.667-8.976-1.713-13.583-0.028C289.538,265.44,288.294,264.308,288.312,260.9"/>
		<path style="fill-rule:evenodd;clip-rule:evenodd;fill:#FFFFFF;" d="M289.696,240.004c0.009-2.615,1.466-4.396,3.532-4.319
			c2.368,0.085,4.598,3.035,4.595,6.08c0.003,2.557-1.509,4.387-3.568,4.311C291.844,245.991,289.688,243.116,289.696,240.004"/>
		<path style="fill-rule:evenodd;clip-rule:evenodd;fill:#FFFFFF;" d="M308.907,240.035c0.03,3.139-2.201,6.104-4.643,5.989
			c-2.665-0.127-3.297-2.078-3.416-4.213c-0.171-3.111,2.046-6.078,4.464-6.165C307.374,235.57,308.882,237.414,308.907,240.035"/>
		<path style="fill-rule:evenodd;clip-rule:evenodd;fill:#FFFFFF;" d="M290.2,250.917c-0.641,0.467-1.707,1.824-2.956,2.01
			c-2.412,0.356-4.717-2.615-4.658-5.466c0.036-1.841,0.701-3.172,2.834-3.156C287.762,244.326,290.255,247.271,290.2,250.917"/>
		<path style="fill-rule:evenodd;clip-rule:evenodd;fill:#FFFFFF;" d="M308.482,250.656c0.065-3.7,2.622-6.549,4.954-6.44
			c2.148,0.102,2.695,1.533,2.702,3.335c0.014,2.847-2.446,5.816-4.791,5.316C310.096,252.597,309.1,251.159,308.482,250.656"/>
	</g>
	<path style="clip-path:url(#SVGID_00000075867297077125569940000009009307284224793258_);fill:#FFFFFF;" d="M395.38,216.99
		c-19.22,0-34.802,15.581-34.802,34.802s15.581,34.802,34.802,34.802s34.802-15.581,34.802-34.802S414.6,216.99,395.38,216.99z
		 M395.38,279.992c-15.574,0-28.2-12.625-28.2-28.2c0-15.574,12.626-28.2,28.2-28.2s28.2,12.626,28.2,28.2
		C423.58,267.366,410.954,279.992,395.38,279.992z"/>
	<g style="opacity:0.1;clip-path:url(#SVGID_00000075867297077125569940000009009307284224793258_);">
		<path style="fill-rule:evenodd;clip-rule:evenodd;fill:#FFFFFF;" d="M384.33,260.9c0.031-5.036,4.12-10.726,8.963-12.298
			c0.972-0.318,2.114-0.42,3.129-0.274c5.458,0.781,10.87,8.286,10.154,13.722c-0.38,2.843-2.16,2.96-4.17,2.226
			c-4.568-1.667-8.976-1.713-13.583-0.028C385.556,265.44,384.313,264.308,384.33,260.9"/>
		<path style="fill-rule:evenodd;clip-rule:evenodd;fill:#FFFFFF;" d="M385.714,240.004c0.009-2.615,1.466-4.396,3.532-4.319
			c2.368,0.085,4.598,3.035,4.595,6.08c0.003,2.557-1.509,4.387-3.568,4.311C387.862,245.991,385.706,243.116,385.714,240.004"/>
		<path style="fill-rule:evenodd;clip-rule:evenodd;fill:#FFFFFF;" d="M404.925,240.035c0.03,3.139-2.201,6.104-4.643,5.989
			c-2.665-0.127-3.298-2.078-3.416-4.213c-0.171-3.111,2.046-6.078,4.464-6.165C403.393,235.57,404.9,237.414,404.925,240.035"/>
		<path style="fill-rule:evenodd;clip-rule:evenodd;fill:#FFFFFF;" d="M386.219,250.917c-0.641,0.467-1.707,1.824-2.956,2.01
			c-2.412,0.356-4.717-2.615-4.658-5.466c0.036-1.841,0.701-3.172,2.834-3.156C383.781,244.326,386.274,247.271,386.219,250.917"/>
		<path style="fill-rule:evenodd;clip-rule:evenodd;fill:#FFFFFF;" d="M404.5,250.656c0.065-3.7,2.622-6.549,4.954-6.44
			c2.148,0.102,2.695,1.533,2.702,3.335c0.014,2.847-2.446,5.816-4.791,5.316C406.115,252.597,405.119,251.159,404.5,250.656"/>
	</g>
	<path style="clip-path:url(#SVGID_00000075867297077125569940000009009307284224793258_);fill:#FFFFFF;" d="M491.398,216.99
		c-19.22,0-34.802,15.581-34.802,34.802s15.581,34.802,34.802,34.802s34.802-15.581,34.802-34.802S510.619,216.99,491.398,216.99z
		 M491.398,279.992c-15.574,0-28.2-12.625-28.2-28.2c0-15.574,12.625-28.2,28.2-28.2s28.2,12.626,28.2,28.2
		C519.598,267.366,506.973,279.992,491.398,279.992z"/>
	<g style="opacity:0.1;clip-path:url(#SVGID_00000075867297077125569940000009009307284224793258_);">
		<path style="fill-rule:evenodd;clip-rule:evenodd;fill:#FFFFFF;" d="M480.349,260.9c0.031-5.036,4.12-10.726,8.963-12.298
			c0.972-0.318,2.114-0.42,3.129-0.274c5.458,0.781,10.87,8.286,10.154,13.722c-0.38,2.843-2.16,2.96-4.17,2.226
			c-4.568-1.667-8.976-1.713-13.583-0.028C481.574,265.44,480.331,264.308,480.349,260.9"/>
		<path style="fill-rule:evenodd;clip-rule:evenodd;fill:#FFFFFF;" d="M481.733,240.004c0.009-2.615,1.466-4.396,3.532-4.319
			c2.368,0.085,4.598,3.035,4.595,6.08c0.003,2.557-1.509,4.387-3.568,4.311C483.881,245.991,481.725,243.116,481.733,240.004"/>
		<path style="fill-rule:evenodd;clip-rule:evenodd;fill:#FFFFFF;" d="M500.944,240.035c0.03,3.139-2.201,6.104-4.643,5.989
			c-2.665-0.127-3.297-2.078-3.416-4.213c-0.171-3.111,2.046-6.078,4.464-6.165C499.411,235.57,500.919,237.414,500.944,240.035"/>
		<path style="fill-rule:evenodd;clip-rule:evenodd;fill:#FFFFFF;" d="M482.237,250.917c-0.641,0.467-1.707,1.824-2.956,2.01
			c-2.412,0.356-4.717-2.615-4.658-5.466c0.036-1.841,0.701-3.172,2.833-3.156C479.799,244.326,482.292,247.271,482.237,250.917"/>
		<path style="fill-rule:evenodd;clip-rule:evenodd;fill:#FFFFFF;" d="M500.519,250.656c0.065-3.7,2.622-6.549,4.954-6.44
			c2.148,0.102,2.695,1.533,2.702,3.335c0.014,2.847-2.446,5.816-4.791,5.316C502.133,252.597,501.137,251.159,500.519,250.656"/>
	</g>
	<path style="clip-path:url(#SVGID_00000075867297077125569940000009009307284224793258_);fill:#FFFFFF;" d="M107.325,308.22
		c-19.22,0-34.802,15.581-34.802,34.802s15.581,34.802,34.802,34.802s34.802-15.581,34.802-34.802S126.545,308.22,107.325,308.22z
		 M107.325,371.222c-15.574,0-28.2-12.625-28.2-28.2s12.626-28.2,28.2-28.2s28.2,12.626,28.2,28.2S122.899,371.222,107.325,371.222z
		"/>
	<g style="opacity:0.1;clip-path:url(#SVGID_00000075867297077125569940000009009307284224793258_);">
		<path style="fill-rule:evenodd;clip-rule:evenodd;fill:#FFFFFF;" d="M96.275,352.13c0.031-5.036,4.12-10.726,8.963-12.298
			c0.972-0.318,2.114-0.42,3.129-0.274c5.458,0.782,10.87,8.286,10.154,13.722c-0.38,2.843-2.16,2.96-4.17,2.226
			c-4.568-1.667-8.976-1.713-13.583-0.028C97.501,356.669,96.257,355.538,96.275,352.13"/>
		<path style="fill-rule:evenodd;clip-rule:evenodd;fill:#FFFFFF;" d="M97.659,331.234c0.009-2.615,1.466-4.396,3.532-4.319
			c2.368,0.085,4.598,3.035,4.595,6.08c0.003,2.557-1.509,4.387-3.568,4.311C99.807,337.221,97.651,334.346,97.659,331.234"/>
		<path style="fill-rule:evenodd;clip-rule:evenodd;fill:#FFFFFF;" d="M116.87,331.264c0.03,3.139-2.201,6.104-4.643,5.99
			c-2.665-0.127-3.297-2.078-3.416-4.213c-0.171-3.111,2.046-6.077,4.464-6.165C115.337,326.8,116.845,328.644,116.87,331.264"/>
		<path style="fill-rule:evenodd;clip-rule:evenodd;fill:#FFFFFF;" d="M98.163,342.146c-0.642,0.467-1.707,1.824-2.956,2.01
			c-2.412,0.355-4.717-2.616-4.658-5.466c0.037-1.841,0.701-3.172,2.834-3.156C95.725,335.556,98.218,338.5,98.163,342.146"/>
		<path style="fill-rule:evenodd;clip-rule:evenodd;fill:#FFFFFF;" d="M116.445,341.886c0.065-3.7,2.622-6.549,4.954-6.44
			c2.148,0.101,2.695,1.533,2.702,3.335c0.014,2.847-2.446,5.816-4.791,5.316C118.059,343.827,117.063,342.389,116.445,341.886"/>
	</g>
	<path style="clip-path:url(#SVGID_00000075867297077125569940000009009307284224793258_);fill:#FFFFFF;" d="M203.343,308.22
		c-19.22,0-34.802,15.581-34.802,34.802s15.581,34.802,34.802,34.802s34.802-15.581,34.802-34.802S222.563,308.22,203.343,308.22z
		 M203.343,371.222c-15.574,0-28.2-12.625-28.2-28.2s12.626-28.2,28.2-28.2s28.2,12.626,28.2,28.2S218.917,371.222,203.343,371.222z
		"/>
	<g style="opacity:0.1;clip-path:url(#SVGID_00000075867297077125569940000009009307284224793258_);">
		<path style="fill-rule:evenodd;clip-rule:evenodd;fill:#FFFFFF;" d="M192.293,352.13c0.031-5.036,4.12-10.726,8.963-12.298
			c0.972-0.318,2.115-0.42,3.129-0.274c5.458,0.782,10.87,8.286,10.154,13.722c-0.38,2.843-2.16,2.96-4.17,2.226
			c-4.568-1.667-8.976-1.713-13.583-0.028C193.519,356.669,192.276,355.538,192.293,352.13"/>
		<path style="fill-rule:evenodd;clip-rule:evenodd;fill:#FFFFFF;" d="M193.677,331.234c0.009-2.615,1.466-4.396,3.532-4.319
			c2.368,0.085,4.598,3.035,4.595,6.08c0.003,2.557-1.509,4.387-3.568,4.311C195.826,337.221,193.669,334.346,193.677,331.234"/>
		<path style="fill-rule:evenodd;clip-rule:evenodd;fill:#FFFFFF;" d="M212.888,331.264c0.03,3.139-2.201,6.104-4.643,5.99
			c-2.665-0.127-3.298-2.078-3.416-4.213c-0.171-3.111,2.046-6.077,4.464-6.165C211.356,326.8,212.863,328.644,212.888,331.264"/>
		<path style="fill-rule:evenodd;clip-rule:evenodd;fill:#FFFFFF;" d="M194.182,342.146c-0.641,0.467-1.707,1.824-2.956,2.01
			c-2.412,0.355-4.717-2.616-4.658-5.466c0.037-1.841,0.701-3.172,2.834-3.156C191.744,335.556,194.237,338.5,194.182,342.146"/>
		<path style="fill-rule:evenodd;clip-rule:evenodd;fill:#FFFFFF;" d="M212.464,341.886c0.065-3.7,2.622-6.549,4.954-6.44
			c2.148,0.101,2.695,1.533,2.702,3.335c0.014,2.847-2.446,5.816-4.791,5.316C214.078,343.827,213.082,342.389,212.464,341.886"/>
	</g>
	<path style="clip-path:url(#SVGID_00000075867297077125569940000009009307284224793258_);fill:#FFFFFF;" d="M299.361,308.22
		c-19.22,0-34.802,15.581-34.802,34.802s15.581,34.802,34.802,34.802c19.22,0,34.802-15.581,34.802-34.802
		S318.582,308.22,299.361,308.22z M299.361,371.222c-15.574,0-28.2-12.625-28.2-28.2s12.626-28.2,28.2-28.2
		c15.574,0,28.2,12.626,28.2,28.2S314.936,371.222,299.361,371.222z"/>
	<g style="opacity:0.1;clip-path:url(#SVGID_00000075867297077125569940000009009307284224793258_);">
		<path style="fill-rule:evenodd;clip-rule:evenodd;fill:#FFFFFF;" d="M288.312,352.13c0.031-5.036,4.12-10.726,8.963-12.298
			c0.972-0.318,2.114-0.42,3.129-0.274c5.458,0.782,10.87,8.286,10.154,13.722c-0.38,2.843-2.16,2.96-4.17,2.226
			c-4.568-1.667-8.976-1.713-13.583-0.028C289.538,356.669,288.294,355.538,288.312,352.13"/>
		<path style="fill-rule:evenodd;clip-rule:evenodd;fill:#FFFFFF;" d="M289.696,331.234c0.009-2.615,1.466-4.396,3.532-4.319
			c2.368,0.085,4.598,3.035,4.595,6.08c0.003,2.557-1.509,4.387-3.568,4.311C291.844,337.221,289.688,334.346,289.696,331.234"/>
		<path style="fill-rule:evenodd;clip-rule:evenodd;fill:#FFFFFF;" d="M308.907,331.264c0.03,3.139-2.201,6.104-4.643,5.99
			c-2.665-0.127-3.297-2.078-3.416-4.213c-0.171-3.111,2.046-6.077,4.464-6.165C307.374,326.8,308.882,328.644,308.907,331.264"/>
		<path style="fill-rule:evenodd;clip-rule:evenodd;fill:#FFFFFF;" d="M290.2,342.146c-0.641,0.467-1.707,1.824-2.956,2.01
			c-2.412,0.355-4.717-2.616-4.658-5.466c0.036-1.841,0.701-3.172,2.834-3.156C287.762,335.556,290.255,338.5,290.2,342.146"/>
		<path style="fill-rule:evenodd;clip-rule:evenodd;fill:#FFFFFF;" d="M308.482,341.886c0.065-3.7,2.622-6.549,4.954-6.44
			c2.148,0.101,2.695,1.533,2.702,3.335c0.014,2.847-2.446,5.816-4.791,5.316C310.096,343.827,309.1,342.389,308.482,341.886"/>
	</g>
	<path style="clip-path:url(#SVGID_00000075867297077125569940000009009307284224793258_);fill:#FFFFFF;" d="M395.38,308.22
		c-19.22,0-34.802,15.581-34.802,34.802s15.581,34.802,34.802,34.802s34.802-15.581,34.802-34.802S414.6,308.22,395.38,308.22z
		 M395.38,371.222c-15.574,0-28.2-12.625-28.2-28.2s12.626-28.2,28.2-28.2s28.2,12.626,28.2,28.2S410.954,371.222,395.38,371.222z"
		/>
	<g style="opacity:0.1;clip-path:url(#SVGID_00000075867297077125569940000009009307284224793258_);">
		<path style="fill-rule:evenodd;clip-rule:evenodd;fill:#FFFFFF;" d="M384.33,352.13c0.031-5.036,4.12-10.726,8.963-12.298
			c0.972-0.318,2.114-0.42,3.129-0.274c5.458,0.782,10.87,8.286,10.154,13.722c-0.38,2.843-2.16,2.96-4.17,2.226
			c-4.568-1.667-8.976-1.713-13.583-0.028C385.556,356.669,384.313,355.538,384.33,352.13"/>
		<path style="fill-rule:evenodd;clip-rule:evenodd;fill:#FFFFFF;" d="M385.714,331.234c0.009-2.615,1.466-4.396,3.532-4.319
			c2.368,0.085,4.598,3.035,4.595,6.08c0.003,2.557-1.509,4.387-3.568,4.311C387.862,337.221,385.706,334.346,385.714,331.234"/>
		<path style="fill-rule:evenodd;clip-rule:evenodd;fill:#FFFFFF;" d="M404.925,331.264c0.03,3.139-2.201,6.104-4.643,5.99
			c-2.665-0.127-3.298-2.078-3.416-4.213c-0.171-3.111,2.046-6.077,4.464-6.165C403.393,326.8,404.9,328.644,404.925,331.264"/>
		<path style="fill-rule:evenodd;clip-rule:evenodd;fill:#FFFFFF;" d="M386.219,342.146c-0.641,0.467-1.707,1.824-2.956,2.01
			c-2.412,0.355-4.717-2.616-4.658-5.466c0.036-1.841,0.701-3.172,2.834-3.156C383.781,335.556,386.274,338.5,386.219,342.146"/>
		<path style="fill-rule:evenodd;clip-rule:evenodd;fill:#FFFFFF;" d="M404.5,341.886c0.065-3.7,2.622-6.549,4.954-6.44
			c2.148,0.101,2.695,1.533,2.702,3.335c0.014,2.847-2.446,5.816-4.791,5.316C406.115,343.827,405.119,342.389,404.5,341.886"/>
	</g>
	<path style="clip-path:url(#SVGID_00000075867297077125569940000009009307284224793258_);fill:#FFFFFF;" d="M491.398,308.22
		c-19.22,0-34.802,15.581-34.802,34.802s15.581,34.802,34.802,34.802s34.802-15.581,34.802-34.802S510.619,308.22,491.398,308.22z
		 M491.398,371.222c-15.574,0-28.2-12.625-28.2-28.2s12.625-28.2,28.2-28.2s28.2,12.626,28.2,28.2S506.973,371.222,491.398,371.222z
		"/>
	<g style="clip-path:url(#SVGID_00000075867297077125569940000009009307284224793258_);">
		
			<text transform="matrix(1 0 0 1 468.9089 347.7146)" style="fill:#FFFFFF; font-family:'Poppins-ExtraBold'; font-size:16.2985px;">FREE!</text>
	</g>
	<g style="clip-path:url(#SVGID_00000075867297077125569940000009009307284224793258_);">
		
			<ellipse id="XMLID_96_" transform="matrix(0.2907 -0.9568 0.9568 0.2907 -223.2307 520.921)" style="fill:#280089;" cx="239.748" cy="411.03" rx="30.885" ry="30.885"/>
		
			<ellipse id="XMLID_95_" transform="matrix(0.5938 -0.8046 0.8046 0.5938 -228.7616 368.9107)" style="fill:#F0CB39;" cx="251.004" cy="411.03" rx="30.885" ry="30.885"/>
	</g>
	<g style="clip-path:url(#SVGID_00000075867297077125569940000009009307284224793258_);">
		<path style="fill:#FFFFFF;" d="M465.111-78.435c32.585,0,59,26.415,59,59s-26.415,59-59,59V-78.435z"/>
		<path style="fill:none;stroke:#280089;stroke-width:2.2901;stroke-miterlimit:10;" d="M476.927-61.005c32.585,0,59,26.415,59,59
			s-26.415,59-59,59V-61.005z"/>
	</g>
	<g style="clip-path:url(#SVGID_00000075867297077125569940000009009307284224793258_);">
		<path style="fill:#FFFFFF;" d="M-20.668,382.801c17.317-19.803,47.409-21.818,67.212-4.5c19.803,17.317,21.818,47.409,4.5,67.212
			L-20.668,382.801z"/>
		<path style="fill:none;stroke:#280089;stroke-width:2.2901;stroke-miterlimit:10;" d="M-6.743,382.801
			c17.317-19.803,47.409-21.818,67.212-4.5c19.803,17.317,21.818,47.409,4.5,67.212L-6.743,382.801z"/>
	</g>
	<g style="clip-path:url(#SVGID_00000075867297077125569940000009009307284224793258_);">
		<path style="fill:#E371A7;" d="M94.024,31.171c6.343-8.789,18.611-10.772,27.4-4.429c8.79,6.343,10.773,18.611,4.429,27.4
			L94.024,31.171z"/>
		<path style="fill:none;stroke:#280089;stroke-width:2.2901;stroke-miterlimit:10;" d="M103.324,31.112
			c6.343-8.789,18.611-10.773,27.4-4.429c8.789,6.343,10.772,18.611,4.429,27.4L103.324,31.112z"/>
	</g>
	<g style="clip-path:url(#SVGID_00000075867297077125569940000009009307284224793258_);">
		<path style="fill:#E371A7;" d="M26.306,310.225c-5.599-9.281-2.615-21.344,6.666-26.943c9.281-5.599,21.344-2.615,26.944,6.666
			L26.306,310.225z"/>
		<path style="fill:none;stroke:#280089;stroke-width:2.2901;stroke-miterlimit:10;" d="M29.897,301.646
			c-5.599-9.281-2.615-21.344,6.666-26.943c9.281-5.599,21.344-2.615,26.943,6.666L29.897,301.646z"/>
	</g>
	<g style="clip-path:url(#SVGID_00000075867297077125569940000009009307284224793258_);">
		<g>
			<path style="fill:#280089;" d="M570.049,180.395c5.442-1.468,11.44,0.631,14.69,5.605c4.044,6.189,2.306,14.485-3.883,18.529
				c-15.528,10.147-19.905,31.036-9.758,46.564c10.147,15.527,31.035,19.906,46.563,9.757c6.189-4.043,14.485-2.306,18.529,3.883
				c4.044,6.189,2.306,14.484-3.883,18.529c-13.508,8.827-29.645,11.867-45.439,8.557c-15.794-3.31-29.354-12.572-38.181-26.08
				c-18.222-27.886-10.361-65.398,17.524-83.621C567.425,181.325,568.721,180.754,570.049,180.395z"/>
		</g>
		<g>
			<path style="fill:#79DAD2;" d="M567.241,193.005c5.442-1.468,11.44,0.631,14.69,5.605c4.044,6.189,2.306,14.485-3.883,18.529
				c-15.527,10.147-19.905,31.036-9.758,46.564c10.147,15.527,31.035,19.906,46.563,9.757c6.189-4.043,14.484-2.306,18.529,3.883
				c4.044,6.189,2.306,14.484-3.883,18.529c-13.508,8.827-29.645,11.867-45.44,8.557c-15.794-3.31-29.353-12.572-38.181-26.08
				c-18.222-27.886-10.361-65.398,17.524-83.621C564.617,193.934,565.913,193.363,567.241,193.005z"/>
		</g>
	</g>
	<g style="clip-path:url(#SVGID_00000075867297077125569940000009009307284224793258_);">
		
			<line style="fill:#F0CB39;stroke:#F0CB39;stroke-width:1.5267;stroke-linecap:round;stroke-linejoin:round;stroke-miterlimit:10;" x1="531.985" y1="191.743" x2="531.985" y2="196.755"/>
		
			<line style="fill:#F0CB39;stroke:#F0CB39;stroke-width:1.5267;stroke-linecap:round;stroke-linejoin:round;stroke-miterlimit:10;" x1="529.479" y1="194.249" x2="534.491" y2="194.249"/>
	</g>
	<g style="clip-path:url(#SVGID_00000075867297077125569940000009009307284224793258_);">
		
			<line style="fill:#F0CB39;stroke:#F0CB39;stroke-width:1.5267;stroke-linecap:round;stroke-linejoin:round;stroke-miterlimit:10;" x1="531.985" y1="54.488" x2="531.985" y2="59.5"/>
		
			<line style="fill:#F0CB39;stroke:#F0CB39;stroke-width:1.5267;stroke-linecap:round;stroke-linejoin:round;stroke-miterlimit:10;" x1="529.479" y1="56.994" x2="534.491" y2="56.994"/>
	</g>
	<g style="clip-path:url(#SVGID_00000075867297077125569940000009009307284224793258_);">
		
			<line style="fill:#F0CB39;stroke:#F0CB39;stroke-width:1.5267;stroke-linecap:round;stroke-linejoin:round;stroke-miterlimit:10;" x1="90.548" y1="51.636" x2="90.548" y2="56.648"/>
		
			<line style="fill:#F0CB39;stroke:#F0CB39;stroke-width:1.5267;stroke-linecap:round;stroke-linejoin:round;stroke-miterlimit:10;" x1="88.042" y1="54.142" x2="93.054" y2="54.142"/>
	</g>
	<g style="clip-path:url(#SVGID_00000075867297077125569940000009009307284224793258_);">
		
			<line style="fill:#F0CB39;stroke:#F0CB39;stroke-width:1.5267;stroke-linecap:round;stroke-linejoin:round;stroke-miterlimit:10;" x1="157.26" y1="286.876" x2="157.26" y2="291.888"/>
		
			<line style="fill:#F0CB39;stroke:#F0CB39;stroke-width:1.5267;stroke-linecap:round;stroke-linejoin:round;stroke-miterlimit:10;" x1="154.754" y1="289.382" x2="159.766" y2="289.382"/>
	</g>
	<g style="clip-path:url(#SVGID_00000075867297077125569940000009009307284224793258_);">
		
			<line style="fill:#F0CB39;stroke:#F0CB39;stroke-width:1.5267;stroke-linecap:round;stroke-linejoin:round;stroke-miterlimit:10;" x1="345.044" y1="381.653" x2="345.044" y2="386.665"/>
		
			<line style="fill:#F0CB39;stroke:#F0CB39;stroke-width:1.5267;stroke-linecap:round;stroke-linejoin:round;stroke-miterlimit:10;" x1="342.538" y1="384.159" x2="347.55" y2="384.159"/>
	</g>
	<g style="clip-path:url(#SVGID_00000075867297077125569940000009009307284224793258_);">
		
			<line style="fill:#F0CB39;stroke:#F0CB39;stroke-width:1.5267;stroke-linecap:round;stroke-linejoin:round;stroke-miterlimit:10;" x1="445.615" y1="301.821" x2="445.615" y2="306.833"/>
		
			<line style="fill:#F0CB39;stroke:#F0CB39;stroke-width:1.5267;stroke-linecap:round;stroke-linejoin:round;stroke-miterlimit:10;" x1="443.109" y1="304.327" x2="448.121" y2="304.327"/>
	</g>
	<g style="clip-path:url(#SVGID_00000075867297077125569940000009009307284224793258_);">
		<g>
			
				<line style="fill:none;stroke:#280089;stroke-width:2.2901;stroke-linecap:round;stroke-linejoin:round;stroke-miterlimit:10;" x1="559.182" y1="79.561" x2="559.182" y2="89.585"/>
			
				<line style="fill:none;stroke:#280089;stroke-width:2.2901;stroke-linecap:round;stroke-linejoin:round;stroke-miterlimit:10;" x1="554.17" y1="84.573" x2="564.194" y2="84.573"/>
		</g>
		<g>
			
				<line style="fill:none;stroke:#280089;stroke-width:2.2901;stroke-linecap:round;stroke-linejoin:round;stroke-miterlimit:10;" x1="526.973" y1="102.159" x2="526.973" y2="112.183"/>
			
				<line style="fill:none;stroke:#280089;stroke-width:2.2901;stroke-linecap:round;stroke-linejoin:round;stroke-miterlimit:10;" x1="521.961" y1="107.171" x2="531.985" y2="107.171"/>
		</g>
		<g>
			
				<line style="fill:none;stroke:#280089;stroke-width:2.2901;stroke-linecap:round;stroke-linejoin:round;stroke-miterlimit:10;" x1="592.464" y1="102.159" x2="592.464" y2="112.183"/>
			
				<line style="fill:none;stroke:#280089;stroke-width:2.2901;stroke-linecap:round;stroke-linejoin:round;stroke-miterlimit:10;" x1="587.452" y1="107.171" x2="597.475" y2="107.171"/>
		</g>
		<g>
			
				<line style="fill:none;stroke:#280089;stroke-width:2.2901;stroke-linecap:round;stroke-linejoin:round;stroke-miterlimit:10;" x1="559.182" y1="126.137" x2="559.182" y2="136.161"/>
			
				<line style="fill:none;stroke:#280089;stroke-width:2.2901;stroke-linecap:round;stroke-linejoin:round;stroke-miterlimit:10;" x1="554.17" y1="131.149" x2="564.194" y2="131.149"/>
		</g>
		<g>
			
				<line style="fill:none;stroke:#280089;stroke-width:2.2901;stroke-linecap:round;stroke-linejoin:round;stroke-miterlimit:10;" x1="588.993" y1="12.554" x2="588.993" y2="22.578"/>
			
				<line style="fill:none;stroke:#280089;stroke-width:2.2901;stroke-linecap:round;stroke-linejoin:round;stroke-miterlimit:10;" x1="583.981" y1="17.566" x2="594.004" y2="17.566"/>
		</g>
		<g>
			
				<line style="fill:none;stroke:#280089;stroke-width:2.2901;stroke-linecap:round;stroke-linejoin:round;stroke-miterlimit:10;" x1="556.784" y1="35.152" x2="556.784" y2="45.176"/>
			
				<line style="fill:none;stroke:#280089;stroke-width:2.2901;stroke-linecap:round;stroke-linejoin:round;stroke-miterlimit:10;" x1="551.772" y1="40.164" x2="561.796" y2="40.164"/>
		</g>
		<g>
			
				<line style="fill:none;stroke:#280089;stroke-width:2.2901;stroke-linecap:round;stroke-linejoin:round;stroke-miterlimit:10;" x1="622.274" y1="35.152" x2="622.274" y2="45.176"/>
			
				<line style="fill:none;stroke:#280089;stroke-width:2.2901;stroke-linecap:round;stroke-linejoin:round;stroke-miterlimit:10;" x1="617.262" y1="40.164" x2="627.286" y2="40.164"/>
		</g>
		<g>
			
				<line style="fill:none;stroke:#280089;stroke-width:2.2901;stroke-linecap:round;stroke-linejoin:round;stroke-miterlimit:10;" x1="588.993" y1="59.131" x2="588.993" y2="69.154"/>
			
				<line style="fill:none;stroke:#280089;stroke-width:2.2901;stroke-linecap:round;stroke-linejoin:round;stroke-miterlimit:10;" x1="583.981" y1="64.142" x2="594.004" y2="64.142"/>
		</g>
	</g>
	<g style="clip-path:url(#SVGID_00000075867297077125569940000009009307284224793258_);">
		<g>
			
				<line style="fill:none;stroke:#280089;stroke-width:2.2901;stroke-linecap:round;stroke-linejoin:round;stroke-miterlimit:10;" x1="17.421" y1="206.999" x2="27.444" y2="206.999"/>
			
				<line style="fill:none;stroke:#280089;stroke-width:2.2901;stroke-linecap:round;stroke-linejoin:round;stroke-miterlimit:10;" x1="22.432" y1="212.011" x2="22.432" y2="201.987"/>
		</g>
		<g>
			
				<line style="fill:none;stroke:#280089;stroke-width:2.2901;stroke-linecap:round;stroke-linejoin:round;stroke-miterlimit:10;" x1="40.019" y1="239.208" x2="50.042" y2="239.208"/>
			
				<line style="fill:none;stroke:#280089;stroke-width:2.2901;stroke-linecap:round;stroke-linejoin:round;stroke-miterlimit:10;" x1="45.03" y1="244.22" x2="45.03" y2="234.196"/>
		</g>
		<g>
			
				<line style="fill:none;stroke:#280089;stroke-width:2.2901;stroke-linecap:round;stroke-linejoin:round;stroke-miterlimit:10;" x1="40.019" y1="173.718" x2="50.042" y2="173.718"/>
			
				<line style="fill:none;stroke:#280089;stroke-width:2.2901;stroke-linecap:round;stroke-linejoin:round;stroke-miterlimit:10;" x1="45.03" y1="178.73" x2="45.03" y2="168.706"/>
		</g>
		<g>
			
				<line style="fill:none;stroke:#280089;stroke-width:2.2901;stroke-linecap:round;stroke-linejoin:round;stroke-miterlimit:10;" x1="63.997" y1="206.999" x2="74.021" y2="206.999"/>
			
				<line style="fill:none;stroke:#280089;stroke-width:2.2901;stroke-linecap:round;stroke-linejoin:round;stroke-miterlimit:10;" x1="69.009" y1="212.011" x2="69.009" y2="201.987"/>
		</g>
		<g>
			
				<line style="fill:none;stroke:#280089;stroke-width:2.2901;stroke-linecap:round;stroke-linejoin:round;stroke-miterlimit:10;" x1="-49.586" y1="177.189" x2="-39.562" y2="177.189"/>
			
				<line style="fill:none;stroke:#280089;stroke-width:2.2901;stroke-linecap:round;stroke-linejoin:round;stroke-miterlimit:10;" x1="-44.574" y1="182.2" x2="-44.574" y2="172.177"/>
		</g>
		<g>
			
				<line style="fill:none;stroke:#280089;stroke-width:2.2901;stroke-linecap:round;stroke-linejoin:round;stroke-miterlimit:10;" x1="-26.988" y1="209.397" x2="-16.964" y2="209.397"/>
			
				<line style="fill:none;stroke:#280089;stroke-width:2.2901;stroke-linecap:round;stroke-linejoin:round;stroke-miterlimit:10;" x1="-21.976" y1="214.409" x2="-21.976" y2="204.386"/>
		</g>
		<g>
			
				<line style="fill:none;stroke:#280089;stroke-width:2.2901;stroke-linecap:round;stroke-linejoin:round;stroke-miterlimit:10;" x1="-26.988" y1="143.907" x2="-16.964" y2="143.907"/>
			
				<line style="fill:none;stroke:#280089;stroke-width:2.2901;stroke-linecap:round;stroke-linejoin:round;stroke-miterlimit:10;" x1="-21.976" y1="148.919" x2="-21.976" y2="138.895"/>
		</g>
		<g>
			
				<line style="fill:none;stroke:#280089;stroke-width:2.2901;stroke-linecap:round;stroke-linejoin:round;stroke-miterlimit:10;" x1="-3.01" y1="177.189" x2="7.014" y2="177.189"/>
			
				<line style="fill:none;stroke:#280089;stroke-width:2.2901;stroke-linecap:round;stroke-linejoin:round;stroke-miterlimit:10;" x1="2.002" y1="182.2" x2="2.002" y2="172.177"/>
		</g>
	</g>
	<g id="XMLID_262_" style="clip-path:url(#SVGID_00000075867297077125569940000009009307284224793258_);">
		<circle id="XMLID_361_" style="fill:#280089;" cx="536.46" cy="373.952" r="1.97"/>
		<circle id="XMLID_360_" style="fill:#280089;" cx="547.741" cy="373.952" r="1.97"/>
		<circle id="XMLID_359_" style="fill:#280089;" cx="559.023" cy="373.952" r="1.97"/>
		<circle id="XMLID_358_" style="fill:#280089;" cx="570.304" cy="373.952" r="1.97"/>
		<circle id="XMLID_357_" style="fill:#280089;" cx="581.586" cy="373.952" r="1.97"/>
		<path id="XMLID_356_" style="fill:#280089;" d="M594.837,373.952c0,1.088-0.882,1.97-1.97,1.97c-1.088,0-1.97-0.882-1.97-1.97
			c0-1.088,0.882-1.97,1.97-1.97C593.955,371.982,594.837,372.864,594.837,373.952z"/>
		<path id="XMLID_355_" style="fill:#280089;" d="M606.119,373.952c0,1.088-0.882,1.97-1.97,1.97c-1.088,0-1.97-0.882-1.97-1.97
			c0-1.088,0.882-1.97,1.97-1.97C605.237,371.982,606.119,372.864,606.119,373.952z"/>
		<path id="XMLID_354_" style="fill:#280089;" d="M617.4,373.952c0,1.088-0.882,1.97-1.97,1.97c-1.088,0-1.97-0.882-1.97-1.97
			c0-1.088,0.882-1.97,1.97-1.97C616.518,371.982,617.4,372.864,617.4,373.952z"/>
		<path id="XMLID_353_" style="fill:#280089;" d="M628.682,373.952c0,1.088-0.882,1.97-1.97,1.97c-1.088,0-1.97-0.882-1.97-1.97
			c0-1.088,0.882-1.97,1.97-1.97C627.8,371.982,628.682,372.864,628.682,373.952z"/>
		<path id="XMLID_352_" style="fill:#280089;" d="M538.43,382.189c0,1.088-0.882,1.97-1.97,1.97c-1.088,0-1.97-0.882-1.97-1.97
			c0-1.088,0.882-1.97,1.97-1.97C537.547,380.22,538.43,381.102,538.43,382.189z"/>
		<path id="XMLID_351_" style="fill:#280089;" d="M549.711,382.189c0,1.088-0.882,1.97-1.97,1.97c-1.088,0-1.97-0.882-1.97-1.97
			c0-1.088,0.882-1.97,1.97-1.97C548.829,380.22,549.711,381.102,549.711,382.189z"/>
		<path id="XMLID_350_" style="fill:#280089;" d="M560.992,382.189c0,1.088-0.882,1.97-1.97,1.97c-1.088,0-1.97-0.882-1.97-1.97
			c0-1.088,0.882-1.97,1.97-1.97C560.111,380.22,560.992,381.102,560.992,382.189z"/>
		<path id="XMLID_349_" style="fill:#280089;" d="M572.274,382.189c0,1.088-0.882,1.97-1.97,1.97c-1.088,0-1.97-0.882-1.97-1.97
			c0-1.088,0.882-1.97,1.97-1.97C571.392,380.22,572.274,381.102,572.274,382.189z"/>
		<path id="XMLID_348_" style="fill:#280089;" d="M583.555,382.189c0,1.088-0.882,1.97-1.97,1.97c-1.088,0-1.97-0.882-1.97-1.97
			c0-1.088,0.882-1.97,1.97-1.97C582.674,380.22,583.555,381.102,583.555,382.189z"/>
		<path id="XMLID_347_" style="fill:#280089;" d="M594.837,382.189c0,1.088-0.882,1.97-1.97,1.97c-1.088,0-1.97-0.882-1.97-1.97
			c0-1.088,0.882-1.97,1.97-1.97C593.955,380.22,594.837,381.102,594.837,382.189z"/>
		<path id="XMLID_346_" style="fill:#280089;" d="M606.119,382.189c0,1.088-0.882,1.97-1.97,1.97c-1.088,0-1.97-0.882-1.97-1.97
			c0-1.088,0.882-1.97,1.97-1.97C605.237,380.22,606.119,381.102,606.119,382.189z"/>
		<path id="XMLID_345_" style="fill:#280089;" d="M617.4,382.189c0,1.088-0.882,1.97-1.97,1.97c-1.088,0-1.97-0.882-1.97-1.97
			c0-1.088,0.882-1.97,1.97-1.97C616.518,380.22,617.4,381.102,617.4,382.189z"/>
		<path id="XMLID_344_" style="fill:#280089;" d="M628.682,382.189c0,1.088-0.882,1.97-1.97,1.97c-1.088,0-1.97-0.882-1.97-1.97
			c0-1.088,0.882-1.97,1.97-1.97C627.8,380.22,628.682,381.102,628.682,382.189z"/>
		<path id="XMLID_343_" style="fill:#280089;" d="M538.43,390.427c0,1.088-0.882,1.97-1.97,1.97c-1.088,0-1.97-0.882-1.97-1.97
			s0.882-1.97,1.97-1.97C537.547,388.457,538.43,389.339,538.43,390.427z"/>
		<path id="XMLID_342_" style="fill:#280089;" d="M549.711,390.427c0,1.088-0.882,1.97-1.97,1.97c-1.088,0-1.97-0.882-1.97-1.97
			s0.882-1.97,1.97-1.97C548.829,388.457,549.711,389.339,549.711,390.427z"/>
		<path id="XMLID_341_" style="fill:#280089;" d="M560.992,390.427c0,1.088-0.882,1.97-1.97,1.97c-1.088,0-1.97-0.882-1.97-1.97
			s0.882-1.97,1.97-1.97C560.111,388.457,560.992,389.339,560.992,390.427z"/>
		<path id="XMLID_340_" style="fill:#280089;" d="M572.274,390.427c0,1.088-0.882,1.97-1.97,1.97c-1.088,0-1.97-0.882-1.97-1.97
			s0.882-1.97,1.97-1.97C571.392,388.457,572.274,389.339,572.274,390.427z"/>
		<path id="XMLID_339_" style="fill:#280089;" d="M583.555,390.427c0,1.088-0.882,1.97-1.97,1.97c-1.088,0-1.97-0.882-1.97-1.97
			s0.882-1.97,1.97-1.97C582.674,388.457,583.555,389.339,583.555,390.427z"/>
		<path id="XMLID_338_" style="fill:#280089;" d="M594.837,390.427c0,1.088-0.882,1.97-1.97,1.97c-1.088,0-1.97-0.882-1.97-1.97
			s0.882-1.97,1.97-1.97C593.955,388.457,594.837,389.339,594.837,390.427z"/>
		<path id="XMLID_337_" style="fill:#280089;" d="M606.119,390.427c0,1.088-0.882,1.97-1.97,1.97c-1.088,0-1.97-0.882-1.97-1.97
			s0.882-1.97,1.97-1.97C605.237,388.457,606.119,389.339,606.119,390.427z"/>
		<path id="XMLID_336_" style="fill:#280089;" d="M617.4,390.427c0,1.088-0.882,1.97-1.97,1.97c-1.088,0-1.97-0.882-1.97-1.97
			s0.882-1.97,1.97-1.97C616.518,388.457,617.4,389.339,617.4,390.427z"/>
		<path id="XMLID_335_" style="fill:#280089;" d="M628.682,390.427c0,1.088-0.882,1.97-1.97,1.97c-1.088,0-1.97-0.882-1.97-1.97
			s0.882-1.97,1.97-1.97C627.8,388.457,628.682,389.339,628.682,390.427z"/>
		<path id="XMLID_334_" style="fill:#280089;" d="M538.43,398.664c0,1.088-0.882,1.97-1.97,1.97c-1.088,0-1.97-0.882-1.97-1.97
			c0-1.088,0.882-1.97,1.97-1.97C537.547,396.694,538.43,397.576,538.43,398.664z"/>
		<path id="XMLID_333_" style="fill:#280089;" d="M549.711,398.664c0,1.088-0.882,1.97-1.97,1.97c-1.088,0-1.97-0.882-1.97-1.97
			c0-1.088,0.882-1.97,1.97-1.97C548.829,396.694,549.711,397.576,549.711,398.664z"/>
		<path id="XMLID_332_" style="fill:#280089;" d="M560.992,398.664c0,1.088-0.882,1.97-1.97,1.97c-1.088,0-1.97-0.882-1.97-1.97
			c0-1.088,0.882-1.97,1.97-1.97C560.111,396.694,560.992,397.576,560.992,398.664z"/>
		<path id="XMLID_331_" style="fill:#280089;" d="M572.274,398.664c0,1.088-0.882,1.97-1.97,1.97c-1.088,0-1.97-0.882-1.97-1.97
			c0-1.088,0.882-1.97,1.97-1.97C571.392,396.694,572.274,397.576,572.274,398.664z"/>
		<path id="XMLID_330_" style="fill:#280089;" d="M583.555,398.664c0,1.088-0.882,1.97-1.97,1.97c-1.088,0-1.97-0.882-1.97-1.97
			c0-1.088,0.882-1.97,1.97-1.97C582.674,396.694,583.555,397.576,583.555,398.664z"/>
		<path id="XMLID_329_" style="fill:#280089;" d="M594.837,398.664c0,1.088-0.882,1.97-1.97,1.97c-1.088,0-1.97-0.882-1.97-1.97
			c0-1.088,0.882-1.97,1.97-1.97C593.955,396.694,594.837,397.576,594.837,398.664z"/>
		<path id="XMLID_328_" style="fill:#280089;" d="M606.119,398.664c0,1.088-0.882,1.97-1.97,1.97c-1.088,0-1.97-0.882-1.97-1.97
			c0-1.088,0.882-1.97,1.97-1.97C605.237,396.694,606.119,397.576,606.119,398.664z"/>
		<path id="XMLID_327_" style="fill:#280089;" d="M617.4,398.664c0,1.088-0.882,1.97-1.97,1.97c-1.088,0-1.97-0.882-1.97-1.97
			c0-1.088,0.882-1.97,1.97-1.97C616.518,396.694,617.4,397.576,617.4,398.664z"/>
		<path id="XMLID_326_" style="fill:#280089;" d="M628.682,398.664c0,1.088-0.882,1.97-1.97,1.97c-1.088,0-1.97-0.882-1.97-1.97
			c0-1.088,0.882-1.97,1.97-1.97C627.8,396.694,628.682,397.576,628.682,398.664z"/>
		<circle id="XMLID_325_" style="fill:#280089;" cx="536.46" cy="406.901" r="1.97"/>
		<circle id="XMLID_324_" style="fill:#280089;" cx="547.741" cy="406.901" r="1.97"/>
		<circle id="XMLID_323_" style="fill:#280089;" cx="559.023" cy="406.901" r="1.97"/>
		<circle id="XMLID_322_" style="fill:#280089;" cx="570.304" cy="406.901" r="1.97"/>
		<circle id="XMLID_321_" style="fill:#280089;" cx="581.586" cy="406.901" r="1.97"/>
		<path id="XMLID_320_" style="fill:#280089;" d="M594.837,406.901c0,1.088-0.882,1.97-1.97,1.97c-1.088,0-1.97-0.882-1.97-1.97
			c0-1.088,0.882-1.97,1.97-1.97C593.955,404.931,594.837,405.813,594.837,406.901z"/>
		<path id="XMLID_319_" style="fill:#280089;" d="M606.119,406.901c0,1.088-0.882,1.97-1.97,1.97c-1.088,0-1.97-0.882-1.97-1.97
			c0-1.088,0.882-1.97,1.97-1.97C605.237,404.931,606.119,405.813,606.119,406.901z"/>
		<path id="XMLID_318_" style="fill:#280089;" d="M617.4,406.901c0,1.088-0.882,1.97-1.97,1.97c-1.088,0-1.97-0.882-1.97-1.97
			c0-1.088,0.882-1.97,1.97-1.97C616.518,404.931,617.4,405.813,617.4,406.901z"/>
		<path id="XMLID_317_" style="fill:#280089;" d="M628.682,406.901c0,1.088-0.882,1.97-1.97,1.97c-1.088,0-1.97-0.882-1.97-1.97
			c0-1.088,0.882-1.97,1.97-1.97C627.8,404.931,628.682,405.813,628.682,406.901z"/>
		<circle id="XMLID_316_" style="fill:#280089;" cx="536.46" cy="415.139" r="1.97"/>
		<circle id="XMLID_315_" style="fill:#280089;" cx="547.741" cy="415.139" r="1.97"/>
		<circle id="XMLID_314_" style="fill:#280089;" cx="559.023" cy="415.139" r="1.97"/>
		<circle id="XMLID_313_" style="fill:#280089;" cx="570.304" cy="415.139" r="1.97"/>
		<circle id="XMLID_312_" style="fill:#280089;" cx="581.586" cy="415.139" r="1.97"/>
		<path id="XMLID_311_" style="fill:#280089;" d="M594.837,415.139c0,1.088-0.882,1.97-1.97,1.97c-1.088,0-1.97-0.882-1.97-1.97
			c0-1.088,0.882-1.97,1.97-1.97C593.955,413.169,594.837,414.051,594.837,415.139z"/>
		<path id="XMLID_310_" style="fill:#280089;" d="M606.119,415.139c0,1.088-0.882,1.97-1.97,1.97c-1.088,0-1.97-0.882-1.97-1.97
			c0-1.088,0.882-1.97,1.97-1.97C605.237,413.169,606.119,414.051,606.119,415.139z"/>
		<path id="XMLID_309_" style="fill:#280089;" d="M617.4,415.139c0,1.088-0.882,1.97-1.97,1.97c-1.088,0-1.97-0.882-1.97-1.97
			c0-1.088,0.882-1.97,1.97-1.97C616.518,413.169,617.4,414.051,617.4,415.139z"/>
		<path id="XMLID_308_" style="fill:#280089;" d="M628.682,415.139c0,1.088-0.882,1.97-1.97,1.97c-1.088,0-1.97-0.882-1.97-1.97
			c0-1.088,0.882-1.97,1.97-1.97C627.8,413.169,628.682,414.051,628.682,415.139z"/>
		<circle id="XMLID_307_" style="fill:#280089;" cx="536.46" cy="423.376" r="1.97"/>
		<circle id="XMLID_306_" style="fill:#280089;" cx="547.741" cy="423.376" r="1.97"/>
		<circle id="XMLID_305_" style="fill:#280089;" cx="559.023" cy="423.376" r="1.97"/>
		<circle id="XMLID_304_" style="fill:#280089;" cx="570.304" cy="423.376" r="1.97"/>
		<circle id="XMLID_303_" style="fill:#280089;" cx="581.586" cy="423.376" r="1.97"/>
		<path id="XMLID_302_" style="fill:#280089;" d="M594.837,423.376c0,1.088-0.882,1.97-1.97,1.97c-1.088,0-1.97-0.882-1.97-1.97
			c0-1.088,0.882-1.97,1.97-1.97C593.955,421.406,594.837,422.288,594.837,423.376z"/>
		<path id="XMLID_301_" style="fill:#280089;" d="M606.119,423.376c0,1.088-0.882,1.97-1.97,1.97c-1.088,0-1.97-0.882-1.97-1.97
			c0-1.088,0.882-1.97,1.97-1.97C605.237,421.406,606.119,422.288,606.119,423.376z"/>
		<path id="XMLID_300_" style="fill:#280089;" d="M617.4,423.376c0,1.088-0.882,1.97-1.97,1.97c-1.088,0-1.97-0.882-1.97-1.97
			c0-1.088,0.882-1.97,1.97-1.97C616.518,421.406,617.4,422.288,617.4,423.376z"/>
		<path id="XMLID_299_" style="fill:#280089;" d="M628.682,423.376c0,1.088-0.882,1.97-1.97,1.97c-1.088,0-1.97-0.882-1.97-1.97
			c0-1.088,0.882-1.97,1.97-1.97C627.8,421.406,628.682,422.288,628.682,423.376z"/>
		<circle id="XMLID_298_" style="fill:#280089;" cx="536.46" cy="431.613" r="1.97"/>
		<circle id="XMLID_297_" style="fill:#280089;" cx="547.741" cy="431.613" r="1.97"/>
		<circle id="XMLID_296_" style="fill:#280089;" cx="559.023" cy="431.613" r="1.97"/>
		<circle id="XMLID_295_" style="fill:#280089;" cx="570.304" cy="431.613" r="1.97"/>
		<circle id="XMLID_294_" style="fill:#280089;" cx="581.586" cy="431.613" r="1.97"/>
		<path id="XMLID_293_" style="fill:#280089;" d="M594.837,431.613c0,1.088-0.882,1.97-1.97,1.97c-1.088,0-1.97-0.882-1.97-1.97
			c0-1.088,0.882-1.97,1.97-1.97C593.955,429.643,594.837,430.525,594.837,431.613z"/>
		<path id="XMLID_292_" style="fill:#280089;" d="M606.119,431.613c0,1.088-0.882,1.97-1.97,1.97c-1.088,0-1.97-0.882-1.97-1.97
			c0-1.088,0.882-1.97,1.97-1.97C605.237,429.643,606.119,430.525,606.119,431.613z"/>
		<path id="XMLID_291_" style="fill:#280089;" d="M617.4,431.613c0,1.088-0.882,1.97-1.97,1.97c-1.088,0-1.97-0.882-1.97-1.97
			c0-1.088,0.882-1.97,1.97-1.97C616.518,429.643,617.4,430.525,617.4,431.613z"/>
		<path id="XMLID_290_" style="fill:#280089;" d="M628.682,431.613c0,1.088-0.882,1.97-1.97,1.97c-1.088,0-1.97-0.882-1.97-1.97
			c0-1.088,0.882-1.97,1.97-1.97C627.8,429.643,628.682,430.525,628.682,431.613z"/>
		<circle id="XMLID_289_" style="fill:#280089;" cx="536.46" cy="439.85" r="1.97"/>
		<circle id="XMLID_288_" style="fill:#280089;" cx="547.741" cy="439.85" r="1.97"/>
		<circle id="XMLID_287_" style="fill:#280089;" cx="559.023" cy="439.85" r="1.97"/>
		<circle id="XMLID_286_" style="fill:#280089;" cx="570.304" cy="439.85" r="1.97"/>
		<circle id="XMLID_285_" style="fill:#280089;" cx="581.586" cy="439.85" r="1.97"/>
		<path id="XMLID_284_" style="fill:#280089;" d="M594.837,439.85c0,1.088-0.882,1.97-1.97,1.97c-1.088,0-1.97-0.882-1.97-1.97
			c0-1.088,0.882-1.97,1.97-1.97C593.955,437.881,594.837,438.763,594.837,439.85z"/>
		<path id="XMLID_283_" style="fill:#280089;" d="M606.119,439.85c0,1.088-0.882,1.97-1.97,1.97c-1.088,0-1.97-0.882-1.97-1.97
			c0-1.088,0.882-1.97,1.97-1.97C605.237,437.881,606.119,438.763,606.119,439.85z"/>
		<path id="XMLID_282_" style="fill:#280089;" d="M617.4,439.85c0,1.088-0.882,1.97-1.97,1.97c-1.088,0-1.97-0.882-1.97-1.97
			c0-1.088,0.882-1.97,1.97-1.97C616.518,437.881,617.4,438.763,617.4,439.85z"/>
		<path id="XMLID_281_" style="fill:#280089;" d="M628.682,439.85c0,1.088-0.882,1.97-1.97,1.97c-1.088,0-1.97-0.882-1.97-1.97
			c0-1.088,0.882-1.97,1.97-1.97C627.8,437.881,628.682,438.763,628.682,439.85z"/>
		<path id="XMLID_280_" style="fill:#280089;" d="M538.43,448.088c0,1.088-0.882,1.97-1.97,1.97c-1.088,0-1.97-0.882-1.97-1.97
			s0.882-1.97,1.97-1.97C537.547,446.118,538.43,447,538.43,448.088z"/>
		<path id="XMLID_279_" style="fill:#280089;" d="M549.711,448.088c0,1.088-0.882,1.97-1.97,1.97c-1.088,0-1.97-0.882-1.97-1.97
			s0.882-1.97,1.97-1.97C548.829,446.118,549.711,447,549.711,448.088z"/>
		<path id="XMLID_278_" style="fill:#280089;" d="M560.992,448.088c0,1.088-0.882,1.97-1.97,1.97c-1.088,0-1.97-0.882-1.97-1.97
			s0.882-1.97,1.97-1.97C560.111,446.118,560.992,447,560.992,448.088z"/>
		<path id="XMLID_277_" style="fill:#280089;" d="M572.274,448.088c0,1.088-0.882,1.97-1.97,1.97c-1.088,0-1.97-0.882-1.97-1.97
			s0.882-1.97,1.97-1.97C571.392,446.118,572.274,447,572.274,448.088z"/>
		<path id="XMLID_276_" style="fill:#280089;" d="M583.555,448.088c0,1.088-0.882,1.97-1.97,1.97c-1.088,0-1.97-0.882-1.97-1.97
			s0.882-1.97,1.97-1.97C582.674,446.118,583.555,447,583.555,448.088z"/>
		<path id="XMLID_275_" style="fill:#280089;" d="M594.837,448.088c0,1.088-0.882,1.97-1.97,1.97c-1.088,0-1.97-0.882-1.97-1.97
			s0.882-1.97,1.97-1.97C593.955,446.118,594.837,447,594.837,448.088z"/>
		<path id="XMLID_274_" style="fill:#280089;" d="M606.119,448.088c0,1.088-0.882,1.97-1.97,1.97c-1.088,0-1.97-0.882-1.97-1.97
			s0.882-1.97,1.97-1.97C605.237,446.118,606.119,447,606.119,448.088z"/>
		<path id="XMLID_273_" style="fill:#280089;" d="M617.4,448.088c0,1.088-0.882,1.97-1.97,1.97c-1.088,0-1.97-0.882-1.97-1.97
			s0.882-1.97,1.97-1.97C616.518,446.118,617.4,447,617.4,448.088z"/>
		<path id="XMLID_272_" style="fill:#280089;" d="M628.682,448.088c0,1.088-0.882,1.97-1.97,1.97c-1.088,0-1.97-0.882-1.97-1.97
			s0.882-1.97,1.97-1.97C627.8,446.118,628.682,447,628.682,448.088z"/>
		<path id="XMLID_271_" style="fill:#280089;" d="M538.43,456.325c0,1.088-0.882,1.97-1.97,1.97c-1.088,0-1.97-0.882-1.97-1.97
			c0-1.088,0.882-1.97,1.97-1.97C537.547,454.355,538.43,455.237,538.43,456.325z"/>
		<path id="XMLID_270_" style="fill:#280089;" d="M549.711,456.325c0,1.088-0.882,1.97-1.97,1.97c-1.088,0-1.97-0.882-1.97-1.97
			c0-1.088,0.882-1.97,1.97-1.97C548.829,454.355,549.711,455.237,549.711,456.325z"/>
		<path id="XMLID_269_" style="fill:#280089;" d="M560.992,456.325c0,1.088-0.882,1.97-1.97,1.97c-1.088,0-1.97-0.882-1.97-1.97
			c0-1.088,0.882-1.97,1.97-1.97C560.111,454.355,560.992,455.237,560.992,456.325z"/>
		<path id="XMLID_268_" style="fill:#280089;" d="M572.274,456.325c0,1.088-0.882,1.97-1.97,1.97c-1.088,0-1.97-0.882-1.97-1.97
			c0-1.088,0.882-1.97,1.97-1.97C571.392,454.355,572.274,455.237,572.274,456.325z"/>
		<path id="XMLID_267_" style="fill:#280089;" d="M583.555,456.325c0,1.088-0.882,1.97-1.97,1.97c-1.088,0-1.97-0.882-1.97-1.97
			c0-1.088,0.882-1.97,1.97-1.97C582.674,454.355,583.555,455.237,583.555,456.325z"/>
		<path id="XMLID_266_" style="fill:#280089;" d="M594.837,456.325c0,1.088-0.882,1.97-1.97,1.97c-1.088,0-1.97-0.882-1.97-1.97
			c0-1.088,0.882-1.97,1.97-1.97C593.955,454.355,594.837,455.237,594.837,456.325z"/>
		<path id="XMLID_265_" style="fill:#280089;" d="M606.119,456.325c0,1.088-0.882,1.97-1.97,1.97c-1.088,0-1.97-0.882-1.97-1.97
			c0-1.088,0.882-1.97,1.97-1.97C605.237,454.355,606.119,455.237,606.119,456.325z"/>
		<path id="XMLID_264_" style="fill:#280089;" d="M617.4,456.325c0,1.088-0.882,1.97-1.97,1.97c-1.088,0-1.97-0.882-1.97-1.97
			c0-1.088,0.882-1.97,1.97-1.97C616.518,454.355,617.4,455.237,617.4,456.325z"/>
		<path id="XMLID_263_" style="fill:#280089;" d="M628.682,456.325c0,1.088-0.882,1.97-1.97,1.97c-1.088,0-1.97-0.882-1.97-1.97
			c0-1.088,0.882-1.97,1.97-1.97C627.8,454.355,628.682,455.237,628.682,456.325z"/>
	</g>
	<g id="XMLID_99_" style="clip-path:url(#SVGID_00000075867297077125569940000009009307284224793258_);">
		<path id="XMLID_226_" style="fill:#280089;" d="M-58.643,0.348c0,1.088-0.882,1.97-1.97,1.97c-1.088,0-1.97-0.882-1.97-1.97
			s0.882-1.97,1.97-1.97C-59.525-1.622-58.643-0.74-58.643,0.348z"/>
		<path id="XMLID_225_" style="fill:#280089;" d="M-47.361,0.348c0,1.088-0.882,1.97-1.97,1.97c-1.088,0-1.97-0.882-1.97-1.97
			s0.882-1.97,1.97-1.97C-48.243-1.622-47.361-0.74-47.361,0.348z"/>
		<path id="XMLID_224_" style="fill:#280089;" d="M-36.08,0.348c0,1.088-0.882,1.97-1.97,1.97c-1.088,0-1.97-0.882-1.97-1.97
			s0.882-1.97,1.97-1.97C-36.962-1.622-36.08-0.74-36.08,0.348z"/>
		<path id="XMLID_223_" style="fill:#280089;" d="M-24.798,0.348c0,1.088-0.882,1.97-1.97,1.97c-1.088,0-1.97-0.882-1.97-1.97
			s0.882-1.97,1.97-1.97C-25.68-1.622-24.798-0.74-24.798,0.348z"/>
		<path id="XMLID_222_" style="fill:#280089;" d="M-13.517,0.348c0,1.088-0.882,1.97-1.97,1.97c-1.088,0-1.97-0.882-1.97-1.97
			s0.882-1.97,1.97-1.97C-14.399-1.622-13.517-0.74-13.517,0.348z"/>
		<path id="XMLID_221_" style="fill:#280089;" d="M-2.235,0.348c0,1.088-0.882,1.97-1.97,1.97c-1.088,0-1.97-0.882-1.97-1.97
			s0.882-1.97,1.97-1.97C-3.117-1.622-2.235-0.74-2.235,0.348z"/>
		<path id="XMLID_220_" style="fill:#280089;" d="M9.046,0.348c0,1.088-0.882,1.97-1.97,1.97c-1.088,0-1.97-0.882-1.97-1.97
			s0.882-1.97,1.97-1.97C8.164-1.622,9.046-0.74,9.046,0.348z"/>
		<path id="XMLID_219_" style="fill:#280089;" d="M20.328,0.348c0,1.088-0.882,1.97-1.97,1.97c-1.088,0-1.97-0.882-1.97-1.97
			s0.882-1.97,1.97-1.97C19.446-1.622,20.328-0.74,20.328,0.348z"/>
		<path id="XMLID_218_" style="fill:#280089;" d="M31.609,0.348c0,1.088-0.882,1.97-1.97,1.97s-1.97-0.882-1.97-1.97
			s0.882-1.97,1.97-1.97S31.609-0.74,31.609,0.348z"/>
		<path id="XMLID_217_" style="fill:#280089;" d="M-58.643,8.585c0,1.088-0.882,1.97-1.97,1.97c-1.088,0-1.97-0.882-1.97-1.97
			c0-1.088,0.882-1.97,1.97-1.97C-59.525,6.615-58.643,7.497-58.643,8.585z"/>
		<path id="XMLID_216_" style="fill:#280089;" d="M-47.361,8.585c0,1.088-0.882,1.97-1.97,1.97c-1.088,0-1.97-0.882-1.97-1.97
			c0-1.088,0.882-1.97,1.97-1.97C-48.243,6.615-47.361,7.497-47.361,8.585z"/>
		<path id="XMLID_215_" style="fill:#280089;" d="M-36.08,8.585c0,1.088-0.882,1.97-1.97,1.97c-1.088,0-1.97-0.882-1.97-1.97
			c0-1.088,0.882-1.97,1.97-1.97C-36.962,6.615-36.08,7.497-36.08,8.585z"/>
		<path id="XMLID_214_" style="fill:#280089;" d="M-24.798,8.585c0,1.088-0.882,1.97-1.97,1.97c-1.088,0-1.97-0.882-1.97-1.97
			c0-1.088,0.882-1.97,1.97-1.97C-25.68,6.615-24.798,7.497-24.798,8.585z"/>
		<path id="XMLID_213_" style="fill:#280089;" d="M-13.517,8.585c0,1.088-0.882,1.97-1.97,1.97c-1.088,0-1.97-0.882-1.97-1.97
			c0-1.088,0.882-1.97,1.97-1.97C-14.399,6.615-13.517,7.497-13.517,8.585z"/>
		<path id="XMLID_212_" style="fill:#280089;" d="M-2.235,8.585c0,1.088-0.882,1.97-1.97,1.97c-1.088,0-1.97-0.882-1.97-1.97
			c0-1.088,0.882-1.97,1.97-1.97C-3.117,6.615-2.235,7.497-2.235,8.585z"/>
		<path id="XMLID_211_" style="fill:#280089;" d="M9.046,8.585c0,1.088-0.882,1.97-1.97,1.97c-1.088,0-1.97-0.882-1.97-1.97
			c0-1.088,0.882-1.97,1.97-1.97C8.164,6.615,9.046,7.497,9.046,8.585z"/>
		<path id="XMLID_210_" style="fill:#280089;" d="M20.328,8.585c0,1.088-0.882,1.97-1.97,1.97c-1.088,0-1.97-0.882-1.97-1.97
			c0-1.088,0.882-1.97,1.97-1.97C19.446,6.615,20.328,7.497,20.328,8.585z"/>
		<path id="XMLID_209_" style="fill:#280089;" d="M31.609,8.585c0,1.088-0.882,1.97-1.97,1.97s-1.97-0.882-1.97-1.97
			c0-1.088,0.882-1.97,1.97-1.97S31.609,7.497,31.609,8.585z"/>
		<path id="XMLID_208_" style="fill:#280089;" d="M-58.643,16.822c0,1.088-0.882,1.97-1.97,1.97c-1.088,0-1.97-0.882-1.97-1.97
			c0-1.088,0.882-1.97,1.97-1.97C-59.525,14.852-58.643,15.734-58.643,16.822z"/>
		<path id="XMLID_207_" style="fill:#280089;" d="M-47.361,16.822c0,1.088-0.882,1.97-1.97,1.97c-1.088,0-1.97-0.882-1.97-1.97
			c0-1.088,0.882-1.97,1.97-1.97C-48.243,14.852-47.361,15.734-47.361,16.822z"/>
		<path id="XMLID_206_" style="fill:#280089;" d="M-36.08,16.822c0,1.088-0.882,1.97-1.97,1.97c-1.088,0-1.97-0.882-1.97-1.97
			c0-1.088,0.882-1.97,1.97-1.97C-36.962,14.852-36.08,15.734-36.08,16.822z"/>
		<circle id="XMLID_205_" style="fill:#280089;" cx="-26.768" cy="16.822" r="1.97"/>
		<circle id="XMLID_204_" style="fill:#280089;" cx="-15.486" cy="16.822" r="1.97"/>
		<path id="XMLID_203_" style="fill:#280089;" d="M-2.235,16.822c0,1.088-0.882,1.97-1.97,1.97c-1.088,0-1.97-0.882-1.97-1.97
			c0-1.088,0.882-1.97,1.97-1.97C-3.117,14.852-2.235,15.734-2.235,16.822z"/>
		<circle id="XMLID_202_" style="fill:#280089;" cx="7.077" cy="16.822" r="1.97"/>
		<path id="XMLID_201_" style="fill:#280089;" d="M20.328,16.822c0,1.088-0.882,1.97-1.97,1.97c-1.088,0-1.97-0.882-1.97-1.97
			c0-1.088,0.882-1.97,1.97-1.97C19.446,14.852,20.328,15.734,20.328,16.822z"/>
		<path id="XMLID_200_" style="fill:#280089;" d="M31.609,16.822c0,1.088-0.882,1.97-1.97,1.97s-1.97-0.882-1.97-1.97
			c0-1.088,0.882-1.97,1.97-1.97S31.609,15.734,31.609,16.822z"/>
		<path id="XMLID_199_" style="fill:#280089;" d="M-58.643,25.059c0,1.088-0.882,1.97-1.97,1.97c-1.088,0-1.97-0.882-1.97-1.97
			c0-1.088,0.882-1.97,1.97-1.97C-59.525,23.09-58.643,23.972-58.643,25.059z"/>
		<path id="XMLID_198_" style="fill:#280089;" d="M-47.361,25.059c0,1.088-0.882,1.97-1.97,1.97c-1.088,0-1.97-0.882-1.97-1.97
			c0-1.088,0.882-1.97,1.97-1.97C-48.243,23.09-47.361,23.972-47.361,25.059z"/>
		<path id="XMLID_197_" style="fill:#280089;" d="M-36.08,25.059c0,1.088-0.882,1.97-1.97,1.97c-1.088,0-1.97-0.882-1.97-1.97
			c0-1.088,0.882-1.97,1.97-1.97C-36.962,23.09-36.08,23.972-36.08,25.059z"/>
		<path id="XMLID_196_" style="fill:#280089;" d="M-24.798,25.059c0,1.088-0.882,1.97-1.97,1.97c-1.088,0-1.97-0.882-1.97-1.97
			c0-1.088,0.882-1.97,1.97-1.97C-25.68,23.09-24.798,23.972-24.798,25.059z"/>
		<path id="XMLID_195_" style="fill:#280089;" d="M-13.517,25.059c0,1.088-0.882,1.97-1.97,1.97c-1.088,0-1.97-0.882-1.97-1.97
			c0-1.088,0.882-1.97,1.97-1.97C-14.399,23.09-13.517,23.972-13.517,25.059z"/>
		<path id="XMLID_194_" style="fill:#280089;" d="M-2.235,25.059c0,1.088-0.882,1.97-1.97,1.97c-1.088,0-1.97-0.882-1.97-1.97
			c0-1.088,0.882-1.97,1.97-1.97C-3.117,23.09-2.235,23.972-2.235,25.059z"/>
		<path id="XMLID_193_" style="fill:#280089;" d="M9.046,25.059c0,1.088-0.882,1.97-1.97,1.97c-1.088,0-1.97-0.882-1.97-1.97
			c0-1.088,0.882-1.97,1.97-1.97C8.164,23.09,9.046,23.972,9.046,25.059z"/>
		<path id="XMLID_192_" style="fill:#280089;" d="M20.328,25.059c0,1.088-0.882,1.97-1.97,1.97c-1.088,0-1.97-0.882-1.97-1.97
			c0-1.088,0.882-1.97,1.97-1.97C19.446,23.09,20.328,23.972,20.328,25.059z"/>
		<path id="XMLID_191_" style="fill:#280089;" d="M31.609,25.059c0,1.088-0.882,1.97-1.97,1.97s-1.97-0.882-1.97-1.97
			c0-1.088,0.882-1.97,1.97-1.97S31.609,23.972,31.609,25.059z"/>
		<path id="XMLID_190_" style="fill:#280089;" d="M-58.643,33.297c0,1.088-0.882,1.97-1.97,1.97c-1.088,0-1.97-0.882-1.97-1.97
			c0-1.088,0.882-1.97,1.97-1.97C-59.525,31.327-58.643,32.209-58.643,33.297z"/>
		<path id="XMLID_189_" style="fill:#280089;" d="M-47.361,33.297c0,1.088-0.882,1.97-1.97,1.97c-1.088,0-1.97-0.882-1.97-1.97
			c0-1.088,0.882-1.97,1.97-1.97C-48.243,31.327-47.361,32.209-47.361,33.297z"/>
		<path id="XMLID_188_" style="fill:#280089;" d="M-36.08,33.297c0,1.088-0.882,1.97-1.97,1.97c-1.088,0-1.97-0.882-1.97-1.97
			c0-1.088,0.882-1.97,1.97-1.97C-36.962,31.327-36.08,32.209-36.08,33.297z"/>
		<path id="XMLID_187_" style="fill:#280089;" d="M-24.798,33.297c0,1.088-0.882,1.97-1.97,1.97c-1.088,0-1.97-0.882-1.97-1.97
			c0-1.088,0.882-1.97,1.97-1.97C-25.68,31.327-24.798,32.209-24.798,33.297z"/>
		<path id="XMLID_186_" style="fill:#280089;" d="M-13.517,33.297c0,1.088-0.882,1.97-1.97,1.97c-1.088,0-1.97-0.882-1.97-1.97
			c0-1.088,0.882-1.97,1.97-1.97C-14.399,31.327-13.517,32.209-13.517,33.297z"/>
		<path id="XMLID_185_" style="fill:#280089;" d="M-2.235,33.297c0,1.088-0.882,1.97-1.97,1.97c-1.088,0-1.97-0.882-1.97-1.97
			c0-1.088,0.882-1.97,1.97-1.97C-3.117,31.327-2.235,32.209-2.235,33.297z"/>
		<path id="XMLID_184_" style="fill:#280089;" d="M9.046,33.297c0,1.088-0.882,1.97-1.97,1.97c-1.088,0-1.97-0.882-1.97-1.97
			c0-1.088,0.882-1.97,1.97-1.97C8.164,31.327,9.046,32.209,9.046,33.297z"/>
		<path id="XMLID_183_" style="fill:#280089;" d="M20.328,33.297c0,1.088-0.882,1.97-1.97,1.97c-1.088,0-1.97-0.882-1.97-1.97
			c0-1.088,0.882-1.97,1.97-1.97C19.446,31.327,20.328,32.209,20.328,33.297z"/>
		<path id="XMLID_182_" style="fill:#280089;" d="M31.609,33.297c0,1.088-0.882,1.97-1.97,1.97s-1.97-0.882-1.97-1.97
			c0-1.088,0.882-1.97,1.97-1.97S31.609,32.209,31.609,33.297z"/>
		<path id="XMLID_181_" style="fill:#280089;" d="M-58.643,41.534c0,1.088-0.882,1.97-1.97,1.97c-1.088,0-1.97-0.882-1.97-1.97
			c0-1.088,0.882-1.97,1.97-1.97C-59.525,39.564-58.643,40.446-58.643,41.534z"/>
		<path id="XMLID_180_" style="fill:#280089;" d="M-47.361,41.534c0,1.088-0.882,1.97-1.97,1.97c-1.088,0-1.97-0.882-1.97-1.97
			c0-1.088,0.882-1.97,1.97-1.97C-48.243,39.564-47.361,40.446-47.361,41.534z"/>
		<path id="XMLID_179_" style="fill:#280089;" d="M-36.08,41.534c0,1.088-0.882,1.97-1.97,1.97c-1.088,0-1.97-0.882-1.97-1.97
			c0-1.088,0.882-1.97,1.97-1.97C-36.962,39.564-36.08,40.446-36.08,41.534z"/>
		<circle id="XMLID_178_" style="fill:#280089;" cx="-26.768" cy="41.534" r="1.97"/>
		<circle id="XMLID_177_" style="fill:#280089;" cx="-15.486" cy="41.534" r="1.97"/>
		<path id="XMLID_176_" style="fill:#280089;" d="M-2.235,41.534c0,1.088-0.882,1.97-1.97,1.97c-1.088,0-1.97-0.882-1.97-1.97
			c0-1.088,0.882-1.97,1.97-1.97C-3.117,39.564-2.235,40.446-2.235,41.534z"/>
		<circle id="XMLID_175_" style="fill:#280089;" cx="7.077" cy="41.534" r="1.97"/>
		<path id="XMLID_174_" style="fill:#280089;" d="M20.328,41.534c0,1.088-0.882,1.97-1.97,1.97c-1.088,0-1.97-0.882-1.97-1.97
			c0-1.088,0.882-1.97,1.97-1.97C19.446,39.564,20.328,40.446,20.328,41.534z"/>
		<path id="XMLID_173_" style="fill:#280089;" d="M31.609,41.534c0,1.088-0.882,1.97-1.97,1.97s-1.97-0.882-1.97-1.97
			c0-1.088,0.882-1.97,1.97-1.97S31.609,40.446,31.609,41.534z"/>
		<path id="XMLID_172_" style="fill:#280089;" d="M-58.643,49.771c0,1.088-0.882,1.97-1.97,1.97c-1.088,0-1.97-0.882-1.97-1.97
			c0-1.088,0.882-1.97,1.97-1.97C-59.525,47.802-58.643,48.684-58.643,49.771z"/>
		<path id="XMLID_171_" style="fill:#280089;" d="M-47.361,49.771c0,1.088-0.882,1.97-1.97,1.97c-1.088,0-1.97-0.882-1.97-1.97
			c0-1.088,0.882-1.97,1.97-1.97C-48.243,47.802-47.361,48.684-47.361,49.771z"/>
		<path id="XMLID_170_" style="fill:#280089;" d="M-36.08,49.771c0,1.088-0.882,1.97-1.97,1.97c-1.088,0-1.97-0.882-1.97-1.97
			c0-1.088,0.882-1.97,1.97-1.97C-36.962,47.802-36.08,48.684-36.08,49.771z"/>
		<circle id="XMLID_169_" style="fill:#280089;" cx="-26.768" cy="49.771" r="1.97"/>
		<circle id="XMLID_168_" style="fill:#280089;" cx="-15.486" cy="49.771" r="1.97"/>
		<path id="XMLID_167_" style="fill:#280089;" d="M-2.235,49.771c0,1.088-0.882,1.97-1.97,1.97c-1.088,0-1.97-0.882-1.97-1.97
			c0-1.088,0.882-1.97,1.97-1.97C-3.117,47.802-2.235,48.684-2.235,49.771z"/>
		<circle id="XMLID_166_" style="fill:#280089;" cx="7.077" cy="49.771" r="1.97"/>
		<path id="XMLID_165_" style="fill:#280089;" d="M20.328,49.771c0,1.088-0.882,1.97-1.97,1.97c-1.088,0-1.97-0.882-1.97-1.97
			c0-1.088,0.882-1.97,1.97-1.97C19.446,47.802,20.328,48.684,20.328,49.771z"/>
		<path id="XMLID_164_" style="fill:#280089;" d="M31.609,49.771c0,1.088-0.882,1.97-1.97,1.97s-1.97-0.882-1.97-1.97
			c0-1.088,0.882-1.97,1.97-1.97S31.609,48.684,31.609,49.771z"/>
		<path id="XMLID_163_" style="fill:#280089;" d="M-58.643,58.009c0,1.088-0.882,1.97-1.97,1.97c-1.088,0-1.97-0.882-1.97-1.97
			c0-1.088,0.882-1.97,1.97-1.97C-59.525,56.039-58.643,56.921-58.643,58.009z"/>
		<path id="XMLID_162_" style="fill:#280089;" d="M-47.361,58.009c0,1.088-0.882,1.97-1.97,1.97c-1.088,0-1.97-0.882-1.97-1.97
			c0-1.088,0.882-1.97,1.97-1.97C-48.243,56.039-47.361,56.921-47.361,58.009z"/>
		<path id="XMLID_161_" style="fill:#280089;" d="M-36.08,58.009c0,1.088-0.882,1.97-1.97,1.97c-1.088,0-1.97-0.882-1.97-1.97
			c0-1.088,0.882-1.97,1.97-1.97C-36.962,56.039-36.08,56.921-36.08,58.009z"/>
		<path id="XMLID_160_" style="fill:#280089;" d="M-24.798,58.009c0,1.088-0.882,1.97-1.97,1.97c-1.088,0-1.97-0.882-1.97-1.97
			c0-1.088,0.882-1.97,1.97-1.97C-25.68,56.039-24.798,56.921-24.798,58.009z"/>
		<path id="XMLID_159_" style="fill:#280089;" d="M-13.517,58.009c0,1.088-0.882,1.97-1.97,1.97c-1.088,0-1.97-0.882-1.97-1.97
			c0-1.088,0.882-1.97,1.97-1.97C-14.399,56.039-13.517,56.921-13.517,58.009z"/>
		<path id="XMLID_158_" style="fill:#280089;" d="M-2.235,58.009c0,1.088-0.882,1.97-1.97,1.97c-1.088,0-1.97-0.882-1.97-1.97
			c0-1.088,0.882-1.97,1.97-1.97C-3.117,56.039-2.235,56.921-2.235,58.009z"/>
		<path id="XMLID_157_" style="fill:#280089;" d="M9.046,58.009c0,1.088-0.882,1.97-1.97,1.97c-1.088,0-1.97-0.882-1.97-1.97
			c0-1.088,0.882-1.97,1.97-1.97C8.164,56.039,9.046,56.921,9.046,58.009z"/>
		<path id="XMLID_156_" style="fill:#280089;" d="M20.328,58.009c0,1.088-0.882,1.97-1.97,1.97c-1.088,0-1.97-0.882-1.97-1.97
			c0-1.088,0.882-1.97,1.97-1.97C19.446,56.039,20.328,56.921,20.328,58.009z"/>
		<path id="XMLID_155_" style="fill:#280089;" d="M31.609,58.009c0,1.088-0.882,1.97-1.97,1.97s-1.97-0.882-1.97-1.97
			c0-1.088,0.882-1.97,1.97-1.97S31.609,56.921,31.609,58.009z"/>
		<path id="XMLID_152_" style="fill:#280089;" d="M-58.643,66.246c0,1.088-0.882,1.97-1.97,1.97c-1.088,0-1.97-0.882-1.97-1.97
			c0-1.088,0.882-1.97,1.97-1.97C-59.525,64.276-58.643,65.158-58.643,66.246z"/>
		<path id="XMLID_151_" style="fill:#280089;" d="M-47.361,66.246c0,1.088-0.882,1.97-1.97,1.97c-1.088,0-1.97-0.882-1.97-1.97
			c0-1.088,0.882-1.97,1.97-1.97C-48.243,64.276-47.361,65.158-47.361,66.246z"/>
		<path id="XMLID_148_" style="fill:#280089;" d="M-36.08,66.246c0,1.088-0.882,1.97-1.97,1.97c-1.088,0-1.97-0.882-1.97-1.97
			c0-1.088,0.882-1.97,1.97-1.97C-36.962,64.276-36.08,65.158-36.08,66.246z"/>
		<circle id="XMLID_147_" style="fill:#280089;" cx="-26.768" cy="66.246" r="1.97"/>
		<circle id="XMLID_144_" style="fill:#280089;" cx="-15.486" cy="66.246" r="1.97"/>
		<path id="XMLID_143_" style="fill:#280089;" d="M-2.235,66.246c0,1.088-0.882,1.97-1.97,1.97c-1.088,0-1.97-0.882-1.97-1.97
			c0-1.088,0.882-1.97,1.97-1.97C-3.117,64.276-2.235,65.158-2.235,66.246z"/>
		<circle id="XMLID_140_" style="fill:#280089;" cx="7.077" cy="66.246" r="1.97"/>
		<path id="XMLID_139_" style="fill:#280089;" d="M20.328,66.246c0,1.088-0.882,1.97-1.97,1.97c-1.088,0-1.97-0.882-1.97-1.97
			c0-1.088,0.882-1.97,1.97-1.97C19.446,64.276,20.328,65.158,20.328,66.246z"/>
		<path id="XMLID_136_" style="fill:#280089;" d="M31.609,66.246c0,1.088-0.882,1.97-1.97,1.97s-1.97-0.882-1.97-1.97
			c0-1.088,0.882-1.97,1.97-1.97S31.609,65.158,31.609,66.246z"/>
		<path id="XMLID_135_" style="fill:#280089;" d="M-58.643,74.483c0,1.088-0.882,1.97-1.97,1.97c-1.088,0-1.97-0.882-1.97-1.97
			c0-1.088,0.882-1.97,1.97-1.97C-59.525,72.514-58.643,73.396-58.643,74.483z"/>
		<path id="XMLID_130_" style="fill:#280089;" d="M-47.361,74.483c0,1.088-0.882,1.97-1.97,1.97c-1.088,0-1.97-0.882-1.97-1.97
			c0-1.088,0.882-1.97,1.97-1.97C-48.243,72.514-47.361,73.396-47.361,74.483z"/>
		<path id="XMLID_129_" style="fill:#280089;" d="M-36.08,74.483c0,1.088-0.882,1.97-1.97,1.97c-1.088,0-1.97-0.882-1.97-1.97
			c0-1.088,0.882-1.97,1.97-1.97C-36.962,72.514-36.08,73.396-36.08,74.483z"/>
		<path id="XMLID_126_" style="fill:#280089;" d="M-24.798,74.483c0,1.088-0.882,1.97-1.97,1.97c-1.088,0-1.97-0.882-1.97-1.97
			c0-1.088,0.882-1.97,1.97-1.97C-25.68,72.514-24.798,73.396-24.798,74.483z"/>
		<path id="XMLID_125_" style="fill:#280089;" d="M-13.517,74.483c0,1.088-0.882,1.97-1.97,1.97c-1.088,0-1.97-0.882-1.97-1.97
			c0-1.088,0.882-1.97,1.97-1.97C-14.399,72.514-13.517,73.396-13.517,74.483z"/>
		<path id="XMLID_122_" style="fill:#280089;" d="M-2.235,74.483c0,1.088-0.882,1.97-1.97,1.97c-1.088,0-1.97-0.882-1.97-1.97
			c0-1.088,0.882-1.97,1.97-1.97C-3.117,72.514-2.235,73.396-2.235,74.483z"/>
		<path id="XMLID_121_" style="fill:#280089;" d="M9.046,74.483c0,1.088-0.882,1.97-1.97,1.97c-1.088,0-1.97-0.882-1.97-1.97
			c0-1.088,0.882-1.97,1.97-1.97C8.164,72.514,9.046,73.396,9.046,74.483z"/>
		<path id="XMLID_118_" style="fill:#280089;" d="M20.328,74.483c0,1.088-0.882,1.97-1.97,1.97c-1.088,0-1.97-0.882-1.97-1.97
			c0-1.088,0.882-1.97,1.97-1.97C19.446,72.514,20.328,73.396,20.328,74.483z"/>
		<path id="XMLID_117_" style="fill:#280089;" d="M31.609,74.483c0,1.088-0.882,1.97-1.97,1.97s-1.97-0.882-1.97-1.97
			c0-1.088,0.882-1.97,1.97-1.97S31.609,73.396,31.609,74.483z"/>
		<path id="XMLID_114_" style="fill:#280089;" d="M-58.643,82.721c0,1.088-0.882,1.97-1.97,1.97c-1.088,0-1.97-0.882-1.97-1.97
			c0-1.088,0.882-1.97,1.97-1.97C-59.525,80.751-58.643,81.633-58.643,82.721z"/>
		<path id="XMLID_113_" style="fill:#280089;" d="M-47.361,82.721c0,1.088-0.882,1.97-1.97,1.97c-1.088,0-1.97-0.882-1.97-1.97
			c0-1.088,0.882-1.97,1.97-1.97C-48.243,80.751-47.361,81.633-47.361,82.721z"/>
		<path id="XMLID_110_" style="fill:#280089;" d="M-36.08,82.721c0,1.088-0.882,1.97-1.97,1.97c-1.088,0-1.97-0.882-1.97-1.97
			c0-1.088,0.882-1.97,1.97-1.97C-36.962,80.751-36.08,81.633-36.08,82.721z"/>
		<path id="XMLID_109_" style="fill:#280089;" d="M-24.798,82.721c0,1.088-0.882,1.97-1.97,1.97c-1.088,0-1.97-0.882-1.97-1.97
			c0-1.088,0.882-1.97,1.97-1.97C-25.68,80.751-24.798,81.633-24.798,82.721z"/>
		<path id="XMLID_108_" style="fill:#280089;" d="M-13.517,82.721c0,1.088-0.882,1.97-1.97,1.97c-1.088,0-1.97-0.882-1.97-1.97
			c0-1.088,0.882-1.97,1.97-1.97C-14.399,80.751-13.517,81.633-13.517,82.721z"/>
		<path id="XMLID_106_" style="fill:#280089;" d="M-2.235,82.721c0,1.088-0.882,1.97-1.97,1.97c-1.088,0-1.97-0.882-1.97-1.97
			c0-1.088,0.882-1.97,1.97-1.97C-3.117,80.751-2.235,81.633-2.235,82.721z"/>
		<path id="XMLID_104_" style="fill:#280089;" d="M9.046,82.721c0,1.088-0.882,1.97-1.97,1.97c-1.088,0-1.97-0.882-1.97-1.97
			c0-1.088,0.882-1.97,1.97-1.97C8.164,80.751,9.046,81.633,9.046,82.721z"/>
		<path id="XMLID_103_" style="fill:#280089;" d="M20.328,82.721c0,1.088-0.882,1.97-1.97,1.97c-1.088,0-1.97-0.882-1.97-1.97
			c0-1.088,0.882-1.97,1.97-1.97C19.446,80.751,20.328,81.633,20.328,82.721z"/>
		<path id="XMLID_100_" style="fill:#280089;" d="M31.609,82.721c0,1.088-0.882,1.97-1.97,1.97s-1.97-0.882-1.97-1.97
			c0-1.088,0.882-1.97,1.97-1.97S31.609,81.633,31.609,82.721z"/>
	</g>
	
		<line style="clip-path:url(#SVGID_00000075867297077125569940000009009307284224793258_);fill:none;stroke:#FFFFFF;stroke-width:6.107;stroke-linecap:round;stroke-linejoin:round;stroke-miterlimit:10;" x1="19.742" y1="143.69" x2="31.659" y2="131.773"/>
	
		<line style="clip-path:url(#SVGID_00000075867297077125569940000009009307284224793258_);fill:none;stroke:#FFFFFF;stroke-width:6.107;stroke-linecap:round;stroke-linejoin:round;stroke-miterlimit:10;" x1="543.753" y1="328.305" x2="555.67" y2="316.387"/>
	
		<line style="clip-path:url(#SVGID_00000075867297077125569940000009009307284224793258_);fill:none;stroke:#FFFFFF;stroke-width:6.107;stroke-linecap:round;stroke-linejoin:round;stroke-miterlimit:10;" x1="439.987" y1="43.553" x2="428.07" y2="31.636"/>
	
		<line style="clip-path:url(#SVGID_00000075867297077125569940000009009307284224793258_);fill:none;stroke:#FFFFFF;stroke-width:6.107;stroke-linecap:round;stroke-linejoin:round;stroke-miterlimit:10;" x1="451.573" y1="386.178" x2="439.656" y2="374.261"/>
	
		<line style="clip-path:url(#SVGID_00000075867297077125569940000009009307284224793258_);fill:none;stroke:#FFFFFF;stroke-width:6.107;stroke-linecap:round;stroke-linejoin:round;stroke-miterlimit:10;" x1="153.906" y1="406.592" x2="141.99" y2="394.675"/>
	
		<polyline style="clip-path:url(#SVGID_00000075867297077125569940000009009307284224793258_);fill:none;stroke:#FFFFFF;stroke-width:2.2901;stroke-linecap:round;stroke-linejoin:round;stroke-miterlimit:10;" points="
		42.719,338.374 36.865,332.521 30.838,338.549 30.838,338.374 24.985,332.521 18.957,338.549 18.957,338.374 13.104,332.521 
		7.076,338.549 7.076,338.374 1.223,332.521 -4.804,338.549 -4.804,338.374 -10.657,332.521 -16.685,338.549 -16.685,338.374 
		-22.538,332.521 -28.566,338.549 	"/>
	
		<polyline style="clip-path:url(#SVGID_00000075867297077125569940000009009307284224793258_);fill:none;stroke:#FFFFFF;stroke-width:2.2901;stroke-linecap:round;stroke-linejoin:round;stroke-miterlimit:10;" points="
		607.916,160.888 602.063,155.035 596.035,161.062 596.035,160.888 590.182,155.035 584.155,161.062 584.155,160.888 
		578.302,155.035 572.274,161.062 572.274,160.888 566.421,155.035 560.393,161.062 560.393,160.888 554.54,155.035 
		548.513,161.062 548.513,160.888 542.659,155.035 536.632,161.062 	"/>
	<g style="clip-path:url(#SVGID_00000075867297077125569940000009009307284224793258_);">
		
			<ellipse id="XMLID_260_" transform="matrix(0.2815 -0.9596 0.9596 0.2815 334.9573 611.7083)" style="fill:#280089;" cx="575.958" cy="82.18" rx="30.885" ry="30.885"/>
		
			<ellipse id="XMLID_98_" transform="matrix(0.7628 -0.6466 0.6466 0.7628 86.1369 399.1908)" style="fill:#F0CB39;" cx="587.214" cy="82.18" rx="30.885" ry="30.885"/>
	</g>
	<g style="clip-path:url(#SVGID_00000075867297077125569940000009009307284224793258_);">
		<g>
			<path style="fill:#280089;" d="M46.779,103.543c-4.702,3.108-11.056,3.006-15.708-0.691c-5.788-4.599-6.753-13.02-2.154-18.808
				c11.539-14.523,9.11-35.727-5.413-47.267C8.981,25.24-12.222,27.667-23.761,42.192c-4.599,5.787-13.02,6.753-18.808,2.154
				c-5.788-4.599-6.753-13.019-2.154-18.808C-34.686,12.903-20.328,4.933-4.296,3.097c16.032-1.836,31.82,2.681,44.454,12.719
				c26.082,20.723,30.442,58.801,9.72,84.882C48.976,101.835,47.926,102.785,46.779,103.543z"/>
		</g>
		<g>
			<path style="fill:#79DAD2;" d="M45.471,90.691c-4.702,3.108-11.056,3.006-15.708-0.69c-5.788-4.599-6.753-13.02-2.154-18.808
				c11.539-14.523,9.11-35.727-5.413-47.267C7.672,12.387-13.531,14.814-25.07,29.339c-4.599,5.787-13.02,6.753-18.808,2.154
				c-5.788-4.599-6.753-13.019-2.154-18.808C-35.994,0.051-21.637-7.919-5.604-9.755C10.428-11.59,26.216-7.073,38.85,2.964
				c26.082,20.723,30.442,58.801,9.72,84.882C47.668,88.982,46.618,89.933,45.471,90.691z"/>
		</g>
	</g>
	<g style="clip-path:url(#SVGID_00000075867297077125569940000009009307284224793258_);">
		
			<ellipse id="XMLID_228_" transform="matrix(0.2042 -0.9789 0.9789 0.2042 -185.7403 172.4085)" style="fill:#280089;" cx="13.176" cy="200.451" rx="30.885" ry="30.885"/>
		
			<ellipse id="XMLID_227_" transform="matrix(0.2799 -0.96 0.96 0.2799 -194.1539 164.5264)" style="fill:#F0CB39;" cx="12.601" cy="211.692" rx="30.885" ry="30.885"/>
	</g>
	<g style="clip-path:url(#SVGID_00000075867297077125569940000009009307284224793258_);">
		<path style="fill:#E371A7;" d="M569.042,396.775c-10.729-1.542-18.177-11.489-16.636-22.218
			c1.542-10.729,11.489-18.177,22.218-16.636L569.042,396.775z"/>
		<path style="fill:none;stroke:#280089;stroke-width:2.2901;stroke-miterlimit:10;" d="M564.675,388.564
			c-10.729-1.542-18.177-11.489-16.636-22.218c1.541-10.729,11.489-18.177,22.218-16.636L564.675,388.564z"/>
	</g>
</g>
</svg>
