<?xml version="1.0" encoding="utf-8"?>
<!-- Generator: Adobe Illustrator 27.5.0, SVG Export Plug-In . SVG Version: 6.00 Build 0)  -->
<svg version="1.1" xmlns="http://www.w3.org/2000/svg" xmlns:xlink="http://www.w3.org/1999/xlink" x="0px" y="0px"
	 viewBox="0 0 500 500" style="enable-background:new 0 0 500 500;" xml:space="preserve">
<g id="BACKGROUND">
	<rect style="fill:#1B87C9;" width="500" height="500"/>
</g>
<g id="OBJECTS">
	<g>
		<g>
			<path style="fill:#1565C0;" d="M172.419,95.227c-1.431-0.239-2.799-0.657-4.1-1.252c-1.301-0.594-2.396-1.311-3.292-2.149
				l1.801-2.593c0.149-0.211,0.351-0.388,0.607-0.532c0.255-0.142,0.526-0.213,0.814-0.212c0.297,0.001,0.602,0.08,0.915,0.234
				c0.313,0.158,0.651,0.348,1.019,0.573c0.364,0.228,0.765,0.454,1.203,0.687c0.433,0.229,0.932,0.422,1.492,0.573l0.71-7.063
				c-0.895-0.254-1.787-0.548-2.671-0.889c-0.886-0.339-1.683-0.797-2.39-1.374c-0.71-0.575-1.283-1.309-1.725-2.198
				c-0.439-0.889-0.66-2.001-0.655-3.341c0.003-0.989,0.206-1.949,0.605-2.887c0.4-0.937,0.984-1.78,1.753-2.526
				c0.769-0.749,1.712-1.364,2.836-1.843c1.123-0.478,2.408-0.715,3.852-0.712l0.208-2.109c0.039-0.354,0.197-0.673,0.472-0.958
				c0.274-0.284,0.631-0.425,1.065-0.425l2.132,0.007l-0.382,3.68c1.346,0.252,2.501,0.658,3.474,1.214
				c0.967,0.558,1.787,1.154,2.462,1.79l-1.427,2.072c-0.212,0.311-0.426,0.538-0.645,0.68c-0.219,0.144-0.476,0.214-0.775,0.212
				c-0.202,0.001-0.426-0.044-0.676-0.131c-0.248-0.088-0.522-0.198-0.821-0.33c-0.298-0.13-0.619-0.272-0.958-0.422
				c-0.347-0.151-0.709-0.282-1.096-0.394l-0.671,6.633c0.601,0.176,1.196,0.368,1.794,0.575c0.599,0.207,1.174,0.445,1.727,0.714
				c0.556,0.269,1.071,0.579,1.549,0.928c0.478,0.351,0.896,0.764,1.252,1.237c0.356,0.474,0.628,1.021,0.827,1.637
				c0.198,0.619,0.295,1.319,0.296,2.104c-0.004,1.184-0.206,2.296-0.61,3.336c-0.398,1.038-0.989,1.955-1.759,2.751
				c-0.775,0.796-1.726,1.446-2.847,1.947c-1.124,0.501-2.409,0.807-3.854,0.916l-0.231,2.337c-0.036,0.347-0.193,0.663-0.467,0.94
				c-0.275,0.282-0.632,0.421-1.068,0.421l-2.13-0.006L172.419,95.227z M171.606,75.17c-0.003,0.736,0.23,1.33,0.699,1.787
				c0.465,0.456,1.077,0.841,1.837,1.153l0.575-5.643c-0.574,0.084-1.058,0.212-1.45,0.381c-0.393,0.166-0.71,0.366-0.954,0.604
				c-0.244,0.237-0.426,0.502-0.534,0.793C171.665,74.54,171.605,74.846,171.606,75.17z M179.503,87.283
				c0-0.71-0.223-1.279-0.678-1.702c-0.452-0.427-1.056-0.782-1.802-1.071l-0.611,6.168
				C178.465,90.322,179.498,89.188,179.503,87.283z"/>
		</g>
	</g>
	<g>
		<g>
			<path style="fill:#1565C0;" d="M386.493,267.393c-1.591-0.265-3.109-0.73-4.554-1.392c-1.447-0.659-2.662-1.457-3.657-2.386
				l2-2.88c0.166-0.234,0.39-0.432,0.675-0.592c0.283-0.156,0.584-0.236,0.905-0.233c0.329,0,0.667,0.088,1.016,0.26
				c0.348,0.176,0.724,0.386,1.131,0.636c0.404,0.252,0.851,0.505,1.336,0.764c0.482,0.253,1.035,0.467,1.657,0.635l0.79-7.844
				c-0.996-0.281-1.987-0.61-2.968-0.987c-0.984-0.378-1.869-0.887-2.655-1.526c-0.787-0.64-1.424-1.454-1.913-2.442
				c-0.489-0.987-0.733-2.222-0.728-3.71c0.004-1.099,0.228-2.165,0.673-3.206c0.443-1.041,1.092-1.978,1.944-2.806
				c0.857-0.831,1.902-1.514,3.152-2.046c1.248-0.53,2.673-0.793,4.277-0.79l0.232-2.342c0.042-0.394,0.219-0.747,0.524-1.064
				c0.303-0.316,0.701-0.473,1.182-0.473l2.367,0.007l-0.423,4.086c1.493,0.28,2.777,0.732,3.856,1.35
				c1.076,0.619,1.987,1.281,2.735,1.988l-1.584,2.301c-0.237,0.345-0.475,0.597-0.718,0.756c-0.243,0.159-0.526,0.236-0.86,0.235
				c-0.224,0.001-0.473-0.049-0.75-0.145c-0.276-0.099-0.579-0.221-0.911-0.367c-0.333-0.145-0.689-0.301-1.065-0.469
				c-0.386-0.167-0.788-0.314-1.217-0.438l-0.746,7.367c0.669,0.196,1.33,0.408,1.992,0.638c0.667,0.23,1.305,0.494,1.918,0.793
				c0.617,0.299,1.189,0.643,1.72,1.03c0.53,0.389,0.995,0.848,1.391,1.373c0.396,0.527,0.7,1.134,0.919,1.819
				c0.221,0.688,0.327,1.465,0.329,2.336c-0.004,1.315-0.23,2.55-0.677,3.704c-0.442,1.153-1.1,2.171-1.954,3.057
				c-0.86,0.884-1.918,1.605-3.161,2.161c-1.25,0.557-2.676,0.896-4.282,1.018l-0.257,2.595c-0.039,0.386-0.212,0.737-0.517,1.045
				c-0.307,0.313-0.702,0.467-1.186,0.467l-2.365-0.006L386.493,267.393z M385.591,245.118c-0.003,0.816,0.254,1.476,0.773,1.983
				c0.518,0.506,1.197,0.934,2.043,1.282l0.637-6.268c-0.637,0.094-1.175,0.235-1.608,0.422c-0.438,0.185-0.79,0.407-1.059,0.671
				c-0.273,0.264-0.474,0.557-0.593,0.88C385.656,244.417,385.588,244.757,385.591,245.118z M394.361,258.569
				c0-0.79-0.247-1.421-0.755-1.892c-0.499-0.474-1.173-0.867-2-1.188l-0.679,6.849
				C393.208,261.943,394.354,260.684,394.361,258.569z"/>
		</g>
	</g>
	<g>
		<g>
			<path style="fill:#1565C0;" d="M327.379,104.631c-2.423-0.404-4.741-1.112-6.944-2.12c-2.201-1.007-4.056-2.22-5.57-3.638
				l3.048-4.389c0.253-0.357,0.594-0.658,1.027-0.902c0.431-0.239,0.892-0.36,1.378-0.357c0.503,0.002,1.021,0.134,1.549,0.397
				c0.528,0.268,1.102,0.589,1.727,0.969c0.615,0.386,1.296,0.769,2.035,1.163c0.734,0.388,1.579,0.713,2.526,0.97l1.202-11.958
				c-1.515-0.429-3.027-0.93-4.52-1.506c-1.5-0.574-2.851-1.35-4.048-2.327c-1.2-0.975-2.172-2.216-2.92-3.722
				c-0.743-1.504-1.115-3.387-1.108-5.656c0.007-1.673,0.35-3.299,1.026-4.887c0.678-1.587,1.667-3.014,2.965-4.277
				c1.304-1.267,2.901-2.308,4.804-3.12c1.903-0.808,4.075-1.209,6.523-1.204l0.351-3.571c0.067-0.6,0.335-1.14,0.8-1.622
				c0.464-0.481,1.071-0.721,1.803-0.72l3.608,0.01l-0.646,6.23c2.279,0.427,4.235,1.114,5.881,2.057
				c1.64,0.944,3.027,1.953,4.172,3.031l-2.417,3.507c-0.36,0.524-0.724,0.91-1.093,1.151c-0.371,0.243-0.806,0.361-1.313,0.359
				c-0.343,0.001-0.721-0.074-1.145-0.222c-0.421-0.149-0.884-0.335-1.39-0.559c-0.505-0.221-1.047-0.46-1.622-0.714
				c-0.586-0.256-1.199-0.479-1.854-0.668l-1.135,11.229c1.016,0.299,2.025,0.622,3.036,0.972c1.015,0.351,1.986,0.754,2.922,1.209
				c0.943,0.456,1.815,0.981,2.623,1.571c0.809,0.593,1.517,1.293,2.119,2.095c0.604,0.801,1.066,1.728,1.401,2.771
				c0.336,1.048,0.5,2.232,0.502,3.562c-0.008,2.004-0.35,3.887-1.034,5.647c-0.672,1.757-1.675,3.31-2.978,4.657
				c-1.313,1.349-2.923,2.449-4.819,3.297c-1.903,0.85-4.077,1.366-6.525,1.552l-0.392,3.956c-0.06,0.588-0.325,1.122-0.79,1.592
				c-0.464,0.477-1.068,0.712-1.808,0.712l-3.606-0.01L327.379,104.631z M326.002,70.677c-0.004,1.246,0.39,2.251,1.182,3.025
				c0.787,0.771,1.823,1.423,3.11,1.954l0.974-9.553c-0.971,0.143-1.79,0.359-2.453,0.644c-0.666,0.282-1.204,0.621-1.615,1.022
				c-0.414,0.402-0.722,0.849-0.906,1.343C326.103,69.608,326,70.127,326.002,70.677z M339.371,91.181
				c0.002-1.202-0.377-2.165-1.147-2.881c-0.766-0.722-1.788-1.323-3.051-1.813l-1.036,10.441
				C337.613,96.326,339.361,94.408,339.371,91.181z"/>
		</g>
	</g>
	<g>
		<g>
			<path style="fill:#1565C0;" d="M152.384,225.53c-2.071-0.345-4.051-0.95-5.935-1.813c-1.883-0.86-3.468-1.898-4.765-3.109
				l2.608-3.752c0.215-0.306,0.507-0.564,0.879-0.772c0.369-0.205,0.761-0.308,1.179-0.306c0.429,0.003,0.871,0.116,1.323,0.34
				c0.451,0.229,0.941,0.504,1.475,0.829c0.527,0.33,1.109,0.657,1.742,0.994c0.626,0.333,1.349,0.61,2.16,0.83l1.028-10.223
				c-1.296-0.367-2.588-0.795-3.866-1.287c-1.284-0.492-2.436-1.155-3.459-1.99c-1.029-0.834-1.858-1.894-2.497-3.182
				c-0.636-1.287-0.954-2.895-0.949-4.836c0.005-1.431,0.298-2.821,0.876-4.178c0.58-1.357,1.426-2.578,2.537-3.658
				c1.114-1.083,2.479-1.973,4.107-2.668c1.626-0.691,3.484-1.034,5.577-1.03l0.301-3.053c0.056-0.512,0.285-0.974,0.683-1.386
				c0.397-0.412,0.915-0.616,1.542-0.615l3.085,0.009l-0.551,5.327c1.948,0.364,3.62,0.951,5.028,1.757
				c1.401,0.808,2.587,1.671,3.565,2.591l-2.065,2.999c-0.308,0.448-0.618,0.777-0.935,0.984c-0.316,0.207-0.688,0.31-1.123,0.308
				c-0.292,0.001-0.617-0.063-0.978-0.19c-0.359-0.127-0.755-0.286-1.188-0.478c-0.432-0.188-0.896-0.393-1.387-0.61
				c-0.502-0.219-1.026-0.41-1.585-0.572l-0.972,9.601c0.87,0.255,1.733,0.531,2.597,0.832c0.868,0.3,1.7,0.644,2.499,1.033
				c0.805,0.39,1.551,0.839,2.243,1.344c0.691,0.506,1.296,1.104,1.813,1.79c0.516,0.684,0.91,1.477,1.197,2.369
				c0.287,0.896,0.428,1.908,0.429,3.045c-0.007,1.714-0.299,3.324-0.884,4.828c-0.575,1.503-1.431,2.83-2.546,3.981
				c-1.122,1.154-2.499,2.094-4.122,2.819c-1.627,0.727-3.486,1.167-5.577,1.326l-0.335,3.382c-0.052,0.503-0.279,0.96-0.675,1.361
				c-0.398,0.409-0.915,0.609-1.546,0.609l-3.084-0.009L152.384,225.53z M151.207,196.501c-0.003,1.065,0.334,1.925,1.012,2.586
				c0.674,0.659,1.559,1.217,2.66,1.669l0.832-8.168c-0.83,0.123-1.532,0.308-2.098,0.551c-0.569,0.241-1.029,0.529-1.382,0.874
				c-0.354,0.343-0.614,0.726-0.771,1.148C151.294,195.586,151.206,196.031,151.207,196.501z M162.638,214.032
				c0.001-1.029-0.323-1.851-0.982-2.464c-0.653-0.617-1.528-1.131-2.607-1.55l-0.885,8.926
				C161.136,218.429,162.63,216.79,162.638,214.032z"/>
		</g>
	</g>
	<g>
		<g>
			<path style="fill:#1565C0;" d="M113.484,151.485c-1.26-0.21-2.466-0.579-3.612-1.103c-1.146-0.524-2.111-1.156-2.9-1.893
				l1.587-2.284c0.131-0.186,0.309-0.342,0.535-0.469c0.225-0.125,0.463-0.188,0.718-0.186c0.261,0.001,0.53,0.07,0.805,0.207
				c0.275,0.139,0.573,0.306,0.897,0.504c0.321,0.2,0.675,0.4,1.06,0.604c0.382,0.202,0.821,0.372,1.315,0.505l0.625-6.222
				c-0.788-0.223-1.575-0.484-2.353-0.783c-0.781-0.299-1.483-0.704-2.105-1.211c-0.626-0.508-1.13-1.153-1.52-1.937
				c-0.387-0.783-0.58-1.762-0.577-2.943c0.003-0.871,0.182-1.718,0.534-2.543c0.352-0.826,0.867-1.569,1.543-2.226
				c0.678-0.659,1.508-1.201,2.499-1.624c0.99-0.42,2.121-0.629,3.395-0.627l0.184-1.858c0.033-0.312,0.173-0.593,0.415-0.844
				c0.242-0.251,0.557-0.375,0.938-0.374l1.878,0.006l-0.336,3.242c1.186,0.222,2.203,0.579,3.06,1.07
				c0.853,0.492,1.574,1.017,2.17,1.577l-1.257,1.826c-0.188,0.273-0.376,0.474-0.569,0.599c-0.192,0.126-0.419,0.188-0.683,0.187
				c-0.178,0.001-0.375-0.039-0.595-0.115c-0.219-0.078-0.46-0.174-0.723-0.292c-0.263-0.114-0.545-0.239-0.845-0.371
				c-0.305-0.134-0.625-0.249-0.964-0.348l-0.592,5.844c0.53,0.155,1.055,0.323,1.581,0.506c0.528,0.183,1.035,0.392,1.521,0.629
				c0.489,0.237,0.943,0.51,1.364,0.818c0.421,0.308,0.79,0.673,1.103,1.09c0.314,0.417,0.554,0.899,0.729,1.442
				c0.175,0.545,0.26,1.161,0.261,1.853c-0.003,1.043-0.182,2.023-0.537,2.938c-0.351,0.915-0.872,1.722-1.549,2.423
				c-0.684,0.702-1.521,1.275-2.509,1.716c-0.99,0.442-2.122,0.71-3.394,0.807l-0.204,2.059c-0.032,0.306-0.17,0.583-0.411,0.828
				c-0.242,0.248-0.557,0.371-0.941,0.371l-1.877-0.005L113.484,151.485z M112.768,133.817c-0.002,0.648,0.204,1.171,0.616,1.574
				c0.41,0.401,0.949,0.741,1.619,1.016l0.506-4.971c-0.505,0.075-0.932,0.187-1.276,0.335c-0.346,0.146-0.626,0.323-0.841,0.532
				c-0.215,0.209-0.374,0.441-0.471,0.698C112.821,133.261,112.768,133.531,112.768,133.817z M119.726,144.487
				c0.001-0.626-0.196-1.127-0.597-1.5c-0.398-0.376-0.93-0.688-1.587-0.943l-0.539,5.432
				C118.812,147.164,119.721,146.166,119.726,144.487z"/>
		</g>
	</g>
	<g>
		<g>
			<path style="fill:#1565C0;" d="M460.751,205.956c-1.261-0.21-2.465-0.579-3.612-1.103c-1.147-0.524-2.112-1.156-2.899-1.893
				l1.587-2.284c0.13-0.186,0.308-0.342,0.535-0.47c0.224-0.124,0.463-0.187,0.717-0.186c0.261,0.001,0.529,0.07,0.805,0.208
				c0.275,0.139,0.573,0.306,0.899,0.504c0.32,0.2,0.675,0.4,1.06,0.604c0.381,0.202,0.82,0.371,1.314,0.505l0.627-6.223
				c-0.791-0.223-1.576-0.483-2.356-0.783c-0.781-0.299-1.481-0.703-2.104-1.21c-0.625-0.508-1.13-1.153-1.52-1.937
				c-0.388-0.783-0.582-1.762-0.577-2.943c0.002-0.871,0.182-1.717,0.533-2.542c0.352-0.826,0.867-1.569,1.544-2.226
				c0.678-0.66,1.509-1.201,2.498-1.624c0.991-0.42,2.122-0.63,3.395-0.627l0.184-1.858c0.035-0.312,0.175-0.593,0.415-0.844
				c0.241-0.25,0.559-0.375,0.939-0.374l1.879,0.005l-0.338,3.242c1.186,0.222,2.205,0.579,3.06,1.07
				c0.852,0.492,1.576,1.017,2.171,1.577l-1.256,1.826c-0.19,0.273-0.377,0.473-0.571,0.599c-0.192,0.126-0.419,0.188-0.683,0.187
				c-0.179,0.001-0.376-0.039-0.595-0.116c-0.219-0.077-0.46-0.174-0.723-0.291c-0.264-0.114-0.546-0.238-0.847-0.371
				c-0.305-0.133-0.623-0.249-0.964-0.348l-0.591,5.844c0.528,0.155,1.056,0.323,1.58,0.506c0.528,0.183,1.035,0.392,1.521,0.629
				c0.489,0.237,0.943,0.51,1.363,0.818c0.423,0.308,0.79,0.672,1.104,1.09c0.313,0.417,0.553,0.899,0.729,1.442
				c0.174,0.545,0.261,1.162,0.261,1.853c-0.005,1.043-0.182,2.023-0.538,2.938c-0.35,0.915-0.872,1.723-1.549,2.423
				c-0.684,0.703-1.523,1.275-2.509,1.716c-0.989,0.442-2.123,0.71-3.395,0.807l-0.204,2.059c-0.033,0.305-0.17,0.583-0.411,0.828
				c-0.241,0.249-0.558,0.371-0.94,0.371l-1.876-0.005L460.751,205.956z M460.034,188.288c-0.002,0.648,0.204,1.172,0.617,1.574
				c0.41,0.401,0.947,0.74,1.618,1.016l0.507-4.971c-0.505,0.075-0.932,0.187-1.277,0.336c-0.347,0.146-0.626,0.323-0.841,0.532
				c-0.214,0.208-0.374,0.441-0.471,0.698C460.088,187.731,460.034,188.002,460.034,188.288z M466.993,198.958
				c0-0.626-0.197-1.126-0.598-1.5c-0.397-0.376-0.932-0.688-1.588-0.943l-0.538,5.433
				C466.077,201.634,466.987,200.636,466.993,198.958z"/>
		</g>
	</g>
	<g>
		<g>
			<path style="fill:#1565C0;" d="M172.715,349.478c-1.26-0.211-2.466-0.58-3.612-1.105c-1.146-0.523-2.111-1.153-2.9-1.891
				l1.587-2.286c0.131-0.186,0.309-0.341,0.535-0.47c0.225-0.123,0.463-0.186,0.718-0.186c0.261,0.002,0.53,0.071,0.805,0.209
				c0.275,0.139,0.573,0.305,0.898,0.504c0.321,0.199,0.675,0.398,1.06,0.604c0.382,0.201,0.822,0.371,1.315,0.504l0.626-6.223
				c-0.789-0.223-1.575-0.484-2.353-0.783c-0.781-0.298-1.483-0.702-2.105-1.209c-0.626-0.51-1.13-1.153-1.52-1.939
				c-0.387-0.783-0.581-1.762-0.577-2.943c0.003-0.869,0.181-1.717,0.534-2.542c0.352-0.825,0.867-1.569,1.544-2.227
				c0.678-0.658,1.508-1.201,2.499-1.624c0.99-0.42,2.121-0.628,3.395-0.625l0.184-1.859c0.033-0.313,0.173-0.593,0.415-0.843
				c0.242-0.253,0.557-0.376,0.938-0.376l1.878,0.007l-0.336,3.241c1.186,0.222,2.204,0.58,3.061,1.07
				c0.852,0.491,1.574,1.017,2.169,1.576l-1.257,1.824c-0.188,0.275-0.376,0.475-0.569,0.601c-0.192,0.126-0.419,0.188-0.683,0.188
				c-0.178,0-0.375-0.04-0.595-0.118c-0.219-0.077-0.459-0.173-0.723-0.289c-0.262-0.115-0.545-0.239-0.845-0.372
				c-0.305-0.133-0.625-0.251-0.964-0.348l-0.592,5.844c0.53,0.155,1.055,0.323,1.581,0.507c0.528,0.181,1.035,0.392,1.521,0.628
				c0.489,0.237,0.943,0.512,1.364,0.818c0.421,0.309,0.79,0.671,1.104,1.09c0.314,0.415,0.554,0.898,0.729,1.442
				c0.174,0.544,0.26,1.161,0.261,1.852c-0.004,1.044-0.182,2.024-0.538,2.938c-0.351,0.916-0.871,1.724-1.549,2.425
				c-0.683,0.701-1.521,1.274-2.509,1.715c-0.99,0.443-2.122,0.711-3.394,0.808l-0.204,2.058c-0.032,0.308-0.17,0.585-0.411,0.83
				c-0.242,0.248-0.557,0.37-0.941,0.37l-1.877-0.006L172.715,349.478z M171.998,331.807c-0.001,0.648,0.204,1.173,0.616,1.576
				c0.41,0.399,0.949,0.738,1.619,1.015l0.506-4.971c-0.505,0.075-0.932,0.188-1.276,0.336c-0.346,0.146-0.626,0.322-0.841,0.53
				c-0.215,0.21-0.375,0.443-0.471,0.7C172.052,331.252,171.998,331.522,171.998,331.807z M178.956,342.478
				c0-0.625-0.196-1.128-0.597-1.499c-0.398-0.376-0.93-0.688-1.587-0.943l-0.539,5.433
				C178.042,345.153,178.952,344.155,178.956,342.478z"/>
		</g>
	</g>
	<g>
		<g>
			<path style="fill:#1565C0;" d="M96.712,298.982c-1.261-0.21-2.465-0.58-3.612-1.104s-2.111-1.155-2.9-1.892l1.587-2.286
				c0.131-0.186,0.309-0.34,0.535-0.469c0.225-0.124,0.463-0.186,0.718-0.186c0.261,0.002,0.53,0.071,0.806,0.208
				c0.274,0.14,0.573,0.306,0.897,0.504c0.321,0.199,0.675,0.399,1.06,0.604c0.382,0.202,0.821,0.372,1.315,0.505l0.625-6.223
				c-0.789-0.224-1.575-0.484-2.354-0.783c-0.781-0.299-1.483-0.704-2.105-1.21c-0.626-0.509-1.131-1.153-1.52-1.939
				c-0.387-0.783-0.581-1.761-0.578-2.942c0.003-0.87,0.181-1.717,0.534-2.543c0.352-0.825,0.868-1.568,1.544-2.225
				c0.678-0.659,1.508-1.201,2.499-1.624c0.99-0.421,2.121-0.629,3.394-0.626l0.184-1.858c0.034-0.313,0.173-0.593,0.416-0.843
				c0.242-0.253,0.556-0.377,0.938-0.377l1.878,0.007l-0.335,3.241c1.185,0.222,2.203,0.58,3.06,1.071
				c0.852,0.491,1.574,1.016,2.169,1.575l-1.256,1.825c-0.188,0.274-0.376,0.475-0.569,0.6c-0.192,0.126-0.418,0.188-0.684,0.188
				c-0.177,0-0.374-0.04-0.595-0.117c-0.219-0.077-0.46-0.173-0.723-0.289c-0.263-0.116-0.544-0.239-0.844-0.372
				c-0.306-0.133-0.624-0.251-0.965-0.348l-0.591,5.843c0.529,0.156,1.055,0.324,1.58,0.508c0.528,0.181,1.035,0.392,1.521,0.628
				c0.49,0.236,0.944,0.512,1.365,0.818c0.421,0.309,0.789,0.671,1.103,1.088c0.314,0.417,0.554,0.899,0.728,1.443
				c0.175,0.545,0.261,1.162,0.261,1.853c-0.004,1.044-0.182,2.024-0.538,2.939c-0.35,0.916-0.871,1.724-1.549,2.425
				c-0.683,0.701-1.521,1.274-2.509,1.715c-0.99,0.442-2.121,0.71-3.394,0.808l-0.204,2.058c-0.032,0.308-0.17,0.585-0.411,0.83
				c-0.242,0.247-0.557,0.369-0.941,0.369l-1.877-0.005L96.712,298.982z M95.996,281.313c-0.001,0.648,0.204,1.173,0.617,1.574
				c0.409,0.401,0.948,0.74,1.618,1.017l0.506-4.973c-0.505,0.075-0.932,0.188-1.277,0.337c-0.346,0.146-0.626,0.323-0.84,0.531
				c-0.215,0.21-0.375,0.443-0.47,0.699C96.049,280.757,95.995,281.027,95.996,281.313z M102.954,291.983
				c0-0.625-0.197-1.128-0.598-1.499c-0.397-0.376-0.929-0.689-1.587-0.943l-0.538,5.432
				C102.039,294.659,102.948,293.661,102.954,291.983z"/>
		</g>
	</g>
	<g>
		<g>
			<path style="fill:#1565C0;" d="M331.819,356.367c-1.262-0.21-2.468-0.58-3.613-1.104c-1.147-0.521-2.111-1.154-2.901-1.892
				l1.589-2.283c0.131-0.186,0.308-0.343,0.533-0.471c0.225-0.125,0.465-0.186,0.72-0.186c0.261,0.002,0.528,0.071,0.805,0.208
				c0.274,0.139,0.573,0.305,0.896,0.505c0.32,0.199,0.675,0.399,1.06,0.604c0.383,0.203,0.823,0.371,1.316,0.504l0.624-6.221
				c-0.787-0.224-1.575-0.483-2.352-0.784c-0.781-0.298-1.483-0.703-2.107-1.21c-0.627-0.507-1.131-1.153-1.518-1.936
				c-0.387-0.783-0.582-1.763-0.578-2.944c0.004-0.869,0.183-1.718,0.534-2.543c0.352-0.824,0.868-1.568,1.545-2.226
				c0.677-0.659,1.507-1.201,2.498-1.625c0.991-0.419,2.122-0.627,3.394-0.625l0.184-1.859c0.032-0.311,0.172-0.592,0.415-0.843
				c0.241-0.249,0.556-0.376,0.939-0.374l1.879,0.005l-0.337,3.241c1.186,0.224,2.204,0.58,3.061,1.07
				c0.852,0.492,1.572,1.017,2.168,1.578l-1.257,1.826c-0.186,0.272-0.376,0.473-0.569,0.597c-0.191,0.127-0.417,0.189-0.683,0.189
				c-0.178,0-0.374-0.04-0.596-0.115c-0.219-0.077-0.458-0.174-0.722-0.292c-0.263-0.115-0.546-0.239-0.845-0.372
				c-0.306-0.133-0.624-0.247-0.965-0.347l-0.591,5.844c0.529,0.154,1.054,0.322,1.58,0.506c0.528,0.182,1.033,0.392,1.521,0.629
				c0.491,0.237,0.944,0.511,1.365,0.818c0.42,0.308,0.789,0.673,1.104,1.089c0.314,0.419,0.554,0.9,0.728,1.442
				c0.175,0.547,0.262,1.162,0.262,1.854c-0.004,1.042-0.182,2.022-0.538,2.938c-0.35,0.914-0.872,1.723-1.549,2.423
				c-0.684,0.702-1.522,1.275-2.509,1.715c-0.992,0.443-2.122,0.711-3.394,0.808l-0.204,2.061c-0.033,0.305-0.17,0.584-0.411,0.827
				c-0.243,0.249-0.558,0.372-0.941,0.372l-1.879-0.007L331.819,356.367z M331.102,338.699c-0.002,0.648,0.204,1.171,0.615,1.573
				c0.411,0.4,0.949,0.741,1.62,1.016l0.506-4.97c-0.506,0.073-0.934,0.186-1.275,0.334c-0.349,0.146-0.627,0.323-0.841,0.534
				c-0.218,0.207-0.377,0.44-0.473,0.696C331.155,338.142,331.102,338.411,331.102,338.699z M338.059,349.369
				c0.002-0.627-0.194-1.127-0.598-1.501c-0.395-0.376-0.93-0.689-1.587-0.942l-0.537,5.432
				C337.145,352.046,338.054,351.048,338.059,349.369z"/>
		</g>
	</g>
	<g>
		<g>
			<path style="fill:#1565C0;" d="M103.648,408.709c-1.338-0.224-2.617-0.613-3.833-1.17c-1.216-0.556-2.241-1.229-3.079-2.01
				l1.684-2.425c0.14-0.197,0.328-0.363,0.568-0.498c0.238-0.133,0.491-0.199,0.761-0.196c0.277,0,0.563,0.072,0.855,0.219
				c0.292,0.147,0.608,0.325,0.953,0.535c0.34,0.212,0.716,0.425,1.124,0.642c0.406,0.215,0.872,0.395,1.396,0.538l0.664-6.608
				c-0.837-0.234-1.673-0.511-2.498-0.829c-0.83-0.319-1.574-0.745-2.234-1.285c-0.665-0.54-1.201-1.227-1.613-2.057
				c-0.411-0.831-0.617-1.871-0.613-3.124c0.003-0.925,0.192-1.823,0.566-2.699c0.374-0.879,0.92-1.666,1.639-2.363
				c0.72-0.699,1.601-1.274,2.652-1.722c1.05-0.446,2.251-0.67,3.602-0.665l0.195-1.972c0.036-0.332,0.184-0.631,0.441-0.898
				c0.256-0.266,0.591-0.397,0.996-0.397l1.993,0.005l-0.357,3.442c1.259,0.235,2.339,0.615,3.248,1.136
				c0.904,0.522,1.67,1.079,2.302,1.673l-1.334,1.938c-0.199,0.289-0.399,0.502-0.604,0.637c-0.205,0.133-0.444,0.199-0.725,0.196
				c-0.189,0-0.398-0.04-0.632-0.121c-0.232-0.085-0.487-0.186-0.767-0.311c-0.279-0.121-0.578-0.251-0.896-0.394
				c-0.324-0.141-0.663-0.265-1.024-0.369l-0.628,6.202c0.563,0.166,1.12,0.343,1.678,0.538c0.561,0.194,1.098,0.415,1.615,0.668
				c0.52,0.252,1.002,0.542,1.449,0.867c0.447,0.328,0.838,0.714,1.17,1.157c0.334,0.442,0.588,0.953,0.773,1.531
				c0.186,0.577,0.277,1.232,0.277,1.967c-0.004,1.106-0.193,2.146-0.57,3.118c-0.372,0.971-0.926,1.829-1.645,2.571
				c-0.726,0.747-1.615,1.353-2.663,1.822c-1.051,0.47-2.252,0.755-3.603,0.856l-0.216,2.186c-0.034,0.324-0.18,0.62-0.436,0.879
				c-0.257,0.264-0.591,0.395-0.999,0.395l-1.992-0.006L103.648,408.709z M102.889,389.955c-0.002,0.688,0.216,1.244,0.654,1.672
				c0.435,0.425,1.007,0.783,1.718,1.078l0.537-5.277c-0.536,0.08-0.989,0.199-1.355,0.357c-0.367,0.157-0.665,0.341-0.893,0.564
				c-0.228,0.222-0.397,0.469-0.498,0.744C102.945,389.364,102.887,389.652,102.889,389.955z M110.273,401.281
				c0.001-0.664-0.208-1.197-0.634-1.593c-0.422-0.397-0.986-0.729-1.684-1l-0.572,5.766
				C109.303,404.122,110.269,403.063,110.273,401.281z"/>
		</g>
	</g>
	<g>
		<g>
			<path style="fill:#1565C0;" d="M435.102,327.999c-1.325-0.22-2.594-0.606-3.8-1.157c-1.203-0.551-2.216-1.215-3.046-1.992
				l1.667-2.399c0.139-0.195,0.324-0.361,0.563-0.494c0.236-0.131,0.486-0.196,0.754-0.194c0.274,0,0.556,0.073,0.845,0.217
				c0.291,0.146,0.603,0.323,0.945,0.529c0.336,0.212,0.71,0.422,1.113,0.637c0.402,0.212,0.865,0.392,1.383,0.53l0.657-6.54
				c-0.829-0.234-1.655-0.509-2.475-0.822c-0.82-0.316-1.557-0.739-2.212-1.275c-0.657-0.532-1.188-1.213-1.598-2.035
				c-0.407-0.823-0.611-1.852-0.605-3.094c0.002-0.916,0.189-1.803,0.561-2.673c0.369-0.869,0.909-1.648,1.622-2.338
				c0.712-0.695,1.586-1.264,2.626-1.709c1.042-0.441,2.23-0.662,3.569-0.659l0.191-1.951c0.036-0.328,0.183-0.625,0.437-0.89
				c0.254-0.264,0.586-0.393,0.987-0.393l1.973,0.006l-0.352,3.408c1.246,0.233,2.315,0.609,3.218,1.122
				c0.895,0.518,1.655,1.071,2.278,1.659l-1.321,1.919c-0.196,0.288-0.394,0.498-0.597,0.631c-0.204,0.133-0.439,0.199-0.719,0.197
				c-0.185,0-0.393-0.043-0.627-0.122c-0.229-0.082-0.482-0.184-0.758-0.305c-0.277-0.123-0.573-0.253-0.888-0.392
				c-0.323-0.141-0.657-0.262-1.017-0.366l-0.621,6.144c0.558,0.162,1.109,0.34,1.662,0.53c0.555,0.194,1.086,0.413,1.6,0.661
				c0.516,0.251,0.991,0.538,1.434,0.861c0.443,0.323,0.829,0.705,1.159,1.146c0.33,0.439,0.582,0.945,0.766,1.516
				c0.184,0.573,0.274,1.222,0.277,1.948c-0.005,1.098-0.192,2.126-0.566,3.088c-0.37,0.963-0.917,1.81-1.629,2.547
				c-0.719,0.738-1.601,1.341-2.638,1.806c-1.04,0.465-2.23,0.748-3.569,0.848l-0.212,2.164c-0.036,0.32-0.18,0.614-0.434,0.869
				c-0.255,0.264-0.584,0.392-0.989,0.392l-1.972-0.005L435.102,327.999z M434.349,309.428c-0.003,0.682,0.214,1.23,0.647,1.655
				c0.432,0.421,0.998,0.777,1.702,1.066l0.53-5.224c-0.53,0.077-0.977,0.197-1.341,0.352c-0.362,0.154-0.659,0.339-0.883,0.56
				c-0.228,0.218-0.394,0.463-0.496,0.735C434.405,308.842,434.349,309.127,434.349,309.428z M441.663,320.645
				c0-0.657-0.208-1.186-0.629-1.578c-0.418-0.393-0.978-0.724-1.668-0.991l-0.566,5.711
				C440.7,323.457,441.655,322.407,441.663,320.645z"/>
		</g>
	</g>
	<g>
		<defs>
			
				<ellipse id="SVGID_1_" transform="matrix(0.7071 -0.7071 0.7071 0.7071 -104.0294 253.495)" cx="253.981" cy="252.322" rx="180.126" ry="180.126"/>
		</defs>
		<clipPath id="SVGID_00000158745359751717207000000014823814763203874486_">
			<use xlink:href="#SVGID_1_"  style="overflow:visible;"/>
		</clipPath>
		<g style="clip-path:url(#SVGID_00000158745359751717207000000014823814763203874486_);">
			<g>
				<path style="fill:#37474F;" d="M307.46,137.642v116.522c0,4.978-4.036,9.016-9.015,9.016h-58.966
					c-4.979,0-9.015-4.038-9.015-9.016V137.642c0-4.979,4.036-9.014,9.015-9.014h58.966
					C303.424,128.628,307.46,132.663,307.46,137.642z"/>
				<path style="fill:#81D4FA;" d="M241.377,234.774V143.46c0-2.165,1.756-3.92,3.921-3.92h47.331c2.164,0,3.919,1.754,3.919,3.92
					v91.314c0,2.165-1.755,3.921-3.919,3.921h-47.331C243.133,238.695,241.377,236.939,241.377,234.774z"/>
				<path style="fill:#152329;" d="M275.671,250.862c0-3.704-3.003-6.708-6.708-6.708s-6.707,3.005-6.707,6.708
					c0,3.705,3.002,6.707,6.707,6.707S275.671,254.566,275.671,250.862z"/>
				<path style="fill:#37474F;" d="M272.72,250.862c0-2.075-1.68-3.757-3.757-3.757c-2.076,0-3.758,1.682-3.758,3.757
					c0,2.076,1.682,3.757,3.758,3.757C271.04,254.619,272.72,252.938,272.72,250.862z"/>
				<path style="fill:#B2EBF2;" d="M292.629,139.54h-2.771l-48.481,86.728v8.506c0,0.79,0.239,1.524,0.642,2.14l53.624-95.93
					C294.926,140.109,293.848,139.54,292.629,139.54z M275.083,139.54l-33.706,60.292v23.589l46.891-83.881H275.083z"/>
				<polygon style="fill:#B2EBF2;" points="296.548,172.419 259.499,238.695 278.399,238.695 296.548,206.229 				"/>
			</g>
			<path style="fill:#FCB64E;" d="M220.215,341.675l-19.714-74.819l5.692-43.756l24.248-33.675l0.237,37.944l15.53,38.182
				c3.798,6.826,11.075-4.689,15.445-11.053l11.91-24.639c0,0,7.306-7.549,15.671-3.942c2.439,1.054,3.41,4.419,2.085,6.984
				c-3.736,7.227-8.79,22.881-8.79,33.657c0,14.585,2.316,39.894,2.316,39.894l-7.12,35.225h-0.302v29.439h-57.21V341.675z"/>
			<polygon style="fill:#F9FAE8;" points="290.956,426.058 212.794,426.058 215.577,356.272 288.175,356.272 			"/>
			<rect x="210.629" y="371.114" style="fill:#212120;" width="86.281" height="63.706"/>
			<path style="fill:#FFFFFF;" d="M283.566,382.866c0,2.561,2.077,4.64,4.639,4.64c2.561,0,4.638-2.078,4.638-4.64
				c0-2.564-2.077-4.639-4.638-4.639C285.644,378.228,283.566,380.303,283.566,382.866z"/>
			<g>
				<g>
					<g>
						<path style="fill:#FFF8E1;" d="M224.149,133.013c-0.754,0-1.364-0.61-1.364-1.365c0-5.505,4.479-9.984,9.984-9.984
							c0.754,0,1.364,0.611,1.364,1.364c0,0.753-0.61,1.364-1.364,1.364c-4.001,0-7.256,3.256-7.256,7.257
							C225.513,132.402,224.903,133.013,224.149,133.013z"/>
					</g>
					<g>
						<path style="fill:#FFF8E1;" d="M217.956,133.013c-0.754,0-1.364-0.61-1.364-1.365c0-8.92,7.257-16.178,16.177-16.178
							c0.754,0,1.364,0.612,1.364,1.365c0,0.753-0.61,1.364-1.364,1.364c-7.415,0-13.45,6.033-13.45,13.449
							C219.319,132.402,218.709,133.013,217.956,133.013z"/>
					</g>
					<g>
						<path style="fill:#FFF8E1;" d="M211.748,133.013c-0.755,0-1.365-0.61-1.365-1.365c0-12.343,10.042-22.384,22.385-22.384
							c0.754,0,1.364,0.61,1.364,1.365c0,0.753-0.61,1.364-1.364,1.364c-10.838,0-19.657,8.818-19.657,19.656
							C213.112,132.402,212.502,133.013,211.748,133.013z"/>
					</g>
				</g>
			</g>
			<g>
				<path style="fill:#FEEA39;" d="M248.223,121.682c-0.898-0.457-1.717-1.019-2.454-1.685c-0.738-0.666-1.313-1.369-1.731-2.11
					l1.734-1.341c0.143-0.108,0.312-0.184,0.513-0.227c0.198-0.04,0.393-0.031,0.584,0.031c0.196,0.062,0.381,0.178,0.557,0.346
					c0.174,0.17,0.358,0.366,0.555,0.592c0.194,0.227,0.413,0.461,0.654,0.706c0.239,0.242,0.529,0.474,0.869,0.691l1.945-4.53
					c-0.54-0.354-1.069-0.737-1.583-1.146c-0.516-0.41-0.948-0.88-1.295-1.409c-0.35-0.53-0.577-1.134-0.684-1.816
					c-0.105-0.68-0.019-1.462,0.264-2.349c0.209-0.654,0.543-1.248,1.004-1.786c0.461-0.537,1.024-0.973,1.688-1.308
					c0.666-0.334,1.419-0.544,2.265-0.627c0.844-0.082,1.742,0.03,2.699,0.333l0.577-1.353c0.101-0.227,0.273-0.404,0.515-0.536
					c0.241-0.131,0.506-0.15,0.793-0.06l1.41,0.45l-1.02,2.357c0.839,0.448,1.518,0.959,2.047,1.531
					c0.524,0.571,0.943,1.137,1.257,1.7l-1.379,1.074c-0.205,0.161-0.394,0.267-0.568,0.316c-0.174,0.049-0.36,0.041-0.558-0.022
					c-0.135-0.041-0.274-0.118-0.42-0.228c-0.146-0.11-0.306-0.24-0.476-0.39c-0.171-0.149-0.353-0.309-0.547-0.479
					c-0.197-0.173-0.409-0.335-0.642-0.49l-1.83,4.252c0.361,0.242,0.716,0.493,1.066,0.755c0.354,0.262,0.687,0.54,0.996,0.833
					c0.313,0.294,0.588,0.607,0.832,0.938c0.243,0.332,0.434,0.692,0.57,1.081c0.138,0.388,0.204,0.807,0.206,1.257
					c0.002,0.451-0.079,0.935-0.243,1.455c-0.25,0.783-0.617,1.477-1.102,2.081c-0.48,0.605-1.063,1.088-1.739,1.455
					c-0.68,0.365-1.445,0.597-2.292,0.695c-0.85,0.097-1.765,0.031-2.743-0.198l-0.641,1.499c-0.097,0.223-0.266,0.399-0.506,0.525
					c-0.241,0.129-0.506,0.146-0.795,0.055l-1.41-0.448L248.223,121.682z M251.873,108.231c-0.155,0.486-0.125,0.929,0.089,1.329
					c0.214,0.399,0.538,0.782,0.977,1.148l1.56-3.617c-0.397-0.064-0.745-0.08-1.04-0.051c-0.295,0.028-0.546,0.095-0.758,0.201
					c-0.21,0.106-0.386,0.243-0.519,0.414C252.045,107.825,251.94,108.016,251.873,108.231z M254.573,117.901
					c0.148-0.47,0.12-0.894-0.093-1.269c-0.21-0.377-0.537-0.738-0.971-1.086l-1.692,3.956
					C253.251,119.696,254.172,119.162,254.573,117.901z"/>
			</g>
			<g>
				<path style="fill:#FEEA39;" d="M272.23,110.329c-0.652,0.19-1.315,0.292-1.987,0.306c-0.667,0.014-1.278-0.066-1.828-0.239
					l0.233-1.462c0.021-0.118,0.071-0.235,0.15-0.347c0.077-0.111,0.18-0.196,0.299-0.255c0.128-0.061,0.271-0.09,0.438-0.088
					c0.162,0.004,0.344,0.016,0.545,0.036c0.198,0.021,0.416,0.036,0.647,0.044c0.231,0.009,0.481-0.011,0.748-0.061l-1.138-3.128
					c-0.431,0.076-0.864,0.132-1.311,0.168c-0.44,0.037-0.872,0.005-1.288-0.095c-0.417-0.099-0.807-0.292-1.177-0.577
					c-0.365-0.288-0.684-0.713-0.955-1.279c-0.202-0.418-0.31-0.867-0.332-1.343c-0.02-0.479,0.055-0.953,0.228-1.425
					c0.17-0.473,0.444-0.924,0.822-1.355c0.376-0.431,0.872-0.792,1.483-1.085l-0.344-0.933c-0.052-0.159-0.05-0.325,0.008-0.502
					c0.055-0.175,0.179-0.308,0.364-0.396l0.901-0.432l0.586,1.633c0.619-0.166,1.192-0.231,1.717-0.194
					c0.522,0.039,0.989,0.124,1.402,0.255l-0.179,1.165c-0.029,0.176-0.073,0.315-0.138,0.42c-0.062,0.104-0.156,0.187-0.281,0.248
					c-0.085,0.041-0.189,0.067-0.313,0.082c-0.122,0.013-0.262,0.022-0.414,0.028c-0.152,0.004-0.316,0.011-0.491,0.017
					c-0.175,0.006-0.355,0.024-0.544,0.056l1.066,2.939c0.289-0.047,0.582-0.087,0.876-0.121c0.295-0.034,0.586-0.051,0.877-0.05
					c0.289,0.001,0.57,0.027,0.843,0.078c0.273,0.05,0.533,0.14,0.781,0.268c0.245,0.128,0.471,0.303,0.681,0.523
					c0.211,0.22,0.396,0.496,0.554,0.829c0.239,0.501,0.378,1.011,0.423,1.532c0.042,0.52-0.021,1.028-0.186,1.521
					c-0.163,0.496-0.433,0.963-0.805,1.403c-0.372,0.44-0.853,0.831-1.441,1.171l0.377,1.034c0.055,0.155,0.053,0.319-0.007,0.493
					c-0.058,0.175-0.182,0.306-0.365,0.395l-0.9,0.432L272.23,110.329z M267.806,102.021c0.15,0.311,0.372,0.515,0.661,0.613
					c0.287,0.097,0.626,0.135,1.009,0.113l-0.904-2.5c-0.224,0.151-0.403,0.303-0.536,0.454c-0.131,0.151-0.226,0.301-0.278,0.45
					c-0.056,0.15-0.078,0.299-0.064,0.444C267.701,101.741,267.741,101.883,267.806,102.021z M273.609,105.53
					c-0.147-0.299-0.357-0.494-0.633-0.58c-0.279-0.088-0.608-0.116-0.982-0.085l0.999,2.729
					C273.791,107.025,273.993,106.337,273.609,105.53z"/>
			</g>
		</g>
	</g>
	<path style="fill:#FFFFFF;" d="M255.198,434.145c-0.932,0-1.691-0.751-1.699-1.684c-0.009-0.939,0.745-1.706,1.685-1.715
		l1.124-0.012c0.882-0.022,1.709,0.742,1.72,1.68c0.011,0.938-0.741,1.708-1.68,1.719l-1.134,0.012
		C255.207,434.145,255.202,434.145,255.198,434.145z M247.279,434.026c-0.02,0-0.04,0-0.061-0.001l-1.141-0.045
		c-0.938-0.038-1.667-0.829-1.628-1.768c0.039-0.938,0.824-1.661,1.767-1.629l1.121,0.045c0.938,0.032,1.671,0.819,1.638,1.758
		C248.945,433.304,248.19,434.026,247.279,434.026z M264.244,433.861c-0.893,0-1.642-0.697-1.695-1.6
		c-0.055-0.936,0.659-1.741,1.596-1.796l1.125-0.067c0.987-0.07,1.743,0.656,1.801,1.591c0.058,0.938-0.655,1.744-1.591,1.801
		l-1.135,0.068C264.31,433.86,264.276,433.861,264.244,433.861z M238.247,433.47c-0.048,0-0.097-0.002-0.146-0.007l-1.142-0.102
		c-0.935-0.088-1.621-0.917-1.533-1.851c0.089-0.935,0.926-1.625,1.851-1.532l1.112,0.1c0.936,0.079,1.629,0.901,1.549,1.838
		C239.862,432.801,239.12,433.47,238.247,433.47z M273.263,433.129c-0.855,0-1.592-0.645-1.688-1.515
		c-0.102-0.934,0.572-1.772,1.504-1.874l1.122-0.123c0.929-0.115,1.772,0.567,1.877,1.5c0.105,0.933-0.566,1.773-1.499,1.876
		l-1.13,0.126C273.387,433.125,273.325,433.129,273.263,433.129z M229.252,432.465c-0.076,0-0.153-0.004-0.231-0.016l-1.136-0.158
		c-0.929-0.136-1.573-0.998-1.438-1.927c0.134-0.928,1.001-1.573,1.925-1.438l1.106,0.155c0.93,0.126,1.582,0.983,1.455,1.913
		C230.818,431.847,230.089,432.465,229.252,432.465z M282.235,431.943c-0.821,0-1.543-0.598-1.676-1.436
		c-0.146-0.927,0.487-1.797,1.414-1.942l1.107-0.179c0.923-0.153,1.8,0.478,1.951,1.403c0.151,0.926-0.477,1.8-1.402,1.951
		l-1.127,0.181C282.413,431.936,282.323,431.943,282.235,431.943z M220.319,431.007c-0.104,0-0.209-0.009-0.315-0.029l-1.126-0.216
		c-0.921-0.182-1.52-1.075-1.338-1.996c0.182-0.921,1.071-1.523,1.996-1.339l1.097,0.21c0.922,0.174,1.529,1.063,1.355,1.984
		C221.834,430.439,221.121,431.007,220.319,431.007z M291.139,430.31c-0.787,0-1.492-0.548-1.66-1.35
		c-0.194-0.918,0.395-1.819,1.313-2.012l1.097-0.233c0.929-0.202,1.823,0.385,2.02,1.302c0.199,0.918-0.384,1.821-1.301,2.02
		l-1.116,0.238C291.372,430.3,291.255,430.31,291.139,430.31z M211.471,429.103c-0.132,0-0.266-0.016-0.4-0.048l-1.114-0.274
		c-0.91-0.228-1.463-1.15-1.235-2.061c0.227-0.909,1.149-1.46,2.061-1.234l1.085,0.267c0.912,0.221,1.473,1.139,1.253,2.05
		C212.933,428.58,212.238,429.103,211.471,429.103z M299.948,428.23c-0.755,0-1.443-0.507-1.642-1.271
		c-0.237-0.908,0.307-1.836,1.215-2.072l1.078-0.288c0.9-0.243,1.838,0.291,2.085,1.197c0.244,0.906-0.292,1.839-1.198,2.085
		l-1.108,0.294C300.234,428.213,300.09,428.23,299.948,428.23z M202.729,426.751c-0.16,0-0.322-0.023-0.484-0.069l-1.094-0.329
		c-0.898-0.272-1.404-1.222-1.132-2.119c0.272-0.899,1.223-1.405,2.12-1.133l1.073,0.321c0.899,0.268,1.413,1.214,1.146,2.113
		C204.139,426.273,203.463,426.751,202.729,426.751z M308.642,425.705c-0.72,0-1.387-0.461-1.619-1.183
		c-0.285-0.894,0.207-1.85,1.1-2.136l1.072-0.345c0.895-0.288,1.852,0.201,2.14,1.093c0.29,0.893-0.198,1.852-1.092,2.14
		l-1.084,0.349C308.988,425.679,308.813,425.705,308.642,425.705z M194.098,423.954c-0.188,0-0.379-0.031-0.566-0.098l-1.076-0.381
		c-0.884-0.316-1.345-1.289-1.029-2.174c0.316-0.884,1.289-1.343,2.172-1.028l1.064,0.38c0.885,0.312,1.35,1.281,1.038,2.167
		C195.454,423.518,194.798,423.954,194.098,423.954z M317.194,422.744c-0.688,0-1.337-0.422-1.592-1.105
		c-0.328-0.88,0.119-1.858,0.998-2.187l1.043-0.395c0.874-0.339,1.859,0.102,2.194,0.979c0.337,0.876-0.101,1.857-0.978,2.194
		l-1.072,0.406C317.593,422.71,317.393,422.744,317.194,422.744z M185.617,420.722c-0.215,0-0.434-0.041-0.645-0.127l-1.059-0.439
		c-0.866-0.361-1.275-1.357-0.913-2.223c0.362-0.866,1.356-1.275,2.223-0.913l1.04,0.431c0.868,0.356,1.282,1.35,0.926,2.218
		C186.92,420.324,186.286,420.722,185.617,420.722z M325.568,419.36c-0.657,0-1.283-0.382-1.562-1.025
		c-0.372-0.861,0.023-1.861,0.885-2.234l1.023-0.446c0.86-0.375,1.861,0.011,2.24,0.87c0.379,0.858-0.01,1.861-0.87,2.239
		l-1.043,0.457C326.021,419.316,325.793,419.36,325.568,419.36z M177.315,417.066c-0.243,0-0.489-0.052-0.724-0.162l-1.031-0.49
		c-0.848-0.403-1.207-1.418-0.803-2.265c0.403-0.847,1.42-1.204,2.265-0.804l1.02,0.484c0.848,0.4,1.212,1.413,0.811,2.262
		C178.563,416.707,177.953,417.066,177.315,417.066z M333.761,415.564c-0.628,0-1.23-0.35-1.526-0.95
		c-0.414-0.842-0.067-1.86,0.774-2.274c0.332-0.164,0.663-0.33,0.994-0.496c0.837-0.422,1.859-0.088,2.282,0.752
		c0.423,0.838,0.088,1.859-0.751,2.282c-0.34,0.172-0.682,0.343-1.024,0.511C334.269,415.508,334.013,415.564,333.761,415.564z
		 M169.212,412.995c-0.27,0-0.544-0.063-0.799-0.2l-1.009-0.544c-0.825-0.446-1.13-1.479-0.683-2.303
		c0.447-0.826,1.475-1.133,2.304-0.684l0.989,0.532c0.828,0.442,1.141,1.471,0.699,2.3
		C170.407,412.669,169.819,412.995,169.212,412.995z M341.753,411.353c-0.596,0-1.176-0.315-1.485-0.874
		c-0.457-0.821-0.16-1.855,0.659-2.311l0.971-0.545c0.813-0.465,1.852-0.178,2.316,0.639c0.464,0.816,0.178,1.854-0.64,2.317
		l-0.997,0.56C342.316,411.284,342.033,411.353,341.753,411.353z M161.328,408.524c-0.297,0-0.6-0.079-0.873-0.242l-0.98-0.594
		c-0.801-0.49-1.054-1.535-0.564-2.336c0.489-0.803,1.535-1.055,2.335-0.565l0.959,0.581c0.804,0.483,1.064,1.527,0.581,2.332
		C162.467,408.231,161.905,408.524,161.328,408.524z M349.528,406.746c-0.565,0-1.119-0.282-1.442-0.799
		c-0.497-0.795-0.255-1.844,0.541-2.341l0.944-0.596c0.794-0.502,1.844-0.27,2.346,0.524c0.502,0.793,0.268,1.843-0.524,2.346
		l-0.965,0.607C350.147,406.664,349.837,406.746,349.528,406.746z M153.68,403.661c-0.325,0-0.654-0.093-0.944-0.288l-0.953-0.643
		c-0.774-0.531-0.972-1.587-0.442-2.363c0.53-0.772,1.586-0.97,2.362-0.442l0.925,0.626c0.78,0.522,0.988,1.577,0.466,2.357
		C154.766,403.397,154.228,403.661,153.68,403.661z M357.064,401.756c-0.537,0-1.066-0.255-1.396-0.73
		c-0.535-0.77-0.345-1.83,0.425-2.364l0.911-0.642c0.767-0.542,1.827-0.362,2.369,0.404c0.543,0.766,0.361,1.826-0.404,2.369
		l-0.936,0.657C357.738,401.656,357.4,401.756,357.064,401.756z M146.289,398.424c-0.354,0-0.709-0.109-1.015-0.337l-0.918-0.691
		c-0.747-0.568-0.892-1.635-0.324-2.382c0.569-0.746,1.636-0.894,2.382-0.322l0.893,0.672c0.752,0.56,0.907,1.625,0.346,2.377
		C147.318,398.188,146.807,398.424,146.289,398.424z M364.344,396.391c-0.506,0-1.008-0.226-1.343-0.657
		c-0.574-0.74-0.441-1.808,0.301-2.384l0.885-0.691c0.739-0.579,1.807-0.449,2.385,0.289c0.579,0.738,0.449,1.807-0.29,2.386
		l-0.896,0.7C365.076,396.274,364.709,396.391,364.344,396.391z M139.171,392.825c-0.382,0-0.766-0.129-1.083-0.391l-0.877-0.73
		c-0.719-0.604-0.814-1.675-0.212-2.395c0.602-0.719,1.674-0.813,2.394-0.212l0.863,0.719c0.723,0.601,0.824,1.671,0.224,2.394
		C140.145,392.615,139.66,392.825,139.171,392.825z M371.349,390.665c-0.479,0-0.953-0.2-1.289-0.591
		c-0.612-0.711-0.532-1.784,0.179-2.395l0.849-0.734c0.707-0.618,1.779-0.544,2.397,0.165c0.616,0.707,0.544,1.781-0.164,2.397
		l-0.863,0.747C372.135,390.53,371.74,390.665,371.349,390.665z M132.344,386.876c-0.409,0-0.82-0.148-1.146-0.445l-0.84-0.774
		c-0.689-0.637-0.73-1.712-0.092-2.4c0.639-0.688,1.712-0.732,2.401-0.093l0.825,0.76c0.692,0.633,0.74,1.709,0.107,2.401
		C133.264,386.69,132.804,386.876,132.344,386.876z M378.06,384.598c-0.449,0-0.897-0.178-1.232-0.528
		c-0.647-0.681-0.619-1.756,0.06-2.403l0.814-0.776c0.676-0.649,1.754-0.629,2.401,0.05c0.65,0.678,0.629,1.752-0.049,2.401
		l-0.822,0.788C378.902,384.441,378.48,384.598,378.06,384.598z M125.825,380.598c-0.439,0-0.877-0.169-1.21-0.507l-0.799-0.815
		c-0.655-0.673-0.641-1.747,0.032-2.403c0.673-0.652,1.749-0.64,2.403,0.033l0.785,0.801c0.659,0.668,0.651,1.743-0.018,2.402
		C126.687,380.435,126.256,380.598,125.825,380.598z M384.462,378.199c-0.422,0-0.842-0.155-1.172-0.469
		c-0.679-0.646-0.707-1.722-0.06-2.401l0.772-0.817c0.645-0.682,1.72-0.713,2.402-0.069c0.683,0.643,0.715,1.719,0.07,2.401
		l-0.782,0.827C385.358,378.022,384.911,378.199,384.462,378.199z M119.629,374.002c-0.467,0-0.932-0.192-1.268-0.567l-0.756-0.852
		c-0.622-0.703-0.556-1.777,0.147-2.398c0.703-0.623,1.777-0.556,2.399,0.146l0.745,0.839c0.625,0.7,0.565,1.774-0.135,2.399
		C120.437,373.859,120.032,374.002,119.629,374.002z M390.538,371.489c-0.392,0-0.784-0.134-1.105-0.409
		c-0.713-0.611-0.794-1.684-0.184-2.397l0.732-0.854c0.605-0.715,1.679-0.802,2.395-0.194c0.715,0.607,0.802,1.68,0.194,2.396
		l-0.74,0.866C391.492,371.288,391.018,371.489,390.538,371.489z M113.771,367.107c-0.495,0-0.987-0.216-1.322-0.632l-0.713-0.889
		c-0.586-0.733-0.466-1.803,0.267-2.389c0.735-0.585,1.803-0.465,2.388,0.268l0.702,0.875c0.59,0.73,0.476,1.8-0.254,2.39
		C114.523,366.983,114.146,367.107,113.771,367.107z M396.272,364.479c-0.362,0-0.729-0.115-1.038-0.354
		c-0.742-0.575-0.879-1.641-0.305-2.385l0.689-0.891c0.571-0.745,1.636-0.888,2.382-0.313c0.744,0.57,0.885,1.637,0.313,2.381
		l-0.695,0.902C397.282,364.253,396.781,364.479,396.272,364.479z M108.267,359.932c-0.524,0-1.041-0.242-1.374-0.698l-0.669-0.924
		c-0.548-0.763-0.374-1.824,0.387-2.372c0.763-0.547,1.824-0.374,2.372,0.388l0.655,0.905c0.553,0.76,0.387,1.821-0.372,2.375
		C108.964,359.825,108.614,359.932,108.267,359.932z M401.651,357.191c-0.339,0-0.678-0.1-0.975-0.308
		c-0.769-0.538-0.956-1.598-0.417-2.366l0.641-0.922c0.533-0.772,1.593-0.965,2.364-0.433c0.772,0.533,0.966,1.593,0.433,2.364
		l-0.654,0.938C402.714,356.94,402.185,357.191,401.651,357.191z M103.13,352.49c-0.554,0-1.098-0.271-1.424-0.771l-0.62-0.954
		c-0.509-0.789-0.282-1.841,0.507-2.35c0.789-0.51,1.841-0.28,2.348,0.507l0.611,0.938c0.513,0.787,0.292,1.841-0.494,2.353
		C103.771,352.4,103.449,352.49,103.13,352.49z M406.659,349.641c-0.309,0-0.621-0.083-0.9-0.26
		c-0.796-0.497-1.037-1.545-0.539-2.341l0.597-0.956c0.496-0.799,1.545-1.043,2.339-0.548c0.798,0.495,1.042,1.542,0.549,2.34
		l-0.605,0.968C407.777,349.358,407.224,349.641,406.659,349.641z M98.373,344.805c-0.583,0-1.152-0.301-1.468-0.841l-0.572-0.983
		c-0.47-0.813-0.192-1.852,0.621-2.322s1.853-0.19,2.322,0.621l0.563,0.968c0.474,0.81,0.202,1.851-0.608,2.326
		C98.96,344.729,98.665,344.805,98.373,344.805z M411.282,341.845c-0.282,0-0.566-0.068-0.829-0.216
		c-0.819-0.46-1.111-1.494-0.651-2.314l0.545-0.981c0.453-0.822,1.489-1.121,2.309-0.666c0.822,0.453,1.121,1.485,0.667,2.308
		l-0.556,1.002C412.454,341.533,411.877,341.845,411.282,341.845z M94.011,336.894c-0.615,0-1.209-0.334-1.511-0.917l-0.521-1.011
		c-0.428-0.837-0.097-1.86,0.739-2.287c0.834-0.43,1.858-0.099,2.287,0.738l0.513,0.995c0.432,0.834,0.106,1.859-0.727,2.291
		C94.541,336.833,94.274,336.894,94.011,336.894z M415.509,333.823c-0.253,0-0.51-0.057-0.752-0.176
		c-0.841-0.414-1.186-1.434-0.77-2.275l0.497-1.011c0.411-0.843,1.429-1.192,2.271-0.781c0.844,0.411,1.192,1.43,0.781,2.272
		l-0.504,1.025C416.738,333.477,416.135,333.823,415.509,333.823z M90.052,328.775c-0.645,0-1.261-0.368-1.547-0.994l-0.469-1.037
		c-0.384-0.856-0.001-1.86,0.855-2.246c0.856-0.383,1.861-0.001,2.246,0.857l0.46,1.017c0.39,0.854,0.013,1.861-0.841,2.25
		C90.528,328.727,90.288,328.775,90.052,328.775z M419.324,325.596c-0.226,0-0.456-0.045-0.676-0.14
		c-0.86-0.374-1.256-1.376-0.882-2.236l0.443-1.029c0.366-0.864,1.362-1.268,2.228-0.899c0.863,0.367,1.267,1.366,0.897,2.229
		l-0.452,1.054C420.605,325.215,419.979,325.596,419.324,325.596z M86.509,320.473c-0.676,0-1.315-0.405-1.58-1.072l-0.419-1.065
		c-0.34-0.875,0.094-1.859,0.969-2.199c0.875-0.341,1.858,0.095,2.2,0.969l0.409,1.042c0.347,0.872-0.079,1.859-0.951,2.205
		C86.93,320.435,86.718,320.473,86.509,320.473z M422.722,317.184c-0.198,0-0.399-0.035-0.596-0.107
		c-0.878-0.329-1.325-1.309-0.996-2.188l0.392-1.056c0.323-0.882,1.299-1.333,2.182-1.009c0.88,0.323,1.331,1.3,1.009,2.181
		l-0.398,1.074C424.058,316.763,423.409,317.184,422.722,317.184z M83.382,311.978c-0.708,0-1.369-0.446-1.609-1.154l-0.363-1.079
		c-0.297-0.889,0.183-1.852,1.073-2.15c0.89-0.297,1.853,0.184,2.15,1.074l0.358,1.064c0.302,0.888-0.174,1.854-1.063,2.155
		C83.747,311.95,83.563,311.978,83.382,311.978z M425.688,308.605c-0.168,0-0.341-0.024-0.51-0.078
		c-0.896-0.282-1.393-1.235-1.111-2.13l0.341-1.081c0.278-0.896,1.231-1.397,2.127-1.117c0.896,0.279,1.396,1.232,1.116,2.128
		l-0.342,1.09C427.081,308.144,426.411,308.605,425.688,308.605z M80.688,303.336c-0.74,0-1.421-0.487-1.634-1.235l-0.308-1.098
		c-0.251-0.905,0.278-1.843,1.182-2.093c0.899-0.252,1.841,0.276,2.092,1.181l0.304,1.082c0.255,0.902-0.269,1.843-1.172,2.099
		C80.998,303.315,80.842,303.336,80.688,303.336z M428.212,299.906c-0.143,0-0.286-0.018-0.43-0.056
		c-0.908-0.236-1.453-1.163-1.217-2.071l0.284-1.092c0.233-0.908,1.163-1.461,2.069-1.221c0.908,0.232,1.455,1.16,1.221,2.068
		l-0.285,1.101C429.655,299.399,428.966,299.906,428.212,299.906z M78.437,294.57c-0.774,0-1.473-0.531-1.655-1.317l-0.253-1.118
		c-0.204-0.916,0.374-1.822,1.29-2.025c0.917-0.205,1.824,0.372,2.027,1.289l0.247,1.091c0.211,0.915-0.36,1.826-1.274,2.038
		C78.691,294.557,78.563,294.57,78.437,294.57z M430.29,291.098c-0.114,0-0.23-0.011-0.346-0.035c-0.92-0.19-1.511-1.089-1.32-2.009
		l0.227-1.103c0.188-0.92,1.09-1.516,2.003-1.326c0.922,0.186,1.514,1.084,1.326,2.003l-0.228,1.114
		C431.785,290.546,431.078,291.098,430.29,291.098z M76.63,285.701c-0.809,0-1.525-0.579-1.671-1.403l-0.196-1.124
		c-0.158-0.926,0.463-1.804,1.389-1.962c0.921-0.161,1.803,0.462,1.961,1.388l0.192,1.105c0.163,0.924-0.453,1.807-1.377,1.97
		C76.829,285.693,76.729,285.701,76.63,285.701z M431.919,282.194c-0.086,0-0.173-0.006-0.261-0.02
		c-0.928-0.142-1.563-1.011-1.421-1.939l0.171-1.113c0.141-0.93,1.01-1.565,1.935-1.427c0.929,0.142,1.566,1.007,1.427,1.936
		l-0.173,1.123C433.467,281.595,432.744,282.194,431.919,282.194z M75.273,276.754c-0.844,0-1.576-0.629-1.684-1.487l-0.139-1.135
		c-0.112-0.932,0.554-1.777,1.485-1.888c0.93-0.121,1.778,0.554,1.889,1.486l0.136,1.111c0.117,0.931-0.543,1.781-1.474,1.898
		C75.415,276.748,75.344,276.754,75.273,276.754z M433.1,273.221c-0.059,0-0.118-0.003-0.178-0.009
		c-0.934-0.096-1.611-0.932-1.516-1.865l0.115-1.12c0.093-0.934,0.916-1.636,1.859-1.521c0.934,0.093,1.615,0.926,1.521,1.859
		l-0.114,1.131C434.696,272.57,433.959,273.221,433.1,273.221z M74.369,267.748c-0.881,0-1.625-0.68-1.692-1.572l-0.082-1.137
		c-0.067-0.937,0.64-1.748,1.575-1.814c0.941-0.075,1.749,0.64,1.815,1.575l0.081,1.121c0.07,0.936-0.631,1.752-1.567,1.823
		C74.455,267.747,74.412,267.748,74.369,267.748z M433.826,264.2c-0.032,0-0.064,0-0.098-0.004
		c-0.936-0.051-1.652-0.852-1.601-1.791l0.06-1.12c0.046-0.938,0.857-1.671,1.78-1.611c0.939,0.046,1.66,0.844,1.614,1.781
		l-0.06,1.141C435.471,263.5,434.721,264.2,433.826,264.2z M73.915,258.707c-0.92,0-1.675-0.732-1.698-1.656l-0.026-1.137
		c-0.019-0.938,0.726-1.715,1.664-1.734c0.934-0.042,1.715,0.727,1.733,1.665l0.026,1.121c0.023,0.938-0.718,1.718-1.657,1.741
		C73.943,258.707,73.928,258.707,73.915,258.707z M434.103,255.154c-0.004,0-0.007,0-0.01,0c-0.938-0.007-1.695-0.771-1.69-1.71
		l0.005-1.122l-0.002-0.346c0-0.938,0.761-1.699,1.699-1.699c0.938,0,1.699,0.761,1.699,1.699l0.002,0.33l-0.004,1.157
		C435.797,254.398,435.037,255.154,434.103,255.154z M73.908,249.657c-0.013,0-0.027,0-0.04-0.001
		c-0.938-0.022-1.681-0.8-1.659-1.739l0.03-1.144c0.029-0.938,0.799-1.672,1.751-1.646c0.937,0.029,1.674,0.813,1.646,1.751
		l-0.031,1.119C75.585,248.923,74.828,249.657,73.908,249.657z M433.919,245.757c-0.902,0-1.654-0.709-1.696-1.62l-0.054-1.126
		c-0.047-0.937,0.675-1.735,1.611-1.782c0.98-0.051,1.735,0.676,1.782,1.612l0.055,1.136c0.044,0.938-0.681,1.733-1.618,1.777
		C433.973,245.757,433.945,245.757,433.919,245.757z M74.348,240.617c-0.041,0-0.084-0.001-0.126-0.004
		c-0.936-0.069-1.639-0.884-1.57-1.819l0.087-1.139c0.075-0.935,0.886-1.636,1.829-1.559c0.936,0.074,1.634,0.893,1.559,1.829
		l-0.086,1.118C75.976,239.936,75.229,240.617,74.348,240.617z M433.285,236.727c-0.865,0-1.604-0.656-1.689-1.535l-0.11-1.121
		c-0.094-0.935,0.588-1.767,1.521-1.861c0.937-0.087,1.767,0.587,1.859,1.521l0.111,1.132c0.092,0.934-0.592,1.765-1.525,1.856
		C433.395,236.725,433.341,236.727,433.285,236.727z M75.237,231.612c-0.07,0-0.14-0.004-0.211-0.013
		c-0.931-0.115-1.593-0.964-1.477-1.896l0.144-1.133c0.121-0.93,0.969-1.593,1.904-1.465c0.931,0.122,1.586,0.974,1.465,1.905
		l-0.141,1.112C76.815,230.982,76.082,231.612,75.237,231.612z M432.201,227.743c-0.829,0-1.554-0.606-1.68-1.45l-0.166-1.114
		c-0.141-0.928,0.497-1.794,1.426-1.934c0.921-0.14,1.794,0.498,1.936,1.426l0.167,1.124c0.138,0.929-0.504,1.792-1.433,1.93
		C432.367,227.737,432.283,227.743,432.201,227.743z M76.578,222.661c-0.098,0-0.197-0.009-0.296-0.026
		c-0.925-0.163-1.542-1.043-1.38-1.968l0.201-1.124c0.168-0.923,1.056-1.537,1.976-1.368c0.923,0.167,1.536,1.052,1.368,1.976
		l-0.197,1.103C78.104,222.08,77.387,222.661,76.578,222.661z M430.641,218.779c-0.783,0-1.476-0.52-1.637-1.321l-0.222-1.104
		c-0.188-0.92,0.406-1.817,1.326-2.004c0.91-0.186,1.817,0.405,2.004,1.326l0.206,1.021c0.185,0.921-0.403,1.863-1.322,2.047
		C430.877,218.768,430.757,218.779,430.641,218.779z M78.367,213.789c-0.126,0-0.253-0.015-0.38-0.044
		c-0.916-0.209-1.487-1.121-1.278-2.035l0.257-1.11c0.214-0.915,1.129-1.481,2.041-1.27c0.914,0.212,1.482,1.126,1.269,2.04
		l-0.253,1.097C79.842,213.254,79.142,213.789,78.367,213.789z M428.685,209.993c-0.761,0-1.454-0.514-1.646-1.286l-0.276-1.086
		c-0.234-0.909,0.313-1.835,1.222-2.07c0.904-0.234,1.835,0.314,2.068,1.222l0.283,1.106c0.228,0.91-0.325,1.833-1.235,2.061
		C428.962,209.976,428.822,209.993,428.685,209.993z M80.603,205.017c-0.152,0-0.308-0.021-0.462-0.064
		c-0.903-0.254-1.429-1.193-1.175-2.097l0.315-1.101c0.262-0.901,1.203-1.419,2.106-1.158c0.901,0.262,1.42,1.204,1.158,2.106
		l-0.307,1.075C82.026,204.527,81.344,205.017,80.603,205.017z M426.259,201.273c-0.728,0-1.401-0.473-1.625-1.207l-0.33-1.067
		c-0.28-0.895,0.218-1.849,1.114-2.129c0.895-0.283,1.849,0.217,2.129,1.113l0.339,1.096c0.273,0.898-0.234,1.847-1.133,2.12
		C426.59,201.249,426.423,201.273,426.259,201.273z M83.279,196.371c-0.18,0-0.363-0.029-0.543-0.09
		c-0.89-0.3-1.367-1.264-1.067-2.154l0.371-1.085c0.306-0.887,1.271-1.361,2.16-1.053c0.887,0.306,1.358,1.273,1.052,2.16
		l-0.363,1.065C84.649,195.923,83.988,196.371,83.279,196.371z M423.394,192.688c-0.694,0-1.347-0.43-1.597-1.121l-0.385-1.054
		c-0.325-0.881,0.126-1.857,1.006-2.182c0.877-0.324,1.857,0.124,2.182,1.006l0.393,1.073c0.319,0.882-0.138,1.857-1.02,2.176
		C423.781,192.655,423.587,192.688,423.394,192.688z M86.398,187.849c-0.208,0-0.419-0.039-0.624-0.12
		c-0.873-0.346-1.3-1.333-0.955-2.206l0.424-1.063c0.351-0.871,1.344-1.291,2.211-0.942c0.871,0.35,1.292,1.339,0.942,2.21
		l-0.417,1.046C87.715,187.441,87.076,187.849,86.398,187.849z M420.107,184.277c-0.664,0-1.295-0.393-1.569-1.044l-0.434-1.027
		c-0.369-0.863,0.033-1.861,0.897-2.23c0.859-0.366,1.861,0.034,2.228,0.896l0.444,1.048c0.362,0.865-0.045,1.861-0.912,2.224
		C420.548,184.234,420.325,184.277,420.107,184.277z M89.945,179.499c-0.235,0-0.474-0.049-0.702-0.152
		c-0.854-0.389-1.232-1.396-0.844-2.25l0.479-1.045c0.396-0.851,1.405-1.222,2.257-0.825c0.852,0.396,1.221,1.405,0.826,2.257
		l-0.467,1.019C91.208,179.128,90.591,179.499,89.945,179.499z M416.4,176.044c-0.633,0-1.24-0.355-1.533-0.965l-0.485-1.003
		c-0.411-0.843-0.061-1.86,0.781-2.272c0.844-0.411,1.861-0.064,2.272,0.781l0.497,1.025c0.405,0.846,0.048,1.861-0.798,2.267
		C416.897,175.99,416.648,176.044,416.4,176.044z M93.908,171.343c-0.263,0-0.529-0.062-0.779-0.191
		c-0.833-0.431-1.16-1.456-0.729-2.29l0.531-1.017c0.437-0.831,1.463-1.15,2.295-0.712c0.831,0.437,1.149,1.465,0.712,2.295
		l-0.519,0.995C95.116,171.007,94.522,171.343,93.908,171.343z M412.281,168.005c-0.602,0-1.184-0.32-1.492-0.885l-0.539-0.983
		c-0.454-0.822-0.154-1.855,0.667-2.308c0.825-0.454,1.855-0.155,2.309,0.667l0.546,0.996c0.45,0.823,0.147,1.855-0.677,2.305
		C412.835,167.938,412.557,168.005,412.281,168.005z M98.276,163.399c-0.291,0-0.586-0.075-0.854-0.231
		c-0.811-0.473-1.085-1.514-0.612-2.324l0.58-0.988c0.479-0.807,1.522-1.073,2.329-0.597c0.807,0.478,1.075,1.521,0.597,2.328
		l-0.569,0.967C99.43,163.097,98.861,163.399,98.276,163.399z M407.763,160.18c-0.57,0-1.129-0.288-1.449-0.812l-0.588-0.954
		c-0.493-0.799-0.248-1.846,0.55-2.34c0.798-0.493,1.846-0.247,2.34,0.55l0.596,0.968c0.49,0.801,0.239,1.847-0.561,2.336
		C408.373,160.1,408.066,160.18,407.763,160.18z M103.038,155.688c-0.318,0-0.64-0.089-0.927-0.276
		c-0.786-0.512-1.008-1.565-0.495-2.351l0.629-0.958c0.519-0.782,1.573-0.996,2.355-0.477c0.782,0.519,0.996,1.573,0.478,2.355
		l-0.615,0.936C104.136,155.417,103.593,155.688,103.038,155.688z M402.854,152.588c-0.543,0-1.078-0.261-1.406-0.744l-0.632-0.918
		c-0.534-0.772-0.342-1.831,0.43-2.365c0.771-0.533,1.829-0.343,2.365,0.428l0.646,0.944c0.528,0.776,0.327,1.833-0.45,2.361
		C403.517,152.493,403.185,152.588,402.854,152.588z M108.179,148.227c-0.346,0-0.696-0.105-0.997-0.325
		c-0.759-0.552-0.928-1.614-0.376-2.374l0.675-0.924c0.557-0.754,1.621-0.916,2.376-0.36c0.755,0.556,0.917,1.62,0.36,2.376
		l-0.663,0.906C109.223,147.985,108.704,148.227,108.179,148.227z M397.57,145.251c-0.514,0-1.02-0.232-1.355-0.672l-0.68-0.892
		c-0.571-0.745-0.431-1.811,0.314-2.383c0.743-0.57,1.812-0.431,2.382,0.315l0.691,0.905c0.567,0.748,0.421,1.814-0.326,2.38
		C398.289,145.138,397.929,145.251,397.57,145.251z M113.686,141.037c-0.374,0-0.751-0.123-1.065-0.376
		c-0.73-0.589-0.846-1.659-0.256-2.39l0.721-0.888c0.592-0.727,1.663-0.836,2.391-0.241c0.727,0.594,0.835,1.664,0.241,2.391
		l-0.706,0.872C114.675,140.82,114.183,141.037,113.686,141.037z M391.926,138.183c-0.484,0-0.966-0.206-1.302-0.605l-0.722-0.855
		c-0.609-0.715-0.523-1.787,0.191-2.396c0.716-0.608,1.789-0.522,2.395,0.192l0.739,0.871c0.603,0.719,0.511,1.791-0.208,2.394
		C392.7,138.053,392.313,138.183,391.926,138.183z M119.545,134.132c-0.403,0-0.807-0.142-1.131-0.431
		c-0.7-0.625-0.761-1.699-0.137-2.399l0.762-0.849c0.63-0.697,1.703-0.751,2.4-0.124c0.697,0.628,0.753,1.703,0.125,2.4l-0.75,0.836
		C120.479,133.94,120.013,134.132,119.545,134.132z M385.934,131.405c-0.457,0-0.91-0.182-1.245-0.542l-0.765-0.817
		c-0.643-0.682-0.613-1.757,0.07-2.401c0.683-0.645,1.758-0.614,2.401,0.069l0.782,0.835c0.64,0.688,0.6,1.763-0.087,2.402
		C386.763,131.254,386.348,131.405,385.934,131.405z M125.74,127.531c-0.431,0-0.863-0.163-1.194-0.49
		c-0.668-0.66-0.675-1.736-0.015-2.404l0.804-0.809c0.663-0.665,1.738-0.666,2.403-0.003c0.664,0.663,0.665,1.739,0.002,2.404
		l-0.79,0.797C126.617,127.362,126.178,127.531,125.74,127.531z M379.605,124.933c-0.429,0-0.857-0.16-1.188-0.483l-0.804-0.778
		c-0.676-0.651-0.698-1.727-0.048-2.403c0.65-0.676,1.728-0.696,2.403-0.047l0.822,0.796c0.671,0.656,0.685,1.731,0.03,2.403
		C380.489,124.762,380.046,124.933,379.605,124.933z M132.255,121.248c-0.459,0-0.917-0.185-1.252-0.55
		c-0.635-0.691-0.589-1.766,0.102-2.401l0.846-0.77c0.695-0.63,1.77-0.576,2.4,0.12c0.63,0.695,0.576,1.77-0.12,2.4l-0.826,0.753
		C133.078,121.1,132.666,121.248,132.255,121.248z M372.961,118.783c-0.397,0-0.798-0.14-1.121-0.424l-0.846-0.739
		c-0.708-0.617-0.78-1.69-0.164-2.397c0.617-0.707,1.69-0.781,2.397-0.165l0.858,0.751c0.705,0.621,0.772,1.694,0.152,2.399
		C373.902,118.588,373.434,118.783,372.961,118.783z M139.074,115.301c-0.489,0-0.973-0.209-1.309-0.614
		c-0.599-0.722-0.5-1.793,0.223-2.393l0.882-0.727c0.727-0.594,1.797-0.487,2.391,0.239c0.594,0.727,0.486,1.797-0.24,2.392
		l-0.863,0.711C139.841,115.172,139.456,115.301,139.074,115.301z M366.019,112.97c-0.371,0-0.745-0.121-1.058-0.37l-0.88-0.695
		c-0.737-0.58-0.866-1.648-0.286-2.386c0.579-0.738,1.646-0.866,2.386-0.287l0.897,0.708c0.733,0.585,0.855,1.654,0.271,2.388
		C367.015,112.75,366.519,112.97,366.019,112.97z M146.179,109.703c-0.517,0-1.028-0.235-1.361-0.681
		c-0.563-0.752-0.41-1.816,0.341-2.379l0.915-0.681c0.753-0.557,1.817-0.399,2.377,0.356c0.558,0.755,0.398,1.819-0.357,2.377
		l-0.898,0.667C146.891,109.593,146.533,109.703,146.179,109.703z M358.791,107.511c-0.345,0-0.69-0.104-0.99-0.319l-0.911-0.649
		c-0.767-0.541-0.949-1.602-0.408-2.368c0.542-0.767,1.603-0.948,2.368-0.408l0.934,0.666c0.763,0.547,0.936,1.609,0.389,2.372
		C359.84,107.265,359.318,107.511,358.791,107.511z M153.552,104.469c-0.547,0-1.083-0.264-1.411-0.752
		c-0.524-0.778-0.317-1.835,0.461-2.358l0.947-0.633c0.781-0.521,1.837-0.308,2.355,0.474c0.52,0.782,0.308,1.836-0.474,2.356
		l-0.932,0.623C154.207,104.376,153.878,104.469,153.552,104.469z M351.297,102.42c-0.316,0-0.634-0.087-0.918-0.27l-0.947-0.605
		c-0.793-0.503-1.025-1.554-0.522-2.346c0.503-0.792,1.552-1.025,2.346-0.523l0.962,0.615c0.789,0.507,1.019,1.559,0.511,2.348
		C352.402,102.144,351.855,102.42,351.297,102.42z M161.177,99.612c-0.577,0-1.138-0.293-1.458-0.822
		c-0.483-0.805-0.225-1.849,0.579-2.333l0.977-0.584c0.809-0.48,1.851-0.214,2.33,0.591c0.481,0.807,0.215,1.85-0.591,2.33
		l-0.962,0.575C161.777,99.533,161.475,99.612,161.177,99.612z M343.553,97.711c-0.288,0-0.579-0.073-0.846-0.226l-0.977-0.557
		c-0.816-0.463-1.103-1.5-0.64-2.317c0.464-0.815,1.502-1.103,2.316-0.639l0.992,0.566c0.815,0.467,1.095,1.506,0.628,2.319
		C344.713,97.404,344.141,97.711,343.553,97.711z M169.031,95.146c-0.606,0-1.193-0.326-1.5-0.898
		c-0.443-0.827-0.131-1.857,0.696-2.301l1.003-0.534c0.831-0.439,1.857-0.121,2.297,0.707c0.439,0.83,0.123,1.858-0.707,2.297
		l-0.988,0.526C169.577,95.081,169.302,95.146,169.031,95.146z M335.58,93.396c-0.261,0-0.525-0.06-0.772-0.187l-0.999-0.504
		c-0.84-0.42-1.179-1.44-0.759-2.28c0.42-0.839,1.44-1.177,2.279-0.76l1.025,0.519c0.837,0.428,1.167,1.451,0.739,2.287
		C336.794,93.058,336.197,93.396,335.58,93.396z M177.097,91.081c-0.637,0-1.248-0.36-1.538-0.974
		c-0.401-0.849-0.038-1.862,0.811-2.263l1.029-0.482c0.85-0.395,1.862-0.028,2.258,0.823c0.396,0.851,0.028,1.861-0.823,2.258
		l-1.013,0.475C177.587,91.029,177.34,91.081,177.097,91.081z M327.398,89.487c-0.233,0-0.469-0.048-0.695-0.149l-1.025-0.455
		c-0.859-0.377-1.25-1.38-0.871-2.24c0.377-0.858,1.378-1.251,2.238-0.872l1.05,0.466c0.857,0.384,1.239,1.39,0.854,2.246
		C328.667,89.113,328.047,89.487,327.398,89.487z M185.354,87.431c-0.668,0-1.301-0.396-1.571-1.052
		c-0.358-0.868,0.055-1.861,0.923-2.219l1.058-0.433c0.868-0.353,1.86,0.069,2.213,0.938c0.352,0.87-0.068,1.861-0.938,2.212
		l-1.037,0.424C185.79,87.389,185.57,87.431,185.354,87.431z M319.025,85.997c-0.204,0-0.413-0.038-0.616-0.116l-1.047-0.402
		c-0.879-0.332-1.319-1.314-0.986-2.191c0.334-0.878,1.319-1.316,2.191-0.985l1.073,0.412c0.875,0.34,1.309,1.325,0.97,2.2
		C320.348,85.585,319.705,85.997,319.025,85.997z M193.805,84.191c-0.699,0-1.354-0.435-1.601-1.132
		c-0.314-0.884,0.149-1.855,1.033-2.17l1.081-0.378c0.888-0.306,1.854,0.163,2.162,1.049c0.307,0.887-0.163,1.855-1.049,2.162
		l-1.057,0.37C194.185,84.16,193.994,84.191,193.805,84.191z M310.481,82.935c-0.177,0-0.354-0.027-0.531-0.086l-1.072-0.35
		c-0.893-0.289-1.383-1.247-1.094-2.141c0.289-0.892,1.246-1.381,2.14-1.093l1.088,0.355c0.893,0.294,1.377,1.254,1.083,2.146
		C311.86,82.481,311.195,82.935,310.481,82.935z M202.41,81.386c-0.732,0-1.408-0.476-1.629-1.213
		c-0.268-0.899,0.244-1.846,1.143-2.115l1.097-0.323c0.903-0.265,1.845,0.255,2.106,1.156c0.263,0.901-0.255,1.844-1.156,2.107
		l-1.075,0.317C202.735,81.363,202.571,81.386,202.41,81.386z M301.813,80.316c-0.148,0-0.3-0.02-0.449-0.062l-1.085-0.294
		c-0.906-0.244-1.444-1.177-1.2-2.083c0.243-0.906,1.174-1.44,2.082-1.199l1.1,0.299c0.905,0.248,1.438,1.182,1.191,2.087
		C303.244,79.819,302.559,80.316,301.813,80.316z M211.145,79.019c-0.765,0-1.46-0.52-1.649-1.296
		c-0.223-0.912,0.335-1.832,1.247-2.055l1.113-0.268c0.915-0.217,1.828,0.349,2.045,1.263c0.216,0.913-0.35,1.829-1.263,2.045
		l-1.088,0.262C211.415,79.003,211.279,79.019,211.145,79.019z M293.029,78.139c-0.122,0-0.245-0.013-0.369-0.04l-1.097-0.239
		c-0.916-0.196-1.501-1.1-1.305-2.017c0.196-0.917,1.1-1.498,2.018-1.306l1.115,0.243c0.917,0.203,1.497,1.109,1.294,2.026
		C294.511,77.598,293.809,78.139,293.029,78.139z M219.989,77.098c-0.8,0-1.512-0.567-1.667-1.381
		c-0.177-0.922,0.428-1.813,1.35-1.988l1.122-0.211c0.924-0.168,1.809,0.439,1.98,1.362c0.17,0.922-0.439,1.809-1.362,1.979
		l-1.103,0.207C220.203,77.087,220.095,77.098,219.989,77.098z M284.144,76.41c-0.096,0-0.191-0.008-0.287-0.024l-1.102-0.182
		c-0.928-0.15-1.557-1.023-1.406-1.949c0.149-0.928,1.024-1.555,1.948-1.407l1.13,0.187c0.924,0.157,1.548,1.035,1.39,1.96
		C285.676,75.823,284.956,76.41,284.144,76.41z M228.919,75.624c-0.835,0-1.563-0.615-1.682-1.465
		c-0.129-0.93,0.52-1.788,1.449-1.917l1.131-0.154c0.926-0.121,1.785,0.53,1.909,1.461c0.124,0.93-0.53,1.784-1.46,1.908
		l-1.111,0.152C229.076,75.619,228.997,75.624,228.919,75.624z M275.183,75.13c-0.065,0-0.134-0.004-0.202-0.012l-1.11-0.126
		c-0.933-0.103-1.605-0.943-1.503-1.876c0.104-0.934,0.946-1.609,1.877-1.502l1.138,0.13c0.931,0.11,1.597,0.955,1.485,1.888
		C276.767,74.494,276.032,75.13,275.183,75.13z M237.913,74.602c-0.872,0-1.613-0.666-1.691-1.55
		c-0.083-0.936,0.608-1.76,1.543-1.842l1.138-0.097c0.951-0.076,1.756,0.619,1.833,1.554c0.077,0.936-0.619,1.756-1.555,1.833
		l-1.118,0.095C238.013,74.599,237.962,74.602,237.913,74.602z M266.172,74.301c-0.038,0-0.077-0.001-0.117-0.004l-1.116-0.071
		c-0.936-0.056-1.651-0.862-1.595-1.798c0.057-0.938,0.872-1.655,1.799-1.594l1.143,0.072c0.936,0.064,1.643,0.874,1.58,1.81
		C267.806,73.613,267.059,74.301,266.172,74.301z M246.946,74.03c-0.909,0-1.662-0.719-1.697-1.635
		c-0.036-0.938,0.695-1.727,1.633-1.763l1.138-0.039c0.882-0.027,1.722,0.705,1.753,1.643c0.03,0.938-0.705,1.723-1.644,1.753
		l-1.116,0.04C246.99,74.029,246.968,74.03,246.946,74.03z M257.127,73.921c-0.009,0-0.018,0-0.027,0l-1.123-0.016
		c-0.938-0.01-1.691-0.778-1.681-1.717c0.01-0.932,0.77-1.682,1.699-1.682c0.006,0,0.011,0,0.018,0l1.143,0.016
		c0.938,0.016,1.685,0.788,1.671,1.727C258.81,73.179,258.053,73.921,257.127,73.921z"/>
	<g>
		<path style="fill:#26C6DA;" d="M118.037,248.924c0-24.818-20.119-44.938-44.937-44.938c-24.818,0-44.937,20.119-44.937,44.938
			c0,24.816,20.119,44.937,44.937,44.937C97.918,293.86,118.037,273.74,118.037,248.924z"/>
		<g>
			<g>
				<rect x="52.721" y="240.992" style="fill:#FAFAFA;" width="8.398" height="21.356"/>
				<rect x="56.63" y="240.992" style="fill:#E0E0E0;" width="0.579" height="21.356"/>
				<rect x="54.187" y="240.992" style="fill:#E0E0E0;" width="0.579" height="21.356"/>
				<rect x="59.074" y="240.992" style="fill:#E0E0E0;" width="0.579" height="21.356"/>
			</g>
			<rect x="51.725" y="238.113" style="fill:#FAFAFA;" width="10.389" height="2.878"/>
			<rect x="51.725" y="262.348" style="fill:#FAFAFA;" width="10.389" height="2.877"/>
			<g>
				<rect x="68.901" y="240.992" style="fill:#FAFAFA;" width="8.398" height="21.356"/>
				<rect x="72.81" y="240.992" style="fill:#E0E0E0;" width="0.579" height="21.356"/>
				<rect x="70.367" y="240.992" style="fill:#E0E0E0;" width="0.579" height="21.356"/>
				<rect x="75.254" y="240.992" style="fill:#E0E0E0;" width="0.579" height="21.356"/>
			</g>
			<rect x="67.905" y="238.113" style="fill:#FAFAFA;" width="10.389" height="2.878"/>
			<rect x="67.905" y="262.348" style="fill:#FAFAFA;" width="10.389" height="2.877"/>
			<g>
				<rect x="85.081" y="240.992" style="fill:#FAFAFA;" width="8.398" height="21.356"/>
				<rect x="88.99" y="240.992" style="fill:#E0E0E0;" width="0.579" height="21.356"/>
				<rect x="86.547" y="240.992" style="fill:#E0E0E0;" width="0.579" height="21.356"/>
				<rect x="91.434" y="240.992" style="fill:#E0E0E0;" width="0.579" height="21.356"/>
			</g>
			<rect x="84.085" y="238.113" style="fill:#FAFAFA;" width="10.389" height="2.878"/>
			<rect x="84.085" y="262.348" style="fill:#FAFAFA;" width="10.389" height="2.877"/>
			<rect x="49.463" y="265.225" style="fill:#FAFAFA;" width="47.273" height="2.261"/>
			<rect x="47.346" y="267.485" style="fill:#FAFAFA;" width="51.508" height="2.264"/>
			<polygon style="fill:#FAFAFA;" points="73.1,217.898 47.201,234.548 47.201,238.24 73.1,238.24 98.998,238.24 98.998,234.548 			
				"/>
			<path style="fill:#E0E0E0;" d="M97.044,236.285H49.156v-0.822L73.1,220.438l0.116,0.072l23.829,14.954V236.285z M49.59,235.851
				h47.02v-0.148L73.1,220.95l-23.51,14.753V235.851z"/>
			<rect x="51.725" y="238.24" style="fill:#E0E0E0;" width="10.389" height="0.488"/>
			<rect x="67.905" y="238.24" style="fill:#E0E0E0;" width="10.389" height="0.488"/>
			<rect x="84.085" y="238.24" style="fill:#E0E0E0;" width="10.389" height="0.488"/>
		</g>
	</g>
	<g>
		<circle style="fill:#C0CA33;" cx="402.765" cy="153.762" r="44.937"/>
		<g>
			<g>
				<path style="fill:#FAFAFA;" d="M419.943,158.725c-3.061-3.06-8.021-3.06-11.079,0c-3.062,3.059-3.062,8.02,0,11.08
					c3.059,3.06,8.018,3.06,11.079,0C423.003,166.744,423.003,161.784,419.943,158.725z"/>
				<g>
					<path style="fill:#FAFAFA;" d="M417.156,151.169c-0.412,0.414-0.963,0.696-1.589,0.77c-3.452,0.403-6.59,1.931-9.077,4.417
						c-2.486,2.487-4.011,5.625-4.418,9.077c-0.171,1.476-1.51,2.533-2.985,2.359c-1.474-0.173-2.533-1.509-2.355-2.985
						c0.544-4.666,2.604-8.903,5.953-12.255c3.352-3.353,7.592-5.413,12.258-5.958c1.477-0.172,2.813,0.884,2.985,2.36
						C418.025,149.804,417.718,150.608,417.156,151.169z"/>
					<path style="fill:#FAFAFA;" d="M392.401,165.93c-0.566,0.564-1.37,0.872-2.225,0.77c-1.476-0.175-2.526-1.516-2.349-2.99
						c0.798-6.676,3.742-12.727,8.516-17.5c4.774-4.773,10.827-7.719,17.499-8.518c1.476-0.177,2.817,0.875,2.992,2.351
						c0.175,1.476-0.878,2.817-2.35,2.991c-5.465,0.655-10.424,3.069-14.336,6.981c-3.909,3.913-6.326,8.869-6.982,14.335
						C393.094,164.972,392.813,165.52,392.401,165.93z"/>
					<path style="fill:#FAFAFA;" d="M383.511,164.853c-0.566,0.565-1.375,0.873-2.225,0.77c-1.479-0.18-2.53-1.521-2.348-2.995
						c1.053-8.688,4.883-16.553,11.078-22.747c6.195-6.195,14.061-10.026,22.748-11.079c1.477-0.179,2.814,0.872,2.994,2.346
						c0.182,1.474-0.872,2.816-2.349,2.995c-7.48,0.908-14.253,4.206-19.588,9.543c-5.337,5.335-8.636,12.109-9.543,19.59
						C384.203,163.897,383.922,164.442,383.511,164.853z"/>
				</g>
			</g>
		</g>
	</g>
	<g>
		<path style="fill:#C0CA33;" d="M437.505,376.939c0-29.198-23.668-52.866-52.865-52.866c-29.199,0-52.867,23.668-52.867,52.866
			c0,29.197,23.668,52.865,52.867,52.865C413.837,429.804,437.505,406.136,437.505,376.939z"/>
		<g>
			<rect x="362.189" y="372.214" style="fill:#E91E63;" width="47.165" height="35.006"/>
			<rect x="360.008" y="362.306" style="fill:#AD1457;" width="51.528" height="9.908"/>
			<rect x="382.179" y="362.306" style="fill:#FAFAFA;" width="7.186" height="44.914"/>
			<path style="fill:#FAFAFA;" d="M385.799,358.194c-0.807-4.096-2.104-8.252-4.138-11.905c-1.118-2.006-2.773-4.147-5.204-4.435
				c-2.968-0.348-5.62,3.082-6.878,5.301c-1.312,2.313-0.789,5.649-0.71,8.177c0.075,2.436,2.407,4.012,4.34,5.015
				c3.776,1.968,8.374,2.817,12.59,3.212C385.672,363.545,386.002,358.213,385.799,358.194c-3.674-0.342-7.386-1.131-10.836-2.436
				c-2.122-0.803-4.323-1.969-5.545-3.948c-0.259-0.421-0.395-0.899-0.497-1.377c0.967,4.433-0.467,4.777,0.439,2.536
				c0.593-1.465,1.768-2.739,2.872-3.835c7.739-7.673,12.554,9.273,13.566,14.425C385.462,361.844,386.137,359.923,385.799,358.194z
				"/>
			<path style="fill:#FAFAFA;" d="M385.799,363.559c1.015-4.431,2.586-9.035,5.184-12.787c1.367-1.974,3.393-3.693,5.923-3.092
				c2.813,0.669,6.027,4.72,6.072,7.597c0.004-1.664,0.008-3.33,0.013-4.996c-0.502,6.54-12.263,7.611-17.191,7.914
				C385.648,358.203,385.866,363.554,385.799,363.559c4.221-0.259,8.607-1.038,12.497-2.724c2.11-0.917,4.252-2.396,4.666-4.807
				c0.396-2.308,0.425-5.625-0.388-7.868c-0.934-2.579-3.591-5.592-6.425-5.987c-2.529-0.354-4.494,2.182-5.696,4.023
				c-2.31,3.54-3.715,7.894-4.654,11.998C385.405,359.9,386.185,361.87,385.799,363.559z"/>
			<rect x="365.855" y="372.214" style="fill:#ED787A;" width="4.886" height="35.006"/>
			<rect x="375.151" y="372.214" style="fill:#ED787A;" width="4.888" height="35.006"/>
			<rect x="391.958" y="372.214" style="fill:#ED787A;" width="4.888" height="35.006"/>
			<rect x="401.255" y="372.214" style="fill:#ED787A;" width="4.888" height="35.006"/>
		</g>
	</g>
</g>
<g id="DESIGNED_BY_FREEPIK">
	<g>
		<g>
			<g>
				<path style="fill:#FFFFFF;" d="M175.869,468.946c-0.14-0.17-0.34-0.25-0.61-0.25c-0.27,0-0.47,0.09-0.62,0.27
					c-0.14,0.191-0.21,0.46-0.21,0.82v2.6c-0.33-0.359-0.67-0.63-1.02-0.81c-0.35-0.17-0.77-0.26-1.28-0.26
					c-0.87,0-1.58,0.31-2.12,0.92c-0.53,0.62-0.8,1.47-0.8,2.57c0,0.52,0.07,1,0.2,1.449c0.14,0.45,0.33,0.841,0.6,1.17
					c0.26,0.33,0.57,0.58,0.93,0.761c0.35,0.18,0.74,0.27,1.16,0.27c0.32,0,0.62-0.05,0.88-0.14c0.27-0.08,0.52-0.21,0.75-0.38
					c0.23-0.17,0.46-0.391,0.7-0.66v0.17c0,0.32,0.08,0.57,0.23,0.75c0.16,0.17,0.36,0.26,0.6,0.26c0.24,0,0.44-0.09,0.6-0.25
					c0.15-0.17,0.23-0.42,0.23-0.76v-7.75C176.089,469.366,176.019,469.116,175.869,468.946z M174.099,476.116
					c-0.15,0.33-0.35,0.58-0.61,0.74c-0.25,0.16-0.54,0.24-0.84,0.24c-0.31,0-0.59-0.091-0.85-0.261c-0.26-0.17-0.46-0.42-0.61-0.75
					c-0.14-0.34-0.22-0.739-0.22-1.22c0-0.45,0.07-0.85,0.21-1.19c0.14-0.34,0.34-0.6,0.59-0.779c0.25-0.181,0.54-0.28,0.86-0.28
					c0.31,0,0.6,0.09,0.86,0.27c0.26,0.181,0.46,0.44,0.61,0.771c0.16,0.34,0.23,0.74,0.23,1.21
					C174.329,475.366,174.259,475.776,174.099,476.116z"/>
				<path style="fill:#FFFFFF;" d="M182.919,476.036c-0.17,0-0.3,0.04-0.39,0.12c-0.22,0.2-0.4,0.37-0.53,0.49
					c-0.14,0.12-0.29,0.229-0.45,0.34c-0.17,0.1-0.33,0.18-0.51,0.229c-0.17,0.051-0.36,0.07-0.57,0.07c-0.32,0-0.6-0.08-0.86-0.229
					c-0.26-0.15-0.47-0.381-0.63-0.69c-0.16-0.3-0.24-0.66-0.24-1.05h3.44c0.46,0,0.81-0.07,1.07-0.2c0.25-0.13,0.38-0.42,0.38-0.86
					c0-0.479-0.13-0.939-0.37-1.399c-0.24-0.46-0.61-0.84-1.11-1.13c-0.49-0.29-1.08-0.431-1.76-0.431c-0.53,0-1.01,0.08-1.44,0.25
					c-0.44,0.17-0.8,0.42-1.1,0.73c-0.29,0.32-0.52,0.7-0.67,1.149c-0.16,0.44-0.24,0.921-0.24,1.44c0,1.1,0.32,1.98,0.94,2.62
					c0.63,0.64,1.51,0.97,2.64,0.97c0.49,0,0.93-0.07,1.31-0.2c0.38-0.13,0.69-0.29,0.94-0.479c0.25-0.2,0.44-0.4,0.57-0.61
					c0.12-0.22,0.18-0.399,0.18-0.56c0-0.181-0.05-0.32-0.16-0.42C183.239,476.086,183.099,476.036,182.919,476.036z
					 M179.249,472.966c0.28-0.3,0.64-0.449,1.08-0.449c0.46,0,0.83,0.149,1.11,0.449c0.28,0.301,0.44,0.75,0.49,1.351h-3.19
					C178.799,473.727,178.969,473.276,179.249,472.966z"/>
				<path style="fill:#FFFFFF;" d="M189.919,475.296c-0.18-0.25-0.44-0.47-0.79-0.649c-0.34-0.19-0.79-0.351-1.33-0.481
					c-0.46-0.109-0.82-0.21-1.08-0.28c-0.27-0.079-0.47-0.18-0.63-0.3c-0.15-0.109-0.23-0.27-0.23-0.45c0-0.199,0.1-0.369,0.31-0.51
					c0.22-0.13,0.48-0.2,0.8-0.2c0.31,0,0.55,0.051,0.73,0.16c0.18,0.101,0.34,0.24,0.47,0.41c0.16,0.2,0.31,0.36,0.43,0.46
					c0.13,0.101,0.28,0.16,0.46,0.16c0.25,0,0.45-0.07,0.58-0.2c0.14-0.13,0.2-0.29,0.2-0.49c0-0.19-0.06-0.38-0.19-0.569
					c-0.12-0.19-0.31-0.37-0.55-0.53c-0.24-0.16-0.54-0.28-0.91-0.38c-0.36-0.09-0.77-0.14-1.22-0.14c-0.58,0-1.08,0.09-1.49,0.279
					c-0.41,0.19-0.72,0.44-0.93,0.75c-0.21,0.311-0.31,0.65-0.31,1c0,0.391,0.11,0.73,0.34,1c0.23,0.271,0.53,0.49,0.91,0.65
					c0.38,0.16,0.87,0.32,1.48,0.47c0.53,0.13,0.92,0.271,1.15,0.41c0.24,0.14,0.35,0.37,0.35,0.67c0,0.21-0.11,0.38-0.33,0.54
					c-0.23,0.16-0.52,0.24-0.87,0.24c-0.43,0-0.78-0.08-1.03-0.23c-0.25-0.16-0.46-0.39-0.65-0.71c-0.08-0.16-0.18-0.29-0.28-0.38
					c-0.1-0.09-0.24-0.13-0.42-0.13c-0.21,0-0.39,0.07-0.52,0.2c-0.14,0.14-0.21,0.31-0.21,0.5c0,0.29,0.11,0.58,0.32,0.87
					c0.22,0.29,0.55,0.529,1,0.729c0.45,0.19,0.99,0.29,1.62,0.29c0.66,0,1.22-0.09,1.68-0.27c0.47-0.181,0.82-0.44,1.05-0.79
					c0.24-0.34,0.35-0.761,0.35-1.24C190.179,475.836,190.099,475.546,189.919,475.296z"/>
				<path style="fill:#FFFFFF;" d="M192.599,471.576c-0.17-0.18-0.38-0.27-0.64-0.27c-0.26,0-0.47,0.09-0.63,0.27
					c-0.16,0.17-0.24,0.43-0.24,0.78v5.029c0,0.341,0.08,0.601,0.24,0.79c0.16,0.181,0.37,0.28,0.63,0.28
					c0.26,0,0.47-0.09,0.64-0.27c0.17-0.181,0.25-0.45,0.25-0.801v-5.079C192.849,471.996,192.769,471.746,192.599,471.576z
					 M192.579,468.986c-0.17-0.14-0.37-0.22-0.6-0.22c-0.24,0-0.44,0.08-0.62,0.25c-0.18,0.159-0.27,0.359-0.27,0.609
					c0,0.28,0.09,0.49,0.26,0.641c0.18,0.149,0.39,0.22,0.63,0.22c0.24,0,0.44-0.07,0.61-0.22c0.17-0.16,0.26-0.37,0.26-0.641
					C192.849,469.347,192.759,469.136,192.579,468.986z"/>
				<path style="fill:#FFFFFF;" d="M200.379,471.636c-0.11-0.22-0.34-0.329-0.68-0.329c-0.23,0-0.43,0.09-0.58,0.25
					c-0.15,0.17-0.22,0.409-0.22,0.71v0.239c-0.31-0.409-0.65-0.71-1.02-0.899c-0.36-0.19-0.79-0.29-1.29-0.29
					c-0.42,0-0.8,0.08-1.15,0.229c-0.35,0.141-0.65,0.36-0.92,0.66c-0.26,0.29-0.47,0.65-0.61,1.07c-0.15,0.43-0.22,0.899-0.22,1.43
					c0,0.71,0.12,1.33,0.36,1.87c0.23,0.54,0.57,0.96,1.01,1.26c0.44,0.311,0.95,0.46,1.54,0.46c0.49,0,0.91-0.1,1.27-0.3
					c0.35-0.2,0.66-0.49,0.93-0.86c-0.01,0.57-0.02,0.99-0.04,1.25c-0.01,0.261-0.07,0.5-0.17,0.73c-0.1,0.23-0.28,0.4-0.53,0.53
					c-0.25,0.13-0.6,0.189-1.06,0.189c-0.22,0-0.42-0.02-0.59-0.06c-0.17-0.04-0.32-0.101-0.44-0.19c-0.12-0.08-0.24-0.18-0.34-0.3
					c-0.1-0.12-0.2-0.24-0.29-0.35c-0.19-0.23-0.42-0.34-0.68-0.34c-0.2,0-0.38,0.069-0.52,0.199c-0.15,0.141-0.22,0.311-0.22,0.53
					c0,0.28,0.13,0.55,0.38,0.82c0.26,0.269,0.63,0.489,1.1,0.66c0.48,0.17,1.02,0.25,1.63,0.25c0.66,0,1.21-0.061,1.65-0.2
					c0.45-0.13,0.81-0.33,1.08-0.61c0.28-0.27,0.48-0.62,0.6-1.04c0.12-0.42,0.19-0.92,0.19-1.51v-5.1
					C200.549,472.176,200.489,471.856,200.379,471.636z M198.589,476.046c-0.16,0.311-0.37,0.551-0.63,0.7
					c-0.26,0.16-0.54,0.24-0.83,0.24c-0.49,0-0.9-0.18-1.21-0.55c-0.31-0.36-0.46-0.9-0.46-1.61c0-0.71,0.15-1.25,0.45-1.63
					c0.3-0.38,0.7-0.58,1.21-0.58c0.51,0,0.93,0.2,1.24,0.6c0.32,0.4,0.48,0.96,0.48,1.681
					C198.839,475.347,198.749,475.727,198.589,476.046z"/>
				<path style="fill:#FFFFFF;" d="M207.899,473.156c-0.03-0.24-0.11-0.48-0.22-0.691c-0.18-0.369-0.45-0.649-0.82-0.859
					c-0.36-0.2-0.78-0.3-1.24-0.3c-0.48,0-0.9,0.1-1.27,0.29c-0.1,0.05-0.19,0.109-0.29,0.18c-0.25,0.18-0.49,0.42-0.72,0.72v-0.22
					c0-0.21-0.04-0.391-0.11-0.53c-0.08-0.149-0.18-0.26-0.3-0.33c-0.13-0.069-0.27-0.109-0.42-0.109c-0.25,0-0.45,0.079-0.6,0.25
					c-0.15,0.159-0.22,0.409-0.22,0.75v5.079c0,0.341,0.08,0.601,0.25,0.79c0.16,0.181,0.37,0.28,0.62,0.28
					c0.26,0,0.48-0.09,0.64-0.27c0.17-0.181,0.25-0.45,0.25-0.801v-2.199c0-0.721,0.04-1.21,0.13-1.471
					c0.12-0.33,0.31-0.58,0.56-0.77c0.26-0.19,0.55-0.28,0.86-0.28c0.48,0,0.8,0.15,0.96,0.46c0.16,0.31,0.24,0.75,0.24,1.33v2.93
					c0,0.341,0.09,0.601,0.25,0.79c0.16,0.181,0.37,0.28,0.64,0.28c0.25,0,0.46-0.09,0.62-0.27c0.17-0.181,0.25-0.45,0.25-0.801
					v-3.27C207.959,473.727,207.939,473.406,207.899,473.156z"/>
				<path style="fill:#FFFFFF;" d="M214.769,476.036c-0.17,0-0.29,0.04-0.38,0.12c-0.22,0.2-0.4,0.37-0.54,0.49
					c-0.14,0.12-0.29,0.229-0.45,0.34c-0.16,0.1-0.33,0.18-0.5,0.229c-0.17,0.051-0.35,0.07-0.55,0.07h-0.01c-0.01,0-0.01,0-0.02,0
					c-0.31,0-0.6-0.08-0.86-0.229c-0.26-0.15-0.47-0.381-0.62-0.69c-0.03-0.06-0.06-0.11-0.08-0.17v-0.01
					c-0.11-0.261-0.16-0.56-0.17-0.87h3.44c0.46,0,0.82-0.07,1.07-0.2c0.25-0.13,0.38-0.42,0.38-0.86c0-0.479-0.12-0.939-0.37-1.399
					c-0.24-0.46-0.61-0.84-1.1-1.13c-0.49-0.29-1.08-0.431-1.77-0.431c-0.53,0-1.01,0.08-1.44,0.25c-0.43,0.17-0.8,0.42-1.09,0.73
					c-0.3,0.32-0.53,0.7-0.68,1.149c-0.15,0.44-0.23,0.921-0.23,1.44c0,1.1,0.31,1.98,0.94,2.62c0.62,0.64,1.5,0.97,2.63,0.97
					c0.49,0,0.93-0.07,1.31-0.2c0.01,0,0.03-0.01,0.04-0.01c0.36-0.13,0.66-0.29,0.91-0.47c0.25-0.2,0.43-0.4,0.56-0.61
					c0.12-0.22,0.19-0.399,0.19-0.56c0-0.181-0.06-0.32-0.17-0.42C215.099,476.086,214.949,476.036,214.769,476.036z
					 M211.109,472.966c0.28-0.3,0.64-0.449,1.07-0.449c0.46,0,0.83,0.149,1.11,0.449c0.29,0.301,0.45,0.75,0.49,1.351h-3.19
					C210.649,473.727,210.819,473.276,211.109,472.966z"/>
				<path style="fill:#FFFFFF;" d="M222.639,468.946c-0.14-0.17-0.35-0.25-0.61-0.25c-0.271,0-0.48,0.09-0.62,0.27
					c-0.14,0.191-0.22,0.46-0.22,0.82v2.6c-0.33-0.359-0.66-0.63-1.01-0.81c-0.35-0.17-0.78-0.26-1.28-0.26
					c-0.88,0-1.58,0.31-2.12,0.92c-0.54,0.62-0.81,1.47-0.81,2.57c0,0.52,0.07,1,0.21,1.449c0.13,0.45,0.33,0.841,0.59,1.17
					c0.26,0.33,0.57,0.58,0.93,0.761c0.36,0.18,0.75,0.27,1.17,0.27c0.32,0,0.61-0.05,0.88-0.14c0.27-0.08,0.52-0.21,0.75-0.38
					c0.23-0.17,0.46-0.391,0.69-0.66v0.17c0,0.32,0.08,0.57,0.24,0.75c0.16,0.17,0.35,0.26,0.6,0.26c0.24,0,0.44-0.09,0.59-0.25
					c0.16-0.17,0.24-0.42,0.24-0.76v-7.75C222.859,469.366,222.779,469.116,222.639,468.946z M220.869,476.116
					c-0.15,0.33-0.36,0.58-0.61,0.74c-0.26,0.16-0.54,0.24-0.85,0.24c-0.3,0-0.58-0.091-0.84-0.261c-0.26-0.17-0.46-0.42-0.61-0.75
					c-0.15-0.34-0.22-0.739-0.22-1.22c0-0.45,0.07-0.85,0.21-1.19c0.14-0.34,0.33-0.6,0.59-0.779c0.25-0.181,0.54-0.28,0.86-0.28
					c0.31,0,0.59,0.09,0.85,0.27c0.26,0.181,0.47,0.44,0.62,0.771c0.15,0.34,0.23,0.74,0.23,1.21
					C221.099,475.366,221.019,475.776,220.869,476.116z"/>
				<path style="fill:#FFFFFF;" d="M233.219,472.936c-0.24-0.521-0.58-0.92-1.02-1.2c-0.44-0.28-0.95-0.42-1.54-0.42
					c-0.5,0-0.93,0.1-1.27,0.28c-0.35,0.18-0.68,0.439-1.01,0.789v-2.689c0-0.32-0.08-0.57-0.22-0.74
					c-0.15-0.18-0.36-0.26-0.63-0.26c-0.25,0-0.45,0.09-0.6,0.27c-0.14,0.181-0.21,0.45-0.21,0.811v7.67c0,0.33,0.07,0.58,0.22,0.75
					c0.15,0.17,0.34,0.26,0.59,0.26s0.45-0.09,0.61-0.26c0.16-0.17,0.24-0.42,0.24-0.75v-0.17c0.19,0.22,0.35,0.39,0.46,0.5
					c0.12,0.109,0.26,0.22,0.43,0.33c0.17,0.1,0.37,0.189,0.61,0.25c0.24,0.06,0.49,0.1,0.76,0.1c0.44,0,0.85-0.09,1.22-0.27
					c0.36-0.181,0.68-0.431,0.93-0.761c0.26-0.319,0.46-0.71,0.59-1.149c0.14-0.45,0.2-0.93,0.2-1.47
					C233.579,474.086,233.459,473.466,233.219,472.936z M231.339,476.517c-0.32,0.39-0.7,0.58-1.14,0.58
					c-0.52,0-0.94-0.19-1.26-0.57c-0.32-0.37-0.48-0.91-0.48-1.61c0-0.47,0.08-0.89,0.23-1.229c0.15-0.351,0.35-0.61,0.61-0.79
					c0.27-0.181,0.56-0.28,0.9-0.28c0.32,0,0.61,0.1,0.85,0.28c0.25,0.18,0.44,0.439,0.57,0.769c0.13,0.34,0.2,0.74,0.2,1.2
					C231.819,475.586,231.659,476.136,231.339,476.517z"/>
				<path style="fill:#FFFFFF;" d="M240.009,471.696c-0.07-0.12-0.16-0.21-0.28-0.28c-0.12-0.069-0.25-0.109-0.38-0.109
					c-0.19,0-0.33,0.029-0.43,0.1c-0.1,0.059-0.2,0.19-0.29,0.37c-0.09,0.189-0.19,0.439-0.3,0.77l-1.41,4.021l-1.49-4.33
					c-0.1-0.3-0.21-0.53-0.34-0.69c-0.13-0.16-0.32-0.239-0.57-0.239c-0.15,0-0.29,0.04-0.42,0.119c-0.14,0.07-0.25,0.181-0.32,0.31
					c-0.08,0.12-0.12,0.26-0.12,0.41c0,0.149,0.07,0.37,0.2,0.689l2.16,5.44l-0.16,0.399c-0.12,0.28-0.22,0.5-0.32,0.65
					c-0.09,0.15-0.19,0.25-0.31,0.31c-0.11,0.061-0.27,0.091-0.47,0.091c-0.09,0-0.18-0.011-0.29-0.04
					c-0.09-0.021-0.19-0.04-0.28-0.04c-0.24,0-0.42,0.06-0.54,0.17c-0.13,0.109-0.19,0.26-0.19,0.46c0,0.3,0.13,0.5,0.39,0.62
					c0.26,0.109,0.64,0.16,1.16,0.16c0.521,0,0.94-0.08,1.25-0.24c0.32-0.16,0.57-0.391,0.75-0.69c0.19-0.3,0.39-0.71,0.58-1.24
					l2.3-6c0.05-0.159,0.1-0.31,0.14-0.46c0.039-0.149,0.06-0.27,0.08-0.35C240.109,471.946,240.079,471.816,240.009,471.696z"/>
			</g>
			<g>
				<path style="fill:#FFFFFF;" d="M261.319,471.459h0.419v-0.527c0-0.552,0.067-0.987,0.207-1.313
					c0.139-0.324,0.377-0.561,0.71-0.708c0.332-0.147,0.788-0.222,1.367-0.222c1.029,0,1.54,0.249,1.54,0.755
					c0,0.162-0.054,0.302-0.163,0.417c-0.104,0.115-0.232,0.174-0.378,0.174c-0.067,0-0.188-0.013-0.357-0.04
					c-0.161-0.022-0.307-0.038-0.422-0.038c-0.317,0-0.52,0.096-0.614,0.281c-0.086,0.186-0.132,0.453-0.132,0.803v0.418h0.429
					c0.672,0,1.004,0.201,1.004,0.607c0,0.284-0.086,0.468-0.267,0.545c-0.177,0.078-0.423,0.116-0.737,0.116h-0.429v4.656
					c0,0.347-0.082,0.61-0.25,0.792c-0.164,0.185-0.376,0.275-0.639,0.275c-0.249,0-0.455-0.091-0.622-0.275
					c-0.166-0.182-0.247-0.445-0.247-0.792v-4.656h-0.484c-0.263,0-0.462-0.057-0.605-0.178c-0.142-0.115-0.213-0.271-0.213-0.459
					C260.435,471.668,260.73,471.459,261.319,471.459L261.319,471.459z"/>
				<path style="fill:#FFFFFF;" d="M267.072,475.915v1.469c0,0.355-0.09,0.623-0.253,0.8c-0.168,0.18-0.379,0.268-0.636,0.268
					c-0.259,0-0.466-0.089-0.628-0.272c-0.16-0.179-0.244-0.444-0.244-0.796v-4.895c0-0.79,0.284-1.186,0.854-1.186
					c0.294,0,0.503,0.092,0.633,0.276c0.128,0.185,0.199,0.457,0.215,0.819c0.208-0.362,0.423-0.634,0.643-0.819
					c0.225-0.185,0.517-0.276,0.888-0.276c0.372,0,0.727,0.092,1.074,0.276c0.349,0.185,0.522,0.432,0.522,0.735
					c0,0.214-0.075,0.394-0.221,0.53c-0.149,0.142-0.308,0.211-0.478,0.211c-0.067,0-0.225-0.043-0.47-0.122
					c-0.247-0.077-0.467-0.117-0.652-0.117c-0.258,0-0.47,0.069-0.632,0.202c-0.164,0.139-0.291,0.337-0.382,0.601
					c-0.088,0.268-0.148,0.587-0.185,0.952C267.088,474.94,267.072,475.388,267.072,475.915L267.072,475.915z"/>
				<path style="fill:#FFFFFF;" d="M275.889,476.036c-0.16,0-0.29,0.04-0.38,0.12c-0.22,0.2-0.399,0.37-0.54,0.479
					c-0.14,0.131-0.279,0.24-0.449,0.341c-0.16,0.109-0.33,0.189-0.5,0.229c-0.181,0.061-0.37,0.08-0.58,0.08
					c-0.311,0-0.601-0.08-0.86-0.229c-0.26-0.16-0.47-0.391-0.63-0.69c-0.15-0.3-0.23-0.66-0.24-1.06h3.44
					c0.46,0,0.819-0.061,1.069-0.19c0.25-0.14,0.38-0.42,0.38-0.86c0-0.479-0.12-0.939-0.37-1.409c-0.239-0.461-0.609-0.83-1.1-1.12
					c-0.49-0.29-1.08-0.431-1.77-0.431c-0.53,0-1.011,0.08-1.441,0.25c-0.43,0.17-0.8,0.41-1.09,0.73c-0.3,0.32-0.53,0.7-0.68,1.14
					c-0.16,0.45-0.23,0.931-0.23,1.45c0,1.1,0.31,1.98,0.941,2.62c0.619,0.64,1.5,0.96,2.63,0.96c0.489,0,0.93-0.061,1.31-0.19
					c0.38-0.13,0.7-0.29,0.95-0.479c0.25-0.2,0.44-0.4,0.57-0.62c0.12-0.21,0.18-0.39,0.18-0.55c0-0.181-0.06-0.32-0.17-0.42
					C276.219,476.086,276.069,476.036,275.889,476.036z M272.228,472.966c0.28-0.3,0.641-0.449,1.07-0.449
					c0.471,0,0.83,0.149,1.12,0.449c0.28,0.29,0.441,0.74,0.48,1.341h-3.19C271.77,473.716,271.939,473.276,272.228,472.966z"/>
				<path style="fill:#FFFFFF;" d="M283.199,476.036c-0.16,0-0.29,0.04-0.38,0.12c-0.221,0.2-0.4,0.37-0.54,0.479
					c-0.141,0.131-0.28,0.24-0.45,0.341c-0.16,0.109-0.33,0.189-0.51,0.229c-0.17,0.061-0.36,0.08-0.57,0.08
					c-0.31,0-0.6-0.08-0.86-0.229c-0.26-0.16-0.47-0.391-0.619-0.69c-0.16-0.3-0.24-0.66-0.25-1.06h3.44
					c0.46,0,0.82-0.061,1.07-0.19c0.25-0.14,0.38-0.42,0.38-0.86c0-0.479-0.12-0.939-0.37-1.409c-0.24-0.461-0.61-0.83-1.1-1.12
					c-0.5-0.29-1.08-0.431-1.771-0.431c-0.53,0-1.01,0.08-1.44,0.25c-0.439,0.17-0.8,0.41-1.09,0.73c-0.3,0.32-0.529,0.7-0.68,1.14
					c-0.16,0.45-0.24,0.931-0.24,1.45c0,1.1,0.32,1.98,0.95,2.62c0.62,0.64,1.5,0.96,2.63,0.96c0.49,0,0.93-0.061,1.311-0.19
					c0.38-0.13,0.699-0.29,0.949-0.479c0.25-0.2,0.44-0.4,0.56-0.62c0.13-0.21,0.18-0.39,0.18-0.55c0-0.181-0.05-0.32-0.16-0.42
					C283.529,476.086,283.379,476.036,283.199,476.036z M279.529,472.966c0.29-0.3,0.649-0.449,1.08-0.449
					c0.46,0,0.83,0.149,1.119,0.449c0.28,0.29,0.44,0.74,0.481,1.341h-3.19C279.079,473.716,279.249,473.276,279.529,472.966z"/>
				<path style="fill:#FFFFFF;" d="M291.509,474.656c-0.02-0.65-0.149-1.21-0.38-1.7c-0.27-0.53-0.63-0.939-1.08-1.22
					c-0.46-0.28-0.96-0.42-1.5-0.42c-0.45,0-0.85,0.1-1.2,0.29c-0.359,0.189-0.71,0.49-1.04,0.899v-0.21
					c0-0.33-0.069-0.569-0.229-0.739c-0.16-0.171-0.36-0.25-0.61-0.25s-0.449,0.079-0.6,0.239c-0.15,0.17-0.22,0.42-0.22,0.761
					v7.579c0,0.391,0.06,0.671,0.159,0.881c0.11,0.189,0.33,0.29,0.66,0.29c0.561,0,0.84-0.391,0.84-1.16v-2.63
					c0.181,0.22,0.36,0.409,0.551,0.569c0.14,0.12,0.279,0.221,0.43,0.311c0.34,0.2,0.76,0.3,1.26,0.3c0.42,0,0.811-0.08,1.17-0.24
					c0.37-0.17,0.681-0.41,0.95-0.71c0.26-0.31,0.47-0.689,0.63-1.14c0.15-0.45,0.221-0.95,0.221-1.49
					C291.52,474.796,291.52,474.727,291.509,474.656z M289.529,476.076c-0.15,0.34-0.34,0.59-0.601,0.76
					c-0.239,0.17-0.52,0.261-0.81,0.261c-0.06,0-0.12,0-0.17-0.021c-0.42-0.03-0.771-0.229-1.06-0.57
					c-0.33-0.38-0.489-0.93-0.489-1.63c0-0.74,0.159-1.3,0.5-1.69c0.329-0.38,0.739-0.57,1.22-0.57c0.31,0,0.59,0.09,0.84,0.27
					c0.25,0.181,0.44,0.431,0.58,0.771c0.15,0.33,0.22,0.729,0.22,1.19c0,0.43-0.06,0.8-0.189,1.109
					C289.559,475.996,289.549,476.036,289.529,476.076z"/>
				<path style="fill:#FFFFFF;" d="M293.909,471.566c-0.17-0.181-0.38-0.26-0.64-0.26c-0.25,0-0.461,0.079-0.62,0.26
					c-0.16,0.18-0.25,0.439-0.25,0.79v5.029c0,0.341,0.09,0.601,0.25,0.79c0.159,0.181,0.37,0.27,0.62,0.27
					c0.26,0,0.47-0.08,0.64-0.27c0.17-0.18,0.25-0.44,0.25-0.79v-5.079C294.159,471.986,294.079,471.746,293.909,471.566z
					 M293.899,468.986c-0.181-0.15-0.38-0.22-0.61-0.22c-0.23,0-0.44,0.08-0.62,0.239c-0.18,0.16-0.27,0.37-0.27,0.62
					c0,0.271,0.09,0.48,0.27,0.63c0.17,0.15,0.38,0.23,0.62,0.23c0.24,0,0.439-0.08,0.62-0.23c0.17-0.149,0.25-0.359,0.25-0.63
					C294.159,469.347,294.069,469.126,293.899,468.986z"/>
				<path style="fill:#FFFFFF;" d="M299.827,477.648l-1.548-2.552l-0.954,0.9v1.399c0,0.339-0.09,0.598-0.269,0.779
					c-0.175,0.185-0.384,0.275-0.614,0.275c-0.27,0-0.484-0.089-0.638-0.272c-0.153-0.179-0.232-0.444-0.232-0.796v-7.498
					c0-0.388,0.077-0.685,0.224-0.89c0.151-0.207,0.369-0.307,0.646-0.307c0.271,0,0.483,0.093,0.644,0.279
					c0.158,0.183,0.239,0.456,0.239,0.814v4.265l1.977-2.075c0.245-0.255,0.429-0.435,0.561-0.527
					c0.128-0.095,0.283-0.142,0.467-0.142c0.221,0,0.402,0.07,0.553,0.209c0.143,0.14,0.217,0.316,0.217,0.524
					c0,0.257-0.239,0.602-0.715,1.031l-0.933,0.855l1.802,2.835c0.131,0.213,0.229,0.368,0.287,0.479
					c0.058,0.107,0.088,0.217,0.088,0.313c0,0.28-0.077,0.498-0.23,0.661c-0.152,0.161-0.354,0.24-0.601,0.24
					c-0.214,0-0.382-0.055-0.497-0.174C300.185,478.16,300.024,477.95,299.827,477.648L299.827,477.648z"/>
				<path style="fill:#FFFFFF;" d="M303.646,478.451c-0.265,0-0.492-0.086-0.686-0.258c-0.192-0.169-0.291-0.411-0.291-0.722
					c0-0.262,0.094-0.487,0.278-0.675c0.186-0.19,0.412-0.283,0.684-0.283c0.268,0,0.498,0.094,0.692,0.279
					c0.19,0.186,0.286,0.414,0.286,0.679c0,0.307-0.097,0.547-0.286,0.718C304.129,478.365,303.903,478.451,303.646,478.451
					L303.646,478.451z"/>
				<path style="fill:#FFFFFF;" d="M312.389,476.275c0,0.218-0.066,0.453-0.197,0.701c-0.13,0.251-0.331,0.486-0.601,0.712
					c-0.268,0.225-0.604,0.408-1.013,0.544c-0.407,0.137-0.868,0.208-1.376,0.208c-1.089,0-1.938-0.318-2.547-0.949
					c-0.607-0.635-0.912-1.484-0.912-2.549c0-0.723,0.138-1.359,0.419-1.914c0.276-0.552,0.681-0.98,1.208-1.283
					c0.527-0.304,1.162-0.454,1.894-0.454c0.456,0,0.873,0.066,1.255,0.2c0.38,0.132,0.7,0.306,0.966,0.515
					c0.262,0.213,0.465,0.436,0.603,0.672c0.14,0.238,0.208,0.462,0.208,0.669c0,0.209-0.077,0.388-0.232,0.534
					c-0.159,0.146-0.35,0.22-0.568,0.22c-0.148,0-0.27-0.039-0.367-0.113c-0.097-0.076-0.206-0.196-0.324-0.367
					c-0.215-0.324-0.438-0.57-0.675-0.731c-0.232-0.164-0.528-0.245-0.89-0.245c-0.517,0-0.939,0.202-1.257,0.608
					c-0.316,0.403-0.477,0.962-0.477,1.663c0,0.331,0.043,0.637,0.124,0.913c0.079,0.276,0.197,0.513,0.353,0.708
					c0.156,0.194,0.342,0.342,0.561,0.443c0.22,0.104,0.461,0.152,0.721,0.152c0.353,0,0.655-0.081,0.905-0.244
					c0.255-0.163,0.477-0.411,0.669-0.747c0.107-0.197,0.222-0.351,0.345-0.463c0.124-0.111,0.277-0.169,0.458-0.169
					c0.215,0,0.393,0.083,0.533,0.245C312.316,475.917,312.389,476.093,312.389,476.275L312.389,476.275z"/>
				<path style="fill:#FFFFFF;" d="M319.728,473.426c-0.159-0.43-0.39-0.81-0.699-1.13c-0.311-0.319-0.681-0.56-1.11-0.729
					c-0.44-0.181-0.92-0.26-1.45-0.26c-0.529,0-1.01,0.079-1.439,0.25c-0.431,0.17-0.801,0.409-1.11,0.729
					c-0.3,0.311-0.54,0.69-0.7,1.13c-0.16,0.44-0.24,0.931-0.24,1.46c0,0.53,0.08,1.01,0.231,1.45c0.17,0.43,0.4,0.81,0.72,1.13
					c0.3,0.32,0.681,0.57,1.101,0.74c0.42,0.17,0.899,0.26,1.439,0.26c0.53,0,1.01-0.09,1.45-0.26c0.42-0.17,0.79-0.41,1.101-0.73
					c0.31-0.319,0.55-0.699,0.709-1.14c0.16-0.44,0.24-0.93,0.24-1.45C319.969,474.347,319.889,473.866,319.728,473.426z
					 M317.739,476.536c-0.32,0.41-0.74,0.61-1.271,0.61c-0.359,0-0.66-0.09-0.92-0.271c-0.26-0.19-0.46-0.45-0.6-0.8
					c-0.141-0.34-0.21-0.74-0.21-1.2c0-0.46,0.069-0.87,0.21-1.22c0.14-0.34,0.34-0.61,0.609-0.79c0.261-0.17,0.56-0.26,0.91-0.26
					c0.53,0,0.95,0.2,1.271,0.6c0.31,0.4,0.47,0.96,0.47,1.67C318.209,475.586,318.049,476.136,317.739,476.536z"/>
				<path style="fill:#FFFFFF;" d="M326.677,475.008v2.336c0,0.371-0.082,0.645-0.251,0.832c-0.169,0.185-0.387,0.276-0.662,0.276
					c-0.267,0-0.484-0.092-0.645-0.276c-0.168-0.188-0.252-0.461-0.252-0.832v-2.8c0-0.442-0.015-0.787-0.043-1.033
					c-0.031-0.239-0.114-0.443-0.246-0.598c-0.133-0.16-0.345-0.238-0.631-0.238c-0.576,0-0.953,0.196-1.136,0.597
					c-0.182,0.391-0.275,0.958-0.275,1.699v2.373c0,0.364-0.083,0.642-0.245,0.829c-0.169,0.185-0.385,0.279-0.654,0.279
					c-0.268,0-0.485-0.094-0.655-0.279c-0.17-0.188-0.255-0.465-0.255-0.829v-5.028c0-0.331,0.076-0.583,0.228-0.753
					c0.155-0.174,0.356-0.259,0.602-0.259c0.242,0,0.441,0.084,0.605,0.241c0.16,0.161,0.24,0.384,0.24,0.667v0.166
					c0.308-0.362,0.634-0.631,0.978-0.8c0.351-0.177,0.733-0.262,1.161-0.262c0.441,0,0.82,0.089,1.137,0.264
					c0.318,0.177,0.579,0.444,0.787,0.798c0.298-0.358,0.616-0.625,0.955-0.8c0.339-0.175,0.714-0.262,1.127-0.262
					c0.478,0,0.895,0.097,1.242,0.284c0.346,0.189,0.605,0.46,0.778,0.81c0.149,0.32,0.224,0.82,0.224,1.503v3.431
					c0,0.371-0.083,0.645-0.249,0.832c-0.167,0.185-0.39,0.276-0.664,0.276c-0.268,0-0.483-0.094-0.653-0.279
					c-0.17-0.188-0.255-0.465-0.255-0.829v-2.956c0-0.378-0.017-0.68-0.047-0.906c-0.032-0.229-0.12-0.421-0.26-0.574
					c-0.144-0.154-0.359-0.232-0.646-0.232c-0.232,0-0.452,0.072-0.66,0.208c-0.208,0.135-0.371,0.323-0.488,0.551
					C326.743,473.73,326.677,474.256,326.677,475.008L326.677,475.008z"/>
			</g>
			<g>
				<path style="fill:#FFFFFF;" d="M244.872,474.453c-0.002-0.003-0.002-0.006-0.002-0.012
					C244.871,474.447,244.871,474.45,244.872,474.453z"/>
				<path style="fill:#FFFFFF;" d="M244.961,475.016c0.001,0,0.001,0,0.002,0c-0.034-0.16-0.06-0.319-0.081-0.476
					C244.903,474.698,244.929,474.857,244.961,475.016z"/>
				<path style="fill:#FFFFFF;" d="M245.542,476.647c-0.004-0.007-0.007-0.015-0.012-0.023
					C245.535,476.632,245.539,476.64,245.542,476.647z"/>
				<path style="fill:#FFFFFF;" d="M245.487,476.538c-0.015-0.03-0.03-0.061-0.044-0.091
					C245.457,476.478,245.472,476.508,245.487,476.538z"/>
				<path style="fill:#FFFFFF;" d="M245.124,475.644c0.086,0.271,0.19,0.534,0.31,0.785c-0.122-0.256-0.224-0.52-0.308-0.785
					C245.126,475.644,245.125,475.644,245.124,475.644z"/>
				<path style="fill:#FFFFFF;" d="M251.675,467.72c0.34,0,0.59,0.026,0.878,0.075l0.081-0.517c0,0-0.794-0.244-1.837-0.159
					l-0.082-0.281c0.324-0.068,0.567-0.356,0.567-0.701c0-0.395-0.321-0.714-0.716-0.714c-0.395,0-0.716,0.319-0.716,0.714
					c0,0.345,0.243,0.633,0.567,0.701l0.09,0.314c-1.107,0.152-1.989,0.585-1.989,0.585l0.156,0.478
					c0.67-0.224,1.252-0.358,1.778-0.416C250.97,467.743,251.358,467.72,251.675,467.72z"/>
				<path style="fill:#FFFFFF;" d="M245.529,470.334l0.004-0.005c0.026-0.034,0.051-0.065,0.077-0.097l-0.212-0.153l-0.33-0.241
					c-0.019,0.025-0.539,0.504-0.95,1.388c-0.018-0.027-0.038-0.055-0.061-0.081c-0.123-0.134-0.295-0.202-0.514-0.198
					c-0.003,0-0.006,0-0.01,0c-0.135,0-0.228-0.046-0.289-0.101c0.061-0.076,0.097-0.173,0.097-0.28
					c0-0.249-0.203-0.453-0.454-0.453c-0.249,0-0.453,0.204-0.453,0.453c0,0.251,0.204,0.454,0.453,0.454
					c0.04,0,0.077-0.007,0.113-0.014c0.111,0.123,0.288,0.231,0.547,0.226c0.133-0.001,0.231,0.033,0.296,0.105
					c0.075,0.082,0.1,0.2,0.108,0.29c-0.001,0.001-0.001,0.003-0.002,0.003c-0.295,0.807-0.211,1.81-0.211,1.81l0.716,0.028
					c0.015-0.365,0.067-1.004,0.252-1.512C245.064,470.975,245.511,470.36,245.529,470.334z"/>
				<path style="fill:#FFFFFF;" d="M257.909,468.318c-0.249,0-0.453,0.202-0.453,0.453c0,0.039,0.006,0.076,0.016,0.112
					c-0.124,0.112-0.232,0.29-0.228,0.549c0.002,0.134-0.032,0.23-0.104,0.296c-0.058,0.051-0.13,0.078-0.2,0.096
					c-0.533-0.747-1.191-1.203-1.191-1.203l-0.514,0.551c0.389,0.353,0.785,0.797,1.171,1.349c0.267,0.382,0.542,0.875,0.77,1.366
					l0.693-0.33c0,0-0.316-0.783-0.763-1.485c0.077-0.027,0.155-0.069,0.225-0.13c0.136-0.123,0.202-0.296,0.198-0.514
					c-0.001-0.142,0.045-0.236,0.101-0.3c0.077,0.06,0.174,0.098,0.279,0.098c0.252,0,0.454-0.204,0.454-0.454
					C258.363,468.521,258.161,468.318,257.909,468.318z"/>
				<path style="fill:#FFFFFF;" d="M256.108,474.555c-0.955,0.466-2.527,1.08-4.596,1.369c-0.812,0.112-1.599,0.154-2.324,0.154
					c-0.942,0-1.775-0.07-2.414-0.151c-0.729-0.092-1.3-0.204-1.648-0.283c0.084,0.266,0.186,0.529,0.308,0.785
					c0.002,0.007,0.005,0.014,0.008,0.019c0.015,0.029,0.029,0.061,0.044,0.091c0.015,0.029,0.029,0.059,0.044,0.086
					c0.004,0.008,0.008,0.016,0.012,0.023c0.205,0.387,0.452,0.742,0.732,1.05c0.976,1.067,1.97,1.236,1.98,1.237l0.016,0.002
					l0.015,0.005c0.009,0.004,0.89,0.288,2.23,0.288c1.319,0,2.613-0.266,3.845-0.791c0.913-0.467,1.777-1.177,2.205-1.81
					c0.331-0.489,0.57-1.012,0.712-1.555c0.075-0.288,0.135-0.75,0.1-1.236C257.108,474.018,256.684,474.274,256.108,474.555z"/>
				<path style="fill:#FFFFFF;" d="M256.089,470.736c-1.35-1.94-2.819-2.44-3.569-2.56c-0.29-0.05-0.521-0.069-0.841-0.069
					c-0.31,0-0.68,0.02-1.189,0.069c-0.5,0.051-1.06,0.19-1.71,0.41c-0.92,0.3-1.74,0.78-2.39,1.38l-0.02,0.021
					c-0.1,0.09-0.3,0.28-0.53,0.57c-0.03,0.04-0.45,0.63-0.77,1.529c-0.25,0.681-0.24,1.66-0.24,1.67c0,0.23,0.02,0.46,0.04,0.69
					c0,0,0,0,0,0.01c0.01,0.03,0.01,0.05,0.01,0.08c0.02,0.16,0.05,0.32,0.08,0.48c0.48,0.119,3.31,0.779,6.47,0.34
					c1.99-0.28,3.49-0.86,4.41-1.311c0.76-0.359,1.25-0.699,1.44-0.84C257.089,472.517,256.569,471.416,256.089,470.736z
					 M248.569,473.876c-1.06,0-1.91-0.85-1.91-1.91c0-1.05,0.85-1.899,1.91-1.899c1.05,0,1.91,0.85,1.91,1.899
					C250.479,473.026,249.619,473.876,248.569,473.876z M254.149,472.477c-0.65,0-1.181-0.53-1.181-1.19
					c0-0.65,0.53-1.18,1.181-1.18c0.649,0,1.18,0.529,1.18,1.18C255.329,471.946,254.799,472.477,254.149,472.477z"/>
			</g>
		</g>
	</g>
</g>
</svg>
