<?xml version="1.0" encoding="utf-8"?>
<!-- Generator: Adobe Illustrator 27.5.0, SVG Export Plug-In . SVG Version: 6.00 Build 0)  -->
<svg version="1.1" xmlns="http://www.w3.org/2000/svg" xmlns:xlink="http://www.w3.org/1999/xlink" x="0px" y="0px"
	 viewBox="0 0 500 500" style="enable-background:new 0 0 500 500;" xml:space="preserve">
<g id="Background_complete">
	<g>
		<g>
			<g>
				<g>
					<g>
						<path style="fill:#E0E0E0;" d="M443.92,345.062H263.174c-3.232,0-5.862-2.63-5.862-5.862V75.926
							c0-3.232,2.63-5.862,5.862-5.862H443.92c3.232,0,5.862,2.629,5.862,5.862v263.273
							C449.783,342.432,447.153,345.062,443.92,345.062z M263.174,70.314c-3.095,0-5.612,2.518-5.612,5.612v263.273
							c0,3.095,2.518,5.612,5.612,5.612H443.92c3.095,0,5.612-2.517,5.612-5.612V75.926c0-3.094-2.518-5.612-5.612-5.612H263.174z"
							/>
					</g>
				</g>
				<g>
					<g>
						<path style="fill:#E0E0E0;" d="M235.493,345.062H54.746c-3.232,0-5.862-2.63-5.862-5.862V75.926
							c0-3.232,2.629-5.862,5.862-5.862h180.747c3.232,0,5.862,2.629,5.862,5.862v263.273
							C241.355,342.432,238.725,345.062,235.493,345.062z M54.746,70.314c-3.094,0-5.612,2.518-5.612,5.612v263.273
							c0,3.095,2.518,5.612,5.612,5.612h180.747c3.095,0,5.612-2.517,5.612-5.612V75.926c0-3.094-2.518-5.612-5.612-5.612H54.746z"
							/>
					</g>
				</g>
			</g>
			<g>
				<g>
					<rect x="0" y="406.131" style="fill:#E0E0E0;" width="500" height="0.25"/>
				</g>
			</g>
		</g>
		<rect x="51.672" y="420.396" style="fill:#E0E0E0;" width="16.06" height="0.25"/>
		<rect x="170.352" y="417.686" style="fill:#E0E0E0;" width="53.53" height="0.25"/>
		<rect x="68.732" y="429.686" style="fill:#E0E0E0;" width="36.25" height="0.25"/>
		<rect x="378.352" y="417.556" style="fill:#E0E0E0;" width="43.19" height="0.25"/>
		<rect x="430.452" y="417.556" style="fill:#E0E0E0;" width="6.33" height="0.25"/>
		<rect x="316.212" y="423.786" style="fill:#E0E0E0;" width="53.89" height="0.25"/>
	</g>
	<g>
		
			<ellipse transform="matrix(0.3183 -0.948 0.948 0.3183 66.6606 209.7301)" style="fill:#E6E6E6;" cx="179.157" cy="58.515" rx="33.257" ry="33.257"/>
		<circle style="fill:#F0F0F0;" cx="179.16" cy="58.526" r="28.391"/>
		
			<ellipse transform="matrix(0.2276 -0.9738 0.9738 0.2276 81.396 219.6645)" style="fill:#E6E6E6;" cx="179.16" cy="58.526" rx="22.224" ry="22.224"/>
		
			<ellipse transform="matrix(0.6264 -0.7795 0.7795 0.6264 21.3142 161.517)" style="fill:#FAFAFA;" cx="179.165" cy="58.522" rx="18.214" ry="18.214"/>
		<path style="fill:#E6E6E6;" d="M166.854,55.612c1.604-6.795,8.412-11.003,15.206-9.399c6.795,1.604,11.003,8.412,9.399,15.206
			c-1.604,6.795-8.412,11.003-15.206,9.399C169.459,69.214,165.251,62.406,166.854,55.612z"/>
		<path style="fill:#F0F0F0;" d="M175.691,50.136c4.631-1.918,9.941,0.281,11.859,4.912c1.918,4.631-0.281,9.941-4.912,11.859
			c-4.631,1.918-9.941-0.281-11.859-4.912C168.861,57.364,171.06,52.055,175.691,50.136z"/>
		<path style="fill:#E6E6E6;" d="M183.275,58.526c0,2.277-1.846,4.123-4.123,4.123c-2.277,0-4.123-1.846-4.123-4.123
			c0-2.277,1.846-4.123,4.123-4.123c0.003,0,0.006,0,0.009,0c2.272,0,4.114,1.842,4.114,4.114
			C183.275,58.52,183.275,58.523,183.275,58.526z"/>
		<polygon style="fill:#EBEBEB;" points="136.477,31.095 137.377,37.105 131.122,39.211 137.377,42.495 143.614,40.303 
			142.522,34.38 		"/>
		<path style="fill:#E0E0E0;" d="M179.305,59.399c-0.139-0.002-0.277-0.035-0.402-0.096l-44.753-22.94
			c-0.423-0.232-0.577-0.763-0.345-1.186c0.223-0.405,0.722-0.567,1.14-0.369l44.753,22.905c0.428,0.218,0.6,0.741,0.384,1.171
			C179.945,59.191,179.642,59.392,179.305,59.399z"/>
	</g>
	<path style="fill:#EBEBEB;" d="M350.041,332.549c-1.479,3.603-2.209,7.388-2.259,11.155l-5.662,1.662l2.166,11.169l5.874-0.575
		c1.453,3.474,3.546,6.711,6.265,9.501l-2.821,5.164l9.43,6.366l3.735-4.547c3.604,1.478,7.388,2.209,11.155,2.259l1.662,5.663
		l11.169-2.167l-0.575-5.872c3.475-1.455,6.712-3.547,9.502-6.266l5.164,2.82l6.366-9.43l-4.547-3.735
		c1.478-3.604,2.209-7.388,2.258-11.154l5.661-1.662l-2.166-11.169l-5.873,0.575c-1.454-3.474-3.547-6.711-6.266-9.5l2.821-5.164
		l-9.43-6.366l-3.735,4.547c-3.604-1.479-7.389-2.21-11.155-2.259l-1.662-5.662l-11.169,2.167l0.576,5.873
		c-3.475,1.454-6.712,3.546-9.501,6.265l-5.164-2.821l-6.366,9.43L350.041,332.549z M386.971,331.367
		c7.05,4.759,8.907,14.333,4.148,21.383c-4.76,7.051-14.334,8.907-21.383,4.148c-7.05-4.76-8.907-14.333-4.148-21.384
		C370.347,328.465,379.92,326.607,386.971,331.367z"/>
	<path style="fill:#F0F0F0;" d="M384.196,277.976c-1.029,2.507-1.537,5.141-1.572,7.763l-3.94,1.156l1.507,7.773l4.087-0.4
		c1.011,2.418,2.468,4.67,4.36,6.612l-1.963,3.594l6.562,4.43l2.599-3.164c2.508,1.029,5.141,1.537,7.763,1.572l1.156,3.941
		l7.772-1.508l-0.4-4.086c2.418-1.012,4.671-2.469,6.612-4.36l3.593,1.963l4.43-6.562l-3.164-2.599
		c1.029-2.508,1.537-5.141,1.572-7.762l3.94-1.157l-1.507-7.772l-4.087,0.4c-1.012-2.418-2.469-4.67-4.36-6.611l1.963-3.594
		l-6.562-4.43l-2.599,3.164c-2.508-1.029-5.142-1.538-7.762-1.572l-1.157-3.94l-7.772,1.508l0.401,4.087
		c-2.418,1.012-4.671,2.468-6.612,4.36l-3.593-1.963l-4.43,6.563L384.196,277.976z M409.895,277.154
		c4.906,3.312,6.198,9.974,2.886,14.88c-3.312,4.906-9.975,6.198-14.88,2.887c-4.906-3.312-6.199-9.974-2.886-14.88
		C398.327,275.134,404.989,273.841,409.895,277.154z"/>
	<g>
		<g>
			<g>
				<path style="fill:#F0F0F0;" d="M141.075,366.711l6.349-22.32c-0.375-0.291-0.84-0.488-1.306-0.56
					c-1.029-0.158-2.066,0.136-3.08,0.371c-1.386,0.321-2.814,0.537-4.23,0.408c-1.417-0.129-2.832-0.627-3.881-1.588
					c-1.182-1.083-2.266-2.993-2.54-4.573c-0.415-2.39,0.387-4.633,1.715-6.663c1.328-2.03,3.713-3.418,6.133-3.249
					c2.485,0.173,4.672,1.876,6.465,3.387c0.84,0.708,1.726,1.358,2.663,1.933c0.288,0.176,0.598,0.353,0.921,0.481l6.471-22.748
					c0.865-3.042-0.899-6.21-3.941-7.075l-24.079-6.849c-0.091,0.105-0.155,0.227-0.177,0.374c-0.158,1.029-0.433,3.897-0.198,4.911
					c0.321,1.386,0.537,2.814,0.408,4.23c-0.129,1.417-0.627,2.832-1.589,3.881c-1.083,1.182-2.993,2.266-4.573,2.54
					c-2.39,0.415-4.633-0.387-6.662-1.715s-3.418-3.713-3.249-6.133c0.176-2.531,1.939-4.753,3.471-6.564
					c0.703-0.831,1.341-1.713,1.9-2.647c0.315-0.527,0.628-1.12,0.607-1.74l-21.043-5.985c-3.106-0.884-6.341,0.918-7.224,4.025
					l-6.299,22.144c-1.147-0.805-2.203-1.746-3.327-2.587c-1.47-1.101-3.141-2.06-4.973-2.188c-2.42-0.169-4.805,1.219-6.133,3.249
					c-1.328,2.03-2.13,4.272-1.715,6.663c0.274,1.58,1.357,3.49,2.54,4.573c1.049,0.961,2.464,1.459,3.881,1.589
					c1.417,0.129,2.844-0.087,4.23-0.408c0.829-0.192,1.673-0.42,2.516-0.412l-6.367,22.383c-0.893,3.141,0.928,6.411,4.069,7.304
					l54.943,15.628C136.911,371.674,140.182,369.852,141.075,366.711z"/>
			</g>
		</g>
		<path style="fill:#E6E6E6;" d="M112.023,364.772c0,0,6.763-9.583,20.371-12.481c13.608-2.898,13.338-1.95,13.338-1.95
			l-1.889,6.642c0,0-17.965-6.302-26.885,9.192L112.023,364.772z"/>
	</g>
	<g>
		<g>
			<g>
				<path style="fill:#F0F0F0;" d="M352.715,145.984l12.377-26.92c-0.417-0.44-0.964-0.781-1.539-0.962
					c-1.268-0.4-2.633-0.232-3.959-0.134c-1.812,0.134-3.655,0.128-5.418-0.313c-1.763-0.44-3.45-1.345-4.586-2.763
					c-1.28-1.598-2.273-4.22-2.31-6.267c-0.056-3.097,1.394-5.77,3.467-8.071c2.073-2.301,5.353-3.586,8.373-2.9
					c3.101,0.705,5.528,3.28,7.495,5.538c0.921,1.058,1.913,2.051,2.982,2.959c0.328,0.279,0.685,0.562,1.068,0.787l12.614-27.437
					c1.687-3.669,0.08-8.011-3.589-9.698l-29.041-13.351c-0.135,0.115-0.24,0.257-0.297,0.437c-0.4,1.268-1.309,4.833-1.211,6.158
					c0.134,1.812,0.128,3.655-0.313,5.418c-0.44,1.763-1.345,3.45-2.763,4.586c-1.598,1.28-4.22,2.273-6.267,2.31
					c-3.097,0.056-5.77-1.394-8.071-3.467c-2.301-2.073-3.586-5.353-2.9-8.373c0.718-3.159,3.376-5.618,5.663-7.604
					c1.049-0.911,2.027-1.899,2.915-2.968c0.501-0.603,1.011-1.29,1.107-2.076l-25.379-11.668c-3.747-1.722-8.18-0.082-9.902,3.665
					l-12.279,26.708c-1.289-1.24-2.438-2.633-3.692-3.915c-1.639-1.677-3.56-3.214-5.847-3.734c-3.02-0.686-6.301,0.599-8.373,2.9
					c-2.073,2.301-3.523,4.974-3.467,8.071c0.037,2.047,1.03,4.669,2.31,6.267c1.136,1.418,2.823,2.323,4.586,2.763
					c1.763,0.44,3.606,0.447,5.418,0.313c1.084-0.08,2.193-0.202,3.255-0.027l-12.411,26.997c-1.741,3.788-0.083,8.271,3.706,10.012
					l66.267,30.466C346.491,151.431,350.974,149.772,352.715,145.984z"/>
			</g>
		</g>
		<path style="fill:#E6E6E6;" d="M316.438,137.855c0,0,10.407-10.768,28.144-11.763c17.736-0.995,17.21,0.149,17.21,0.149
			l-3.683,8.011c0,0-21.434-11.465-35.72,6.34L316.438,137.855z"/>
	</g>
</g>
<g id="Background_simple" style="display:none;">
	<g style="display:inline;">
		<path style="fill:#407BFF;" d="M175.929,32.154c-21.564,2.847-42.358,8.907-60.801,18.413
			c-21.736,11.204-43.946,28.659-37.386,51.49c12.11,42.149,70.206,42.917,58.607,71.257c-13.139,32.101-4.328,69.757,54.63,80.228
			c111.982,19.889,247.351-96.484,209.331-160.43C376.64,53.302,290.43,17.039,175.929,32.154z"/>
		<path style="opacity:0.9;fill:#FFFFFF;" d="M175.929,32.154c-21.564,2.847-42.358,8.907-60.801,18.413
			c-21.736,11.204-43.946,28.659-37.386,51.49c12.11,42.149,70.206,42.917,58.607,71.257c-13.139,32.101-4.328,69.757,54.63,80.228
			c111.982,19.889,247.351-96.484,209.331-160.43C376.64,53.302,290.43,17.039,175.929,32.154z"/>
	</g>
</g>
<g id="Shadow">
	<g>
		<g>
			<path style="fill:#F5F5F5;" d="M458.875,451.053c0,9.193-93.517,16.646-208.875,16.646s-208.875-7.453-208.875-16.646
				c0-9.193,93.516-16.646,208.875-16.646S458.875,441.86,458.875,451.053z"/>
		</g>
	</g>
</g>
<g id="Device">
	<g>
		<g>
			<g>
				<g id="freepik--device-1--inject-2_00000147898902804730157900000015828243211328455330_">
					<path style="fill:#263238;" d="M301.11,446.769H175.172c-14.163-0.01-25.642-11.488-26.434-25.482V120.272
						c0.793-14.333,12.272-25.812,26.434-25.821H301.11c14.163,0.01,25.642,11.488,25.651,25.651v301.015
						C326.752,435.28,315.273,446.759,301.11,446.769z"/>
					<path style="fill:#407BFF;" d="M301.11,100.345h-32.731c-2.126-0.011-3.931,1.555-4.22,3.662l-0.139,1.029
						c-0.688,5.182-5.096,9.061-10.323,9.085h-31.109c-5.228-0.024-9.635-3.903-10.323-9.085l-0.122-1.029
						c-0.28-2.126-2.093-3.715-4.237-3.714h-32.731c-10.911-0.039-19.788,8.776-19.827,19.687c0,0.041,0,0.081,0,0.122v301.015
						c0,10.912,8.846,19.757,19.757,19.757H301.04c10.914,0,19.765-8.843,19.775-19.757V120.102
						C320.805,109.215,311.997,100.383,301.11,100.345z"/>
					<path style="opacity:0.8;fill:#FFFFFF;enable-background:new    ;" d="M301.11,100.345h-32.731
						c-2.126-0.011-3.931,1.555-4.22,3.662l-0.139,1.029c-0.688,5.182-5.096,9.061-10.323,9.085h-31.109
						c-5.228-0.024-9.635-3.903-10.323-9.085l-0.122-1.029c-0.28-2.126-2.093-3.715-4.237-3.714h-32.731
						c-10.911-0.039-19.788,8.776-19.827,19.687c0,0.041,0,0.081,0,0.122v301.015c0,10.912,8.846,19.757,19.757,19.757H301.04
						c10.914,0,19.765-8.843,19.775-19.757V120.102C320.805,109.215,311.997,100.383,301.11,100.345z"/>
					<g style="opacity:0.7;">
						<path d="M230.521,103.676c0.01,1.387-1.107,2.519-2.494,2.528c-1.387,0.01-2.519-1.107-2.528-2.494
							c-0.01-1.387,1.107-2.519,2.494-2.528c0.012,0,0.023,0,0.035,0C229.404,101.182,230.521,102.298,230.521,103.676z"/>
						<path d="M248.255,101.182h-8.579c-1.377,0-2.494,1.116-2.494,2.494c0,1.377,1.117,2.494,2.494,2.494h8.579
							c1.377,0,2.494-1.116,2.494-2.494C250.749,102.298,249.632,101.182,248.255,101.182z"/>
					</g>
					<rect x="169.121" y="111.47" style="fill:#407BFF;" width="2.651" height="2.651"/>
					<polygon style="fill:#407BFF;" points="174.405,111.47 174.405,114.121 177.056,114.121 177.056,111.47 177.056,108.82 
						174.405,108.82 					"/>
					<polygon style="fill:#407BFF;" points="179.706,106.187 179.706,108.82 179.706,111.47 179.706,114.121 182.357,114.121 
						182.357,111.47 182.357,108.82 182.357,106.187 					"/>
					<path style="fill:#407BFF;" d="M293.594,106.361v1.936h-1.291v3.889h1.291v1.936h11.718v-7.76H293.594z M298.826,112.185
						h-3.976v-3.889h3.889L298.826,112.185z"/>
				</g>
				<path style="opacity:0.2;fill:#FFFFFF;" d="M155.345,364.389c0-3.034,10.883-42.48,34.825-83.949
					c23.942-41.469,53.543-13.148,82.273-58.663c28.73-45.514,31.962-121.485,31.962-121.485h-33.455
					c0,0-6.342,85.073-36.814,96.199c-30.471,11.126-78.79,78.891-78.79,78.891V364.389z"/>
				<path style="opacity:0.2;fill:#FFFFFF;" d="M175.296,441.389h19.76c0,0,109.512-156.212,125.759-184.299v-30.281
					C305.885,261.918,175.296,441.389,175.296,441.389z"/>
			</g>
		</g>
		<g style="opacity:0.4;">
			<g>
				<path style="fill:#407BFF;" d="M236.742,139.333c-10.997,4.932-21.949,9.976-32.813,15.195
					c-16.068,7.718-37.153,17.604-39.144,37.783c-2.316,23.476,26.365,30.356,43.838,33.78c13.053,2.558,26.115,5.074,39.173,7.611
					c5.223,1.015,10.481,1.937,15.639,3.255c2.556,0.653,5.252,1.331,7.677,2.39c1.384,0.604,3.451,2.726,4.699,2.889
					c0.82,0.107,0.257,0.493,0.523-0.942c-0.204,1.098-0.615,1.535-1.746,2.773c-3.229,3.534-7.885,5.955-12.206,7.857
					c-10.285,4.527-21.566,7.069-32.491,9.507c-18.24,4.071-46.244,8.469-52.828,29.506c-7.076,22.611,20.099,36.379,37.507,41.234
					c11.77,3.282,23.922,4.878,35.786,7.757c9.186,2.229,19.681,5.134,26.369,12.288c1.255,1.343,1.798,2.086,2.242,3.377
					c0.857,2.493,0.138,1.028,0.135,0.698c-0.01-1.022-0.17,1.032-0.337,1.367c-2.077,4.162-7.142,6.789-11.061,8.832
					c-11.156,5.815-23.673,8.578-35.044,13.981c-21.259,10.101-35.351,32.732-24.45,55.576c2.326,4.874,9.299,6.151,13.682,3.587
					c4.985-2.916,5.922-8.79,3.588-13.682c-7.319-15.337,12.342-26.682,25.093-31.412c17.586-6.524,47.826-14.171,48.506-37.678
					c0.637-22.029-27.003-32.339-44.292-36.429c-11.583-2.74-23.424-4.348-34.9-7.548c-7.811-2.178-17.615-5.493-22.611-12.263
					c-0.902-1.222-1.187-1.813-1.346-2.978c0.066,0.483,0.452-1.354,0.314-1.068c1.343-2.788,4.809-5.05,7.906-6.751
					c9.012-4.953,19.397-6.535,29.316-8.722c10.792-2.379,21.571-5.002,31.91-8.962c10.026-3.84,20.255-9,26.655-17.957
					c6.048-8.463,5.138-19.393-2.546-26.55c-7.757-7.225-18.792-9.746-28.874-11.758c-12.28-2.451-24.585-4.78-36.878-7.168
					c-10.369-2.015-21.766-3.277-31.506-7.609c-2.789-1.24-6.637-3.582-7.459-5.819c-0.487-1.325-0.279-1.247,0.184-2.584
					c0.495-1.428,1.442-2.963,2.586-4.385c5.657-7.031,14.604-10.735,22.513-14.593c12.153-5.928,24.447-11.582,36.785-17.115
					c4.928-2.21,6.105-9.377,3.587-13.682C247.457,137.848,241.689,137.115,236.742,139.333L236.742,139.333z"/>
			</g>
		</g>
	</g>
</g>
<g id="Light_Bulb">
	<g>
		<g>
			<path style="fill:#263238;" d="M228.865,344.132c0,0,1.614,6.531,2.554,7.775c0.94,1.244,20.21,0.939,21.015,0
				c0.805-0.939,2.379-7.775,2.379-7.775H228.865z"/>
			<path style="opacity:0.2;fill:#FFFFFF;" d="M228.865,344.132c0,0,1.614,6.531,2.554,7.775c0.94,1.244,20.21,0.939,21.015,0
				c0.805-0.939,2.379-7.775,2.379-7.775H228.865z"/>
			<g>
				<g>
					<g>
						<path style="fill:#407BFF;" d="M242.138,284.061c-14.044-0.165-25.563,11.086-25.728,25.13
							c-0.09,7.621,3.244,14.881,9.083,19.78c1.075,0.886,2.715,1.958,2.678,4.179c-0.001,0.068,0.113,5.557,0.113,5.557h26.749
							c0,0,0.114-5.704,0.114-5.768c0-1.956,1.514-2.799,2.629-3.681c5.917-4.744,9.4-11.887,9.494-19.47
							C267.434,295.746,256.182,284.227,242.138,284.061z"/>
						<path style="opacity:0.2;fill:#FFFFFF;enable-background:new    ;" d="M254.78,295.021c0,4.951-5.794,8.975-12.98,8.975
							c-7.185,0-12.98-4.024-12.98-8.975s5.795-8.984,12.98-8.984C248.986,286.037,254.78,290.06,254.78,295.021z"/>
					</g>
					<path style="fill:none;stroke:#FFFFFF;stroke-width:0.5;stroke-miterlimit:10;" d="M222.462,319.158
						c-2.213-3.795-3.093-8.35-2.451-12.696c0.641-4.346,2.799-8.453,6.014-11.446"/>
					<path style="fill:none;stroke:#263238;stroke-miterlimit:10;" d="M236.339,333.151c1.951-6.64,2.293-13.884,0.98-20.725
						c-0.212-1.106-0.711-2.438-1.704-2.463c-0.888-0.022-1.471,1.069-1.662,2.058c-0.677,3.495,1.135,7.045,3.452,9.459
						c1.255,1.307,2.776,2.446,4.474,2.53c1.704,0.084,3.33-0.925,4.564-2.268c2.361-2.57,3.537-6.596,2.682-10.188
						c-0.361-1.518-1.44-3.15-2.796-2.861c-0.817,0.175-1.415,1.038-1.625,1.955c-0.211,0.917-0.107,1.885,0.013,2.823
						c0.863,6.761,2.514,13.391,4.895,19.661"/>
				</g>
			</g>
			<path style="fill:#263238;" d="M256.511,340.032h-29.566c-0.874,0-1.583-0.709-1.583-1.583v-0.062
				c0-0.874,0.709-1.583,1.583-1.583h29.566c0.874,0,1.583,0.709,1.583,1.583v0.062
				C258.094,339.323,257.385,340.032,256.511,340.032z"/>
			<path style="opacity:0.3;fill:#FFFFFF;" d="M256.511,340.032h-29.566c-0.874,0-1.583-0.709-1.583-1.583v-0.062
				c0-0.874,0.709-1.583,1.583-1.583h29.566c0.874,0,1.583,0.709,1.583,1.583v0.062
				C258.094,339.323,257.385,340.032,256.511,340.032z"/>
			<path style="fill:#263238;" d="M256.002,343.156h-28.547c-0.863,0-1.562-0.699-1.562-1.562l0,0c0-0.863,0.699-1.562,1.562-1.562
				h28.548c0.862,0,1.562,0.699,1.562,1.562l0,0C257.564,342.457,256.864,343.156,256.002,343.156z"/>
			<path style="opacity:0.3;fill:#FFFFFF;" d="M256.002,343.156h-28.547c-0.863,0-1.562-0.699-1.562-1.562l0,0
				c0-0.863,0.699-1.562,1.562-1.562h28.548c0.862,0,1.562,0.699,1.562,1.562l0,0C257.564,342.457,256.864,343.156,256.002,343.156z
				"/>
			<path style="fill:#263238;" d="M254.772,346.177h-25.711c-0.863,0-1.562-0.699-1.562-1.562l0,0c0-0.863,0.699-1.562,1.562-1.562
				h25.712c0.863,0,1.562,0.699,1.562,1.562l0,0C256.334,345.478,255.635,346.177,254.772,346.177z"/>
			<path style="opacity:0.3;fill:#FFFFFF;" d="M254.772,346.177h-25.711c-0.863,0-1.562-0.699-1.562-1.562l0,0
				c0-0.863,0.699-1.562,1.562-1.562h25.712c0.863,0,1.562,0.699,1.562,1.562l0,0C256.334,345.478,255.635,346.177,254.772,346.177z
				"/>
		</g>
	</g>
</g>
<g id="Coin">
	<g>
		<g id="freepik--Bitcoin--inject-488_00000147900322469383539690000018386563127939295920_">
			<path style="fill:#407BFF;" d="M121.973,379.914c8.21,16.522,27.439,23.668,42.951,15.961l5.52-2.743l-29.73-59.833l-5.52,2.743
				C119.683,343.749,113.764,363.391,121.973,379.914z"/>
			<path style="opacity:0.3;enable-background:new    ;" d="M121.973,379.914c8.21,16.522,27.439,23.668,42.951,15.961l5.52-2.743
				l-29.73-59.833l-5.52,2.743C119.683,343.749,113.764,363.391,121.973,379.914z"/>
			<path style="fill:#407BFF;" d="M187.245,373.858c-5.878,17.488-24.82,26.9-42.308,21.022c-17.488-5.878-26.9-24.82-21.022-42.308
				c5.878-17.488,24.82-26.9,42.308-21.022C183.711,337.428,193.123,356.37,187.245,373.858z"/>
			<path style="fill:#407BFF;" d="M131.628,375.117c6.573,13.228,22.625,18.624,35.853,12.051s18.624-22.625,12.051-35.853
				c-6.573-13.228-22.625-18.624-35.853-12.051C130.45,345.836,125.055,361.888,131.628,375.117z"/>
			<path style="opacity:0.3;fill:#FFFFFF;" d="M131.628,375.117c6.573,13.228,22.625,18.624,35.853,12.051
				s18.624-22.625,12.051-35.853c-6.573-13.228-22.625-18.624-35.853-12.051C130.45,345.836,125.055,361.888,131.628,375.117z"/>
		</g>
		<g>
			<path style="fill:#407BFF;" d="M163.993,370.854c-0.797,1.557-2.03,2.78-3.701,3.672l0.263,0.843
				c0.133,0.426,0.093,0.852-0.12,1.277c-0.213,0.424-0.533,0.703-0.96,0.836c-0.427,0.133-0.836,0.088-1.226-0.135
				c-0.391-0.224-0.656-0.56-0.796-1.009l-0.232-0.741c-1.658,0.296-3.19,0.232-4.592-0.194c-1.404-0.424-2.52-1.1-3.351-2.024
				c-0.387-0.446-0.633-0.838-0.738-1.175c-0.141-0.45-0.099-0.888,0.125-1.316c0.223-0.426,0.572-0.714,1.045-0.862
				c0.382-0.119,0.753-0.112,1.116,0.022c0.363,0.134,0.668,0.359,0.915,0.676c0.479,0.664,1.131,1.133,1.956,1.405
				c0.825,0.273,1.692,0.367,2.603,0.279l-2.118-7.256c-2.056-0.024-3.765-0.341-5.127-0.952c-1.362-0.611-2.284-1.691-2.769-3.243
				c-0.491-1.573-0.364-3.062,0.381-4.466c0.745-1.404,2.023-2.525,3.833-3.362l-0.221-0.707c-0.133-0.427-0.098-0.851,0.104-1.272
				c0.201-0.42,0.504-0.694,0.908-0.82c0.427-0.133,0.848-0.086,1.265,0.142c0.417,0.228,0.692,0.555,0.825,0.982l0.211,0.674
				c1.877-0.388,3.46-0.316,4.748,0.219c1.29,0.535,2.139,1.454,2.546,2.757c0.154,0.495,0.125,0.955-0.089,1.378
				c-0.213,0.425-0.544,0.707-0.994,0.847c-0.404,0.126-0.787,0.104-1.149-0.066c-0.362-0.171-0.628-0.452-0.8-0.842
				c-0.214-0.451-0.622-0.786-1.22-1.006c-0.6-0.22-1.316-0.286-2.153-0.198l1.865,6.448c4.483,0.056,7.18,1.544,8.092,4.466
				C164.938,367.722,164.789,369.298,163.993,370.854z M150.567,361.042c0.587,0.298,1.438,0.495,2.554,0.59l-1.663-5.438
				c-0.895,0.452-1.511,0.983-1.85,1.595c-0.34,0.612-0.405,1.255-0.194,1.93C149.597,360.303,149.981,360.745,150.567,361.042z
				 M161.107,369.498c0.368-0.756,0.441-1.493,0.216-2.213c-0.182-0.584-0.577-1.06-1.185-1.424
				c-0.608-0.366-1.517-0.593-2.729-0.684l1.903,6.214C160.141,370.885,160.739,370.255,161.107,369.498z"/>
		</g>
		<path style="fill:#407BFF;" d="M130.348,353.032c5.634-13.931,21.495-20.656,35.425-15.022
			c13.931,5.634,20.657,21.495,15.022,35.425c3.586-13.284-3.311-27.155-16.067-32.314c-13.931-5.634-29.791,1.092-35.425,15.022
			C129.589,355.086,129.938,354.047,130.348,353.032z"/>
		<path style="opacity:0.3;enable-background:new    ;" d="M130.348,353.032c5.634-13.931,21.495-20.656,35.425-15.022
			c13.931,5.634,20.657,21.495,15.022,35.425c3.586-13.284-3.311-27.155-16.067-32.314c-13.931-5.634-29.791,1.092-35.425,15.022
			C129.589,355.086,129.938,354.047,130.348,353.032z"/>
	</g>
</g>
<g id="Stars_2">
	<path style="fill:#407BFF;" d="M238.223,200.85l3.362,6.811c0.387,0.784,1.134,1.327,1.999,1.452l7.517,1.092
		c2.178,0.316,3.047,2.993,1.471,4.529l-5.439,5.302c-0.626,0.61-0.911,1.489-0.764,2.35l1.284,7.486
		c0.372,2.169-1.904,3.823-3.852,2.799l-6.723-3.535c-0.774-0.407-1.698-0.407-2.471,0l-6.723,3.535
		c-1.948,1.024-4.224-0.63-3.852-2.799l1.284-7.486c0.148-0.861-0.138-1.74-0.764-2.35l-5.439-5.302
		c-1.576-1.536-0.706-4.212,1.471-4.529l7.516-1.092c0.865-0.126,1.612-0.669,1.999-1.452l3.362-6.811
		C234.435,198.876,237.249,198.876,238.223,200.85z"/>
	<path style="fill:#407BFF;" d="M218.899,416.697l3.516,7.125c0.405,0.82,1.187,1.388,2.091,1.519l7.863,1.143
		c2.278,0.331,3.188,3.13,1.539,4.737l-5.689,5.546c-0.655,0.638-0.953,1.557-0.799,2.458l1.343,7.831
		c0.389,2.269-1.992,3.999-4.03,2.928l-7.033-3.697c-0.809-0.425-1.776-0.425-2.585,0l-7.033,3.697
		c-2.038,1.071-4.419-0.659-4.03-2.928l1.343-7.831c0.154-0.901-0.144-1.82-0.799-2.458l-5.69-5.546
		c-1.648-1.607-0.739-4.406,1.539-4.737l7.863-1.143c0.905-0.132,1.687-0.7,2.091-1.519l3.516-7.125
		C214.937,414.633,217.88,414.633,218.899,416.697z"/>
</g>
<g id="Flags">
	<g>
		<path style="fill:#407BFF;" d="M283.521,217.17c0,0,20.795,7.868,19.692,9.262c-1.103,1.394-19.821,9.561-19.821,9.561
			L283.521,217.17z"/>
		<g>
			<g>
				<path style="fill:#263238;" d="M274.953,251.352c5.626,0,11.251,0,16.877,0c1.448,0,1.45-2.25,0-2.25
					c-5.626,0-11.251,0-16.877,0C273.506,249.102,273.503,251.352,274.953,251.352L274.953,251.352z"/>
			</g>
		</g>
		<g>
			<g>
				<path style="fill:#263238;" d="M282.384,216.084c0,11.381,0,22.762,0,34.144c0,1.448,2.25,1.45,2.25,0
					c0-11.381,0-22.762,0-34.144C284.634,214.636,282.384,214.634,282.384,216.084L282.384,216.084z"/>
			</g>
		</g>
	</g>
	<g>
		<path style="fill:#407BFF;" d="M184.314,264.999c0,0,20.795,7.868,19.692,9.262s-19.821,9.561-19.821,9.561L184.314,264.999z"/>
		<g>
			<g>
				<path style="fill:#263238;" d="M175.746,299.181c5.626,0,11.251,0,16.877,0c1.448,0,1.45-2.25,0-2.25
					c-5.626,0-11.251,0-16.877,0C174.298,296.931,174.296,299.181,175.746,299.181L175.746,299.181z"/>
			</g>
		</g>
		<g>
			<g>
				<path style="fill:#263238;" d="M183.177,263.912c0,11.381,0,22.762,0,34.144c0,1.448,2.25,1.45,2.25,0
					c0-11.381,0-22.762,0-34.144C185.427,262.465,183.177,262.462,183.177,263.912L183.177,263.912z"/>
			</g>
		</g>
	</g>
	<g>
		<path style="fill:#407BFF;" d="M290.381,334.268c0,0,20.795,7.868,19.692,9.262c-1.103,1.394-19.821,9.561-19.821,9.561
			L290.381,334.268z"/>
		<g>
			<g>
				<path style="fill:#263238;" d="M281.813,368.45c5.626,0,11.251,0,16.877,0c1.448,0,1.45-2.25,0-2.25c-5.626,0-11.251,0-16.877,0
					C280.366,366.2,280.363,368.45,281.813,368.45L281.813,368.45z"/>
			</g>
		</g>
		<g>
			<g>
				<path style="fill:#263238;" d="M289.244,333.181c0,11.381,0,22.762,0,34.144c0,1.448,2.25,1.45,2.25,0
					c0-11.381,0-22.763,0-34.144C291.494,331.734,289.244,331.731,289.244,333.181L289.244,333.181z"/>
			</g>
		</g>
	</g>
</g>
<g id="Hand">
	<g>
		<path style="fill:#407BFF;" d="M107.996,119.884c0,0-30.227-14.361-31.557,5.572c0,0,0.36,5.798-0.991,13.597
			c-1.35,7.799-1.949,20.239,12.559,24.634c14.508,4.395,34.434,7.27,34.434,7.27l13.478-39.814c0,0-11.89-6.327-17.69-20.046
			c-5.015-11.862-5.172-16.074-6.643-15.54c-1.471,0.534-5.271,3.376-6.154,10.559S107.996,119.884,107.996,119.884z"/>
		
			<rect x="127.999" y="129.892" transform="matrix(0.9472 0.3206 -0.3206 0.9472 57.7101 -37.8841)" style="fill:#407BFF;" width="31.77" height="52.787"/>
		<path style="opacity:0.6;fill:#FFFFFF;" d="M107.996,119.884c0,0-30.227-14.361-31.557,5.572c0,0,0.36,5.798-0.991,13.597
			c-1.35,7.799-1.949,20.239,12.559,24.634c14.508,4.395,34.434,7.27,34.434,7.27l13.478-39.814c0,0-11.89-6.327-17.69-20.046
			c-5.015-11.862-5.172-16.074-6.643-15.54c-1.471,0.534-5.271,3.376-6.154,10.559S107.996,119.884,107.996,119.884z"/>
		<path style="fill:#FFFFFF;" d="M144.293,169.667c-0.786,2.322-3.305,3.566-5.626,2.781c-2.321-0.786-3.566-3.305-2.78-5.626
			c0.786-2.321,3.305-3.566,5.626-2.78C143.834,164.826,145.079,167.345,144.293,169.667z"/>
	</g>
</g>
<g id="Stars_1">
	<g>
		<path style="fill:#407BFF;" d="M77.44,246.633L77.44,246.633c0,10.735,8.323,19.438,18.59,19.438h66.234
			c10.267,0,18.59-8.703,18.59-19.438l0,0c0-10.735-8.323-19.438-18.59-19.438H96.03C85.763,227.195,77.44,235.898,77.44,246.633z"
			/>
		<path style="opacity:0.3;enable-background:new    ;" d="M77.44,246.633L77.44,246.633c0,10.735,8.323,19.438,18.59,19.438h66.234
			c10.267,0,18.59-8.703,18.59-19.438l0,0c0-10.735-8.323-19.438-18.59-19.438H96.03C85.763,227.195,77.44,235.898,77.44,246.633z"
			/>
		<g>
			<path style="fill:#407BFF;" d="M101.573,234.663l2.404,4.872c0.277,0.56,0.811,0.949,1.43,1.039l5.376,0.781
				c1.558,0.226,2.18,2.14,1.052,3.239l-3.89,3.792c-0.448,0.436-0.652,1.065-0.546,1.681l0.918,5.354
				c0.266,1.551-1.362,2.734-2.755,2.002l-4.809-2.528c-0.553-0.291-1.214-0.291-1.767,0l-4.809,2.528
				c-1.393,0.732-3.021-0.451-2.755-2.002l0.918-5.354c0.106-0.616-0.099-1.245-0.546-1.681l-3.89-3.792
				c-1.127-1.099-0.505-3.013,1.052-3.239l5.376-0.781c0.618-0.09,1.153-0.478,1.43-1.039l2.404-4.872
				C98.864,233.252,100.876,233.252,101.573,234.663z"/>
			<path style="fill:#407BFF;" d="M129.981,234.663l2.404,4.872c0.277,0.56,0.811,0.949,1.43,1.039l5.376,0.781
				c1.558,0.226,2.179,2.14,1.052,3.239l-3.89,3.792c-0.447,0.436-0.652,1.065-0.546,1.681l0.918,5.354
				c0.266,1.551-1.362,2.734-2.755,2.002l-4.809-2.528c-0.553-0.291-1.214-0.291-1.767,0l-4.809,2.528
				c-1.393,0.732-3.021-0.451-2.755-2.002l0.918-5.354c0.106-0.616-0.099-1.245-0.546-1.681l-3.89-3.792
				c-1.127-1.099-0.505-3.013,1.053-3.239l5.376-0.781c0.618-0.09,1.153-0.478,1.43-1.039l2.404-4.872
				C127.272,233.252,129.285,233.252,129.981,234.663z"/>
			<path style="opacity:0.2;fill:#FFFFFF;" d="M107.93,240.94l-2.523-0.367c-0.506-0.073-0.947-0.353-1.245-0.757
				c-0.421,0.667-0.946,1.348-1.624,2.026c-3.268,3.268-7.481,4.906-10.184,7.963c-0.003,0.087,0.002,0.173-0.013,0.26l-0.918,5.354
				c-0.209,1.217,0.748,2.202,1.843,2.219c-0.024-1.716,0.636-3.747,2.862-5.817C101.507,246.823,105.683,248.257,107.93,240.94z"/>
			<path style="opacity:0.2;fill:#FFFFFF;" d="M91.247,247.851c2.07-1.39,6.068-4.066,7.883-5.224
				c1.634-1.042,3.094-3.438,3.915-4.982l-0.713-1.445c-0.798,1.336-2.3,3.811-3.202,5.048c-0.965,1.323-6.135,4.488-8.569,5.934
				L91.247,247.851z"/>
			<path style="opacity:0.2;fill:#FFFFFF;" d="M136.323,240.94l-2.523-0.367c-0.505-0.073-0.946-0.353-1.245-0.757
				c-0.421,0.667-0.946,1.348-1.624,2.026c-3.268,3.268-7.481,4.906-10.184,7.963c-0.003,0.087,0.003,0.173-0.013,0.26l-0.918,5.354
				c-0.209,1.217,0.748,2.202,1.843,2.219c-0.024-1.716,0.636-3.747,2.862-5.817C129.9,246.823,134.076,248.257,136.323,240.94z"/>
			<path style="opacity:0.2;fill:#FFFFFF;" d="M119.64,247.851c2.07-1.39,6.068-4.066,7.883-5.224
				c1.634-1.042,3.094-3.438,3.915-4.982l-0.713-1.445c-0.798,1.336-2.3,3.811-3.202,5.048c-0.965,1.323-6.135,4.488-8.569,5.934
				L119.64,247.851z"/>
		</g>
		<g style="opacity:0.3;enable-background:new    ;">
			<path d="M159.11,234.663l2.404,4.872c0.277,0.56,0.811,0.949,1.43,1.039l5.376,0.781c1.557,0.226,2.179,2.14,1.052,3.239
				l-3.89,3.792c-0.448,0.436-0.652,1.065-0.546,1.681l0.918,5.354c0.266,1.551-1.362,2.734-2.755,2.002l-4.808-2.528
				c-0.553-0.291-1.214-0.291-1.767,0l-4.809,2.528c-1.393,0.732-3.021-0.451-2.755-2.002l0.918-5.354
				c0.106-0.616-0.099-1.245-0.546-1.681l-3.89-3.792c-1.127-1.099-0.505-3.013,1.052-3.239l5.376-0.781
				c0.618-0.09,1.153-0.478,1.43-1.039l2.404-4.872C156.401,233.252,158.413,233.252,159.11,234.663z"/>
		</g>
	</g>
</g>
<g id="Medal">
	<g>
		<polygon style="fill:#407BFF;" points="218.995,127.776 202.066,163.539 222.804,152.958 226.613,173.908 243.965,138.357 		"/>
		<polygon style="fill:#407BFF;" points="218.995,127.776 202.066,163.539 222.804,152.958 226.613,173.908 243.965,138.357 		"/>
		<polygon style="opacity:0.2;" points="218.995,127.776 202.066,163.539 222.804,152.958 226.613,173.908 243.965,138.357 		"/>
		<polygon style="fill:#407BFF;" points="268.936,124.179 285.865,159.941 265.127,149.361 261.318,170.311 243.965,134.76 		"/>
		<polygon style="fill:#407BFF;" points="268.936,124.179 285.865,159.941 265.127,149.361 261.318,170.311 243.965,134.76 		"/>
		<polygon style="opacity:0.2;" points="268.936,124.179 285.865,159.941 265.127,149.361 261.318,170.311 243.965,134.76 		"/>
		<circle style="fill:#407BFF;" cx="242.323" cy="106.054" r="33.801"/>
		<circle style="fill:#407BFF;" cx="242.323" cy="106.054" r="27.053"/>
		<path style="opacity:0.2;fill:#FFFFFF;" d="M262.204,87.713c0,0-22.37,45.43-21.839,45.393c0.531-0.037,9.443,1.076,15.428-3.595
			l13.582-27.828C269.375,101.683,265.981,91.111,262.204,87.713z"/>
		<path style="opacity:0.2;fill:#FFFFFF;" d="M253.844,81.573l-24.684,48.116c0,0-9.113-5.025-11.32-12.122l21.138-38.353
			C238.978,79.214,245.787,78.074,253.844,81.573z"/>
		<circle style="fill:none;stroke:#263238;stroke-miterlimit:10;" cx="242.323" cy="106.054" r="27.053"/>
		<g>
			<path style="fill:#FFFFFF;" d="M246.568,92.218v28.07h-7.939V98.354h-5.214v-6.136H246.568z"/>
		</g>
	</g>
</g>
<g id="Character">
	<g>
		<g>
			<polygon style="fill:#FF7866;" points="342.381,420.577 345.512,444.882 352.874,444.882 354.765,421.027 			"/>
			<g>
				<path style="fill:#263238;" d="M342.429,439.739h3.291c0.745,0,1.433,0.377,1.873,0.977c1.898,2.591,3.324,1.612,5.388-0.824
					c1.312-0.153,1.665,1.353,1.772,1.758l2.46,8.949c0.214,0.747-0.219,1.526-0.966,1.74c-0.133,0.038-0.271,0.056-0.409,0.054
					c-3.996,0-5.887,0-10.861,0h-15.211c-4.147,0-5.006-4.179-3.298-4.565c7.681-1.697,13.119-3.958,15.494-6.192
					C342.403,441.243,341.951,440.951,342.429,439.739z"/>
				<path style="fill:#407BFF;" d="M337.942,442.734c1.039-0.025,2.072-0.158,3.083-0.397c0.095-0.034,0.144-0.139,0.11-0.234
					c-0.018-0.051-0.059-0.092-0.11-0.11c-0.462-0.226-4.576-2.148-5.608-1.418c-0.193,0.126-0.298,0.351-0.268,0.58
					c0.005,0.427,0.212,0.825,0.559,1.074C336.379,442.631,337.162,442.808,337.942,442.734z M340.38,442.089
					c-1.214,0.226-3.47,0.526-4.404-0.172c-0.242-0.191-0.391-0.476-0.408-0.784c-0.019-0.097,0.024-0.195,0.108-0.247
					C336.244,440.489,338.672,441.337,340.38,442.089z"/>
				<path style="fill:#407BFF;" d="M340.982,442.347c0.042,0.013,0.087,0.013,0.129,0c0.055-0.048,0.076-0.124,0.054-0.193
					c0-0.172-0.967-4.222-3.223-3.964c-0.559,0.075-0.72,0.344-0.741,0.569c-0.14,1.074,2.449,3.105,3.685,3.62L340.982,442.347z
					 M338.167,438.512c1.429,0,2.256,2.363,2.535,3.309c-1.343-0.709-3.223-2.396-3.105-3.051c0-0.054,0-0.204,0.419-0.247
					L338.167,438.512z"/>
			</g>
		</g>
		<g>
			<polygon style="fill:#FF7866;" points="376.047,419.312 383.222,443.704 390.51,443.279 388.969,416.807 			"/>
			<g>
				<path style="fill:#263238;" d="M379.574,440.127h3.291c0.744,0,1.433,0.377,1.873,0.977c1.897,2.592,3.324,1.612,5.388-0.824
					c1.312-0.153,1.665,1.353,1.772,1.758l2.46,8.948c0.214,0.747-0.219,1.526-0.966,1.74c-0.133,0.038-0.271,0.056-0.409,0.054
					c-3.996,0-5.887,0-10.861,0h-15.211c-4.147,0-5.006-4.179-3.298-4.565c7.681-1.697,13.12-3.958,15.494-6.192
					C379.547,441.631,379.095,441.339,379.574,440.127z"/>
				<path style="fill:#407BFF;" d="M375.086,443.122c1.039-0.025,2.072-0.158,3.083-0.397c0.095-0.034,0.144-0.139,0.11-0.234
					c-0.018-0.051-0.059-0.092-0.11-0.11c-0.462-0.226-4.576-2.148-5.608-1.418c-0.194,0.126-0.298,0.351-0.269,0.58
					c0.005,0.427,0.212,0.825,0.559,1.074C373.524,443.019,374.307,443.196,375.086,443.122z M377.525,442.477
					c-1.214,0.226-3.47,0.526-4.404-0.172c-0.242-0.19-0.391-0.476-0.408-0.784c-0.019-0.097,0.024-0.195,0.107-0.247
					C373.389,440.877,375.817,441.725,377.525,442.477z"/>
				<path style="fill:#407BFF;" d="M378.127,442.735c0.042,0.013,0.087,0.013,0.129,0c0.055-0.048,0.076-0.124,0.054-0.193
					c0-0.172-0.967-4.222-3.223-3.964c-0.558,0.075-0.72,0.344-0.741,0.569c-0.14,1.074,2.449,3.104,3.685,3.62L378.127,442.735z
					 M375.312,438.9c1.429,0,2.256,2.363,2.535,3.309c-1.343-0.709-3.223-2.396-3.105-3.051c0-0.054,0-0.204,0.419-0.247
					L375.312,438.9z"/>
			</g>
		</g>
		<g>
			<path style="fill:#407BFF;" d="M338.306,238.746c0,0-8.853,17.794-0.338,50.513s38.361,147.225,38.361,147.225l18.084-2.172
				c0,0-1.555-41.232-15.042-74.202c0,0-7.541-64.402-6.326-66.346c2.204-9.216,4.48-18.97,0.673-32.932
				c-1.488-5.975-3.593-11.894-6.186-17.479c-2.504-5.009-1.766-6.9-1.766-6.9L338.306,238.746z"/>
			<path style="opacity:0.5;" d="M338.306,238.746c0,0-8.853,17.794-0.338,50.513s38.361,147.225,38.361,147.225l18.084-2.172
				c0,0-1.555-41.232-15.042-74.202c0,0-7.541-64.402-6.326-66.346c2.204-9.216,4.48-18.97,0.673-32.932
				c-1.488-5.975-3.593-11.894-6.186-17.479c-2.504-5.009-1.766-6.9-1.766-6.9L338.306,238.746z"/>
			<path style="opacity:0.5;" d="M360.168,283.441c0,0-6.718,12.937-9.763,15.089c-2.592,1.833-1.561,23.337-1.732,29.419
				c-0.013,0.456-0.03,2.296-0.03,2.296l2.745,10.535c-0.211-0.603-0.495-18.927,1.694-38.19
				C353.819,296.103,360.168,290.833,360.168,283.441z"/>
			<path style="fill:#407BFF;" d="M326.648,236.016c-0.282,2.199-0.881,4.346-1.778,6.373c-2.993,7.601-6.261,31.505-5.535,43.601
				c1.384,25.075-0.862,32.267,6.875,78.811c2.917,17.549,9.553,40.473,14.988,72.378h17.02c0,0-0.779-39.957-8.655-75.131
				c0,0-2.767-49.562,1.352-62.484c2.88-8.991,10.994-17.693,8.916-36.702c-2.079-19.008-7.125-25.507-7.125-25.507L326.648,236.016
				z"/>
			<path style="opacity:0.5;" d="M326.648,236.016c-0.282,2.199-0.881,4.346-1.778,6.373c-2.993,7.601-6.261,31.505-5.535,43.601
				c-0.079,15.006,0.305,47.752,6.875,78.811c7.882,37.263,14.988,72.378,14.988,72.378h17.02c0,0-0.779-39.957-8.655-75.131
				c0,0-2.767-49.562,1.352-62.484c2.88-8.991,10.994-17.693,8.916-36.702c-2.079-19.008-7.125-25.507-7.125-25.507L326.648,236.016
				z"/>
		</g>
		<path style="fill:#FF7866;" d="M383.184,195.007c0,0,14.663,30.153,8.54,32.632c-6.123,2.479-26.759,3.869-26.759,3.869
			l-9.003,8.615l-5.209-3.393l1.315-8.765l11.833-2.504l15.802-4.908c1.311-0.44,2.018-1.859,1.579-3.171
			c-0.022-0.067-0.048-0.133-0.076-0.198l-7.638-16.754L383.184,195.007z"/>
		<g>
			<path style="fill:#263238;" d="M344.022,144.118c0.088-0.792-0.266-1.492-0.796-1.537c-0.53-0.045-1.009,0.549-1.094,1.353
				c-0.086,0.804,0.266,1.492,0.796,1.537C343.457,145.516,343.949,144.919,344.022,144.118z"/>
			<path style="fill:#FF3636;" d="M344.315,145.261l-5.158,4.737c1.139,1.215,2.784,1.821,4.439,1.637L344.315,145.261z"/>
			<path style="fill:#263238;" d="M345.62,142.382c-0.155-0.021-0.289-0.116-0.363-0.253c-0.522-1.08-1.528-1.846-2.708-2.061
				c-0.254-0.028-0.438-0.257-0.409-0.512c0,0,0,0,0,0c0.022-0.259,0.248-0.452,0.508-0.434c1.495,0.25,2.778,1.205,3.447,2.565
				c0.125,0.22,0.05,0.499-0.168,0.628l0,0C345.839,142.381,345.727,142.405,345.62,142.382z"/>
			<path style="fill:#FF7866;" d="M371.548,147.752c-2.252,9.904-2.995,14.145-8.891,18.454c-8.591,3.963-20.571,1.548-21.309-8.853
				c-0.676-9.343,3.118-23.936,13.585-26.364c7.456-1.736,14.908,2.902,16.643,10.358
				C372.066,143.455,372.057,145.648,371.548,147.752L371.548,147.752z"/>
			<path style="opacity:0.2;enable-background:new    ;" d="M352.232,163.602c0,0-6.452,2.551-10.145-2.819
				c1.738,4.536,6.178,6.822,11.086,7.167l1.412-1.423l-1.3-2.223L352.232,163.602z"/>
			<path style="fill:#FF7866;" d="M367.139,176.713c0,0-6.3-1.801-4.092-13.592c0,0-5.441-3.76-9.901-0.955
				c-4.46,2.806,1.399,12.254-3.98,14.829C349.166,176.996,352.84,180.55,367.139,176.713z"/>
			<path style="fill:#263238;" d="M350.526,149.062c1.228-1.705-2.237-4.574-1.361-6.484c-0.144-5.027,0.822-4.588,0.665-9.953
				c-0.156-5.365,5.798-3.147,5.798-3.147s12.803-3.812,16.951,9.452c6.122,6.584,5.748,16.884-0.836,23.006
				c-3.011,2.8-6.971,4.357-11.083,4.357l-0.898-0.043c-3.696-0.512-6.644-3.342-7.307-7.014L350.526,149.062z"/>
			<path style="fill:#407BFF;" d="M369.718,142.634c-0.343-3.131,0.018-5.74,3.15-6.083c3.131-0.343,3.772,2.176,4.115,5.307
				c0.343,3.132,0.23,5.708-2.903,6.039C370.946,148.228,370.073,145.764,369.718,142.634z"/>
			<path style="fill:#FF7866;" d="M353.182,147.977c-1.762,1.097-3.011,2.855-3.466,4.88c-0.595,2.65,1.855,3.905,4.358,3.038
				c2.229-0.767,5.195-3.102,4.683-5.758c-0.372-1.915-2.225-3.165-4.14-2.793C354.098,147.444,353.607,147.661,353.182,147.977z"/>
			<path style="fill:#263238;" d="M350.626,128.387c1.083,1.079,2.265,2.712,1.55,4.124c-0.402,0.81-1.32,1.228-1.849,1.971
				c-0.505,0.875-0.716,1.889-0.603,2.893c0.04,3.654,0.376,7.299,1.005,10.9c-3.227-3.825-6.67-7.866-7.651-12.791
				c-0.337-1.464-0.298-2.989,0.112-4.434c0.442-1.454,1.537-2.619,2.961-3.149C347.571,127.444,350.626,128.387,350.626,128.387z"
				/>
			<g>
				<path style="fill:#263238;" d="M402.081,147.912c-1.363-1.46-3.292-2.272-4.726-3.662c-2.106-2.041-2.911-5.077-4.699-7.403
					c-2.368-3.081-6.525-4.675-10.346-3.967c-3.821,0.708-6.969,2.243-8.076,5.968c-0.498,1.27-0.225,4.283,0.584,5.975
					c2.078,0.886,3.021,1.654,3.325,3.414c0.384,2.226,0.119,3.746-0.198,5.982c-0.317,2.236-0.528,4.566,0.178,6.712
					c0.706,2.146,2.553,4.066,4.809,4.184c2.255,0.118,4.497-2.192,3.788-4.336c0.394,1.744,1.523,3.363,3.146,4.112
					c1.623,0.749,3.725,0.495,4.966-0.792c1.241-1.287,1.352-3.578,0.083-4.838c2.898,0.917,6.338-0.341,7.96-2.911
					C404.499,153.78,404.155,150.133,402.081,147.912z"/>
			</g>
		</g>
		<path style="fill:#FF7866;" d="M321.863,192.029l-12.787,12.201c-0.922,0.887-2.389,0.859-3.275-0.064
			c-0.036-0.037-0.07-0.075-0.103-0.114l-16.053-18.947l-6.475-10.212l-1.492-1.098l-9.644-5.374
			c-0.436-0.243-0.987-0.104-1.256,0.316l0,0c-0.287,0.449-0.146,1.048,0.313,1.321l5.608,3.338l-1.011,2.904l0,0
			c-1.24,2.753-0.288,5.998,2.243,7.644l7.857,5.109c0,0,10.694,24.403,17.846,28.65c5.679,3.375,26.605-18.58,26.605-18.58
			L321.863,192.029z"/>
		<g>
			<path style="fill:#407BFF;" d="M378.802,184.075c0.292-0.879-0.438-2.772,0.442-2.48c0.284,0.094,1.91,1.745,2.107,1.97
				c1.528,1.703,4.063,5.068,6.693,11.98l2.667,7.125l-13.599,9.366l-5.121-7.801L378.802,184.075z"/>
			<path style="opacity:0.2;enable-background:new    ;" d="M380.279,192.44l-1.49-1.916l-2.917,2.204l-3.882,11.508l5.121,7.801
				l2.605-1.791C378.914,202.896,380.279,192.44,380.279,192.44z"/>
			<path style="fill:#407BFF;" d="M326.886,238.583c15.527,3.018,33.333,1.778,39.857,1.165c1.478-0.15-1.252-17.531,14.425-49.023
				c1.598-2.974,0.928-6.658-1.615-8.878c-10.669-8.828-30.053-8.49-38.943-7.776c-3.145,0.221-6.007,1.897-7.739,4.533
				c-3.095,5.243-5.18,11.019-6.148,17.03c-1.047,5.717-1.646,11.507-1.791,17.318C324.52,226.7,326.185,238.446,326.886,238.583z"
				/>
			<path style="opacity:0.2;enable-background:new    ;" d="M324.933,212.951c5.009-0.952,12.046-19.421,12.046-19.421
				l-10.255,2.104C325.676,201.35,325.078,207.141,324.933,212.951z"/>
			<path style="fill:#407BFF;" d="M338.181,174.596c-3.869,1.177-12.384,5.009-25.732,17.606l12.419,16.555
				c4.06-4.354,9.309-9.217,12.111-15.228c2.538-5.328,3.823-11.166,3.757-17.067c-0.015-1.093-0.913-1.966-2.005-1.951
				C338.544,174.513,338.359,174.542,338.181,174.596z"/>
		</g>
	</g>
</g>
</svg>
