<?xml version="1.0" encoding="utf-8"?>
<!-- Generator: Adobe Illustrator 27.5.0, SVG Export Plug-In . SVG Version: 6.00 Build 0)  -->
<svg version="1.1" xmlns="http://www.w3.org/2000/svg" xmlns:xlink="http://www.w3.org/1999/xlink" x="0px" y="0px"
	 viewBox="0 0 500 500" style="enable-background:new 0 0 500 500;" xml:space="preserve">
<g id="BACKGROUND">
	<g>
		<rect style="fill:#E0E7FF;" width="500" height="500"/>
		<g>
			<g>
				<path style="fill:#D6DFFF;" d="M166,267c-27,25-54,62-92,48c-24.327-8.632-51.73-8.022-74,2.787v72.952
					c1.638-0.975,3.305-1.891,5-2.738c26-13,53-10,82-16c21-4,35-16,49-30c15-14,22-34,36-49
					c19.075-18.208,44.163-11.614,68.097-11.492c-0.403-2.824-0.87-5.66-1.379-8.505C223.308,250.295,187.237,248.122,166,267z"/>
				<path style="fill:#D6DFFF;" d="M393,427.183c6.503,24.272,7.068,48.545,8.096,72.817h99.047v-86.538
					c-0.048-0.103-0.095-0.206-0.143-0.309v-33.662c-18.942-0.269-37.647-6.206-52-18.402c-27-24.034-50-64.091-90-58.082
					c-33,4.006-68,22.031-98-1.001c-1.783-1.191-3.319-2.517-4.676-3.943c-3.984,5.54-6.618,12.337-8.997,18.827
					c-3.28,8.948-6.556,17.962-8.593,27.253c5.102,2.567,11.038,3.928,17.265,3.928C311,348.071,376,367.098,393,427.183z"/>
				<path style="fill:#D6DFFF;" d="M387,257c43-18,71,35,110,49c0.996,0.365,1.997,0.701,3,1.023V209c-28-16-64-46-88-16
					c-20,23-36,50-66,58c-21.38,5.03-44.735-2.984-66.091-2.917c-0.212,11.012-2.082,22.236-5.179,33.255
					c-0.282,1.005-0.598,2.004-0.9,3.005c1.69,0.603,3.405,1.167,5.17,1.657C319,295,352,271,387,257z"/>
				<path style="fill:#D6DFFF;" d="M229,207c-8-25-8-52-32-68c-29-21-70-15-94,13c-8,9-23,11-35,6c-20-8-27-30-33-50
					c-2-9-11-16-21-18c-4.67-0.637-9.384-0.682-14-0.166v94.12C16.026,192.18,28.347,206.31,44,216c19,11,41,11,60,4
					c31-12,61-30,97-21c13.354,3.339,22.681,10.395,30.569,19.096c0.113-2.139,0.31-4.27,0.597-6.392
					C230.579,210.48,229.395,208.977,229,207z"/>
				<path style="fill:#D6DFFF;" d="M269,72c-6-19,13-30,27-41c11.005-7.656,16.732-18.976,17.973-31H135.078
					c0.655,10.637,1.601,21.301,2.922,32c2,15,15,27,29,32c26,10,60,11,70,39c10.608,25.297-4.082,58.582,6.452,83.559
					c3.431-1.987,7.595-2.809,10.737-1.586c3.41-19.168,16.521-36.862,28.811-54.973C296,110,276,91,269,72z"/>
				<path style="fill:#D6DFFF;" d="M333,206c40-7,40-51,53-82c8-18,32-24,50-18c21.787,6.704,40.769,23.231,64,26.647V0h-43.464
					C449.919,14.625,436.136,27.433,423,36c-26,17-70,12-75,45c-7,39,3,93-50,102c-10.677,1.456-23.944,5.503-33.63,12.598
					c4.204,5.686,7.462,11.74,9.891,18.055C292.607,208.919,313.66,209.516,333,206z"/>
			</g>
		</g>
	</g>
</g>
<g id="OBJECTS">
	<g>
		<g>
			<g>
				
					<circle style="fill:none;stroke:#314BA8;stroke-width:2.3923;stroke-miterlimit:10;stroke-dasharray:8.4285,8.4285;" cx="255.803" cy="191.038" r="147.552"/>
			</g>
			<g>
				<polyline style="fill:none;stroke:#314BA8;stroke-width:2.3923;stroke-miterlimit:10;stroke-dasharray:8.3729;" points="
					135.275,266.741 221.357,232.138 122.567,171.752 				"/>
				<polyline style="fill:none;stroke:#314BA8;stroke-width:2.3923;stroke-miterlimit:10;stroke-dasharray:8.3729;" points="
					165.441,91.895 256.805,213.653 255.803,49.071 				"/>
				<polyline style="fill:none;stroke:#314BA8;stroke-width:2.3923;stroke-miterlimit:10;stroke-dasharray:8.3729;" points="
					359.951,93.279 264.37,219.246 393.537,174.633 				"/>
				
					<line style="fill:none;stroke:#314BA8;stroke-width:2.3923;stroke-miterlimit:10;stroke-dasharray:8.3729;" x1="267.717" y1="226.995" x2="373.065" y2="266.741"/>
			</g>
		</g>
	</g>
	<g>
		<path style="fill:#F8B686;" d="M165.914,475.782c4.717,9.568,15.338,16.358,25.936,15.135c4.467-0.516,8.695-2.341,12.567-4.628
			c14.734-8.702,24.527-23.729,37.781-34.553c3.806-3.108,7.936-5.905,11.075-9.686c2.646-3.187,4.496-6.971,7.136-10.163
			c9.464-11.443,27.484-13.649,35.552-26.115c5.384-8.32,4.695-19.749-0.538-28.164c-5.233-8.416-14.419-13.913-24.102-16.023
			c-9.683-2.11-19.832-1.091-29.422,1.407c-9.006,2.346-17.674,5.986-25.655,10.774c-8.654,5.191-16.45,11.689-23.962,18.427
			c-6.929,6.215-13.757,12.79-18.315,20.906c-5.191,9.243-8.285,20.779-9.379,31.281
			C163.475,455.069,160.884,465.58,165.914,475.782z"/>
		<path style="fill:#F8B686;" d="M257.055,447.543c-13.113,15.216-27.517,30.146-45.895,38.252
			c-6.855,3.023-14.416,5.051-21.821,3.917c-7.405-1.133-14.568-5.971-16.813-13.118c-1.099-3.499-0.978-7.281-0.324-10.89
			c2.616-14.441,13.17-26.055,24.055-35.899c24.379-22.048,54.317-40.11,87.138-41.907c17.665-0.967,3.361,20.348-0.587,26.301
			C275.037,425.914,266.226,436.902,257.055,447.543z"/>
		<path style="fill:#FFC79E;" d="M317.711,283.783c6.411-0.814,10.675,3.349,12.781,9.348c1.869,5.324-0.708,9.338-4.995,12.214
			c-4.525,3.036-9.458,5.464-14.623,7.198c-2.549,0.856-5.436,1.521-7.844,0.326c-1.607-0.798-2.737-2.314-3.601-3.887
			c-2.483-4.523-5.435-13.483-1.932-17.799C301.252,286.558,312.204,284.482,317.711,283.783z"/>
		<path style="fill:#FFC79E;" d="M329.63,333.887c0.968,0.809,1.892,1.7,2.533,2.786c1.858,3.148,0.91,7.354-1.35,10.227
			c-2.26,2.873-5.58,4.684-8.856,6.305c-1.349,0.667-2.718,1.32-4.179,1.682c-5.251,1.301-10.97-1.566-13.967-6.071
			c-2.996-4.504-3.571-10.292-2.618-15.618C303.266,321.601,323.75,328.977,329.63,333.887z"/>
		<path style="fill:#F8B686;" d="M179.171,500c5.692-8.059,12.182-15.966,15.709-24.256c9.627-22.63-14.77-48.282-29.146-62.917
			c-1.617-1.647-3.313-3.344-5.486-4.12c-3.186-1.139-11.844-21.559-14.318-19.252c-30.521,28.449-50.028,69.234-67.193,106.668
			c-0.591,1.289-1.171,2.585-1.756,3.879H179.171z"/>
		<path style="fill:#FFC79E;" d="M194.307,350.516c-0.744-2.457-1.147-4.991-1.301-7.581c-11.824-1.82-23.272-7.784-32.816-15.712
			c-0.779,7.132-2.719,14.138-5.745,20.643c-5.77,12.407-15.459,23.179-18.259,36.573c-1.316,6.293-1.011,12.813-0.306,19.204
			c1.197,10.841,3.582,21.693,8.592,31.381c4.855,9.389,15.355,24.654,26.881,19.221c11.283-5.319,20.873-13.82,27.055-24.71
			c9.644-16.99,10.307-37.871,6.24-56.98C203.016,364.884,196.578,358.022,194.307,350.516z"/>
	</g>
	<g>
		<path style="fill:#E1003A;" d="M404.43,283.145h-44.855c-2.619,0-4.742-2.123-4.742-4.742v-23.325
			c0-2.619,2.123-4.742,4.742-4.742h44.855c2.619,0,4.742,2.123,4.742,4.742v23.325C409.172,281.022,407.049,283.145,404.43,283.145
			z"/>
		<path style="fill:#FFFFFF;" d="M373.065,274.762v-16.044c0-1.626,1.754-2.647,3.168-1.845l14.13,8.022
			c1.432,0.813,1.432,2.876,0,3.689l-14.13,8.022C374.819,277.41,373.065,276.388,373.065,274.762z"/>
	</g>
	<g>
		
			<ellipse transform="matrix(0.594 -0.8045 0.8045 0.594 22.2293 391.5139)" style="fill:#FB9E19;" cx="398.986" cy="173.734" rx="22.299" ry="22.299"/>
		<g>
			<path style="fill:#FFFFFF;" d="M406.013,168.01c-0.074-0.098-0.287-0.257-0.642-0.477c-0.355-0.22-0.807-0.459-1.357-0.715
				c-0.55-0.257-1.162-0.501-1.835-0.734c-0.673-0.232-1.352-0.397-2.036-0.495v4.991l1.174,0.293
				c1.247,0.343,2.372,0.716,3.376,1.12c1.003,0.404,1.854,0.905,2.55,1.505c0.697,0.6,1.236,1.327,1.616,2.183
				c0.378,0.857,0.569,1.884,0.569,3.083c0,1.394-0.245,2.581-0.735,3.559c-0.489,0.979-1.144,1.78-1.962,2.403
				c-0.82,0.624-1.762,1.096-2.826,1.413c-1.064,0.318-2.184,0.501-3.358,0.551v4.257h-2.531v-4.293
				c-1.688-0.147-3.358-0.489-5.009-1.027c-1.652-0.538-3.138-1.248-4.459-2.128l2.642-5.248c0.097,0.123,0.36,0.325,0.789,0.606
				c0.427,0.282,0.972,0.575,1.633,0.881c0.66,0.306,1.406,0.6,2.238,0.881c0.832,0.282,1.688,0.483,2.569,0.605v-4.88l-1.762-0.514
				c-1.199-0.367-2.238-0.764-3.119-1.193c-0.881-0.428-1.608-0.923-2.183-1.486c-0.575-0.563-1.003-1.211-1.285-1.945
				c-0.281-0.734-0.422-1.59-0.422-2.569c0-1.272,0.221-2.403,0.661-3.395c0.44-0.99,1.033-1.84,1.779-2.55
				c0.746-0.71,1.627-1.266,2.642-1.67c1.015-0.404,2.11-0.666,3.285-0.789v-3.706h2.531v3.706c1.59,0.147,3.083,0.502,4.477,1.064
				c1.395,0.563,2.605,1.138,3.633,1.725L406.013,168.01z M395.848,167.68c0,0.612,0.214,1.095,0.643,1.45
				c0.427,0.355,1.07,0.667,1.926,0.936v-4.514C396.704,165.699,395.848,166.408,395.848,167.68z M402.968,179.349
				c0-0.636-0.257-1.131-0.771-1.486c-0.514-0.354-1.199-0.679-2.055-0.972v4.404C402.025,181.22,402.968,180.572,402.968,179.349z"
				/>
		</g>
	</g>
	<g>
		<path style="fill:#456AED;" d="M372.852,108.09h-31.431c-3.087,0-5.59-2.503-5.59-5.59V71.069c0-3.088,2.503-5.59,5.59-5.59
			h31.431c3.088,0,5.59,2.503,5.59,5.59v31.431C378.443,105.587,375.94,108.09,372.852,108.09z"/>
		<g>
			<path style="fill:#FFFFFF;" d="M348.115,96.43c4.01-0.347,4.965,1.873,8.895,2.743c2.435,0.539,7.381,1.233,9.778,0.545
				c1.064-0.305,2.196-0.718,2.799-1.646c0.602-0.929,0.266-2.49-0.824-2.682c1.425,0.238,3.03-0.771,3.172-2.209
				c0.142-1.438-1.563-2.787-2.843-2.116c1.372,0.252,2.8-1.039,2.688-2.429c-0.111-1.39-1.727-2.436-3.041-1.969
				c1.296-0.431,2.844-1.241,2.759-2.604c-0.084-1.34-1.698-1.971-3.035-2.089c-1.519-0.133-3.059-0.015-4.54,0.349
				c1.928-1.57,2.751-4.368,1.979-6.732c-0.304-0.931-0.957-1.875-1.927-2.013c-0.927-0.132-1.803,0.54-2.282,1.345
				s-0.671,1.743-1.004,2.618c-0.912,2.394-2.904,4.292-5.226,5.376c-2.321,1.084-4.949,1.402-7.505,1.227
				c1.323,3.373,1.031,7.068,0.892,10.689C348.831,95.378,348.598,96.179,348.115,96.43z"/>
			<g>
				<rect x="341.654" y="81.716" style="fill:#FFFFFF;" width="7.66" height="17.446"/>
				<path style="fill:#456AED;" d="M348.637,82.393v16.092h-6.306V82.393H348.637 M349.991,81.039h-1.353h-6.306h-1.353v1.353
					v16.092v1.353h1.353h6.306h1.353v-1.353V82.393V81.039L349.991,81.039z"/>
			</g>
		</g>
	</g>
	<g>
		<path style="fill:#E1003A;" d="M287.299,61.813h-62.994c-3.052,0-5.527-2.475-5.527-5.527V34.633c0-3.052,2.475-5.527,5.527-5.527
			h62.994c3.052,0,5.527,2.475,5.527,5.527v21.653C292.826,59.339,290.352,61.813,287.299,61.813z"/>
		<g>
			<path style="fill:#FFFFFF;" d="M242.585,39.618c-1.737-1.737-4.553-1.737-6.29,0l-1.441,1.441l-1.441-1.441
				c-1.737-1.737-4.553-1.737-6.29,0c-1.737,1.737-1.737,4.553,0,6.29l1.441,1.441l6.29,6.29l6.29-6.29l1.441-1.441
				C244.322,44.171,244.322,41.354,242.585,39.618z"/>
			<path style="fill:#FFFFFF;" d="M263.534,39.618c-1.737-1.737-4.553-1.737-6.29,0l-1.441,1.441l-1.441-1.441
				c-1.737-1.737-4.553-1.737-6.29,0c-1.737,1.737-1.737,4.553,0,6.29l1.441,1.441l6.29,6.29l6.29-6.29l1.441-1.441
				C265.27,44.171,265.27,41.354,263.534,39.618z"/>
			<path style="fill:#FFFFFF;" d="M284.482,39.618c-1.737-1.737-4.553-1.737-6.29,0l-1.441,1.441l-1.441-1.441
				c-1.737-1.737-4.553-1.737-6.29,0c-1.737,1.737-1.737,4.553,0,6.29l1.441,1.441l6.29,6.29l6.29-6.29l1.441-1.441
				C286.219,44.171,286.219,41.354,284.482,39.618z"/>
		</g>
		<polygon style="fill:#E1003A;" points="248.381,60.469 255.649,71.003 263.224,59.75 		"/>
	</g>
	<g>
		<defs>
			
				<ellipse id="SVGID_1_" transform="matrix(0.7071 -0.7071 0.7071 0.7071 -150.6767 172.783)" cx="133.229" cy="268.274" rx="21.043" ry="21.043"/>
		</defs>
		<clipPath id="SVGID_00000073690997630007931640000002896481903544798080_">
			<use xlink:href="#SVGID_1_"  style="overflow:visible;"/>
		</clipPath>
		
			<ellipse transform="matrix(0.7071 -0.7071 0.7071 0.7071 -150.6767 172.783)" style="clip-path:url(#SVGID_00000073690997630007931640000002896481903544798080_);fill:#456AED;" cx="133.229" cy="268.274" rx="21.043" ry="21.043"/>
		
			<circle style="clip-path:url(#SVGID_00000073690997630007931640000002896481903544798080_);fill:none;stroke:#FFFFFF;stroke-width:1.7055;stroke-miterlimit:10;" cx="133.229" cy="268.274" r="18.09"/>
		
			<path style="clip-path:url(#SVGID_00000073690997630007931640000002896481903544798080_);fill:none;stroke:#FFFFFF;stroke-width:1.7055;stroke-miterlimit:10;" d="
			M122.123,288.811c-4.01-7.69-2.642-17.839,3.261-24.193c3.548-3.818,8.414-6.211,13.439-7.591
			c5.026-1.381,10.255-1.821,15.448-2.255"/>
		
			<path style="clip-path:url(#SVGID_00000073690997630007931640000002896481903544798080_);fill:none;stroke:#FFFFFF;stroke-width:1.7055;stroke-miterlimit:10;" d="
			M116.277,281.692c4.601,1.981,9.946,0.95,14.625-0.84c3.275-1.253,6.512-2.938,8.715-5.665c1.584-1.96,2.542-4.349,3.293-6.755
			c2.09-6.696,2.732-13.84,1.869-20.801"/>
		
			<path style="clip-path:url(#SVGID_00000073690997630007931640000002896481903544798080_);fill:none;stroke:#FFFFFF;stroke-width:1.7055;stroke-miterlimit:10;" d="
			M133.931,246.337c-1.239,3.607-1.117,7.663,0.338,11.189c1.455,3.525,4.229,6.488,7.651,8.171
			c5.131,2.523,11.156,2.099,16.854,1.616"/>
		
			<path style="clip-path:url(#SVGID_00000073690997630007931640000002896481903544798080_);fill:none;stroke:#FFFFFF;stroke-width:1.7055;stroke-miterlimit:10;" d="
			M117.953,254.49c10.522,9.553,21.232,18.899,32.123,28.03"/>
		
			<path style="clip-path:url(#SVGID_00000073690997630007931640000002896481903544798080_);fill:none;stroke:#FFFFFF;stroke-width:1.7055;stroke-miterlimit:10;" d="
			M110.228,273.089c3.904-1.654,8.115-3.173,12.298-2.475c4.802,0.802,8.849,4.642,10.328,9.281c1.48,4.639,0.525,9.887-2.112,13.98
			"/>
	</g>
	<g>
		<path style="fill:#FB9E19;" d="M171.1,98.543h-33.656c-2.298,0-4.161-1.863-4.161-4.161V69.997c0-2.298,1.863-4.161,4.161-4.161
			H171.1c2.298,0,4.161,1.863,4.161,4.161v24.384C175.262,96.68,173.398,98.543,171.1,98.543z"/>
		<polygon style="fill:#FB9E19;" points="146.85,97.198 154.119,107.732 161.694,96.48 		"/>
		<polygon style="fill:#FFFFFF;" points="154.272,70.651 157.723,77.644 165.441,78.766 159.856,84.209 161.175,91.895 
			154.272,88.266 147.369,91.895 148.688,84.209 143.103,78.766 150.821,77.644 		"/>
	</g>
	<g>
		<path style="fill:#E1003A;" d="M129.68,162.39c0-9.661-7.832-17.493-17.494-17.493s-17.493,7.832-17.493,17.493
			c0,9.661,17.493,32.844,17.493,32.844S129.68,172.051,129.68,162.39z"/>
		
			<ellipse transform="matrix(0.7071 -0.7071 0.7071 0.7071 -81.2483 126.5923)" style="fill:#FFFFFF;" cx="112.186" cy="161.372" rx="10.381" ry="10.381"/>
	</g>
	<g>
		<g>
			<g>
				<path style="fill:#FFFFFF;" d="M417.429,138.357c3.217,0,3.223-5,0-5C414.211,133.357,414.206,138.357,417.429,138.357
					L417.429,138.357z"/>
			</g>
		</g>
		<g>
			<g>
				<path style="fill:#FFFFFF;" d="M371.143,149.5c3.217,0,3.223-5,0-5C367.926,144.5,367.92,149.5,371.143,149.5L371.143,149.5z"/>
			</g>
		</g>
		<g>
			<g>
				<path style="fill:#FFFFFF;" d="M396.429,89.071c3.217,0,3.223-5,0-5C393.211,84.071,393.206,89.071,396.429,89.071
					L396.429,89.071z"/>
			</g>
		</g>
		<g>
			<g>
				<path style="fill:#FFFFFF;" d="M312.321,35.179c3.217,0,3.223-5,0-5C309.104,30.179,309.099,35.179,312.321,35.179
					L312.321,35.179z"/>
			</g>
		</g>
		<g>
			<g>
				<path style="fill:#FFFFFF;" d="M301.714,89.179c3.217,0,3.223-5,0-5C298.497,84.179,298.492,89.179,301.714,89.179
					L301.714,89.179z"/>
			</g>
		</g>
		<g>
			<g>
				<path style="fill:#FFFFFF;" d="M350.893,44.821c3.217,0,3.223-5,0-5C347.676,39.821,347.67,44.821,350.893,44.821
					L350.893,44.821z"/>
			</g>
		</g>
		<g>
			<g>
				<path style="fill:#FFFFFF;" d="M193.714,97.857c3.217,0,3.223-5,0-5C190.497,92.857,190.492,97.857,193.714,97.857
					L193.714,97.857z"/>
			</g>
		</g>
		<g>
			<g>
				<path style="fill:#FFFFFF;" d="M162.857,55.429c3.217,0,3.223-5,0-5C159.64,50.429,159.634,55.429,162.857,55.429
					L162.857,55.429z"/>
			</g>
		</g>
		<g>
			<g>
				<path style="fill:#FFFFFF;" d="M112.714,42.893c3.217,0,3.223-5,0-5C109.497,37.893,109.492,42.893,112.714,42.893
					L112.714,42.893z"/>
			</g>
		</g>
		<g>
			<g>
				<path style="fill:#FFFFFF;" d="M108.857,95.929c3.217,0,3.223-5,0-5C105.64,90.929,105.634,95.929,108.857,95.929
					L108.857,95.929z"/>
			</g>
		</g>
		<g>
			<g>
				<path style="fill:#FFFFFF;" d="M160.929,134.5c3.217,0,3.223-5,0-5C157.711,129.5,157.706,134.5,160.929,134.5L160.929,134.5z"
					/>
			</g>
		</g>
		<g>
			<g>
				<path style="fill:#FFFFFF;" d="M70.286,149.929c3.217,0,3.223-5,0-5C67.068,144.929,67.063,149.929,70.286,149.929
					L70.286,149.929z"/>
			</g>
		</g>
		<g>
			<g>
				<path style="fill:#FFFFFF;" d="M80.893,205.857c3.217,0,3.223-5,0-5C77.676,200.857,77.67,205.857,80.893,205.857
					L80.893,205.857z"/>
			</g>
		</g>
		<g>
			<g>
				<path style="fill:#FFFFFF;" d="M137.786,220.321c3.217,0,3.223-5,0-5C134.568,215.321,134.563,220.321,137.786,220.321
					L137.786,220.321z"/>
			</g>
		</g>
		<g>
			<g>
				<path style="fill:#FFFFFF;" d="M96.321,260.821c3.217,0,3.223-5,0-5C93.104,255.821,93.099,260.821,96.321,260.821
					L96.321,260.821z"/>
			</g>
		</g>
		<g>
			<g>
				<path style="fill:#FFFFFF;" d="M121.393,331.214c3.217,0,3.223-5,0-5C118.176,326.214,118.17,331.214,121.393,331.214
					L121.393,331.214z"/>
			</g>
		</g>
		<g>
			<g>
				<path style="fill:#FFFFFF;" d="M235.179,83.393c3.217,0,3.223-5,0-5C231.961,78.393,231.956,83.393,235.179,83.393
					L235.179,83.393z"/>
			</g>
		</g>
		<g>
			<g>
				<path style="fill:#FFFFFF;" d="M191.786,20.714c3.217,0,3.223-5,0-5C188.568,15.714,188.563,20.714,191.786,20.714
					L191.786,20.714z"/>
			</g>
		</g>
		<g>
			<g>
				<path style="fill:#FFFFFF;" d="M424.286,218.393c3.217,0,3.223-5,0-5C421.068,213.393,421.063,218.393,424.286,218.393
					L424.286,218.393z"/>
			</g>
		</g>
		<g>
			<g>
				<path style="fill:#FFFFFF;" d="M366.321,218.393c3.217,0,3.223-5,0-5C363.104,213.393,363.099,218.393,366.321,218.393
					L366.321,218.393z"/>
			</g>
		</g>
		<g>
			<g>
				<path style="fill:#FFFFFF;" d="M336.429,275.286c3.217,0,3.223-5,0-5C333.211,270.286,333.206,275.286,336.429,275.286
					L336.429,275.286z"/>
			</g>
		</g>
		<g>
			<g>
				<path style="fill:#FFFFFF;" d="M385.607,319.643c3.217,0,3.223-5,0-5C382.39,314.643,382.384,319.643,385.607,319.643
					L385.607,319.643z"/>
			</g>
		</g>
		<g>
			<g>
				<path style="fill:#FFFFFF;" d="M428.036,283c3.217,0,3.223-5,0-5C424.818,278,424.813,283,428.036,283L428.036,283z"/>
			</g>
		</g>
		<polygon style="fill:#FFFFFF;" points="31.929,174.988 33.977,179.14 38.558,179.805 35.243,183.037 36.026,187.599 
			31.929,185.445 27.831,187.599 28.614,183.037 25.299,179.805 29.88,179.14 		"/>
		<polygon style="fill:#FFFFFF;" points="171.962,162.281 174.011,166.433 178.592,167.098 175.277,170.329 176.059,174.892 
			171.962,172.738 167.865,174.892 168.647,170.329 165.332,167.098 169.913,166.433 		"/>
		<polygon style="fill:#FFFFFF;" points="74.263,76.695 76.312,80.846 80.893,81.511 77.578,84.743 78.36,89.305 74.263,87.151 
			70.166,89.305 70.948,84.743 67.633,81.511 72.214,80.846 		"/>
		<polygon style="fill:#FFFFFF;" points="398.986,36.016 401.035,40.167 405.616,40.833 402.301,44.064 403.084,48.627 
			398.986,46.473 394.889,48.627 395.671,44.064 392.356,40.833 396.938,40.167 		"/>
		<polygon style="fill:#FFFFFF;" points="292.826,123.531 294.875,127.682 299.456,128.348 296.141,131.579 296.924,136.141 
			292.826,133.987 288.729,136.141 289.511,131.579 286.196,128.348 290.777,127.682 		"/>
		<polygon style="fill:#FFFFFF;" points="441.315,234.257 443.364,238.408 447.945,239.074 444.63,242.305 445.412,246.868 
			441.315,244.714 437.217,246.868 438,242.305 434.685,239.074 439.266,238.408 		"/>
		<polygon style="fill:#FFFFFF;" points="67.633,287.933 69.682,292.085 74.263,292.75 70.948,295.981 71.731,300.544 
			67.633,298.39 63.536,300.544 64.318,295.981 61.003,292.75 65.585,292.085 		"/>
		<polygon style="fill:#FFFFFF;" points="359.951,343.695 361.999,347.846 366.581,348.512 363.266,351.743 364.048,356.305 
			359.951,354.151 355.853,356.305 356.636,351.743 353.321,348.512 357.902,347.846 		"/>
		<polygon style="fill:#FFFFFF;" points="434.685,108.09 436.734,112.241 441.315,112.907 438,116.138 438.783,120.7 
			434.685,118.546 430.588,120.7 431.37,116.138 428.055,112.907 432.636,112.241 		"/>
	</g>
	<g>
		<g>
			<path style="fill:#1B286E;" d="M296.119,412.598h-80.825c-9.72,0-17.6-7.88-17.6-17.6V186.187c0-9.72,7.88-17.6,17.6-17.6h80.825
				c9.72,0,17.6,7.88,17.6,17.6v208.811C313.719,404.718,305.839,412.598,296.119,412.598z"/>
			<path style="fill:#F0F0F0;" d="M297.609,381.359h-83.806c-5.169,0-9.36-4.191-9.36-9.36V195.205c0-5.169,4.191-9.36,9.36-9.36
				h83.806c5.169,0,9.36,4.191,9.36,9.36v176.794C306.969,377.169,302.779,381.359,297.609,381.359z"/>
			<path style="fill:#314BA8;" d="M279.448,179.309h-47.482c-1.54,0-2.787-1.248-2.787-2.787l0,0c0-1.539,1.248-2.787,2.787-2.787
				h47.482c1.539,0,2.787,1.248,2.787,2.787l0,0C282.235,178.061,280.987,179.309,279.448,179.309z"/>
			
				<ellipse transform="matrix(0.7275 -0.6861 0.6861 0.7275 -203.0536 283.7701)" style="fill:#314BA8;" cx="255.707" cy="397.506" rx="7.939" ry="7.939"/>
		</g>
		<g>
			<ellipse style="fill:#E8E8E8;" cx="253.645" cy="338.184" rx="39.024" ry="7.882"/>
			<g>
				<polygon style="fill:#5519FB;" points="274.172,337.134 236.237,337.134 226.668,274.768 284.937,269.983 				"/>
				<polygon style="fill:#3F13BA;" points="226.668,279.552 284.937,283.145 285.749,266.741 225.579,268.274 				"/>
				<path style="fill:#FB9E19;" d="M260.225,281.766c-2.277-0.285-4.669,0.026-6.78,0.139c1.342,18.744,0.964,37.166-1.344,55.228
					h9.233C259.504,318.678,259.151,300.222,260.225,281.766z"/>
				<path style="fill:#FCA526;" d="M260.225,281.766c0.28-4.802,0.633-9.603,1.109-14.405l-9.233,0.237
					c0.558,4.79,1.004,9.559,1.344,14.307C255.556,281.792,257.949,281.482,260.225,281.766z"/>
				<polygon style="fill:#C47B13;" points="253.399,281.2 260.21,281.62 260.13,283.016 253.517,282.845 				"/>
				<polygon style="fill:#FB9E19;" points="231.658,307.289 279.555,303.558 277.744,314.854 232.614,313.518 				"/>
				
					<path style="fill:none;stroke:#FB9E19;stroke-width:4.7845;stroke-linecap:round;stroke-linejoin:round;stroke-miterlimit:10;" d="
					M228.524,261.72c-3.465-1.382-6.888-2.99-9.784-5.341c-0.648-0.526-1.296-1.132-1.526-1.934
					c-0.356-1.24,0.398-2.533,1.313-3.443c2.904-2.886,7.5-3.51,11.475-2.528c3.975,0.981,7.461,3.33,10.749,5.77
					c5.314,3.941,10.405,8.278,14.448,13.515c-5.898-4.779-11.797-9.557-17.695-14.336c-3.795-3.075-7.645-6.207-10.42-10.227
					c-2.775-4.02-4.376-9.122-3.154-13.851c0.101-0.391,0.225-0.787,0.47-1.109c0.915-1.204,2.8-0.748,4.188-0.148
					c7.473,3.233,14.863,7.597,19.197,14.49c2.02,3.212,3.283,6.831,4.53,10.414c1.648,4.738,3.297,9.477,4.945,14.215
					c-2.149-7.468-5.413-14.59-7.372-22.11c-1.959-7.52-2.523-15.766,0.661-22.855c0.976-2.174,2.964-4.494,5.273-3.901
					c1.279,0.329,2.166,1.479,2.821,2.625c4.157,7.275,2.826,16.294,1.679,24.593c-0.951,6.882-1.689,13.794-2.212,20.722
					c0.652-6.849,1.319-13.769,3.515-20.288c2.196-6.52,6.094-12.7,11.937-16.332c1.057-0.657,2.288-1.244,3.504-0.979
					c1.422,0.311,2.366,1.717,2.708,3.131c0.75,3.1-0.682,6.283-2.254,9.057c-3.406,6.011-7.638,11.505-11.855,16.977
					c-2.703,3.508-5.406,7.015-8.109,10.523c1.788-5.326,5.783-9.602,9.961-13.359c3.552-3.194,7.357-6.172,11.659-8.249
					s9.152-3.215,13.889-2.6c1.289,0.167,2.847,0.775,2.92,2.072c0.032,0.574-0.26,1.114-0.575,1.595
					c-2.731,4.182-7.519,6.453-12.065,8.522c-8.693,3.957-17.386,7.913-26.078,11.87c9.205-6.268,20.498-9.411,31.618-8.8
					c1.867,0.103,3.938,0.417,5.1,1.882c0.241,0.304,0.438,0.679,0.386,1.063c-0.075,0.558-0.624,0.909-1.125,1.165
					c-5.415,2.762-11.668,3.382-17.747,3.354c-4.618-0.022-9.389-0.725-13.992-0.304c-2.707,0.247-5.088,1.481-7.85,1.376
					C245.225,267.641,236.3,264.823,228.524,261.72z"/>
			</g>
		</g>
		<g>
			<path style="opacity:0.28;fill:#FFFFFF;" d="M221.478,185.839c-5.678,5.678-11.356,11.356-17.035,17.035v17.788
				c11.662-11.61,23.329-23.215,34.994-34.822H221.478z"/>
			<path style="opacity:0.28;fill:#FFFFFF;" d="M261.732,185.839c-19.093,19.012-38.202,38.007-57.288,57.026v29.637
				c28.932-28.922,57.891-57.818,86.9-86.663H261.732z"/>
			<path style="opacity:0.28;fill:#FFFFFF;" d="M306.969,217.219v-21.71c0-0.948-0.098-1.872-0.259-2.774
				c-34.15,33.939-68.219,67.961-102.267,102.003v25.032C238.717,285.685,272.892,251.501,306.969,217.219z"/>
			<path style="opacity:0.28;fill:#FFFFFF;" d="M206.257,377.237c0.54,0.564,1.017,1.165,1.493,1.788
				c0.111,0.145,0.42,0.457,0.568,0.623c0.422,0.211,0.843,0.422,1.262,0.638c0.611,0.314,1.214,0.644,1.813,0.983h11.687
				l83.89-83.89v-20.836C273.444,310.152,239.925,343.769,206.257,377.237z"/>
			<path style="opacity:0.28;fill:#FFFFFF;" d="M267.541,381.268c13.158-13.153,26.297-26.325,39.428-39.505v-22.147l-61.652,61.652
				H267.541z"/>
			<path style="opacity:0.28;fill:#FFFFFF;" d="M301.509,380.478c0.079-0.035,0.144-0.063,0.204-0.088
				c0.015-0.012,0.025-0.021,0.044-0.035c0.937-0.709,1.863-1.46,2.805-2.159c0.032-0.024,0.055-0.039,0.079-0.056
				c0.039-0.05,0.081-0.104,0.134-0.17c0.448-0.557,0.876-1.106,1.302-1.68c0.041-0.055,0.07-0.097,0.102-0.143
				c0.258-0.569,0.519-1.123,0.747-1.712c0.013-0.034,0.03-0.064,0.044-0.097v-10.304c-5.726,5.75-11.465,11.487-17.196,17.232
				h10.012C300.366,381.015,300.931,380.734,301.509,380.478z"/>
			<path style="opacity:0.28;fill:#FFFFFF;" d="M306.969,254.287v-14.771c-34.076,34.243-68.254,68.385-102.526,102.432v14.899
				C238.701,322.744,272.826,288.506,306.969,254.287z"/>
		</g>
	</g>
	<g>
		<path style="fill:#FFC79E;" d="M202.13,289.058c0.118-7.476,1.432-15.138-0.907-22.239c-2.923-8.876-10.335-15.701-18.631-20.003
			c-2.207-1.145-5.177-2.038-6.949-0.294c-1.483,1.46-1.175,3.874-0.879,5.934c1.536,10.689-0.271,21.835-5.108,31.491
			c-2.921,5.831-6.947,11.221-8.501,17.555c-1.468,5.98-0.594,12.247-0.574,18.405c0.008,2.444-0.125,4.887-0.391,7.316
			c9.544,7.929,20.991,13.893,32.816,15.712C192.003,326.113,201.849,306.808,202.13,289.058z"/>
		<path style="fill:#FFC79E;" d="M319.302,355.219c3.222,0.41,6.215,2.153,8.336,4.613c0.604,0.701,1.145,1.462,1.555,2.292
			c0.41,0.831,0.686,1.723,0.872,2.631c0.963,4.71-0.683,9.887-4.244,13.118c-3.561,3.231-8.92,4.362-13.457,2.773
			C298.071,375.642,306.066,353.535,319.302,355.219z"/>
		<path style="fill:#FFC79E;" d="M312.63,380.538c0.533-0.59,1.078-1.19,1.77-1.582c0.917-0.52,2.002-0.626,3.051-0.722
			c3.671-0.334,7.824-0.516,10.532,1.986c2.384,2.203,2.823,5.778,2.803,9.025c-0.011,1.906-0.134,3.842-0.771,5.639
			c-1.59,4.483-6.076,7.297-10.575,8.841c-2.68,0.92-5.53,1.521-8.345,1.195c-2.815-0.326-5.601-1.677-7.195-4.02
			c-1.651-2.427-1.835-5.657-0.951-8.457C304.54,387.405,309.228,384.305,312.63,380.538z"/>
	</g>
</g>
</svg>
