<svg width="591" height="72" viewBox="0 0 591 72" fill="none" xmlns="http://www.w3.org/2000/svg">
<path d="M4.44161 63V22.8429H20.7478C22.9382 22.8429 24.9258 23.0255 26.7105 23.3905C28.4953 23.715 30.0772 24.2018 31.4564 24.8508C32.8355 25.4998 33.9915 26.311 34.9245 27.2846C35.898 28.2175 36.6281 29.3127 37.1149 30.5701C37.6016 31.787 37.845 33.1459 37.845 34.6467C37.845 36.0664 37.6219 37.3644 37.1757 38.5407C36.7295 39.6765 36.0602 40.6702 35.1679 41.5221C34.2755 42.3739 33.16 43.0837 31.8214 43.6516C30.4829 44.1789 28.9212 44.544 27.1364 44.7468V45.6594C29.2051 45.8623 30.8479 46.349 32.0648 47.1197C33.3222 47.8498 34.2958 48.8436 34.9853 50.1011C35.7155 51.3585 36.3442 52.9202 36.8715 54.7861L39.3052 63H29.631L27.7449 55.3945C27.3798 53.772 26.8525 52.5145 26.1629 51.6222C25.4734 50.6892 24.6013 50.0402 23.5466 49.6752C22.492 49.2695 21.2143 49.0667 19.7135 49.0667H13.2032V63H4.44161ZM13.2032 42.4956H20.1394C22.8976 42.4956 25.0272 41.9682 26.528 40.9136C28.0288 39.859 28.7792 38.2162 28.7792 35.9852C28.7792 33.7949 28.0694 32.1926 26.6497 31.1786C25.2706 30.1239 23.1816 29.5966 20.3828 29.5966H13.2032V42.4956ZM51.6433 63V22.8429H60.4048V63H51.6433ZM39.7787 30.2051V22.8429H72.2694V30.2051H39.7787ZM75.4509 63V22.8429H86.8896L105.082 51.2571H105.751L105.204 22.8429H113.722V63H103.378L84.1516 33.2473H83.4823L84.0299 63H75.4509Z" fill="#E3E3E3"/>
<path d="M181.872 62.1177V23.862H191.436V28.0269H192.824C193.492 26.7415 194.598 25.636 196.14 24.7104C197.683 23.7335 199.714 23.245 202.234 23.245C204.959 23.245 207.144 23.7849 208.789 24.8647C210.435 25.8931 211.695 27.2557 212.569 28.9525H213.957C214.831 27.3071 216.065 25.9445 217.659 24.8647C219.253 23.7849 221.516 23.245 224.447 23.245C226.812 23.245 228.946 23.7592 230.848 24.7875C232.802 25.7645 234.345 27.2814 235.476 29.3381C236.658 31.3435 237.25 33.8887 237.25 36.9738V62.1177H227.532V37.668C227.532 35.5598 226.992 33.9915 225.912 32.9632C224.832 31.8834 223.315 31.3435 221.361 31.3435C219.15 31.3435 217.428 32.0633 216.194 33.5031C215.011 34.8914 214.42 36.8967 214.42 39.5191V62.1177H204.702V37.668C204.702 35.5598 204.162 33.9915 203.082 32.9632C202.002 31.8834 200.485 31.3435 198.531 31.3435C196.32 31.3435 194.598 32.0633 193.364 33.5031C192.181 34.8914 191.59 36.8967 191.59 39.5191V62.1177H181.872ZM255.723 63.1975C252.998 63.1975 250.556 62.7347 248.396 61.8092C246.236 60.8322 244.514 59.4439 243.228 57.6442C241.994 55.7931 241.377 53.5564 241.377 50.9341C241.377 48.3117 241.994 46.1264 243.228 44.3782C244.514 42.5785 246.262 41.2416 248.473 40.3675C250.736 39.4419 253.307 38.9792 256.186 38.9792H266.675V36.8196C266.675 35.0199 266.11 33.5545 264.979 32.4233C263.847 31.2406 262.048 30.6493 259.58 30.6493C257.163 30.6493 255.363 31.2149 254.181 32.3461C252.998 33.4259 252.227 34.8399 251.867 36.5882L242.92 33.5802C243.537 31.6263 244.514 29.8523 245.851 28.2583C247.239 26.6129 249.065 25.3017 251.327 24.3248C253.641 23.2964 256.443 22.7822 259.734 22.7822C264.773 22.7822 268.758 24.042 271.689 26.5615C274.62 29.081 276.085 32.7318 276.085 37.5137V51.7825C276.085 53.325 276.805 54.0963 278.245 54.0963H281.33V62.1177H274.851C272.949 62.1177 271.38 61.6549 270.146 60.7294C268.912 59.8038 268.295 58.5698 268.295 57.0272V56.9501H266.83C266.624 57.5671 266.161 58.3898 265.441 59.4182C264.722 60.3951 263.59 61.2693 262.048 62.0405C260.505 62.8118 258.397 63.1975 255.723 63.1975ZM257.42 55.3304C260.145 55.3304 262.356 54.5848 264.053 53.0937C265.801 51.5511 266.675 49.52 266.675 47.0005V46.2292H256.88C255.081 46.2292 253.666 46.6149 252.638 47.3862C251.61 48.1574 251.096 49.2372 251.096 50.6255C251.096 52.0139 251.635 53.1451 252.715 54.0192C253.795 54.8933 255.363 55.3304 257.42 55.3304ZM284.579 62.1177V23.862H294.143V28.1812H295.531C296.097 26.6386 297.022 25.5074 298.308 24.7875C299.645 24.0677 301.187 23.7077 302.935 23.7077H307.563V32.3461H302.781C300.313 32.3461 298.282 33.0146 296.688 34.3515C295.094 35.6369 294.297 37.6423 294.297 40.3675V62.1177H284.579ZM329.042 62.1177C326.523 62.1177 324.466 61.3464 322.872 59.8038C321.329 58.2098 320.558 56.1017 320.558 53.4793V31.8834H310.994V23.862H320.558V11.9842H330.276V23.862H340.766V31.8834H330.276V51.7825C330.276 53.325 330.996 54.0963 332.436 54.0963H339.84V62.1177H329.042Z" fill="#E3E3E3"/>
<path d="M141.789 17.5038C141.789 10.1542 147.747 4.19629 155.097 4.19629L179.439 4.19629V17.5038H141.789Z" fill="#E3E3E3"/>
<path d="M130.59 48.9878H169.052C169.052 56.3373 163.094 62.2953 155.744 62.2953H130.59V48.9878Z" fill="#E3E3E3"/>
<path d="M141.789 30.8066L152.245 27.2774C159.208 24.9269 166.759 28.6666 169.109 35.6301L158.654 39.1593C151.69 41.5098 144.14 37.7702 141.789 30.8066Z" fill="#E3E3E3"/>
<path d="M169.051 35.6802H169.7C173.375 35.6802 176.354 38.6592 176.354 42.3339C176.354 46.0087 173.375 48.9876 169.7 48.9876H169.051V35.6802Z" fill="#E3E3E3"/>
<path d="M134.484 23.9805C134.484 20.4033 137.384 17.5034 140.961 17.5034H141.787V30.8109H141.315C137.542 30.8109 134.484 27.7528 134.484 23.9805Z" fill="#E3E3E3"/>
<rect x="366" y="8" width="225" height="63" rx="31.5" fill="#6829E9"/>
<path d="M407.221 38.649C408.826 38.9357 410.188 39.7813 411.306 41.186C412.424 42.5907 412.983 44.1817 412.983 45.959C412.983 47.4783 412.582 48.8543 411.779 50.087C411.005 51.291 409.873 52.2513 408.382 52.968C406.891 53.656 405.157 54 403.179 54H391.225V24.115H402.62C404.655 24.115 406.404 24.459 407.866 25.147C409.328 25.835 410.432 26.7667 411.177 27.942C411.922 29.0887 412.295 30.3787 412.295 31.812C412.295 33.532 411.836 34.9653 410.919 36.112C410.002 37.2587 408.769 38.1043 407.221 38.649ZM396.127 36.671H402.19C403.795 36.671 405.042 36.3127 405.931 35.596C406.848 34.8507 407.307 33.79 407.307 32.414C407.307 31.0667 406.848 30.0203 405.931 29.275C405.042 28.501 403.795 28.114 402.19 28.114H396.127V36.671ZM402.749 50.001C404.412 50.001 405.716 49.5997 406.662 48.797C407.608 47.9943 408.081 46.8763 408.081 45.443C408.081 43.981 407.579 42.82 406.576 41.96C405.573 41.1 404.24 40.67 402.577 40.67H396.127V50.001H402.749ZM438.477 30.307V54H433.575V51.205C432.801 52.1797 431.783 52.9537 430.522 53.527C429.289 54.0717 427.971 54.344 426.566 54.344C424.703 54.344 423.026 53.957 421.535 53.183C420.073 52.409 418.912 51.2623 418.052 49.743C417.221 48.2237 416.805 46.389 416.805 44.239V30.307H421.664V43.508C421.664 45.6293 422.194 47.2633 423.255 48.41C424.316 49.528 425.763 50.087 427.598 50.087C429.433 50.087 430.88 49.528 431.941 48.41C433.03 47.2633 433.575 45.6293 433.575 43.508V30.307H438.477ZM452.255 54.387C450.391 54.387 448.714 54.0573 447.224 53.398C445.762 52.71 444.601 51.7927 443.741 50.646C442.881 49.4707 442.422 48.1663 442.365 46.733H447.439C447.525 47.7363 447.998 48.582 448.858 49.27C449.746 49.9293 450.85 50.259 452.169 50.259C453.545 50.259 454.605 50.001 455.351 49.485C456.125 48.9403 456.512 48.2523 456.512 47.421C456.512 46.5323 456.082 45.873 455.222 45.443C454.39 45.013 453.057 44.54 451.223 44.024C449.445 43.5367 447.998 43.0637 446.88 42.605C445.762 42.1463 444.787 41.444 443.956 40.498C443.153 39.552 442.752 38.305 442.752 36.757C442.752 35.4957 443.124 34.349 443.87 33.317C444.615 32.2563 445.676 31.425 447.052 30.823C448.456 30.221 450.062 29.92 451.868 29.92C454.562 29.92 456.727 30.608 458.361 31.984C460.023 33.3313 460.912 35.1803 461.027 37.531H456.125C456.039 36.4703 455.609 35.6247 454.835 34.994C454.061 34.3633 453.014 34.048 451.696 34.048C450.406 34.048 449.417 34.2917 448.729 34.779C448.041 35.2663 447.697 35.9113 447.697 36.714C447.697 37.3447 447.926 37.875 448.385 38.305C448.843 38.735 449.402 39.079 450.062 39.337C450.721 39.5663 451.696 39.8673 452.986 40.24C454.706 40.6987 456.11 41.1717 457.2 41.659C458.318 42.1177 459.278 42.8057 460.081 43.723C460.883 44.6403 461.299 45.8587 461.328 47.378C461.328 48.7253 460.955 49.9293 460.21 50.99C459.464 52.0507 458.404 52.882 457.028 53.484C455.68 54.086 454.089 54.387 452.255 54.387ZM467.828 27.168C466.94 27.168 466.194 26.867 465.592 26.265C464.99 25.663 464.689 24.9177 464.689 24.029C464.689 23.1403 464.99 22.395 465.592 21.793C466.194 21.191 466.94 20.89 467.828 20.89C468.688 20.89 469.419 21.191 470.021 21.793C470.623 22.395 470.924 23.1403 470.924 24.029C470.924 24.9177 470.623 25.663 470.021 26.265C469.419 26.867 468.688 27.168 467.828 27.168ZM470.236 30.307V54H465.334V30.307H470.236ZM487.336 29.92C489.2 29.92 490.862 30.307 492.324 31.081C493.815 31.855 494.976 33.0017 495.807 34.521C496.639 36.0403 497.054 37.875 497.054 40.025V54H492.195V40.756C492.195 38.6347 491.665 37.015 490.604 35.897C489.544 34.7503 488.096 34.177 486.261 34.177C484.427 34.177 482.965 34.7503 481.875 35.897C480.815 37.015 480.284 38.6347 480.284 40.756V54H475.382V30.307H480.284V33.016C481.087 32.0413 482.105 31.2817 483.337 30.737C484.599 30.1923 485.932 29.92 487.336 29.92ZM523.732 41.573C523.732 42.4617 523.675 43.2643 523.56 43.981H505.457C505.601 45.873 506.303 47.3923 507.564 48.539C508.826 49.6857 510.374 50.259 512.208 50.259C514.846 50.259 516.709 49.1553 517.798 46.948H523.087C522.371 49.1267 521.066 50.9183 519.174 52.323C517.311 53.699 514.989 54.387 512.208 54.387C509.944 54.387 507.908 53.8853 506.102 52.882C504.325 51.85 502.92 50.4167 501.888 48.582C500.885 46.7187 500.383 44.5687 500.383 42.132C500.383 39.6953 500.871 37.5597 501.845 35.725C502.849 33.8617 504.239 32.4283 506.016 31.425C507.822 30.4217 509.886 29.92 512.208 29.92C514.444 29.92 516.437 30.4073 518.185 31.382C519.934 32.3567 521.296 33.7327 522.27 35.51C523.245 37.2587 523.732 39.2797 523.732 41.573ZM518.615 40.025C518.587 38.219 517.942 36.7713 516.68 35.682C515.419 34.5927 513.857 34.048 511.993 34.048C510.302 34.048 508.854 34.5927 507.65 35.682C506.446 36.7427 505.73 38.1903 505.5 40.025H518.615ZM535.866 54.387C534.003 54.387 532.326 54.0573 530.835 53.398C529.373 52.71 528.212 51.7927 527.352 50.646C526.492 49.4707 526.034 48.1663 525.976 46.733H531.05C531.136 47.7363 531.609 48.582 532.469 49.27C533.358 49.9293 534.462 50.259 535.78 50.259C537.156 50.259 538.217 50.001 538.962 49.485C539.736 48.9403 540.123 48.2523 540.123 47.421C540.123 46.5323 539.693 45.873 538.833 45.443C538.002 45.013 536.669 44.54 534.834 44.024C533.057 43.5367 531.609 43.0637 530.491 42.605C529.373 42.1463 528.399 41.444 527.567 40.498C526.765 39.552 526.363 38.305 526.363 36.757C526.363 35.4957 526.736 34.349 527.481 33.317C528.227 32.2563 529.287 31.425 530.663 30.823C532.068 30.221 533.673 29.92 535.479 29.92C538.174 29.92 540.338 30.608 541.972 31.984C543.635 33.3313 544.524 35.1803 544.638 37.531H539.736C539.65 36.4703 539.22 35.6247 538.446 34.994C537.672 34.3633 536.626 34.048 535.307 34.048C534.017 34.048 533.028 34.2917 532.34 34.779C531.652 35.2663 531.308 35.9113 531.308 36.714C531.308 37.3447 531.538 37.875 531.996 38.305C532.455 38.735 533.014 39.079 533.673 39.337C534.333 39.5663 535.307 39.8673 536.597 40.24C538.317 40.6987 539.722 41.1717 540.811 41.659C541.929 42.1177 542.89 42.8057 543.692 43.723C544.495 44.6403 544.911 45.8587 544.939 47.378C544.939 48.7253 544.567 49.9293 543.821 50.99C543.076 52.0507 542.015 52.882 540.639 53.484C539.292 54.086 537.701 54.387 535.866 54.387ZM557.546 54.387C555.683 54.387 554.006 54.0573 552.515 53.398C551.053 52.71 549.892 51.7927 549.032 50.646C548.172 49.4707 547.713 48.1663 547.656 46.733H552.73C552.816 47.7363 553.289 48.582 554.149 49.27C555.038 49.9293 556.141 50.259 557.46 50.259C558.836 50.259 559.897 50.001 560.642 49.485C561.416 48.9403 561.803 48.2523 561.803 47.421C561.803 46.5323 561.373 45.873 560.513 45.443C559.682 45.013 558.349 44.54 556.514 44.024C554.737 43.5367 553.289 43.0637 552.171 42.605C551.053 42.1463 550.078 41.444 549.247 40.498C548.444 39.552 548.043 38.305 548.043 36.757C548.043 35.4957 548.416 34.349 549.161 33.317C549.906 32.2563 550.967 31.425 552.343 30.823C553.748 30.221 555.353 29.92 557.159 29.92C559.854 29.92 562.018 30.608 563.652 31.984C565.315 33.3313 566.203 35.1803 566.318 37.531H561.416C561.33 36.4703 560.9 35.6247 560.126 34.994C559.352 34.3633 558.306 34.048 556.987 34.048C555.697 34.048 554.708 34.2917 554.02 34.779C553.332 35.2663 552.988 35.9113 552.988 36.714C552.988 37.3447 553.217 37.875 553.676 38.305C554.135 38.735 554.694 39.079 555.353 39.337C556.012 39.5663 556.987 39.8673 558.277 40.24C559.997 40.6987 561.402 41.1717 562.491 41.659C563.609 42.1177 564.569 42.8057 565.372 43.723C566.175 44.6403 566.59 45.8587 566.619 47.378C566.619 48.7253 566.246 49.9293 565.501 50.99C564.756 52.0507 563.695 52.882 562.319 53.484C560.972 54.086 559.381 54.387 557.546 54.387Z" fill="white"/>
</svg>
