<svg width="32" height="32" viewBox="0 0 32 32" fill="none" xmlns="http://www.w3.org/2000/svg">
<path fill-rule="evenodd" clip-rule="evenodd" d="M16.0363 6.00049C15.0961 6.00049 14.3342 6.76253 14.3342 7.70256V9.08537H10.7273C5.90953 9.08537 2.00391 12.9909 2.00391 17.8089C2.00391 22.6266 5.90953 26.5322 10.7273 26.5322H21.2714C26.0891 26.5322 29.9948 22.6266 29.9948 17.8089C29.9948 12.9909 26.0891 9.08537 21.2714 9.08537H17.7383V7.70256C17.7383 6.76253 16.9762 6.00049 16.0363 6.00049ZM5.38849 17.8089C5.38849 14.8602 7.77863 12.4699 10.7273 12.4699H21.2714C24.22 12.4699 26.6102 14.8602 26.6102 17.8089C26.6102 20.7573 24.22 23.1476 21.2714 23.1476H10.7273C7.77863 23.1476 5.38849 20.7573 5.38849 17.8089ZM14.1669 17.864C14.1669 18.8318 13.3465 19.6165 12.3345 19.6165C11.3224 19.6165 10.5022 18.8318 10.5022 17.864C10.5022 16.8961 11.3224 16.1115 12.3345 16.1115C13.3465 16.1115 14.1669 16.8961 14.1669 17.864ZM20.397 19.6165C21.4091 19.6165 22.2295 18.8318 22.2295 17.864C22.2295 16.8961 21.4091 16.1115 20.397 16.1115C19.3851 16.1115 18.5647 16.8961 18.5647 17.864C18.5647 18.8318 19.3851 19.6165 20.397 19.6165Z" fill="#54F477"/>
</svg>
