<svg width="203" height="159" viewBox="0 0 203 159" fill="none" xmlns="http://www.w3.org/2000/svg">
<g filter="url(#filter0_d_401_60)">
<path d="M144.494 79.5008C144.494 57.5111 154.646 45.1568 162.596 45.1568H173.05C167.739 36.7377 163.343 31.8008 143.969 31.8008H64.4053C34.72 31.8008 22 59.1567 22 79.5008C22 99.8448 34.72 127.201 64.4053 127.201H143.969C163.351 127.201 167.739 122.264 173.05 113.845H162.596C154.646 113.845 144.494 101.49 144.494 79.5008ZM122.87 93.771C121.566 95.7585 117.495 93.8982 117.495 93.8982L93.9873 83.2611C93.9873 83.2611 91.8885 88.5876 90.2746 92.3321C88.6449 96.0765 87.4046 100.314 80.6631 95.5757C73.9135 90.8216 52.1941 69.7382 52.1941 69.7382C52.1941 69.7382 49.4513 67.4804 50.8187 65.3577C52.1146 63.3543 56.193 65.2305 56.193 65.2305L79.6931 75.8517C79.6931 75.8517 81.7999 70.5411 83.4137 66.7967C85.0435 63.0602 86.2837 58.799 93.0253 63.5531C99.7748 68.2913 121.486 89.3906 121.486 89.3906C121.486 89.3906 124.229 91.6404 122.87 93.771ZM172.048 63.0284H166.094C161.65 63.0284 157.309 69.0227 157.309 78.7614C157.309 88.5161 161.658 94.5024 166.094 94.5024H172.048C176.5 94.5024 181 88.5081 181 78.7614C181 69.0147 176.5 63.0284 172.048 63.0284Z" fill="#64F1A5"/>
</g>
<defs>
<filter id="filter0_d_401_60" x="0.9" y="10.7008" width="201.2" height="137.6" filterUnits="userSpaceOnUse" color-interpolation-filters="sRGB">
<feFlood flood-opacity="0" result="BackgroundImageFix"/>
<feColorMatrix in="SourceAlpha" type="matrix" values="0 0 0 0 0 0 0 0 0 0 0 0 0 0 0 0 0 0 127 0" result="hardAlpha"/>
<feOffset/>
<feGaussianBlur stdDeviation="10.55"/>
<feComposite in2="hardAlpha" operator="out"/>
<feColorMatrix type="matrix" values="0 0 0 0 0.132535 0 0 0 0 0.982628 0 0 0 0 0.557582 0 0 0 0.67 0"/>
<feBlend mode="normal" in2="BackgroundImageFix" result="effect1_dropShadow_401_60"/>
<feBlend mode="normal" in="SourceGraphic" in2="effect1_dropShadow_401_60" result="shape"/>
</filter>
</defs>
</svg>
