<svg width="32" height="32" viewBox="0 0 32 32" fill="none" xmlns="http://www.w3.org/2000/svg">
<rect width="32" height="32" fill="#03AF3E"/>
<path fill-rule="evenodd" clip-rule="evenodd" d="M16.2709 8C15.5495 8 14.9649 8.58471 14.9649 9.306V10.367H12.1973C8.50068 10.367 5.50391 13.3637 5.50391 17.0605C5.50391 20.7571 8.50068 23.7539 12.1973 23.7539H20.2878C23.9844 23.7539 26.9812 20.7571 26.9812 17.0605C26.9812 13.3637 23.9844 10.367 20.2878 10.367H17.5769V9.306C17.5769 8.58471 16.9921 8 16.2709 8ZM8.10088 17.0605C8.10088 14.798 9.93483 12.9639 12.1973 12.9639H20.2878C22.5503 12.9639 24.3842 14.798 24.3842 17.0605C24.3842 19.3228 22.5503 21.1569 20.2878 21.1569H12.1973C9.93483 21.1569 8.10088 19.3228 8.10088 17.0605ZM14.8366 17.1028C14.8366 17.8454 14.2071 18.4475 13.4305 18.4475C12.6539 18.4475 12.0246 17.8454 12.0246 17.1028C12.0246 16.3602 12.6539 15.7581 13.4305 15.7581C14.2071 15.7581 14.8366 16.3602 14.8366 17.1028ZM19.6168 18.4475C20.3934 18.4475 21.0229 17.8454 21.0229 17.1028C21.0229 16.3602 20.3934 15.7581 19.6168 15.7581C18.8404 15.7581 18.2109 16.3602 18.2109 17.1028C18.2109 17.8454 18.8404 18.4475 19.6168 18.4475Z" fill="white"/>
</svg>
