<svg width="184" height="172" viewBox="0 0 184 172" fill="none" xmlns="http://www.w3.org/2000/svg">
<path opacity="0.3" d="M146.995 27C151.857 27 156.52 28.9315 159.959 32.3697C163.397 35.8079 165.328 40.471 165.328 45.3333V54.5C170.191 54.5 174.854 56.4315 178.292 59.8697C181.73 63.3079 183.662 67.971 183.662 72.8333V91.1667C183.662 96.029 181.73 100.692 178.292 104.13C174.854 107.568 170.191 109.5 165.328 109.5V118.667C165.328 123.529 163.397 128.192 159.959 131.63C156.52 135.068 151.857 137 146.995 137H100.236L124.656 96.2908C133.694 81.2392 126.462 62.8325 111.777 56.645L115.581 50.32C119.963 42.9958 120.558 34.4617 117.918 27H146.995Z" fill="#43FF99"/>
<g filter="url(#filter0_d_514_4)">
<path d="M84.143 31.4549C85.3394 29.4367 87.2642 27.9541 89.5209 27.3124C91.7776 26.6707 94.1944 26.9188 96.2737 28.0054C98.3531 29.0921 99.9366 30.9346 100.698 33.1537C101.46 35.3728 101.342 37.7995 100.368 39.934L99.8638 40.8874L80.7146 72.8332H101.019C107.857 72.8332 112.211 79.919 109.452 85.914L108.957 86.8582L81.5488 132.554C80.3569 134.583 78.4303 136.076 76.1679 136.724C73.9055 137.372 71.4806 137.125 69.3955 136.034C67.3103 134.943 65.7245 133.092 64.9665 130.864C64.2086 128.636 64.3365 126.202 65.3238 124.066L65.828 123.112L84.9771 91.1665H64.6821C63.1337 91.1667 61.61 90.7785 60.2504 90.0375C58.8909 89.2965 57.7389 88.2263 56.8998 86.9249C56.0608 85.6235 55.5616 84.1325 55.4479 82.5883C55.3341 81.044 55.6095 79.496 56.2488 78.0857L56.7438 77.1415L84.143 31.4549Z" fill="#43FF99"/>
</g>
<path opacity="0.3" d="M65.426 27L41.006 67.7092C32.2702 82.2567 38.7418 99.9392 52.4368 106.695L53.8852 107.355L50.0902 113.68C48.1624 116.89 46.9104 120.459 46.4107 124.169C45.9111 127.88 46.1743 131.653 47.1843 135.258L47.7343 137H18.6668C14.0415 137.001 9.58664 135.255 6.19514 132.11C2.80364 128.965 0.726227 124.654 0.37933 120.042L0.333496 118.667V45.3333C0.334345 40.7096 2.08224 36.257 5.227 32.8674C8.37177 29.4779 12.6812 27.4018 17.2918 27.055L18.6668 27H65.426Z" fill="#43FF99"/>
<defs>
<filter id="filter0_d_514_4" x="25.0229" y="0.562891" width="115.67" height="170.915" filterUnits="userSpaceOnUse" color-interpolation-filters="sRGB">
<feFlood flood-opacity="0" result="BackgroundImageFix"/>
<feColorMatrix in="SourceAlpha" type="matrix" values="0 0 0 0 0 0 0 0 0 0 0 0 0 0 0 0 0 0 127 0" result="hardAlpha"/>
<feOffset dy="4"/>
<feGaussianBlur stdDeviation="15.2"/>
<feComposite in2="hardAlpha" operator="out"/>
<feColorMatrix type="matrix" values="0 0 0 0 0.132535 0 0 0 0 0.982628 0 0 0 0 0.557582 0 0 0 1 0"/>
<feBlend mode="normal" in2="BackgroundImageFix" result="effect1_dropShadow_514_4"/>
<feBlend mode="normal" in="SourceGraphic" in2="effect1_dropShadow_514_4" result="shape"/>
</filter>
</defs>
</svg>
