<svg xmlns="http://www.w3.org/2000/svg" width="639.986" height="511.992" viewBox="0 0 639.986 511.992"><path d="M155.6,17.3A32.061,32.061,0,0,1,195,1.9L320,47.5,445,1.9a32.061,32.061,0,0,1,39.4,15.4l78.8,152.9C592,226,573.5,292.5,524.7,326.8L556.1,413l41-15A31.983,31.983,0,0,1,619,458.1L547.9,484l-71.1,26a31.983,31.983,0,0,1-21.9-60.1l41-15-31.3-86.2a122.576,122.576,0,0,1-130-95.2L320,188.8l-14.6,64.7a122.483,122.483,0,0,1-130,95.2l-31.3,86.2,41,15A31.983,31.983,0,0,1,163.2,510l-71-25.9L21.1,458.2A31.983,31.983,0,0,1,43,398.1l41,15,31.3-86.2C66.5,292.5,48.1,226,76.9,170.2Zm44,54.4-27.2,52.8L261.6,157l13.1-57.9Zm240.9,0L365.4,99.1,378.5,157l89.2-32.5Z" transform="translate(-0.037 0.029)" fill="#0a65db"/></svg>