<svg xmlns="http://www.w3.org/2000/svg" width="448" height="512" viewBox="0 0 448 512"><path d="M128,0a31.966,31.966,0,0,1,32,32V64H288V32a32,32,0,0,1,64,0V64h48a48.012,48.012,0,0,1,48,48v48H0V112A48.012,48.012,0,0,1,48,64H96V32A31.966,31.966,0,0,1,128,0ZM0,192H448V464a48.012,48.012,0,0,1-48,48H48A48.012,48.012,0,0,1,0,464Zm64,80v32a16.047,16.047,0,0,0,16,16h32a16.047,16.047,0,0,0,16-16V272a16.047,16.047,0,0,0-16-16H80A16.047,16.047,0,0,0,64,272Zm128,0v32a16.047,16.047,0,0,0,16,16h32a16.047,16.047,0,0,0,16-16V272a16.047,16.047,0,0,0-16-16H208A16.047,16.047,0,0,0,192,272Zm144-16a16.047,16.047,0,0,0-16,16v32a16.047,16.047,0,0,0,16,16h32a16.047,16.047,0,0,0,16-16V272a16.047,16.047,0,0,0-16-16ZM64,400v32a16.047,16.047,0,0,0,16,16h32a16.047,16.047,0,0,0,16-16V400a16.047,16.047,0,0,0-16-16H80A16.047,16.047,0,0,0,64,400Zm144-16a16.047,16.047,0,0,0-16,16v32a16.047,16.047,0,0,0,16,16h32a16.047,16.047,0,0,0,16-16V400a16.047,16.047,0,0,0-16-16Zm112,16v32a16.047,16.047,0,0,0,16,16h32a16.047,16.047,0,0,0,16-16V400a16.047,16.047,0,0,0-16-16H336A16.047,16.047,0,0,0,320,400Z"/></svg>