<svg xmlns="http://www.w3.org/2000/svg" width="640" height="512" viewBox="0 0 640 512"><path d="M48,0A48.012,48.012,0,0,0,0,48V464a48.012,48.012,0,0,0,48,48h96V432a48,48,0,0,1,96,0v80h89.9a66.485,66.485,0,0,1-9.9-35.1,125.041,125.041,0,0,1,64-109.2V48A48.012,48.012,0,0,0,336,0ZM64,240a16.047,16.047,0,0,1,16-16h32a16.047,16.047,0,0,1,16,16v32a16.047,16.047,0,0,1-16,16H80a16.047,16.047,0,0,1-16-16Zm112-16h32a16.047,16.047,0,0,1,16,16v32a16.047,16.047,0,0,1-16,16H176a16.047,16.047,0,0,1-16-16V240A16.047,16.047,0,0,1,176,224Zm80,16a16.047,16.047,0,0,1,16-16h32a16.047,16.047,0,0,1,16,16v32a16.047,16.047,0,0,1-16,16H272a16.047,16.047,0,0,1-16-16ZM80,96h32a16.047,16.047,0,0,1,16,16v32a16.047,16.047,0,0,1-16,16H80a16.047,16.047,0,0,1-16-16V112A16.047,16.047,0,0,1,80,96Zm80,16a16.047,16.047,0,0,1,16-16h32a16.047,16.047,0,0,1,16,16v32a16.047,16.047,0,0,1-16,16H176a16.047,16.047,0,0,1-16-16ZM272,96h32a16.047,16.047,0,0,1,16,16v32a16.047,16.047,0,0,1-16,16H272a16.047,16.047,0,0,1-16-16V112A16.047,16.047,0,0,1,272,96ZM576,272a80,80,0,1,0-80,80A80,80,0,0,0,576,272ZM352,477.1A34.868,34.868,0,0,0,386.9,512H605.1A34.868,34.868,0,0,0,640,477.1,93.123,93.123,0,0,0,546.9,384H445.1A93.123,93.123,0,0,0,352,477.1Z"/></svg>