<svg width="18" height="16" viewBox="0 0 18 16" fill="none" xmlns="http://www.w3.org/2000/svg">
<path d="M1 9L9 1L17 9" stroke="black" stroke-width="0.611765" stroke-linecap="round" stroke-linejoin="round"/>
<path d="M2.77777 7.22222V13.4444C2.77777 13.9159 2.96507 14.3681 3.29847 14.7015C3.63187 15.0349 4.08405 15.2222 4.55555 15.2222H13.4444C13.9159 15.2222 14.3681 15.0349 14.7015 14.7015C15.0349 14.3681 15.2222 13.9159 15.2222 13.4444V7.22222" stroke="black" stroke-width="0.611765" stroke-linecap="round" stroke-linejoin="round"/>
<path d="M10.3439 12.1111V11.3179L11.061 11.4388C11.1239 11.4494 11.1883 11.4468 11.2501 11.4313C11.3119 11.4157 11.3698 11.3875 11.4202 11.3485C11.4705 11.3094 11.5122 11.2603 11.5427 11.2043C11.5731 11.1483 11.5916 11.0866 11.5969 11.0231L11.6851 9.9765C11.9693 9.91274 12.1737 9.80996 12.3062 9.72423C12.4252 9.64742 12.439 9.49224 12.3597 9.37487L11.7227 8.43201C11.6471 7.01472 10.474 5.88889 9.03796 5.88889V12.1111" stroke="black" stroke-width="0.611765" stroke-linecap="round" stroke-linejoin="round"/>
<path d="M5.88889 8.96156C5.88889 9.0838 5.93745 9.20103 6.02388 9.28747C6.11032 9.37391 6.22755 9.42247 6.34979 9.42247C6.47203 9.42247 6.58926 9.37391 6.6757 9.28747C6.76214 9.20103 6.8107 9.0838 6.8107 8.96156C6.8107 8.83932 6.76214 8.72209 6.6757 8.63565C6.58926 8.54921 6.47203 8.50066 6.34979 8.50066C6.22755 8.50066 6.11032 8.54921 6.02388 8.63565C5.93745 8.72209 5.88889 8.83932 5.88889 8.96156ZM6.65706 6.65703C6.65706 6.71756 6.66898 6.7775 6.69215 6.83341C6.71531 6.88933 6.74926 6.94014 6.79206 6.98294C6.83486 7.02574 6.88567 7.05969 6.94159 7.08286C6.99751 7.10602 7.05744 7.11794 7.11797 7.11794C7.17849 7.11794 7.23843 7.10602 7.29435 7.08286C7.35027 7.05969 7.40108 7.02574 7.44388 6.98294C7.48667 6.94014 7.52062 6.88933 7.54379 6.83341C7.56695 6.7775 7.57887 6.71756 7.57887 6.65703C7.57887 6.59651 7.56695 6.53657 7.54379 6.48065C7.52062 6.42473 7.48667 6.37392 7.44388 6.33112C7.40108 6.28833 7.35027 6.25438 7.29435 6.23121C7.23843 6.20805 7.17849 6.19613 7.11797 6.19613C7.05744 6.19613 6.99751 6.20805 6.94159 6.23121C6.88567 6.25438 6.83486 6.28833 6.79206 6.33112C6.74926 6.37392 6.71531 6.42473 6.69215 6.48065C6.66898 6.53657 6.65706 6.59651 6.65706 6.65703ZM6.50343 11.4197C6.50343 11.542 6.55199 11.6592 6.63842 11.7456C6.72486 11.8321 6.84209 11.8806 6.96433 11.8806C7.08657 11.8806 7.2038 11.8321 7.29024 11.7456C7.37668 11.6592 7.42524 11.542 7.42524 11.4197C7.42524 11.2975 7.37668 11.1802 7.29024 11.0938C7.2038 11.0074 7.08657 10.9588 6.96433 10.9588C6.84209 10.9588 6.72486 11.0074 6.63842 11.0938C6.55199 11.1802 6.50343 11.2975 6.50343 11.4197Z" stroke="black" stroke-width="0.611765"/>
<path d="M6.81097 8.96156H9.03868M9.03868 7.73248H8.19369L7.50233 7.04112M9.03868 10.3443H8.04006L7.3487 11.0356" stroke="black" stroke-width="0.611765" stroke-linecap="round" stroke-linejoin="round"/>
</svg>
