<svg width="17" height="15" viewBox="0 0 17 15" fill="none" xmlns="http://www.w3.org/2000/svg">
<path d="M4.05882 7.69181C4.05882 7.91768 4.10776 8.14133 4.20285 8.35001C4.29793 8.55868 4.4373 8.74829 4.61299 8.908C4.96782 9.23055 5.44907 9.41176 5.95087 9.41176H10.9963C11.3688 9.41237 11.7277 9.28454 12.0006 9.05405C12.2735 8.82356 12.4401 8.50757 12.4668 8.16981C12.4935 7.83206 12.3783 7.49767 12.1444 7.23411C11.9105 6.97055 11.5754 6.79743 11.2066 6.74966C11.2107 6.09943 10.9541 5.4701 10.4849 4.9793C10.0157 4.4885 9.36594 4.16983 8.65706 4.08287C7.94818 3.9959 7.22872 4.14659 6.63318 4.50676C6.03763 4.86693 5.60675 5.41194 5.4211 6.0399C5.02795 6.14413 4.68262 6.36151 4.43698 6.65938C4.19134 6.95725 4.05864 7.31954 4.05882 7.69181Z" stroke="black" stroke-width="0.65" stroke-linejoin="round"/>
<path d="M9.02942 1.76471H3.67648C3.37226 1.76471 3.0805 1.88556 2.86538 2.10067C2.65027 2.31579 2.52942 2.60755 2.52942 2.91176V10.9412H14.7647V7.5" stroke="black" stroke-width="0.65" stroke-linecap="round" stroke-linejoin="round"/>
<path d="M1 10.9412H16.2941V11.7059C16.2941 12.3143 16.0524 12.8978 15.6222 13.3281C15.192 13.7583 14.6084 14 14 14H3.29412C2.68568 14 2.10216 13.7583 1.67193 13.3281C1.2417 12.8978 1 12.3143 1 11.7059V10.9412Z" stroke="black" stroke-width="0.65" stroke-linejoin="round"/>
<path d="M13.6177 5.58824V1M13.6177 1L11.7059 2.91176M13.6177 1L15.5294 2.91176" stroke="black" stroke-width="0.65" stroke-linecap="round" stroke-linejoin="round"/>
</svg>
