<svg width="16" height="16" viewBox="0 0 16 16" fill="none" xmlns="http://www.w3.org/2000/svg">
<path d="M2.86668 4.73333V10.3333H5.20002" stroke="black" stroke-width="0.65" stroke-linecap="round" stroke-linejoin="round"/>
<path d="M2.86668 8.46667L4.53984 6.79352C4.62652 6.70679 4.72943 6.63798 4.84271 6.59104C4.95598 6.5441 5.0774 6.51994 5.20002 6.51994C5.32263 6.51994 5.44405 6.5441 5.55733 6.59104C5.6706 6.63798 5.77352 6.70679 5.8602 6.79352L6.13833 7.07165" stroke="black" stroke-width="0.65" stroke-linecap="round" stroke-linejoin="round"/>
<path d="M6.13333 13.1333H1.93333C1.6858 13.1333 1.4484 13.035 1.27337 12.86C1.09833 12.6849 1 12.4475 1 12.2V1.93333C1 1.6858 1.09833 1.4484 1.27337 1.27337C1.4484 1.09833 1.6858 1 1.93333 1H8.54693C8.7943 1.00005 9.03152 1.0983 9.20649 1.27316L10.9935 3.06018C11.1684 3.23515 11.2666 3.47237 11.2667 3.71973V5.2" stroke="black" stroke-width="0.65" stroke-linecap="round" stroke-linejoin="round"/>
<path d="M12.6432 12.6432C12.0306 13.2558 11.1997 13.6 10.3333 13.6C9.46696 13.6 8.63607 13.2558 8.02345 12.6432C7.41083 12.0306 7.06667 11.1997 7.06667 10.3333C7.06667 9.46696 7.41083 8.63607 8.02345 8.02345C8.63607 7.41083 9.46696 7.06667 10.3333 7.06667C11.1997 7.06667 12.0306 7.41083 12.6432 8.02345C13.2558 8.63607 13.6 9.46696 13.6 10.3333C13.6 11.1997 13.2558 12.0306 12.6432 12.6432ZM12.6432 12.6432L15 15" stroke="black" stroke-width="0.65" stroke-linecap="round" stroke-linejoin="round"/>
</svg>
