<svg width="16" height="15" viewBox="0 0 16 15" fill="none" xmlns="http://www.w3.org/2000/svg">
<path d="M10.6663 7.00324C10.7764 6.98266 10.89 6.99579 10.9929 7.04101C11.0958 7.08622 11.1835 7.16152 11.2451 7.25754C11.2979 7.33606 11.3679 7.40068 11.4495 7.44612C11.5311 7.49156 11.622 7.51655 11.7148 7.51906C11.8076 7.52156 11.8996 7.50151 11.9834 7.46053C12.0673 7.41956 12.1405 7.35881 12.1972 7.28325C12.5745 6.78039 13.355 7.13734 13.2442 7.76246C13.2275 7.85626 13.2326 7.95277 13.2591 8.04416C13.2855 8.13555 13.3326 8.21923 13.3964 8.2884C13.4603 8.35757 13.5391 8.41028 13.6265 8.44225C13.7139 8.47421 13.8073 8.48453 13.8993 8.47236C14.5121 8.39095 14.8182 9.21073 14.3099 9.57174C14.2335 9.62595 14.1706 9.69793 14.1264 9.78183C14.0822 9.86573 14.0579 9.95917 14.0555 10.0546C14.053 10.1499 14.0725 10.2446 14.1124 10.3307C14.1523 10.4169 14.2113 10.4922 14.2849 10.5504C14.774 10.9384 14.4268 11.7407 13.8187 11.6268C13.4249 11.5532 13.0771 11.893 13.1281 12.3003C13.2073 12.9302 12.4099 13.2449 12.0587 12.7223C12.006 12.6438 11.9359 12.5791 11.8543 12.5337C11.7727 12.4883 11.6818 12.4633 11.589 12.4608C11.4962 12.4583 11.4042 12.4783 11.3204 12.5193C11.2366 12.5603 11.1633 12.621 11.1067 12.6966C10.7293 13.1994 9.94877 12.8425 10.0596 12.2174C10.0763 12.1236 10.0712 12.027 10.0447 11.9357C10.0183 11.8443 9.97122 11.7606 9.90738 11.6914C9.84354 11.6223 9.76473 11.5695 9.67734 11.5376C9.58996 11.5056 9.49647 11.4953 9.40448 11.5075C9.15039 11.5411 8.94908 11.4198 8.8365 11.241" stroke="black" stroke-width="0.594259" stroke-linecap="round" stroke-linejoin="round"/>
<path d="M6.0989 1C3.28303 1 1 3.32271 1 6.1886C1 7.16682 1.26578 8.08215 1.72851 8.8625M8.32968 6.89688V8.20729M10.2418 6.89688V8.20729M8.32968 1.65521V2.96563M10.2418 1.65521V2.96563M7.37363 3.94844H6.0989M7.37363 5.91406H6.0989M12.4725 3.94844H11.1978M12.4725 5.91406H11.1978M8.01099 12.1385L7.92814 12.5625C7.83891 13.0257 7.79365 13.257 7.69231 13.4404C7.53615 13.7232 7.28331 13.9362 6.98293 14.038C6.78853 14.1042 6.55781 14.1042 6.0989 14.1042C5.64 14.1042 5.40928 14.1042 5.21488 14.0386C4.91439 13.9367 4.66153 13.7234 4.5055 13.4404C4.40416 13.257 4.3589 13.0257 4.26967 12.5625L4.18682 12.1385M9.92308 2.96563H8.64836C8.04732 2.96563 7.74713 2.96563 7.56038 3.1576C7.37363 3.34958 7.37363 3.65818 7.37363 4.27604V5.58646C7.37363 6.20432 7.37363 6.51292 7.56038 6.7049C7.74713 6.89688 8.04732 6.89688 8.64836 6.89688H9.92308C10.5241 6.89688 10.8243 6.89688 11.0111 6.7049C11.1978 6.51292 11.1978 6.20432 11.1978 5.58646V4.27604C11.1978 3.65818 11.1978 3.34958 11.0111 3.1576C10.8243 2.96563 10.5241 2.96563 9.92308 2.96563ZM3.1562 10.8923C3.09756 10.7115 3.06824 10.6204 3.07143 10.547C3.07504 10.4712 3.09995 10.398 3.14316 10.3364C3.18637 10.2747 3.24602 10.2273 3.3149 10.1998C3.38119 10.1729 3.47424 10.1729 3.65908 10.1729H8.53873C8.7242 10.1729 8.81662 10.1729 8.88291 10.1991C8.95188 10.2267 9.0116 10.2742 9.05482 10.336C9.09804 10.3977 9.12289 10.4711 9.12638 10.547C9.12957 10.6204 9.10025 10.7108 9.04161 10.8923C8.93326 11.2271 8.87908 11.3949 8.79559 11.5305C8.62095 11.814 8.3472 12.0177 8.03075 12.0999C7.87906 12.1385 7.70825 12.1385 7.36598 12.1385H4.83183C4.48956 12.1385 4.31811 12.1385 4.16706 12.0992C3.85071 12.0173 3.57698 11.8137 3.40222 11.5305C3.31873 11.3949 3.26455 11.2271 3.1562 10.8923Z" stroke="black" stroke-width="0.594259" stroke-linecap="round" stroke-linejoin="round"/>
</svg>
