<svg width="373" height="274" viewBox="0 0 373 274" fill="none" xmlns="http://www.w3.org/2000/svg">
<path fill-rule="evenodd" clip-rule="evenodd" d="M186.743 0C174.231 0 164.092 10.1413 164.092 22.6513V41.0538H116.091C51.9763 41.0538 0 93.029 0 157.146C0 221.261 51.9763 273.237 116.091 273.237H256.413C320.528 273.237 372.504 221.261 372.504 157.146C372.504 93.029 320.528 41.0538 256.413 41.0538H209.395V22.6513C209.395 10.1413 199.252 0 186.743 0ZM45.0422 157.146C45.0422 117.906 76.8503 86.0949 116.091 86.0949H256.413C295.654 86.0949 327.462 117.906 327.462 157.146C327.462 196.384 295.654 228.195 256.413 228.195H116.091C76.8503 228.195 45.0422 196.384 45.0422 157.146ZM161.866 157.88C161.866 170.76 150.949 181.202 137.479 181.202C124.01 181.202 113.095 170.76 113.095 157.88C113.095 145 124.01 134.557 137.479 134.557C150.949 134.557 161.866 145 161.866 157.88ZM244.776 181.202C258.245 181.202 269.163 170.76 269.163 157.88C269.163 145 258.245 134.557 244.776 134.557C231.31 134.557 220.392 145 220.392 157.88C220.392 170.76 231.31 181.202 244.776 181.202Z" fill="white"/>
</svg>
