<svg width="1543" height="275" viewBox="0 0 1543 275" fill="none" xmlns="http://www.w3.org/2000/svg">
<path d="M1139.61 52.1724V97.1431C1155.66 79.4795 1179.75 67.8374 1206.24 67.8374C1266.06 67.8376 1309.01 111.594 1309.01 171.41C1309.01 228.011 1264.05 274.176 1204.64 274.176C1145.23 274.176 1099.86 229.617 1099.86 171.41V52.1724H1139.61ZM1438.6 67.8374C1498.01 67.8376 1542.98 114.405 1542.98 170.605C1542.98 227.61 1497.61 274.176 1438.6 274.176C1379.19 274.176 1333.42 227.61 1333.42 170.605C1333.42 114.004 1379.59 67.8374 1438.6 67.8374ZM658.103 0.395996C715.108 0.395996 759.667 26.4896 759.667 81.8882C759.667 120.025 736.384 147.723 698.648 155.753C720.327 166.19 731.969 188.271 747.624 219.983L772.113 269.36H727.954L705.474 223.997C689.417 192.284 676.169 171.41 638.433 171.41H605.113L604.711 269.36H564.568V0.395996H658.103ZM1204.64 105.573C1167.7 105.573 1139.61 135.28 1139.61 171.008C1139.61 207.136 1167.7 236.843 1204.64 236.843C1241.17 236.843 1269.27 207.136 1269.27 171.008C1269.27 135.28 1241.17 105.573 1204.64 105.573ZM1438.6 105.171C1401.67 105.171 1373.17 134.879 1373.17 171.008C1373.17 206.735 1401.67 236.443 1438.6 236.443C1475.13 236.443 1503.23 206.735 1503.23 171.008C1503.23 134.879 1475.13 105.172 1438.6 105.171ZM605.113 134.878H657.702C692.226 134.878 717.516 118.018 717.516 85.5015C717.516 52.1821 691.021 38.1314 658.504 38.1313H605.516L605.113 134.878Z" fill="white"/>
<path fill-rule="evenodd" clip-rule="evenodd" d="M925.697 52.1731C915.572 52.1731 907.367 60.3794 907.367 70.5026V85.3939H868.525C816.643 85.3939 774.584 127.452 774.584 179.336C774.584 231.218 816.643 273.277 868.525 273.277H982.074C1033.96 273.277 1076.01 231.218 1076.01 179.336C1076.01 127.452 1033.96 85.3939 982.074 85.3939H944.026V70.5026C944.026 60.3794 935.819 52.1731 925.697 52.1731ZM811.032 179.336C811.032 147.583 836.771 121.841 868.525 121.841H982.074C1013.83 121.841 1039.57 147.583 1039.57 179.336C1039.57 211.088 1013.83 236.829 982.074 236.829H868.525C836.771 236.829 811.032 211.088 811.032 179.336ZM905.567 179.93C905.567 190.352 896.732 198.802 885.833 198.802C874.933 198.802 866.101 190.352 866.101 179.93C866.101 169.507 874.933 161.057 885.833 161.057C896.732 161.057 905.567 169.507 905.567 179.93ZM972.657 198.802C983.556 198.802 992.391 190.352 992.391 179.93C992.391 169.507 983.556 161.057 972.657 161.057C961.76 161.057 952.925 169.507 952.925 179.93C952.925 190.352 961.76 198.802 972.657 198.802Z" fill="white"/>
<path d="M325.262 61.1008C317.241 61.4711 309.973 64.5169 304.612 69.7624C298.967 75.2899 295.889 82.6201 295.527 91.4265C295.502 92.1413 295.484 121.973 295.484 179.99V267.477H316.377H337.271L337.28 192.692L337.291 117.906L377.135 186.662C399.05 224.483 417.148 255.698 417.352 256.039C421.222 262.443 426.948 266.982 434.147 269.346C437.922 270.584 441.785 271.218 446.391 271.351C450.173 271.461 453.452 271.078 456.726 270.144C466.773 267.268 474.254 259.82 477.104 249.862C477.727 247.695 478.091 245.653 478.353 242.947C478.424 242.203 478.426 236.97 478.44 153.719L478.454 65.2884H457.737H437.02V139.635C437.02 184.737 437.001 213.966 436.981 213.939C436.958 213.916 418.899 182.973 396.846 145.171C373.68 105.453 356.523 76.092 356.207 75.6072C354.072 72.3585 351.657 69.7578 348.752 67.5805C343.608 63.7192 337.165 61.5638 329.513 61.1494C328.282 61.0831 326.202 61.0612 325.262 61.1008Z" fill="white"/>
<path d="M0.0620117 169.951V271.045H21.6737H43.2898L43.3162 266.43C43.3338 263.887 43.3957 250.364 43.4573 236.377C43.519 222.387 43.5808 209.927 43.5939 208.683L43.6205 206.417L53.3706 206.44C63.0942 206.461 63.6099 206.465 65.7611 206.626C74.0522 207.233 80.5406 209.437 85.8741 213.465C87.2492 214.5 88.0913 215.243 89.4531 216.604C93.1161 220.272 96.2192 224.758 99.9704 231.829C100.345 232.539 104.92 241.649 110.139 252.078L119.625 271.045H143.348H167.071L166.882 270.634C166.128 269.035 146.901 229.771 145.975 227.936C142.497 221.069 140.443 217.19 138.235 213.325C132.32 202.971 127.105 196.473 121.058 191.93C119.779 190.968 118.087 189.852 116.945 189.217C116.782 189.125 116.654 189.036 116.667 189.025C116.68 189.015 117.192 188.862 117.805 188.686C126.083 186.3 133.452 182.378 139.615 177.074C141.51 175.443 143.59 173.362 145.217 171.472C153.032 162.369 157.581 150.902 158.502 137.95C158.714 134.923 158.714 131.298 158.498 128.077C158.357 125.96 158.083 123.577 157.762 121.641L157.577 120.539L140.972 120.525L124.363 120.518V99.3911V78.2591L124.112 78.1489C123.971 78.0829 123.447 77.8448 122.944 77.6111C114.225 73.5823 103.682 70.8274 92.3403 69.6064C89.4224 69.2936 87.6241 69.1612 83.2603 68.9365C82.4976 68.8968 72.0864 68.8792 41.1565 68.8705L0.0620117 68.8572V169.951ZM81.1004 109.454C91.3177 109.885 99.3488 112.522 105.013 117.299C105.74 117.918 107.045 119.208 107.658 119.922C111.607 124.537 113.608 130.487 113.608 137.62C113.608 141.698 112.921 145.426 111.532 148.908C110.893 150.508 109.787 152.567 108.804 153.981C103.73 161.281 94.8881 165.904 83.7451 167.087C81.0871 167.364 82.665 167.345 62.226 167.359L43.6115 167.373V167.011C43.6028 165.407 43.8849 110.212 43.9025 109.86L43.9289 109.41H61.9834C73.4219 109.41 80.4304 109.427 81.1004 109.454Z" fill="white"/>
<path d="M135.468 89.1335V109.41H165.221H194.974V190.228V271.045H216.903H238.832V190.228V109.41H261.595H284.36L284.378 100.074C284.397 90.4555 284.401 90.3891 284.584 88.2958C285.105 82.5656 286.601 77.2498 289.068 72.3746C289.636 71.2462 290.443 69.8314 291.011 68.9541L291.073 68.8572H213.271H135.468V89.1335Z" fill="white"/>
</svg>
