<svg width="20" height="20" viewBox="0 0 20 20" fill="none" xmlns="http://www.w3.org/2000/svg">
<path d="M17.5 4.16675H18.3333C18.3333 3.70651 17.9602 3.33341 17.5 3.33341V4.16675ZM17.5 15.8334V16.6667C17.9602 16.6667 18.3333 16.2936 18.3333 15.8334H17.5ZM2.5 15.8334H1.66667C1.66667 16.2936 2.03976 16.6667 2.5 16.6667V15.8334ZM2.5 4.16675V3.33341C2.03976 3.33341 1.66667 3.70651 1.66667 4.16675H2.5ZM10 10.8334L9.4723 11.4784C9.77927 11.7295 10.2207 11.7295 10.5277 11.4784L10 10.8334ZM16.6667 4.16675V15.8334H18.3333V4.16675H16.6667ZM17.5 15.0001H2.5V16.6667H17.5V15.0001ZM3.33333 15.8334V4.16675H1.66667V15.8334H3.33333ZM2.5 5.00008H17.5V3.33341H2.5V5.00008ZM16.9723 4.05209L9.4723 10.1885L10.5277 11.4784L18.0277 5.34202L16.9723 4.05209ZM10.5277 10.1885L3.0277 4.05209L1.9723 5.34202L9.4723 11.4784L10.5277 10.1885Z" fill="#8F8F8F"/>
</svg>
