<svg width="24" height="24" viewBox="0 0 24 24" fill="none" xmlns="http://www.w3.org/2000/svg">
<path fill-rule="evenodd" clip-rule="evenodd" d="M17.5037 11.0651C17.8215 11.383 18 11.8141 18 12.2636C18 12.7131 17.8215 13.1441 17.5037 13.462L7.9144 23.0513C7.75803 23.2132 7.57098 23.3424 7.36417 23.4312C7.15736 23.52 6.93493 23.5668 6.70985 23.5688C6.48477 23.5707 6.26156 23.5278 6.05324 23.4426C5.84491 23.3574 5.65565 23.2315 5.49649 23.0723C5.33733 22.9132 5.21146 22.7239 5.12623 22.5156C5.041 22.3073 4.99811 22.0841 5.00006 21.859C5.00202 21.6339 5.04878 21.4115 5.13762 21.2047C5.22646 20.9978 5.3556 20.8108 5.5175 20.6544L13.9083 12.2636L5.5175 3.87274C5.20872 3.55304 5.03786 3.12484 5.04172 2.68039C5.04559 2.23593 5.22386 1.81078 5.53815 1.49649C5.85244 1.1822 6.2776 1.00393 6.72205 1.00006C7.1665 0.996202 7.5947 1.16706 7.9144 1.47584L17.5037 11.0651Z" fill="white"/>
</svg>
