<svg width="159" height="159" viewBox="0 0 159 159" fill="none" xmlns="http://www.w3.org/2000/svg">
<path d="M60.3344 36.093C64.2962 24.4993 80.3154 24.1481 85.0126 35.0396L85.4101 36.0996L90.7564 51.7346C91.9817 55.3203 93.9616 58.6015 96.5628 61.3569C99.1639 64.1124 102.326 66.2779 105.835 67.7075L107.273 68.2441L122.908 73.5839C134.501 77.5456 134.852 93.5649 123.968 98.262L122.908 98.6595L107.273 104.006C103.686 105.23 100.403 107.21 97.6466 109.811C94.8899 112.412 92.7234 115.575 91.2931 119.084L90.7564 120.515L85.4167 136.157C81.4549 147.751 65.4357 148.102 60.7452 137.217L60.3344 136.157L54.9947 120.522C53.7703 116.935 51.7907 113.653 49.1895 110.896C46.5883 108.139 43.4261 105.973 39.9162 104.542L38.4852 104.006L22.8502 98.6661C11.2498 94.7044 10.8987 78.6851 21.7902 73.9946L22.8502 73.5839L38.4852 68.2441C42.0709 67.0189 45.3521 65.0389 48.1075 62.4378C50.8629 59.8366 53.0285 56.6748 54.4581 53.1656L54.9947 51.7346L60.3344 36.093ZM125.876 13.25C127.115 13.25 128.33 13.5977 129.381 14.2535C130.433 14.9093 131.279 15.847 131.825 16.96L132.143 17.7351L134.462 24.5324L141.265 26.8511C142.507 27.2731 143.596 28.0543 144.394 29.0958C145.192 30.1372 145.662 31.392 145.746 32.7011C145.829 34.0103 145.523 35.3148 144.864 36.4493C144.206 37.5839 143.225 38.4975 142.047 39.0743L141.265 39.3923L134.468 41.711L132.149 48.5149C131.727 49.7566 130.945 50.8449 129.903 51.6418C128.861 52.4388 127.606 52.9085 126.297 52.9915C124.988 53.0745 123.684 52.7671 122.55 52.1081C121.416 51.4492 120.502 50.4684 119.926 49.29L119.608 48.5149L117.29 41.7176L110.486 39.3989C109.244 38.9769 108.155 38.1957 107.357 37.1542C106.56 36.1128 106.089 34.858 106.005 33.5489C105.922 32.2397 106.228 30.9352 106.887 29.8007C107.545 28.6661 108.526 27.7525 109.704 27.1758L110.486 26.8578L117.283 24.539L119.602 17.7351C120.048 16.4262 120.894 15.2899 122.019 14.4856C123.144 13.6812 124.492 13.2492 125.876 13.25Z" fill="url(#paint0_linear_514_5)"/>
<defs>
<linearGradient id="paint0_linear_514_5" x1="79.8184" y1="13.25" x2="79.8184" y2="145.125" gradientUnits="userSpaceOnUse">
<stop stop-color="#43FF99"/>
<stop offset="1" stop-color="#28995C"/>
</linearGradient>
</defs>
</svg>
