<svg width="159" height="159" viewBox="0 0 159 159" fill="none" xmlns="http://www.w3.org/2000/svg">
<path d="M93.0001 79.4998C92.9889 82.1615 92.1911 84.7606 90.707 86.9702C89.2229 89.1799 87.1186 90.9014 84.6588 91.9186C82.199 92.9357 79.4934 93.2029 76.8822 92.6867C74.2709 92.1704 71.8705 90.8938 69.9828 89.0172C68.1062 87.1295 66.8296 84.7291 66.3133 82.1178C65.7971 79.5066 66.0643 76.801 67.0814 74.3412C68.0985 71.8814 69.8201 69.7771 72.0298 68.293C74.2394 66.8089 76.8385 66.0111 79.5002 65.9999V12.0003C88.3719 11.9736 97.1613 13.7012 105.363 17.0839C113.564 20.4666 121.016 25.4376 127.289 31.7108C133.562 37.9841 138.533 45.4358 141.916 53.6372C145.299 61.8387 147.026 70.6281 147 79.4998H93.0001ZM146.325 89.0172C144.557 101.43 139.367 113.105 131.336 122.734C123.306 132.362 112.752 139.564 100.859 143.531C88.965 147.499 76.2013 148.075 63.9985 145.196C51.7956 142.317 40.6358 136.096 31.7701 127.23C22.9045 118.364 16.6833 107.204 13.804 95.0016C10.9247 82.7987 11.5011 70.035 15.4685 58.1413C19.436 46.2476 26.6377 35.694 36.2663 27.6635C45.895 19.633 57.5701 14.443 69.9828 12.6753V26.3777C60.2757 28.1239 51.2323 32.4953 43.8339 39.0175C36.4355 45.5397 30.9646 53.9637 28.015 63.3752C25.0655 72.7866 24.7498 82.8262 27.1023 92.4044C29.4549 101.983 34.3857 110.734 41.3598 117.708C48.3339 124.682 57.0849 129.613 66.6631 131.965C76.2413 134.318 86.2809 134.002 95.6923 131.052C105.104 128.103 113.528 122.632 120.05 115.234C126.572 107.835 130.944 98.7917 132.69 89.0847H146.325V89.0172ZM118.852 89.0172C117.151 96.0002 113.621 102.405 108.627 107.573C103.632 112.741 97.3517 116.487 90.4309 118.426C83.5101 120.365 76.1979 120.428 69.245 118.607C62.2921 116.786 55.9489 113.148 50.8667 108.066C45.7845 102.984 42.1463 96.6404 40.3256 89.6875C38.5049 82.7346 38.5673 75.4224 40.5064 68.5016C42.4455 61.5808 46.1915 55.3006 51.3597 50.3059C56.528 45.3112 62.9323 41.7818 69.9153 40.0801V54.255C65.6902 55.8465 61.933 58.4748 58.9891 61.898C56.0453 65.3212 54.0092 69.4296 53.0683 73.8455C52.1273 78.2613 52.3116 82.8428 53.6042 87.1688C54.8967 91.4947 57.2561 95.4264 60.4654 98.6021C63.6592 101.776 67.5961 104.101 71.9177 105.365C76.2393 106.629 80.8084 106.792 85.2091 105.839C89.6098 104.886 93.7025 102.848 97.1145 99.9104C100.527 96.9724 103.15 93.2277 104.745 89.0172H118.92H118.852Z" fill="url(#paint0_linear_514_11)"/>
<defs>
<linearGradient id="paint0_linear_514_11" x1="79.5" y1="12" x2="79.5" y2="147" gradientUnits="userSpaceOnUse">
<stop stop-color="#43FF99"/>
<stop offset="1" stop-color="#28995C"/>
</linearGradient>
</defs>
</svg>
