<?xml version="1.0" standalone="no"?>
<!DOCTYPE svg PUBLIC "-//W3C//DTD SVG 1.1//EN" "http://www.w3.org/Graphics/SVG/1.1/DTD/svg11.dtd">
<svg xmlns="http://www.w3.org/2000/svg" width="132" height="97" viewBox="0 0 132 97" fill="none">
<path fill-rule="evenodd" clip-rule="evenodd" d="M66 0C61.5817 0 58 3.58172 58 8V14.4994H41.0472C18.4028 14.4994 0.0458984 32.8563 0.0458984 55.5007C0.0458984 78.1451 18.4028 96.502 41.0472 96.502H90.6062C113.251 96.502 131.607 78.1451 131.607 55.5007C131.607 32.8563 113.251 14.4994 90.6062 14.4994H74V8C74 3.58172 70.4183 0 66 0ZM15.9539 55.5007C15.9539 41.6421 27.1886 30.4074 41.0472 30.4074H90.6062C104.465 30.4074 115.699 41.6421 115.699 55.5007C115.699 69.3593 104.465 80.5939 90.6062 80.5939H41.0472C27.1886 80.5939 15.9539 69.3593 15.9539 55.5007ZM57.2138 55.7601C57.2138 60.3091 53.3578 63.9968 48.6013 63.9968C43.8447 63.9968 39.9888 60.3091 39.9888 55.7601C39.9888 51.2111 43.8447 47.5233 48.6013 47.5233C53.3578 47.5233 57.2138 51.2111 57.2138 55.7601ZM86.4966 63.9968C91.2531 63.9968 95.1091 60.3091 95.1091 55.7601C95.1091 51.2111 91.2531 47.5233 86.4966 47.5233C81.74 47.5233 77.8841 51.2111 77.8841 55.7601C77.8841 60.3091 81.74 63.9968 86.4966 63.9968Z" fill="#03AF3E"/>
</svg>