<svg width="256" height="256" viewBox="0 0 256 256" fill="none" xmlns="http://www.w3.org/2000/svg">
<rect width="255.998" height="255.998" fill="#86F79F"/>
<path fill-rule="evenodd" clip-rule="evenodd" d="M127.799 64C121.983 64 117.27 68.7137 117.27 74.5284V83.0819H94.9594C65.1587 83.0819 41 107.24 41 137.042C41 166.843 65.1587 191.001 94.9594 191.001H160.182C189.982 191.001 214.141 166.843 214.141 137.042C214.141 107.24 189.982 83.0819 160.182 83.0819H138.327V74.5284C138.327 68.7137 133.613 64 127.799 64ZM61.9358 137.042C61.9358 118.803 76.7202 104.017 94.9594 104.017H160.182C178.421 104.017 193.205 118.803 193.205 137.042C193.205 155.28 178.421 170.066 160.182 170.066H94.9594C76.7202 170.066 61.9358 155.28 61.9358 137.042ZM116.236 137.383C116.236 143.37 111.161 148.223 104.901 148.223C98.6404 148.223 93.567 143.37 93.567 137.383C93.567 131.396 98.6404 126.543 104.901 126.543C111.161 126.543 116.236 131.396 116.236 137.383ZM154.773 148.223C161.033 148.223 166.108 143.37 166.108 137.383C166.108 131.396 161.033 126.543 154.773 126.543C148.513 126.543 143.439 131.396 143.439 137.383C143.439 143.37 148.513 148.223 154.773 148.223Z" fill="black"/>
</svg>
