<svg width="15" height="15" viewBox="0 0 15 15" fill="none" xmlns="http://www.w3.org/2000/svg">
<path d="M6.72216 9.44548C5.95652 9.22289 5.28382 8.75776 4.80522 8.12003C4.32662 7.4823 4.06798 6.70644 4.06818 5.90909V1.84375C4.06818 1.37776 4.44594 1 4.91193 1H10.5881C11.0541 1 11.4318 1.37776 11.4318 1.84375V6.52273M4.06818 2.22727H1.84375C1.37776 2.22727 1 2.60503 1 3.07102V4.68182C1 6.22143 2.09902 7.13636 3.45455 7.13636H4.06818M12.68 7.0658C13.728 6.82341 14.5 5.9723 14.5 4.68182V3.07102C14.5 2.60503 14.1222 2.22727 13.6563 2.22727H11.4318M6.52273 12.0455H4.29829C3.8323 12.0455 3.45455 12.4232 3.45455 12.8892V13.6562C3.45455 14.1222 3.83231 14.5 4.2983 14.5H10.5114M10.5114 14.5C9.45351 14.5 8.43899 14.0798 7.69097 13.3318C6.94296 12.5837 6.52273 11.5692 6.52273 10.5114C6.52273 9.45351 6.94296 8.43899 7.69097 7.69097C8.43899 6.94296 9.45351 6.52273 10.5114 6.52273C11.5692 6.52273 12.5837 6.94296 13.3318 7.69097C14.0798 8.43899 14.5 9.45351 14.5 10.5114C14.5 11.5692 14.0798 12.5837 13.3318 13.3318C12.5837 14.0798 11.5692 14.5 10.5114 14.5ZM12.6591 8.97727L9.89773 11.7386L8.36364 10.2045M6.64914 9.85109C6.24217 10.0553 5.90003 10.3687 5.66097 10.7562C5.42191 11.1437 5.29536 11.5901 5.29545 12.0455" stroke="black" stroke-width="0.65"/>
</svg>
