<svg width="15" height="14" viewBox="0 0 15 14" fill="none" xmlns="http://www.w3.org/2000/svg">
<path d="M2.5 4.08833C2.91421 4.08833 3.25 3.75255 3.25 3.33833C3.25 2.92412 2.91421 2.58833 2.5 2.58833C2.08579 2.58833 1.75 2.92412 1.75 3.33833C1.75 3.75255 2.08579 4.08833 2.5 4.08833Z" stroke="black" stroke-width="0.65" stroke-miterlimit="10"/>
<path d="M1 6.58833C1 6.58833 1.25 5.51058 1.75 5.26058C2.25 5.01058 2.75 5.01058 3.25 5.26058C3.75 5.51058 4 6.58833 4 6.58833" stroke="black" stroke-width="0.65" stroke-linecap="round" stroke-linejoin="round"/>
<path d="M12.998 5.91933C13.4122 5.91933 13.748 5.58355 13.748 5.16933C13.748 4.75512 13.4122 4.41933 12.998 4.41933C12.5838 4.41933 12.248 4.75512 12.248 5.16933C12.248 5.58355 12.5838 5.91933 12.998 5.91933Z" stroke="black" stroke-width="0.65" stroke-miterlimit="10"/>
<path d="M11.498 8.41933C11.498 8.41933 11.748 7.34158 12.248 7.09158C12.748 6.84158 13.248 6.84158 13.748 7.09158C14.248 7.34158 14.498 8.41908 14.498 8.41908" stroke="black" stroke-width="0.65" stroke-linecap="round" stroke-linejoin="round"/>
<path d="M6.49825 11.0903C6.91246 11.0903 7.24825 10.7545 7.24825 10.3403C7.24825 9.92612 6.91246 9.59033 6.49825 9.59033C6.08403 9.59033 5.74825 9.92612 5.74825 10.3403C5.74825 10.7545 6.08403 11.0903 6.49825 11.0903Z" stroke="black" stroke-width="0.65" stroke-miterlimit="10"/>
<path d="M4.99825 13.5903C4.99825 13.5903 5.24825 12.5126 5.74825 12.2626C6.24825 12.0126 6.74825 12.0126 7.24825 12.2626C7.74825 12.5126 7.99825 13.5901 7.99825 13.5901M12.138 3.62233C11.9064 3.34915 11.6617 3.07376 11.4023 2.81032C9.57669 0.956714 6.56792 0.855381 4.429 2.33649C4.25615 2.45618 4.11136 2.54771 4 2.58833M8.85825 12.9816C10.9115 12.5806 12.5738 11.0873 13.215 9.13108M2.02175 6.83533C2.00716 7.0026 1.9999 7.17043 2 7.33834C2 9.33184 3.0145 11.0883 4.5555 12.1201" stroke="black" stroke-width="0.65" stroke-linecap="round" stroke-linejoin="round"/>
</svg>
